M48
; DRILL file {KiCad 7.0.1} date Sun May 14 00:25:38 2023
; FORMAT={-:-/ absolute / inch / decimal}
; #@! TF.CreationDate,2023-05-14T00:25:38+09:00
; #@! TF.GenerationSoftware,Kicad,Pcbnew,7.0.1
; #@! TF.FileFunction,Plated,1,2,PTH
FMAT,2
INCH
; #@! TA.AperFunction,Plated,PTH,ViaDrill
T1C0.0157
; #@! TA.AperFunction,Plated,PTH,ComponentDrill
T2C0.0295
; #@! TA.AperFunction,Plated,PTH,ComponentDrill
T3C0.0315
; #@! TA.AperFunction,Plated,PTH,ComponentDrill
T4C0.0394
%
G90
G05
T1
X4.28Y-3.38
X4.76Y-3.6
X4.865Y-3.495
X5.11Y-2.64
X5.19Y-2.895
X5.24Y-3.625
X5.27Y-3.39
X5.43Y-2.93
X5.56Y-2.665
X5.56Y-2.93
X5.62Y-4.07
X5.86Y-3.31
X6.08Y-3.97
X6.24Y-3.31
X6.69Y-2.72
X6.69Y-3.31
X6.69Y-3.86
T2
X4.6479Y-2.575
X4.6479Y-2.675
X4.6479Y-2.775
X4.6479Y-2.875
X4.6479Y-2.975
X4.6479Y-3.075
X4.6479Y-3.175
X4.6479Y-3.275
X4.6479Y-3.375
X4.9479Y-2.575
X4.9479Y-2.675
X4.9479Y-2.775
X4.9479Y-2.875
X4.9479Y-2.975
X4.9479Y-3.075
X4.9479Y-3.175
X4.9479Y-3.275
X4.9479Y-3.375
T3
X4.79Y-3.7335
X4.79Y-4.0335
X4.89Y-3.7335
X4.89Y-4.0335
X4.99Y-3.7335
X4.99Y-4.0335
X5.09Y-3.7335
X5.09Y-4.0335
X5.19Y-3.7335
X5.19Y-4.0335
X5.29Y-3.7335
X5.29Y-4.0335
X5.39Y-3.7335
X5.39Y-4.0335
X5.4225Y-3.0975
X5.4225Y-3.4975
X5.49Y-3.7335
X5.49Y-4.0335
X5.6225Y-3.0975
X5.6225Y-3.4975
X5.7Y-2.64
X5.7Y-2.94
X5.7225Y-3.0975
X5.7225Y-3.4975
X5.785Y-3.64
X5.785Y-3.94
X5.8225Y-3.4975
X5.87Y-2.64
X5.87Y-2.94
X5.9225Y-3.0975
X5.94Y-3.64
X5.94Y-3.94
X6.02Y-2.64
X6.02Y-2.94
X6.0225Y-3.0975
X6.1225Y-3.0975
X6.1225Y-3.4975
X6.17Y-2.64
X6.17Y-2.94
X6.2225Y-3.0975
X6.24Y-3.64
X6.24Y-3.94
X6.31Y-2.64
X6.31Y-2.94
X6.3225Y-3.0975
X6.4225Y-3.0975
T4
X4.3224Y-2.6
X4.3224Y-2.7
X4.3224Y-2.8
X4.3224Y-2.9
X4.3224Y-3.0
X4.3224Y-3.1
X4.3224Y-3.5
X4.3224Y-3.6
X4.3224Y-3.7
X4.3224Y-3.8
X4.3224Y-3.9
X4.3224Y-4.0
X4.4224Y-2.6
X4.4224Y-2.7
X4.4224Y-2.8
X4.4224Y-2.9
X4.4224Y-3.0
X4.4224Y-3.1
X4.4224Y-3.5
X4.4224Y-3.6
X4.4224Y-3.7
X4.4224Y-3.8
X4.4224Y-3.9
X4.4224Y-4.0
T0
M30
