%TF.GenerationSoftware,KiCad,Pcbnew,7.0.1*%
%TF.CreationDate,2023-05-14T00:25:17+09:00*%
%TF.ProjectId,Pmod_7Seg,506d6f64-5f37-4536-9567-2e6b69636164,rev?*%
%TF.SameCoordinates,Original*%
%TF.FileFunction,Legend,Top*%
%TF.FilePolarity,Positive*%
%FSLAX46Y46*%
G04 Gerber Fmt 4.6, Leading zero omitted, Abs format (unit mm)*
G04 Created by KiCad (PCBNEW 7.0.1) date 2023-05-14 00:25:17*
%MOMM*%
%LPD*%
G01*
G04 APERTURE LIST*
%ADD10C,0.150000*%
%ADD11C,0.125000*%
%ADD12C,0.120000*%
G04 APERTURE END LIST*
D10*
X144383095Y-103763619D02*
X144383095Y-102763619D01*
X144383095Y-102763619D02*
X144764047Y-102763619D01*
X144764047Y-102763619D02*
X144859285Y-102811238D01*
X144859285Y-102811238D02*
X144906904Y-102858857D01*
X144906904Y-102858857D02*
X144954523Y-102954095D01*
X144954523Y-102954095D02*
X144954523Y-103096952D01*
X144954523Y-103096952D02*
X144906904Y-103192190D01*
X144906904Y-103192190D02*
X144859285Y-103239809D01*
X144859285Y-103239809D02*
X144764047Y-103287428D01*
X144764047Y-103287428D02*
X144383095Y-103287428D01*
X145383095Y-103763619D02*
X145383095Y-103096952D01*
X145383095Y-103192190D02*
X145430714Y-103144571D01*
X145430714Y-103144571D02*
X145525952Y-103096952D01*
X145525952Y-103096952D02*
X145668809Y-103096952D01*
X145668809Y-103096952D02*
X145764047Y-103144571D01*
X145764047Y-103144571D02*
X145811666Y-103239809D01*
X145811666Y-103239809D02*
X145811666Y-103763619D01*
X145811666Y-103239809D02*
X145859285Y-103144571D01*
X145859285Y-103144571D02*
X145954523Y-103096952D01*
X145954523Y-103096952D02*
X146097380Y-103096952D01*
X146097380Y-103096952D02*
X146192619Y-103144571D01*
X146192619Y-103144571D02*
X146240238Y-103239809D01*
X146240238Y-103239809D02*
X146240238Y-103763619D01*
X146859285Y-103763619D02*
X146764047Y-103716000D01*
X146764047Y-103716000D02*
X146716428Y-103668380D01*
X146716428Y-103668380D02*
X146668809Y-103573142D01*
X146668809Y-103573142D02*
X146668809Y-103287428D01*
X146668809Y-103287428D02*
X146716428Y-103192190D01*
X146716428Y-103192190D02*
X146764047Y-103144571D01*
X146764047Y-103144571D02*
X146859285Y-103096952D01*
X146859285Y-103096952D02*
X147002142Y-103096952D01*
X147002142Y-103096952D02*
X147097380Y-103144571D01*
X147097380Y-103144571D02*
X147144999Y-103192190D01*
X147144999Y-103192190D02*
X147192618Y-103287428D01*
X147192618Y-103287428D02*
X147192618Y-103573142D01*
X147192618Y-103573142D02*
X147144999Y-103668380D01*
X147144999Y-103668380D02*
X147097380Y-103716000D01*
X147097380Y-103716000D02*
X147002142Y-103763619D01*
X147002142Y-103763619D02*
X146859285Y-103763619D01*
X148049761Y-103763619D02*
X148049761Y-102763619D01*
X148049761Y-103716000D02*
X147954523Y-103763619D01*
X147954523Y-103763619D02*
X147764047Y-103763619D01*
X147764047Y-103763619D02*
X147668809Y-103716000D01*
X147668809Y-103716000D02*
X147621190Y-103668380D01*
X147621190Y-103668380D02*
X147573571Y-103573142D01*
X147573571Y-103573142D02*
X147573571Y-103287428D01*
X147573571Y-103287428D02*
X147621190Y-103192190D01*
X147621190Y-103192190D02*
X147668809Y-103144571D01*
X147668809Y-103144571D02*
X147764047Y-103096952D01*
X147764047Y-103096952D02*
X147954523Y-103096952D01*
X147954523Y-103096952D02*
X148049761Y-103144571D01*
X148287857Y-103858857D02*
X149049761Y-103858857D01*
X149716428Y-102763619D02*
X149525952Y-102763619D01*
X149525952Y-102763619D02*
X149430714Y-102811238D01*
X149430714Y-102811238D02*
X149383095Y-102858857D01*
X149383095Y-102858857D02*
X149287857Y-103001714D01*
X149287857Y-103001714D02*
X149240238Y-103192190D01*
X149240238Y-103192190D02*
X149240238Y-103573142D01*
X149240238Y-103573142D02*
X149287857Y-103668380D01*
X149287857Y-103668380D02*
X149335476Y-103716000D01*
X149335476Y-103716000D02*
X149430714Y-103763619D01*
X149430714Y-103763619D02*
X149621190Y-103763619D01*
X149621190Y-103763619D02*
X149716428Y-103716000D01*
X149716428Y-103716000D02*
X149764047Y-103668380D01*
X149764047Y-103668380D02*
X149811666Y-103573142D01*
X149811666Y-103573142D02*
X149811666Y-103335047D01*
X149811666Y-103335047D02*
X149764047Y-103239809D01*
X149764047Y-103239809D02*
X149716428Y-103192190D01*
X149716428Y-103192190D02*
X149621190Y-103144571D01*
X149621190Y-103144571D02*
X149430714Y-103144571D01*
X149430714Y-103144571D02*
X149335476Y-103192190D01*
X149335476Y-103192190D02*
X149287857Y-103239809D01*
X149287857Y-103239809D02*
X149240238Y-103335047D01*
X150668809Y-103096952D02*
X150668809Y-103906476D01*
X150668809Y-103906476D02*
X150621190Y-104001714D01*
X150621190Y-104001714D02*
X150573571Y-104049333D01*
X150573571Y-104049333D02*
X150478333Y-104096952D01*
X150478333Y-104096952D02*
X150335476Y-104096952D01*
X150335476Y-104096952D02*
X150240238Y-104049333D01*
X150668809Y-103716000D02*
X150573571Y-103763619D01*
X150573571Y-103763619D02*
X150383095Y-103763619D01*
X150383095Y-103763619D02*
X150287857Y-103716000D01*
X150287857Y-103716000D02*
X150240238Y-103668380D01*
X150240238Y-103668380D02*
X150192619Y-103573142D01*
X150192619Y-103573142D02*
X150192619Y-103287428D01*
X150192619Y-103287428D02*
X150240238Y-103192190D01*
X150240238Y-103192190D02*
X150287857Y-103144571D01*
X150287857Y-103144571D02*
X150383095Y-103096952D01*
X150383095Y-103096952D02*
X150573571Y-103096952D01*
X150573571Y-103096952D02*
X150668809Y-103144571D01*
X151145000Y-103763619D02*
X151145000Y-103096952D01*
X151145000Y-102763619D02*
X151097381Y-102811238D01*
X151097381Y-102811238D02*
X151145000Y-102858857D01*
X151145000Y-102858857D02*
X151192619Y-102811238D01*
X151192619Y-102811238D02*
X151145000Y-102763619D01*
X151145000Y-102763619D02*
X151145000Y-102858857D01*
X152049761Y-103763619D02*
X152049761Y-102763619D01*
X152049761Y-103716000D02*
X151954523Y-103763619D01*
X151954523Y-103763619D02*
X151764047Y-103763619D01*
X151764047Y-103763619D02*
X151668809Y-103716000D01*
X151668809Y-103716000D02*
X151621190Y-103668380D01*
X151621190Y-103668380D02*
X151573571Y-103573142D01*
X151573571Y-103573142D02*
X151573571Y-103287428D01*
X151573571Y-103287428D02*
X151621190Y-103192190D01*
X151621190Y-103192190D02*
X151668809Y-103144571D01*
X151668809Y-103144571D02*
X151764047Y-103096952D01*
X151764047Y-103096952D02*
X151954523Y-103096952D01*
X151954523Y-103096952D02*
X152049761Y-103144571D01*
X152525952Y-103763619D02*
X152525952Y-103096952D01*
X152525952Y-102763619D02*
X152478333Y-102811238D01*
X152478333Y-102811238D02*
X152525952Y-102858857D01*
X152525952Y-102858857D02*
X152573571Y-102811238D01*
X152573571Y-102811238D02*
X152525952Y-102763619D01*
X152525952Y-102763619D02*
X152525952Y-102858857D01*
X152859285Y-103096952D02*
X153240237Y-103096952D01*
X153002142Y-102763619D02*
X153002142Y-103620761D01*
X153002142Y-103620761D02*
X153049761Y-103716000D01*
X153049761Y-103716000D02*
X153144999Y-103763619D01*
X153144999Y-103763619D02*
X153240237Y-103763619D01*
X153335476Y-103858857D02*
X154097380Y-103858857D01*
X154240238Y-102763619D02*
X154906904Y-102763619D01*
X154906904Y-102763619D02*
X154478333Y-103763619D01*
X155240238Y-103716000D02*
X155383095Y-103763619D01*
X155383095Y-103763619D02*
X155621190Y-103763619D01*
X155621190Y-103763619D02*
X155716428Y-103716000D01*
X155716428Y-103716000D02*
X155764047Y-103668380D01*
X155764047Y-103668380D02*
X155811666Y-103573142D01*
X155811666Y-103573142D02*
X155811666Y-103477904D01*
X155811666Y-103477904D02*
X155764047Y-103382666D01*
X155764047Y-103382666D02*
X155716428Y-103335047D01*
X155716428Y-103335047D02*
X155621190Y-103287428D01*
X155621190Y-103287428D02*
X155430714Y-103239809D01*
X155430714Y-103239809D02*
X155335476Y-103192190D01*
X155335476Y-103192190D02*
X155287857Y-103144571D01*
X155287857Y-103144571D02*
X155240238Y-103049333D01*
X155240238Y-103049333D02*
X155240238Y-102954095D01*
X155240238Y-102954095D02*
X155287857Y-102858857D01*
X155287857Y-102858857D02*
X155335476Y-102811238D01*
X155335476Y-102811238D02*
X155430714Y-102763619D01*
X155430714Y-102763619D02*
X155668809Y-102763619D01*
X155668809Y-102763619D02*
X155811666Y-102811238D01*
X156621190Y-103716000D02*
X156525952Y-103763619D01*
X156525952Y-103763619D02*
X156335476Y-103763619D01*
X156335476Y-103763619D02*
X156240238Y-103716000D01*
X156240238Y-103716000D02*
X156192619Y-103620761D01*
X156192619Y-103620761D02*
X156192619Y-103239809D01*
X156192619Y-103239809D02*
X156240238Y-103144571D01*
X156240238Y-103144571D02*
X156335476Y-103096952D01*
X156335476Y-103096952D02*
X156525952Y-103096952D01*
X156525952Y-103096952D02*
X156621190Y-103144571D01*
X156621190Y-103144571D02*
X156668809Y-103239809D01*
X156668809Y-103239809D02*
X156668809Y-103335047D01*
X156668809Y-103335047D02*
X156192619Y-103430285D01*
X157525952Y-103096952D02*
X157525952Y-103906476D01*
X157525952Y-103906476D02*
X157478333Y-104001714D01*
X157478333Y-104001714D02*
X157430714Y-104049333D01*
X157430714Y-104049333D02*
X157335476Y-104096952D01*
X157335476Y-104096952D02*
X157192619Y-104096952D01*
X157192619Y-104096952D02*
X157097381Y-104049333D01*
X157525952Y-103716000D02*
X157430714Y-103763619D01*
X157430714Y-103763619D02*
X157240238Y-103763619D01*
X157240238Y-103763619D02*
X157145000Y-103716000D01*
X157145000Y-103716000D02*
X157097381Y-103668380D01*
X157097381Y-103668380D02*
X157049762Y-103573142D01*
X157049762Y-103573142D02*
X157049762Y-103287428D01*
X157049762Y-103287428D02*
X157097381Y-103192190D01*
X157097381Y-103192190D02*
X157145000Y-103144571D01*
X157145000Y-103144571D02*
X157240238Y-103096952D01*
X157240238Y-103096952D02*
X157430714Y-103096952D01*
X157430714Y-103096952D02*
X157525952Y-103144571D01*
X158478333Y-103763619D02*
X158002143Y-103763619D01*
X158002143Y-103763619D02*
X158002143Y-102763619D01*
X158811667Y-103239809D02*
X159145000Y-103239809D01*
X159287857Y-103763619D02*
X158811667Y-103763619D01*
X158811667Y-103763619D02*
X158811667Y-102763619D01*
X158811667Y-102763619D02*
X159287857Y-102763619D01*
X159716429Y-103763619D02*
X159716429Y-102763619D01*
X159716429Y-102763619D02*
X159954524Y-102763619D01*
X159954524Y-102763619D02*
X160097381Y-102811238D01*
X160097381Y-102811238D02*
X160192619Y-102906476D01*
X160192619Y-102906476D02*
X160240238Y-103001714D01*
X160240238Y-103001714D02*
X160287857Y-103192190D01*
X160287857Y-103192190D02*
X160287857Y-103335047D01*
X160287857Y-103335047D02*
X160240238Y-103525523D01*
X160240238Y-103525523D02*
X160192619Y-103620761D01*
X160192619Y-103620761D02*
X160097381Y-103716000D01*
X160097381Y-103716000D02*
X159954524Y-103763619D01*
X159954524Y-103763619D02*
X159716429Y-103763619D01*
X161335477Y-102763619D02*
X161668810Y-103763619D01*
X161668810Y-103763619D02*
X162002143Y-102763619D01*
X162716429Y-103716000D02*
X162621191Y-103763619D01*
X162621191Y-103763619D02*
X162430715Y-103763619D01*
X162430715Y-103763619D02*
X162335477Y-103716000D01*
X162335477Y-103716000D02*
X162287858Y-103620761D01*
X162287858Y-103620761D02*
X162287858Y-103239809D01*
X162287858Y-103239809D02*
X162335477Y-103144571D01*
X162335477Y-103144571D02*
X162430715Y-103096952D01*
X162430715Y-103096952D02*
X162621191Y-103096952D01*
X162621191Y-103096952D02*
X162716429Y-103144571D01*
X162716429Y-103144571D02*
X162764048Y-103239809D01*
X162764048Y-103239809D02*
X162764048Y-103335047D01*
X162764048Y-103335047D02*
X162287858Y-103430285D01*
X163192620Y-103763619D02*
X163192620Y-103096952D01*
X163192620Y-103287428D02*
X163240239Y-103192190D01*
X163240239Y-103192190D02*
X163287858Y-103144571D01*
X163287858Y-103144571D02*
X163383096Y-103096952D01*
X163383096Y-103096952D02*
X163478334Y-103096952D01*
X164764049Y-102763619D02*
X164859287Y-102763619D01*
X164859287Y-102763619D02*
X164954525Y-102811238D01*
X164954525Y-102811238D02*
X165002144Y-102858857D01*
X165002144Y-102858857D02*
X165049763Y-102954095D01*
X165049763Y-102954095D02*
X165097382Y-103144571D01*
X165097382Y-103144571D02*
X165097382Y-103382666D01*
X165097382Y-103382666D02*
X165049763Y-103573142D01*
X165049763Y-103573142D02*
X165002144Y-103668380D01*
X165002144Y-103668380D02*
X164954525Y-103716000D01*
X164954525Y-103716000D02*
X164859287Y-103763619D01*
X164859287Y-103763619D02*
X164764049Y-103763619D01*
X164764049Y-103763619D02*
X164668811Y-103716000D01*
X164668811Y-103716000D02*
X164621192Y-103668380D01*
X164621192Y-103668380D02*
X164573573Y-103573142D01*
X164573573Y-103573142D02*
X164525954Y-103382666D01*
X164525954Y-103382666D02*
X164525954Y-103144571D01*
X164525954Y-103144571D02*
X164573573Y-102954095D01*
X164573573Y-102954095D02*
X164621192Y-102858857D01*
X164621192Y-102858857D02*
X164668811Y-102811238D01*
X164668811Y-102811238D02*
X164764049Y-102763619D01*
X165525954Y-103668380D02*
X165573573Y-103716000D01*
X165573573Y-103716000D02*
X165525954Y-103763619D01*
X165525954Y-103763619D02*
X165478335Y-103716000D01*
X165478335Y-103716000D02*
X165525954Y-103668380D01*
X165525954Y-103668380D02*
X165525954Y-103763619D01*
X166525953Y-103763619D02*
X165954525Y-103763619D01*
X166240239Y-103763619D02*
X166240239Y-102763619D01*
X166240239Y-102763619D02*
X166145001Y-102906476D01*
X166145001Y-102906476D02*
X166049763Y-103001714D01*
X166049763Y-103001714D02*
X165954525Y-103049333D01*
X167576476Y-75776000D02*
X167719333Y-75823619D01*
X167719333Y-75823619D02*
X167957428Y-75823619D01*
X167957428Y-75823619D02*
X168052666Y-75776000D01*
X168052666Y-75776000D02*
X168100285Y-75728380D01*
X168100285Y-75728380D02*
X168147904Y-75633142D01*
X168147904Y-75633142D02*
X168147904Y-75537904D01*
X168147904Y-75537904D02*
X168100285Y-75442666D01*
X168100285Y-75442666D02*
X168052666Y-75395047D01*
X168052666Y-75395047D02*
X167957428Y-75347428D01*
X167957428Y-75347428D02*
X167766952Y-75299809D01*
X167766952Y-75299809D02*
X167671714Y-75252190D01*
X167671714Y-75252190D02*
X167624095Y-75204571D01*
X167624095Y-75204571D02*
X167576476Y-75109333D01*
X167576476Y-75109333D02*
X167576476Y-75014095D01*
X167576476Y-75014095D02*
X167624095Y-74918857D01*
X167624095Y-74918857D02*
X167671714Y-74871238D01*
X167671714Y-74871238D02*
X167766952Y-74823619D01*
X167766952Y-74823619D02*
X168005047Y-74823619D01*
X168005047Y-74823619D02*
X168147904Y-74871238D01*
X169005047Y-75156952D02*
X169005047Y-75823619D01*
X168576476Y-75156952D02*
X168576476Y-75680761D01*
X168576476Y-75680761D02*
X168624095Y-75776000D01*
X168624095Y-75776000D02*
X168719333Y-75823619D01*
X168719333Y-75823619D02*
X168862190Y-75823619D01*
X168862190Y-75823619D02*
X168957428Y-75776000D01*
X168957428Y-75776000D02*
X169005047Y-75728380D01*
X169909809Y-75156952D02*
X169909809Y-75966476D01*
X169909809Y-75966476D02*
X169862190Y-76061714D01*
X169862190Y-76061714D02*
X169814571Y-76109333D01*
X169814571Y-76109333D02*
X169719333Y-76156952D01*
X169719333Y-76156952D02*
X169576476Y-76156952D01*
X169576476Y-76156952D02*
X169481238Y-76109333D01*
X169909809Y-75776000D02*
X169814571Y-75823619D01*
X169814571Y-75823619D02*
X169624095Y-75823619D01*
X169624095Y-75823619D02*
X169528857Y-75776000D01*
X169528857Y-75776000D02*
X169481238Y-75728380D01*
X169481238Y-75728380D02*
X169433619Y-75633142D01*
X169433619Y-75633142D02*
X169433619Y-75347428D01*
X169433619Y-75347428D02*
X169481238Y-75252190D01*
X169481238Y-75252190D02*
X169528857Y-75204571D01*
X169528857Y-75204571D02*
X169624095Y-75156952D01*
X169624095Y-75156952D02*
X169814571Y-75156952D01*
X169814571Y-75156952D02*
X169909809Y-75204571D01*
X170814571Y-75823619D02*
X170814571Y-75299809D01*
X170814571Y-75299809D02*
X170766952Y-75204571D01*
X170766952Y-75204571D02*
X170671714Y-75156952D01*
X170671714Y-75156952D02*
X170481238Y-75156952D01*
X170481238Y-75156952D02*
X170386000Y-75204571D01*
X170814571Y-75776000D02*
X170719333Y-75823619D01*
X170719333Y-75823619D02*
X170481238Y-75823619D01*
X170481238Y-75823619D02*
X170386000Y-75776000D01*
X170386000Y-75776000D02*
X170338381Y-75680761D01*
X170338381Y-75680761D02*
X170338381Y-75585523D01*
X170338381Y-75585523D02*
X170386000Y-75490285D01*
X170386000Y-75490285D02*
X170481238Y-75442666D01*
X170481238Y-75442666D02*
X170719333Y-75442666D01*
X170719333Y-75442666D02*
X170814571Y-75395047D01*
X171290762Y-75823619D02*
X171290762Y-75156952D01*
X171290762Y-75252190D02*
X171338381Y-75204571D01*
X171338381Y-75204571D02*
X171433619Y-75156952D01*
X171433619Y-75156952D02*
X171576476Y-75156952D01*
X171576476Y-75156952D02*
X171671714Y-75204571D01*
X171671714Y-75204571D02*
X171719333Y-75299809D01*
X171719333Y-75299809D02*
X171719333Y-75823619D01*
X171719333Y-75299809D02*
X171766952Y-75204571D01*
X171766952Y-75204571D02*
X171862190Y-75156952D01*
X171862190Y-75156952D02*
X172005047Y-75156952D01*
X172005047Y-75156952D02*
X172100286Y-75204571D01*
X172100286Y-75204571D02*
X172147905Y-75299809D01*
X172147905Y-75299809D02*
X172147905Y-75823619D01*
X172766952Y-75823619D02*
X172671714Y-75776000D01*
X172671714Y-75776000D02*
X172624095Y-75728380D01*
X172624095Y-75728380D02*
X172576476Y-75633142D01*
X172576476Y-75633142D02*
X172576476Y-75347428D01*
X172576476Y-75347428D02*
X172624095Y-75252190D01*
X172624095Y-75252190D02*
X172671714Y-75204571D01*
X172671714Y-75204571D02*
X172766952Y-75156952D01*
X172766952Y-75156952D02*
X172909809Y-75156952D01*
X172909809Y-75156952D02*
X173005047Y-75204571D01*
X173005047Y-75204571D02*
X173052666Y-75252190D01*
X173052666Y-75252190D02*
X173100285Y-75347428D01*
X173100285Y-75347428D02*
X173100285Y-75633142D01*
X173100285Y-75633142D02*
X173052666Y-75728380D01*
X173052666Y-75728380D02*
X173005047Y-75776000D01*
X173005047Y-75776000D02*
X172909809Y-75823619D01*
X172909809Y-75823619D02*
X172766952Y-75823619D01*
X138937904Y-103827238D02*
X138842666Y-103779619D01*
X138842666Y-103779619D02*
X138699809Y-103779619D01*
X138699809Y-103779619D02*
X138556952Y-103827238D01*
X138556952Y-103827238D02*
X138461714Y-103922476D01*
X138461714Y-103922476D02*
X138414095Y-104017714D01*
X138414095Y-104017714D02*
X138366476Y-104208190D01*
X138366476Y-104208190D02*
X138366476Y-104351047D01*
X138366476Y-104351047D02*
X138414095Y-104541523D01*
X138414095Y-104541523D02*
X138461714Y-104636761D01*
X138461714Y-104636761D02*
X138556952Y-104732000D01*
X138556952Y-104732000D02*
X138699809Y-104779619D01*
X138699809Y-104779619D02*
X138795047Y-104779619D01*
X138795047Y-104779619D02*
X138937904Y-104732000D01*
X138937904Y-104732000D02*
X138985523Y-104684380D01*
X138985523Y-104684380D02*
X138985523Y-104351047D01*
X138985523Y-104351047D02*
X138795047Y-104351047D01*
X139414095Y-104779619D02*
X139414095Y-103779619D01*
X139414095Y-103779619D02*
X139985523Y-104779619D01*
X139985523Y-104779619D02*
X139985523Y-103779619D01*
X140461714Y-104779619D02*
X140461714Y-103779619D01*
X140461714Y-103779619D02*
X140699809Y-103779619D01*
X140699809Y-103779619D02*
X140842666Y-103827238D01*
X140842666Y-103827238D02*
X140937904Y-103922476D01*
X140937904Y-103922476D02*
X140985523Y-104017714D01*
X140985523Y-104017714D02*
X141033142Y-104208190D01*
X141033142Y-104208190D02*
X141033142Y-104351047D01*
X141033142Y-104351047D02*
X140985523Y-104541523D01*
X140985523Y-104541523D02*
X140937904Y-104636761D01*
X140937904Y-104636761D02*
X140842666Y-104732000D01*
X140842666Y-104732000D02*
X140699809Y-104779619D01*
X140699809Y-104779619D02*
X140461714Y-104779619D01*
X131984666Y-92603619D02*
X131794190Y-92603619D01*
X131794190Y-92603619D02*
X131698952Y-92651238D01*
X131698952Y-92651238D02*
X131651333Y-92698857D01*
X131651333Y-92698857D02*
X131556095Y-92841714D01*
X131556095Y-92841714D02*
X131508476Y-93032190D01*
X131508476Y-93032190D02*
X131508476Y-93413142D01*
X131508476Y-93413142D02*
X131556095Y-93508380D01*
X131556095Y-93508380D02*
X131603714Y-93556000D01*
X131603714Y-93556000D02*
X131698952Y-93603619D01*
X131698952Y-93603619D02*
X131889428Y-93603619D01*
X131889428Y-93603619D02*
X131984666Y-93556000D01*
X131984666Y-93556000D02*
X132032285Y-93508380D01*
X132032285Y-93508380D02*
X132079904Y-93413142D01*
X132079904Y-93413142D02*
X132079904Y-93175047D01*
X132079904Y-93175047D02*
X132032285Y-93079809D01*
X132032285Y-93079809D02*
X131984666Y-93032190D01*
X131984666Y-93032190D02*
X131889428Y-92984571D01*
X131889428Y-92984571D02*
X131698952Y-92984571D01*
X131698952Y-92984571D02*
X131603714Y-93032190D01*
X131603714Y-93032190D02*
X131556095Y-93079809D01*
X131556095Y-93079809D02*
X131508476Y-93175047D01*
X134572285Y-92603619D02*
X134096095Y-92603619D01*
X134096095Y-92603619D02*
X134048476Y-93079809D01*
X134048476Y-93079809D02*
X134096095Y-93032190D01*
X134096095Y-93032190D02*
X134191333Y-92984571D01*
X134191333Y-92984571D02*
X134429428Y-92984571D01*
X134429428Y-92984571D02*
X134524666Y-93032190D01*
X134524666Y-93032190D02*
X134572285Y-93079809D01*
X134572285Y-93079809D02*
X134619904Y-93175047D01*
X134619904Y-93175047D02*
X134619904Y-93413142D01*
X134619904Y-93413142D02*
X134572285Y-93508380D01*
X134572285Y-93508380D02*
X134524666Y-93556000D01*
X134524666Y-93556000D02*
X134429428Y-93603619D01*
X134429428Y-93603619D02*
X134191333Y-93603619D01*
X134191333Y-93603619D02*
X134096095Y-93556000D01*
X134096095Y-93556000D02*
X134048476Y-93508380D01*
X121824666Y-92936952D02*
X121824666Y-93603619D01*
X121586571Y-92556000D02*
X121348476Y-93270285D01*
X121348476Y-93270285D02*
X121967523Y-93270285D01*
X123840857Y-92603619D02*
X124459904Y-92603619D01*
X124459904Y-92603619D02*
X124126571Y-92984571D01*
X124126571Y-92984571D02*
X124269428Y-92984571D01*
X124269428Y-92984571D02*
X124364666Y-93032190D01*
X124364666Y-93032190D02*
X124412285Y-93079809D01*
X124412285Y-93079809D02*
X124459904Y-93175047D01*
X124459904Y-93175047D02*
X124459904Y-93413142D01*
X124459904Y-93413142D02*
X124412285Y-93508380D01*
X124412285Y-93508380D02*
X124364666Y-93556000D01*
X124364666Y-93556000D02*
X124269428Y-93603619D01*
X124269428Y-93603619D02*
X123983714Y-93603619D01*
X123983714Y-93603619D02*
X123888476Y-93556000D01*
X123888476Y-93556000D02*
X123840857Y-93508380D01*
X126428476Y-92698857D02*
X126476095Y-92651238D01*
X126476095Y-92651238D02*
X126571333Y-92603619D01*
X126571333Y-92603619D02*
X126809428Y-92603619D01*
X126809428Y-92603619D02*
X126904666Y-92651238D01*
X126904666Y-92651238D02*
X126952285Y-92698857D01*
X126952285Y-92698857D02*
X126999904Y-92794095D01*
X126999904Y-92794095D02*
X126999904Y-92889333D01*
X126999904Y-92889333D02*
X126952285Y-93032190D01*
X126952285Y-93032190D02*
X126380857Y-93603619D01*
X126380857Y-93603619D02*
X126999904Y-93603619D01*
X129539904Y-93603619D02*
X128968476Y-93603619D01*
X129254190Y-93603619D02*
X129254190Y-92603619D01*
X129254190Y-92603619D02*
X129158952Y-92746476D01*
X129158952Y-92746476D02*
X129063714Y-92841714D01*
X129063714Y-92841714D02*
X128968476Y-92889333D01*
X114553904Y-98747238D02*
X114458666Y-98699619D01*
X114458666Y-98699619D02*
X114315809Y-98699619D01*
X114315809Y-98699619D02*
X114172952Y-98747238D01*
X114172952Y-98747238D02*
X114077714Y-98842476D01*
X114077714Y-98842476D02*
X114030095Y-98937714D01*
X114030095Y-98937714D02*
X113982476Y-99128190D01*
X113982476Y-99128190D02*
X113982476Y-99271047D01*
X113982476Y-99271047D02*
X114030095Y-99461523D01*
X114030095Y-99461523D02*
X114077714Y-99556761D01*
X114077714Y-99556761D02*
X114172952Y-99652000D01*
X114172952Y-99652000D02*
X114315809Y-99699619D01*
X114315809Y-99699619D02*
X114411047Y-99699619D01*
X114411047Y-99699619D02*
X114553904Y-99652000D01*
X114553904Y-99652000D02*
X114601523Y-99604380D01*
X114601523Y-99604380D02*
X114601523Y-99271047D01*
X114601523Y-99271047D02*
X114411047Y-99271047D01*
X115030095Y-99699619D02*
X115030095Y-98699619D01*
X115030095Y-98699619D02*
X115601523Y-99699619D01*
X115601523Y-99699619D02*
X115601523Y-98699619D01*
X116077714Y-99699619D02*
X116077714Y-98699619D01*
X116077714Y-98699619D02*
X116315809Y-98699619D01*
X116315809Y-98699619D02*
X116458666Y-98747238D01*
X116458666Y-98747238D02*
X116553904Y-98842476D01*
X116553904Y-98842476D02*
X116601523Y-98937714D01*
X116601523Y-98937714D02*
X116649142Y-99128190D01*
X116649142Y-99128190D02*
X116649142Y-99271047D01*
X116649142Y-99271047D02*
X116601523Y-99461523D01*
X116601523Y-99461523D02*
X116553904Y-99556761D01*
X116553904Y-99556761D02*
X116458666Y-99652000D01*
X116458666Y-99652000D02*
X116315809Y-99699619D01*
X116315809Y-99699619D02*
X116077714Y-99699619D01*
X113934857Y-101239619D02*
X114553904Y-101239619D01*
X114553904Y-101239619D02*
X114220571Y-101620571D01*
X114220571Y-101620571D02*
X114363428Y-101620571D01*
X114363428Y-101620571D02*
X114458666Y-101668190D01*
X114458666Y-101668190D02*
X114506285Y-101715809D01*
X114506285Y-101715809D02*
X114553904Y-101811047D01*
X114553904Y-101811047D02*
X114553904Y-102049142D01*
X114553904Y-102049142D02*
X114506285Y-102144380D01*
X114506285Y-102144380D02*
X114458666Y-102192000D01*
X114458666Y-102192000D02*
X114363428Y-102239619D01*
X114363428Y-102239619D02*
X114077714Y-102239619D01*
X114077714Y-102239619D02*
X113982476Y-102192000D01*
X113982476Y-102192000D02*
X113934857Y-102144380D01*
X114839619Y-101239619D02*
X115172952Y-102239619D01*
X115172952Y-102239619D02*
X115506285Y-101239619D01*
X115744381Y-101239619D02*
X116363428Y-101239619D01*
X116363428Y-101239619D02*
X116030095Y-101620571D01*
X116030095Y-101620571D02*
X116172952Y-101620571D01*
X116172952Y-101620571D02*
X116268190Y-101668190D01*
X116268190Y-101668190D02*
X116315809Y-101715809D01*
X116315809Y-101715809D02*
X116363428Y-101811047D01*
X116363428Y-101811047D02*
X116363428Y-102049142D01*
X116363428Y-102049142D02*
X116315809Y-102144380D01*
X116315809Y-102144380D02*
X116268190Y-102192000D01*
X116268190Y-102192000D02*
X116172952Y-102239619D01*
X116172952Y-102239619D02*
X115887238Y-102239619D01*
X115887238Y-102239619D02*
X115792000Y-102192000D01*
X115792000Y-102192000D02*
X115744381Y-102144380D01*
X114553904Y-75887238D02*
X114458666Y-75839619D01*
X114458666Y-75839619D02*
X114315809Y-75839619D01*
X114315809Y-75839619D02*
X114172952Y-75887238D01*
X114172952Y-75887238D02*
X114077714Y-75982476D01*
X114077714Y-75982476D02*
X114030095Y-76077714D01*
X114030095Y-76077714D02*
X113982476Y-76268190D01*
X113982476Y-76268190D02*
X113982476Y-76411047D01*
X113982476Y-76411047D02*
X114030095Y-76601523D01*
X114030095Y-76601523D02*
X114077714Y-76696761D01*
X114077714Y-76696761D02*
X114172952Y-76792000D01*
X114172952Y-76792000D02*
X114315809Y-76839619D01*
X114315809Y-76839619D02*
X114411047Y-76839619D01*
X114411047Y-76839619D02*
X114553904Y-76792000D01*
X114553904Y-76792000D02*
X114601523Y-76744380D01*
X114601523Y-76744380D02*
X114601523Y-76411047D01*
X114601523Y-76411047D02*
X114411047Y-76411047D01*
X115030095Y-76839619D02*
X115030095Y-75839619D01*
X115030095Y-75839619D02*
X115601523Y-76839619D01*
X115601523Y-76839619D02*
X115601523Y-75839619D01*
X116077714Y-76839619D02*
X116077714Y-75839619D01*
X116077714Y-75839619D02*
X116315809Y-75839619D01*
X116315809Y-75839619D02*
X116458666Y-75887238D01*
X116458666Y-75887238D02*
X116553904Y-75982476D01*
X116553904Y-75982476D02*
X116601523Y-76077714D01*
X116601523Y-76077714D02*
X116649142Y-76268190D01*
X116649142Y-76268190D02*
X116649142Y-76411047D01*
X116649142Y-76411047D02*
X116601523Y-76601523D01*
X116601523Y-76601523D02*
X116553904Y-76696761D01*
X116553904Y-76696761D02*
X116458666Y-76792000D01*
X116458666Y-76792000D02*
X116315809Y-76839619D01*
X116315809Y-76839619D02*
X116077714Y-76839619D01*
X113934857Y-78379619D02*
X114553904Y-78379619D01*
X114553904Y-78379619D02*
X114220571Y-78760571D01*
X114220571Y-78760571D02*
X114363428Y-78760571D01*
X114363428Y-78760571D02*
X114458666Y-78808190D01*
X114458666Y-78808190D02*
X114506285Y-78855809D01*
X114506285Y-78855809D02*
X114553904Y-78951047D01*
X114553904Y-78951047D02*
X114553904Y-79189142D01*
X114553904Y-79189142D02*
X114506285Y-79284380D01*
X114506285Y-79284380D02*
X114458666Y-79332000D01*
X114458666Y-79332000D02*
X114363428Y-79379619D01*
X114363428Y-79379619D02*
X114077714Y-79379619D01*
X114077714Y-79379619D02*
X113982476Y-79332000D01*
X113982476Y-79332000D02*
X113934857Y-79284380D01*
X114839619Y-78379619D02*
X115172952Y-79379619D01*
X115172952Y-79379619D02*
X115506285Y-78379619D01*
X115744381Y-78379619D02*
X116363428Y-78379619D01*
X116363428Y-78379619D02*
X116030095Y-78760571D01*
X116030095Y-78760571D02*
X116172952Y-78760571D01*
X116172952Y-78760571D02*
X116268190Y-78808190D01*
X116268190Y-78808190D02*
X116315809Y-78855809D01*
X116315809Y-78855809D02*
X116363428Y-78951047D01*
X116363428Y-78951047D02*
X116363428Y-79189142D01*
X116363428Y-79189142D02*
X116315809Y-79284380D01*
X116315809Y-79284380D02*
X116268190Y-79332000D01*
X116268190Y-79332000D02*
X116172952Y-79379619D01*
X116172952Y-79379619D02*
X115887238Y-79379619D01*
X115887238Y-79379619D02*
X115792000Y-79332000D01*
X115792000Y-79332000D02*
X115744381Y-79284380D01*
X127238095Y-81157619D02*
X127238095Y-80157619D01*
X127666666Y-81157619D02*
X127666666Y-80633809D01*
X127666666Y-80633809D02*
X127619047Y-80538571D01*
X127619047Y-80538571D02*
X127523809Y-80490952D01*
X127523809Y-80490952D02*
X127380952Y-80490952D01*
X127380952Y-80490952D02*
X127285714Y-80538571D01*
X127285714Y-80538571D02*
X127238095Y-80586190D01*
X127666666Y-82776952D02*
X127666666Y-83586476D01*
X127666666Y-83586476D02*
X127619047Y-83681714D01*
X127619047Y-83681714D02*
X127571428Y-83729333D01*
X127571428Y-83729333D02*
X127476190Y-83776952D01*
X127476190Y-83776952D02*
X127333333Y-83776952D01*
X127333333Y-83776952D02*
X127238095Y-83729333D01*
X127666666Y-83396000D02*
X127571428Y-83443619D01*
X127571428Y-83443619D02*
X127380952Y-83443619D01*
X127380952Y-83443619D02*
X127285714Y-83396000D01*
X127285714Y-83396000D02*
X127238095Y-83348380D01*
X127238095Y-83348380D02*
X127190476Y-83253142D01*
X127190476Y-83253142D02*
X127190476Y-82967428D01*
X127190476Y-82967428D02*
X127238095Y-82872190D01*
X127238095Y-82872190D02*
X127285714Y-82824571D01*
X127285714Y-82824571D02*
X127380952Y-82776952D01*
X127380952Y-82776952D02*
X127571428Y-82776952D01*
X127571428Y-82776952D02*
X127666666Y-82824571D01*
X127095238Y-65250952D02*
X127476190Y-65250952D01*
X127238095Y-65917619D02*
X127238095Y-65060476D01*
X127238095Y-65060476D02*
X127285714Y-64965238D01*
X127285714Y-64965238D02*
X127380952Y-64917619D01*
X127380952Y-64917619D02*
X127476190Y-64917619D01*
X127619047Y-68156000D02*
X127523809Y-68203619D01*
X127523809Y-68203619D02*
X127333333Y-68203619D01*
X127333333Y-68203619D02*
X127238095Y-68156000D01*
X127238095Y-68156000D02*
X127190476Y-68060761D01*
X127190476Y-68060761D02*
X127190476Y-67679809D01*
X127190476Y-67679809D02*
X127238095Y-67584571D01*
X127238095Y-67584571D02*
X127333333Y-67536952D01*
X127333333Y-67536952D02*
X127523809Y-67536952D01*
X127523809Y-67536952D02*
X127619047Y-67584571D01*
X127619047Y-67584571D02*
X127666666Y-67679809D01*
X127666666Y-67679809D02*
X127666666Y-67775047D01*
X127666666Y-67775047D02*
X127190476Y-67870285D01*
X127666666Y-78363619D02*
X127666666Y-77363619D01*
X127666666Y-78316000D02*
X127571428Y-78363619D01*
X127571428Y-78363619D02*
X127380952Y-78363619D01*
X127380952Y-78363619D02*
X127285714Y-78316000D01*
X127285714Y-78316000D02*
X127238095Y-78268380D01*
X127238095Y-78268380D02*
X127190476Y-78173142D01*
X127190476Y-78173142D02*
X127190476Y-77887428D01*
X127190476Y-77887428D02*
X127238095Y-77792190D01*
X127238095Y-77792190D02*
X127285714Y-77744571D01*
X127285714Y-77744571D02*
X127380952Y-77696952D01*
X127380952Y-77696952D02*
X127571428Y-77696952D01*
X127571428Y-77696952D02*
X127666666Y-77744571D01*
X127666666Y-75776000D02*
X127571428Y-75823619D01*
X127571428Y-75823619D02*
X127380952Y-75823619D01*
X127380952Y-75823619D02*
X127285714Y-75776000D01*
X127285714Y-75776000D02*
X127238095Y-75728380D01*
X127238095Y-75728380D02*
X127190476Y-75633142D01*
X127190476Y-75633142D02*
X127190476Y-75347428D01*
X127190476Y-75347428D02*
X127238095Y-75252190D01*
X127238095Y-75252190D02*
X127285714Y-75204571D01*
X127285714Y-75204571D02*
X127380952Y-75156952D01*
X127380952Y-75156952D02*
X127571428Y-75156952D01*
X127571428Y-75156952D02*
X127666666Y-75204571D01*
X127238095Y-73537619D02*
X127238095Y-72537619D01*
X127238095Y-72918571D02*
X127333333Y-72870952D01*
X127333333Y-72870952D02*
X127523809Y-72870952D01*
X127523809Y-72870952D02*
X127619047Y-72918571D01*
X127619047Y-72918571D02*
X127666666Y-72966190D01*
X127666666Y-72966190D02*
X127714285Y-73061428D01*
X127714285Y-73061428D02*
X127714285Y-73347142D01*
X127714285Y-73347142D02*
X127666666Y-73442380D01*
X127666666Y-73442380D02*
X127619047Y-73490000D01*
X127619047Y-73490000D02*
X127523809Y-73537619D01*
X127523809Y-73537619D02*
X127333333Y-73537619D01*
X127333333Y-73537619D02*
X127238095Y-73490000D01*
X127666666Y-70743619D02*
X127666666Y-70219809D01*
X127666666Y-70219809D02*
X127619047Y-70124571D01*
X127619047Y-70124571D02*
X127523809Y-70076952D01*
X127523809Y-70076952D02*
X127333333Y-70076952D01*
X127333333Y-70076952D02*
X127238095Y-70124571D01*
X127666666Y-70696000D02*
X127571428Y-70743619D01*
X127571428Y-70743619D02*
X127333333Y-70743619D01*
X127333333Y-70743619D02*
X127238095Y-70696000D01*
X127238095Y-70696000D02*
X127190476Y-70600761D01*
X127190476Y-70600761D02*
X127190476Y-70505523D01*
X127190476Y-70505523D02*
X127238095Y-70410285D01*
X127238095Y-70410285D02*
X127333333Y-70362666D01*
X127333333Y-70362666D02*
X127571428Y-70362666D01*
X127571428Y-70362666D02*
X127666666Y-70315047D01*
X161686809Y-87586952D02*
X161448714Y-87586952D01*
X161448714Y-87586952D02*
X161448714Y-86158380D01*
X161448714Y-86158380D02*
X161686809Y-86158380D01*
X162258238Y-86253619D02*
X162448714Y-86253619D01*
X162448714Y-86253619D02*
X162543952Y-86301238D01*
X162543952Y-86301238D02*
X162639190Y-86396476D01*
X162639190Y-86396476D02*
X162686809Y-86586952D01*
X162686809Y-86586952D02*
X162686809Y-86920285D01*
X162686809Y-86920285D02*
X162639190Y-87110761D01*
X162639190Y-87110761D02*
X162543952Y-87206000D01*
X162543952Y-87206000D02*
X162448714Y-87253619D01*
X162448714Y-87253619D02*
X162258238Y-87253619D01*
X162258238Y-87253619D02*
X162163000Y-87206000D01*
X162163000Y-87206000D02*
X162067762Y-87110761D01*
X162067762Y-87110761D02*
X162020143Y-86920285D01*
X162020143Y-86920285D02*
X162020143Y-86586952D01*
X162020143Y-86586952D02*
X162067762Y-86396476D01*
X162067762Y-86396476D02*
X162163000Y-86301238D01*
X162163000Y-86301238D02*
X162258238Y-86253619D01*
X163067762Y-87206000D02*
X163210619Y-87253619D01*
X163210619Y-87253619D02*
X163448714Y-87253619D01*
X163448714Y-87253619D02*
X163543952Y-87206000D01*
X163543952Y-87206000D02*
X163591571Y-87158380D01*
X163591571Y-87158380D02*
X163639190Y-87063142D01*
X163639190Y-87063142D02*
X163639190Y-86967904D01*
X163639190Y-86967904D02*
X163591571Y-86872666D01*
X163591571Y-86872666D02*
X163543952Y-86825047D01*
X163543952Y-86825047D02*
X163448714Y-86777428D01*
X163448714Y-86777428D02*
X163258238Y-86729809D01*
X163258238Y-86729809D02*
X163163000Y-86682190D01*
X163163000Y-86682190D02*
X163115381Y-86634571D01*
X163115381Y-86634571D02*
X163067762Y-86539333D01*
X163067762Y-86539333D02*
X163067762Y-86444095D01*
X163067762Y-86444095D02*
X163115381Y-86348857D01*
X163115381Y-86348857D02*
X163163000Y-86301238D01*
X163163000Y-86301238D02*
X163258238Y-86253619D01*
X163258238Y-86253619D02*
X163496333Y-86253619D01*
X163496333Y-86253619D02*
X163639190Y-86301238D01*
X164543952Y-87253619D02*
X164067762Y-87253619D01*
X164067762Y-87253619D02*
X164067762Y-86253619D01*
X165305857Y-86253619D02*
X165115381Y-86253619D01*
X165115381Y-86253619D02*
X165020143Y-86301238D01*
X165020143Y-86301238D02*
X164972524Y-86348857D01*
X164972524Y-86348857D02*
X164877286Y-86491714D01*
X164877286Y-86491714D02*
X164829667Y-86682190D01*
X164829667Y-86682190D02*
X164829667Y-87063142D01*
X164829667Y-87063142D02*
X164877286Y-87158380D01*
X164877286Y-87158380D02*
X164924905Y-87206000D01*
X164924905Y-87206000D02*
X165020143Y-87253619D01*
X165020143Y-87253619D02*
X165210619Y-87253619D01*
X165210619Y-87253619D02*
X165305857Y-87206000D01*
X165305857Y-87206000D02*
X165353476Y-87158380D01*
X165353476Y-87158380D02*
X165401095Y-87063142D01*
X165401095Y-87063142D02*
X165401095Y-86825047D01*
X165401095Y-86825047D02*
X165353476Y-86729809D01*
X165353476Y-86729809D02*
X165305857Y-86682190D01*
X165305857Y-86682190D02*
X165210619Y-86634571D01*
X165210619Y-86634571D02*
X165020143Y-86634571D01*
X165020143Y-86634571D02*
X164924905Y-86682190D01*
X164924905Y-86682190D02*
X164877286Y-86729809D01*
X164877286Y-86729809D02*
X164829667Y-86825047D01*
X166020143Y-86253619D02*
X166115381Y-86253619D01*
X166115381Y-86253619D02*
X166210619Y-86301238D01*
X166210619Y-86301238D02*
X166258238Y-86348857D01*
X166258238Y-86348857D02*
X166305857Y-86444095D01*
X166305857Y-86444095D02*
X166353476Y-86634571D01*
X166353476Y-86634571D02*
X166353476Y-86872666D01*
X166353476Y-86872666D02*
X166305857Y-87063142D01*
X166305857Y-87063142D02*
X166258238Y-87158380D01*
X166258238Y-87158380D02*
X166210619Y-87206000D01*
X166210619Y-87206000D02*
X166115381Y-87253619D01*
X166115381Y-87253619D02*
X166020143Y-87253619D01*
X166020143Y-87253619D02*
X165924905Y-87206000D01*
X165924905Y-87206000D02*
X165877286Y-87158380D01*
X165877286Y-87158380D02*
X165829667Y-87063142D01*
X165829667Y-87063142D02*
X165782048Y-86872666D01*
X165782048Y-86872666D02*
X165782048Y-86634571D01*
X165782048Y-86634571D02*
X165829667Y-86444095D01*
X165829667Y-86444095D02*
X165877286Y-86348857D01*
X165877286Y-86348857D02*
X165924905Y-86301238D01*
X165924905Y-86301238D02*
X166020143Y-86253619D01*
X166686810Y-86253619D02*
X167305857Y-86253619D01*
X167305857Y-86253619D02*
X166972524Y-86634571D01*
X166972524Y-86634571D02*
X167115381Y-86634571D01*
X167115381Y-86634571D02*
X167210619Y-86682190D01*
X167210619Y-86682190D02*
X167258238Y-86729809D01*
X167258238Y-86729809D02*
X167305857Y-86825047D01*
X167305857Y-86825047D02*
X167305857Y-87063142D01*
X167305857Y-87063142D02*
X167258238Y-87158380D01*
X167258238Y-87158380D02*
X167210619Y-87206000D01*
X167210619Y-87206000D02*
X167115381Y-87253619D01*
X167115381Y-87253619D02*
X166829667Y-87253619D01*
X166829667Y-87253619D02*
X166734429Y-87206000D01*
X166734429Y-87206000D02*
X166686810Y-87158380D01*
X168163000Y-86253619D02*
X167972524Y-86253619D01*
X167972524Y-86253619D02*
X167877286Y-86301238D01*
X167877286Y-86301238D02*
X167829667Y-86348857D01*
X167829667Y-86348857D02*
X167734429Y-86491714D01*
X167734429Y-86491714D02*
X167686810Y-86682190D01*
X167686810Y-86682190D02*
X167686810Y-87063142D01*
X167686810Y-87063142D02*
X167734429Y-87158380D01*
X167734429Y-87158380D02*
X167782048Y-87206000D01*
X167782048Y-87206000D02*
X167877286Y-87253619D01*
X167877286Y-87253619D02*
X168067762Y-87253619D01*
X168067762Y-87253619D02*
X168163000Y-87206000D01*
X168163000Y-87206000D02*
X168210619Y-87158380D01*
X168210619Y-87158380D02*
X168258238Y-87063142D01*
X168258238Y-87063142D02*
X168258238Y-86825047D01*
X168258238Y-86825047D02*
X168210619Y-86729809D01*
X168210619Y-86729809D02*
X168163000Y-86682190D01*
X168163000Y-86682190D02*
X168067762Y-86634571D01*
X168067762Y-86634571D02*
X167877286Y-86634571D01*
X167877286Y-86634571D02*
X167782048Y-86682190D01*
X167782048Y-86682190D02*
X167734429Y-86729809D01*
X167734429Y-86729809D02*
X167686810Y-86825047D01*
X168639191Y-86348857D02*
X168686810Y-86301238D01*
X168686810Y-86301238D02*
X168782048Y-86253619D01*
X168782048Y-86253619D02*
X169020143Y-86253619D01*
X169020143Y-86253619D02*
X169115381Y-86301238D01*
X169115381Y-86301238D02*
X169163000Y-86348857D01*
X169163000Y-86348857D02*
X169210619Y-86444095D01*
X169210619Y-86444095D02*
X169210619Y-86539333D01*
X169210619Y-86539333D02*
X169163000Y-86682190D01*
X169163000Y-86682190D02*
X168591572Y-87253619D01*
X168591572Y-87253619D02*
X169210619Y-87253619D01*
X169639191Y-86872666D02*
X170401096Y-86872666D01*
X171353476Y-87253619D02*
X170877286Y-87253619D01*
X170877286Y-87253619D02*
X170877286Y-86253619D01*
X172258238Y-87253619D02*
X171924905Y-86777428D01*
X171686810Y-87253619D02*
X171686810Y-86253619D01*
X171686810Y-86253619D02*
X172067762Y-86253619D01*
X172067762Y-86253619D02*
X172163000Y-86301238D01*
X172163000Y-86301238D02*
X172210619Y-86348857D01*
X172210619Y-86348857D02*
X172258238Y-86444095D01*
X172258238Y-86444095D02*
X172258238Y-86586952D01*
X172258238Y-86586952D02*
X172210619Y-86682190D01*
X172210619Y-86682190D02*
X172163000Y-86729809D01*
X172163000Y-86729809D02*
X172067762Y-86777428D01*
X172067762Y-86777428D02*
X171686810Y-86777428D01*
X172591572Y-87586952D02*
X172829667Y-87586952D01*
X172829667Y-87586952D02*
X172829667Y-86158380D01*
X172829667Y-86158380D02*
X172591572Y-86158380D01*
%TO.C,R6*%
X149560619Y-64682666D02*
X149084428Y-65015999D01*
X149560619Y-65254094D02*
X148560619Y-65254094D01*
X148560619Y-65254094D02*
X148560619Y-64873142D01*
X148560619Y-64873142D02*
X148608238Y-64777904D01*
X148608238Y-64777904D02*
X148655857Y-64730285D01*
X148655857Y-64730285D02*
X148751095Y-64682666D01*
X148751095Y-64682666D02*
X148893952Y-64682666D01*
X148893952Y-64682666D02*
X148989190Y-64730285D01*
X148989190Y-64730285D02*
X149036809Y-64777904D01*
X149036809Y-64777904D02*
X149084428Y-64873142D01*
X149084428Y-64873142D02*
X149084428Y-65254094D01*
X148560619Y-63825523D02*
X148560619Y-64015999D01*
X148560619Y-64015999D02*
X148608238Y-64111237D01*
X148608238Y-64111237D02*
X148655857Y-64158856D01*
X148655857Y-64158856D02*
X148798714Y-64254094D01*
X148798714Y-64254094D02*
X148989190Y-64301713D01*
X148989190Y-64301713D02*
X149370142Y-64301713D01*
X149370142Y-64301713D02*
X149465380Y-64254094D01*
X149465380Y-64254094D02*
X149513000Y-64206475D01*
X149513000Y-64206475D02*
X149560619Y-64111237D01*
X149560619Y-64111237D02*
X149560619Y-63920761D01*
X149560619Y-63920761D02*
X149513000Y-63825523D01*
X149513000Y-63825523D02*
X149465380Y-63777904D01*
X149465380Y-63777904D02*
X149370142Y-63730285D01*
X149370142Y-63730285D02*
X149132047Y-63730285D01*
X149132047Y-63730285D02*
X149036809Y-63777904D01*
X149036809Y-63777904D02*
X148989190Y-63825523D01*
X148989190Y-63825523D02*
X148941571Y-63920761D01*
X148941571Y-63920761D02*
X148941571Y-64111237D01*
X148941571Y-64111237D02*
X148989190Y-64206475D01*
X148989190Y-64206475D02*
X149036809Y-64254094D01*
X149036809Y-64254094D02*
X149132047Y-64301713D01*
D11*
%TO.C,IC2*%
X142042219Y-99618189D02*
X141042219Y-99618189D01*
X141946980Y-98570571D02*
X141994600Y-98618190D01*
X141994600Y-98618190D02*
X142042219Y-98761047D01*
X142042219Y-98761047D02*
X142042219Y-98856285D01*
X142042219Y-98856285D02*
X141994600Y-98999142D01*
X141994600Y-98999142D02*
X141899361Y-99094380D01*
X141899361Y-99094380D02*
X141804123Y-99141999D01*
X141804123Y-99141999D02*
X141613647Y-99189618D01*
X141613647Y-99189618D02*
X141470790Y-99189618D01*
X141470790Y-99189618D02*
X141280314Y-99141999D01*
X141280314Y-99141999D02*
X141185076Y-99094380D01*
X141185076Y-99094380D02*
X141089838Y-98999142D01*
X141089838Y-98999142D02*
X141042219Y-98856285D01*
X141042219Y-98856285D02*
X141042219Y-98761047D01*
X141042219Y-98761047D02*
X141089838Y-98618190D01*
X141089838Y-98618190D02*
X141137457Y-98570571D01*
X141137457Y-98189618D02*
X141089838Y-98141999D01*
X141089838Y-98141999D02*
X141042219Y-98046761D01*
X141042219Y-98046761D02*
X141042219Y-97808666D01*
X141042219Y-97808666D02*
X141089838Y-97713428D01*
X141089838Y-97713428D02*
X141137457Y-97665809D01*
X141137457Y-97665809D02*
X141232695Y-97618190D01*
X141232695Y-97618190D02*
X141327933Y-97618190D01*
X141327933Y-97618190D02*
X141470790Y-97665809D01*
X141470790Y-97665809D02*
X142042219Y-98237237D01*
X142042219Y-98237237D02*
X142042219Y-97618190D01*
%TO.C,IC1*%
X120890810Y-88727619D02*
X120890810Y-87727619D01*
X121938428Y-88632380D02*
X121890809Y-88680000D01*
X121890809Y-88680000D02*
X121747952Y-88727619D01*
X121747952Y-88727619D02*
X121652714Y-88727619D01*
X121652714Y-88727619D02*
X121509857Y-88680000D01*
X121509857Y-88680000D02*
X121414619Y-88584761D01*
X121414619Y-88584761D02*
X121367000Y-88489523D01*
X121367000Y-88489523D02*
X121319381Y-88299047D01*
X121319381Y-88299047D02*
X121319381Y-88156190D01*
X121319381Y-88156190D02*
X121367000Y-87965714D01*
X121367000Y-87965714D02*
X121414619Y-87870476D01*
X121414619Y-87870476D02*
X121509857Y-87775238D01*
X121509857Y-87775238D02*
X121652714Y-87727619D01*
X121652714Y-87727619D02*
X121747952Y-87727619D01*
X121747952Y-87727619D02*
X121890809Y-87775238D01*
X121890809Y-87775238D02*
X121938428Y-87822857D01*
X122890809Y-88727619D02*
X122319381Y-88727619D01*
X122605095Y-88727619D02*
X122605095Y-87727619D01*
X122605095Y-87727619D02*
X122509857Y-87870476D01*
X122509857Y-87870476D02*
X122414619Y-87965714D01*
X122414619Y-87965714D02*
X122319381Y-88013333D01*
D10*
%TO.C,IC3*%
X129135310Y-75836619D02*
X129135310Y-74836619D01*
X130182928Y-75741380D02*
X130135309Y-75789000D01*
X130135309Y-75789000D02*
X129992452Y-75836619D01*
X129992452Y-75836619D02*
X129897214Y-75836619D01*
X129897214Y-75836619D02*
X129754357Y-75789000D01*
X129754357Y-75789000D02*
X129659119Y-75693761D01*
X129659119Y-75693761D02*
X129611500Y-75598523D01*
X129611500Y-75598523D02*
X129563881Y-75408047D01*
X129563881Y-75408047D02*
X129563881Y-75265190D01*
X129563881Y-75265190D02*
X129611500Y-75074714D01*
X129611500Y-75074714D02*
X129659119Y-74979476D01*
X129659119Y-74979476D02*
X129754357Y-74884238D01*
X129754357Y-74884238D02*
X129897214Y-74836619D01*
X129897214Y-74836619D02*
X129992452Y-74836619D01*
X129992452Y-74836619D02*
X130135309Y-74884238D01*
X130135309Y-74884238D02*
X130182928Y-74931857D01*
X130516262Y-74836619D02*
X131135309Y-74836619D01*
X131135309Y-74836619D02*
X130801976Y-75217571D01*
X130801976Y-75217571D02*
X130944833Y-75217571D01*
X130944833Y-75217571D02*
X131040071Y-75265190D01*
X131040071Y-75265190D02*
X131087690Y-75312809D01*
X131087690Y-75312809D02*
X131135309Y-75408047D01*
X131135309Y-75408047D02*
X131135309Y-75646142D01*
X131135309Y-75646142D02*
X131087690Y-75741380D01*
X131087690Y-75741380D02*
X131040071Y-75789000D01*
X131040071Y-75789000D02*
X130944833Y-75836619D01*
X130944833Y-75836619D02*
X130659119Y-75836619D01*
X130659119Y-75836619D02*
X130563881Y-75789000D01*
X130563881Y-75789000D02*
X130516262Y-75741380D01*
%TO.C,R3*%
X145242619Y-96432666D02*
X144766428Y-96765999D01*
X145242619Y-97004094D02*
X144242619Y-97004094D01*
X144242619Y-97004094D02*
X144242619Y-96623142D01*
X144242619Y-96623142D02*
X144290238Y-96527904D01*
X144290238Y-96527904D02*
X144337857Y-96480285D01*
X144337857Y-96480285D02*
X144433095Y-96432666D01*
X144433095Y-96432666D02*
X144575952Y-96432666D01*
X144575952Y-96432666D02*
X144671190Y-96480285D01*
X144671190Y-96480285D02*
X144718809Y-96527904D01*
X144718809Y-96527904D02*
X144766428Y-96623142D01*
X144766428Y-96623142D02*
X144766428Y-97004094D01*
X144242619Y-96099332D02*
X144242619Y-95480285D01*
X144242619Y-95480285D02*
X144623571Y-95813618D01*
X144623571Y-95813618D02*
X144623571Y-95670761D01*
X144623571Y-95670761D02*
X144671190Y-95575523D01*
X144671190Y-95575523D02*
X144718809Y-95527904D01*
X144718809Y-95527904D02*
X144814047Y-95480285D01*
X144814047Y-95480285D02*
X145052142Y-95480285D01*
X145052142Y-95480285D02*
X145147380Y-95527904D01*
X145147380Y-95527904D02*
X145195000Y-95575523D01*
X145195000Y-95575523D02*
X145242619Y-95670761D01*
X145242619Y-95670761D02*
X145242619Y-95956475D01*
X145242619Y-95956475D02*
X145195000Y-96051713D01*
X145195000Y-96051713D02*
X145147380Y-96099332D01*
%TO.C,R1*%
X160736619Y-64682666D02*
X160260428Y-65015999D01*
X160736619Y-65254094D02*
X159736619Y-65254094D01*
X159736619Y-65254094D02*
X159736619Y-64873142D01*
X159736619Y-64873142D02*
X159784238Y-64777904D01*
X159784238Y-64777904D02*
X159831857Y-64730285D01*
X159831857Y-64730285D02*
X159927095Y-64682666D01*
X159927095Y-64682666D02*
X160069952Y-64682666D01*
X160069952Y-64682666D02*
X160165190Y-64730285D01*
X160165190Y-64730285D02*
X160212809Y-64777904D01*
X160212809Y-64777904D02*
X160260428Y-64873142D01*
X160260428Y-64873142D02*
X160260428Y-65254094D01*
X160736619Y-63730285D02*
X160736619Y-64301713D01*
X160736619Y-64015999D02*
X159736619Y-64015999D01*
X159736619Y-64015999D02*
X159879476Y-64111237D01*
X159879476Y-64111237D02*
X159974714Y-64206475D01*
X159974714Y-64206475D02*
X160022333Y-64301713D01*
%TO.C,R7*%
X153624619Y-96432666D02*
X153148428Y-96765999D01*
X153624619Y-97004094D02*
X152624619Y-97004094D01*
X152624619Y-97004094D02*
X152624619Y-96623142D01*
X152624619Y-96623142D02*
X152672238Y-96527904D01*
X152672238Y-96527904D02*
X152719857Y-96480285D01*
X152719857Y-96480285D02*
X152815095Y-96432666D01*
X152815095Y-96432666D02*
X152957952Y-96432666D01*
X152957952Y-96432666D02*
X153053190Y-96480285D01*
X153053190Y-96480285D02*
X153100809Y-96527904D01*
X153100809Y-96527904D02*
X153148428Y-96623142D01*
X153148428Y-96623142D02*
X153148428Y-97004094D01*
X152624619Y-96099332D02*
X152624619Y-95432666D01*
X152624619Y-95432666D02*
X153624619Y-95861237D01*
%TO.C,J2*%
X106341666Y-86092619D02*
X106341666Y-86806904D01*
X106341666Y-86806904D02*
X106294047Y-86949761D01*
X106294047Y-86949761D02*
X106198809Y-87045000D01*
X106198809Y-87045000D02*
X106055952Y-87092619D01*
X106055952Y-87092619D02*
X105960714Y-87092619D01*
X106770238Y-86187857D02*
X106817857Y-86140238D01*
X106817857Y-86140238D02*
X106913095Y-86092619D01*
X106913095Y-86092619D02*
X107151190Y-86092619D01*
X107151190Y-86092619D02*
X107246428Y-86140238D01*
X107246428Y-86140238D02*
X107294047Y-86187857D01*
X107294047Y-86187857D02*
X107341666Y-86283095D01*
X107341666Y-86283095D02*
X107341666Y-86378333D01*
X107341666Y-86378333D02*
X107294047Y-86521190D01*
X107294047Y-86521190D02*
X106722619Y-87092619D01*
X106722619Y-87092619D02*
X107341666Y-87092619D01*
%TO.C,R4*%
X157180619Y-64682666D02*
X156704428Y-65015999D01*
X157180619Y-65254094D02*
X156180619Y-65254094D01*
X156180619Y-65254094D02*
X156180619Y-64873142D01*
X156180619Y-64873142D02*
X156228238Y-64777904D01*
X156228238Y-64777904D02*
X156275857Y-64730285D01*
X156275857Y-64730285D02*
X156371095Y-64682666D01*
X156371095Y-64682666D02*
X156513952Y-64682666D01*
X156513952Y-64682666D02*
X156609190Y-64730285D01*
X156609190Y-64730285D02*
X156656809Y-64777904D01*
X156656809Y-64777904D02*
X156704428Y-64873142D01*
X156704428Y-64873142D02*
X156704428Y-65254094D01*
X156513952Y-63825523D02*
X157180619Y-63825523D01*
X156133000Y-64063618D02*
X156847285Y-64301713D01*
X156847285Y-64301713D02*
X156847285Y-63682666D01*
%TO.C,R5*%
X145242619Y-64682666D02*
X144766428Y-65015999D01*
X145242619Y-65254094D02*
X144242619Y-65254094D01*
X144242619Y-65254094D02*
X144242619Y-64873142D01*
X144242619Y-64873142D02*
X144290238Y-64777904D01*
X144290238Y-64777904D02*
X144337857Y-64730285D01*
X144337857Y-64730285D02*
X144433095Y-64682666D01*
X144433095Y-64682666D02*
X144575952Y-64682666D01*
X144575952Y-64682666D02*
X144671190Y-64730285D01*
X144671190Y-64730285D02*
X144718809Y-64777904D01*
X144718809Y-64777904D02*
X144766428Y-64873142D01*
X144766428Y-64873142D02*
X144766428Y-65254094D01*
X144242619Y-63777904D02*
X144242619Y-64254094D01*
X144242619Y-64254094D02*
X144718809Y-64301713D01*
X144718809Y-64301713D02*
X144671190Y-64254094D01*
X144671190Y-64254094D02*
X144623571Y-64158856D01*
X144623571Y-64158856D02*
X144623571Y-63920761D01*
X144623571Y-63920761D02*
X144671190Y-63825523D01*
X144671190Y-63825523D02*
X144718809Y-63777904D01*
X144718809Y-63777904D02*
X144814047Y-63730285D01*
X144814047Y-63730285D02*
X145052142Y-63730285D01*
X145052142Y-63730285D02*
X145147380Y-63777904D01*
X145147380Y-63777904D02*
X145195000Y-63825523D01*
X145195000Y-63825523D02*
X145242619Y-63920761D01*
X145242619Y-63920761D02*
X145242619Y-64158856D01*
X145242619Y-64158856D02*
X145195000Y-64254094D01*
X145195000Y-64254094D02*
X145147380Y-64301713D01*
%TO.C,J1*%
X106341666Y-63232619D02*
X106341666Y-63946904D01*
X106341666Y-63946904D02*
X106294047Y-64089761D01*
X106294047Y-64089761D02*
X106198809Y-64185000D01*
X106198809Y-64185000D02*
X106055952Y-64232619D01*
X106055952Y-64232619D02*
X105960714Y-64232619D01*
X107341666Y-64232619D02*
X106770238Y-64232619D01*
X107055952Y-64232619D02*
X107055952Y-63232619D01*
X107055952Y-63232619D02*
X106960714Y-63375476D01*
X106960714Y-63375476D02*
X106865476Y-63470714D01*
X106865476Y-63470714D02*
X106770238Y-63518333D01*
%TO.C,R8*%
X161244619Y-96432666D02*
X160768428Y-96765999D01*
X161244619Y-97004094D02*
X160244619Y-97004094D01*
X160244619Y-97004094D02*
X160244619Y-96623142D01*
X160244619Y-96623142D02*
X160292238Y-96527904D01*
X160292238Y-96527904D02*
X160339857Y-96480285D01*
X160339857Y-96480285D02*
X160435095Y-96432666D01*
X160435095Y-96432666D02*
X160577952Y-96432666D01*
X160577952Y-96432666D02*
X160673190Y-96480285D01*
X160673190Y-96480285D02*
X160720809Y-96527904D01*
X160720809Y-96527904D02*
X160768428Y-96623142D01*
X160768428Y-96623142D02*
X160768428Y-97004094D01*
X160673190Y-95861237D02*
X160625571Y-95956475D01*
X160625571Y-95956475D02*
X160577952Y-96004094D01*
X160577952Y-96004094D02*
X160482714Y-96051713D01*
X160482714Y-96051713D02*
X160435095Y-96051713D01*
X160435095Y-96051713D02*
X160339857Y-96004094D01*
X160339857Y-96004094D02*
X160292238Y-95956475D01*
X160292238Y-95956475D02*
X160244619Y-95861237D01*
X160244619Y-95861237D02*
X160244619Y-95670761D01*
X160244619Y-95670761D02*
X160292238Y-95575523D01*
X160292238Y-95575523D02*
X160339857Y-95527904D01*
X160339857Y-95527904D02*
X160435095Y-95480285D01*
X160435095Y-95480285D02*
X160482714Y-95480285D01*
X160482714Y-95480285D02*
X160577952Y-95527904D01*
X160577952Y-95527904D02*
X160625571Y-95575523D01*
X160625571Y-95575523D02*
X160673190Y-95670761D01*
X160673190Y-95670761D02*
X160673190Y-95861237D01*
X160673190Y-95861237D02*
X160720809Y-95956475D01*
X160720809Y-95956475D02*
X160768428Y-96004094D01*
X160768428Y-96004094D02*
X160863666Y-96051713D01*
X160863666Y-96051713D02*
X161054142Y-96051713D01*
X161054142Y-96051713D02*
X161149380Y-96004094D01*
X161149380Y-96004094D02*
X161197000Y-95956475D01*
X161197000Y-95956475D02*
X161244619Y-95861237D01*
X161244619Y-95861237D02*
X161244619Y-95670761D01*
X161244619Y-95670761D02*
X161197000Y-95575523D01*
X161197000Y-95575523D02*
X161149380Y-95527904D01*
X161149380Y-95527904D02*
X161054142Y-95480285D01*
X161054142Y-95480285D02*
X160863666Y-95480285D01*
X160863666Y-95480285D02*
X160768428Y-95527904D01*
X160768428Y-95527904D02*
X160720809Y-95575523D01*
X160720809Y-95575523D02*
X160673190Y-95670761D01*
%TO.C,R2*%
X153370619Y-64682666D02*
X152894428Y-65015999D01*
X153370619Y-65254094D02*
X152370619Y-65254094D01*
X152370619Y-65254094D02*
X152370619Y-64873142D01*
X152370619Y-64873142D02*
X152418238Y-64777904D01*
X152418238Y-64777904D02*
X152465857Y-64730285D01*
X152465857Y-64730285D02*
X152561095Y-64682666D01*
X152561095Y-64682666D02*
X152703952Y-64682666D01*
X152703952Y-64682666D02*
X152799190Y-64730285D01*
X152799190Y-64730285D02*
X152846809Y-64777904D01*
X152846809Y-64777904D02*
X152894428Y-64873142D01*
X152894428Y-64873142D02*
X152894428Y-65254094D01*
X152465857Y-64301713D02*
X152418238Y-64254094D01*
X152418238Y-64254094D02*
X152370619Y-64158856D01*
X152370619Y-64158856D02*
X152370619Y-63920761D01*
X152370619Y-63920761D02*
X152418238Y-63825523D01*
X152418238Y-63825523D02*
X152465857Y-63777904D01*
X152465857Y-63777904D02*
X152561095Y-63730285D01*
X152561095Y-63730285D02*
X152656333Y-63730285D01*
X152656333Y-63730285D02*
X152799190Y-63777904D01*
X152799190Y-63777904D02*
X153370619Y-64349332D01*
X153370619Y-64349332D02*
X153370619Y-63730285D01*
D12*
%TO.C,R6*%
X150468000Y-67596000D02*
X150468000Y-74136000D01*
X150138000Y-67596000D02*
X150468000Y-67596000D01*
X148058000Y-67596000D02*
X147728000Y-67596000D01*
X147728000Y-67596000D02*
X147728000Y-74136000D01*
X149589000Y-70611276D02*
X149589000Y-71120724D01*
X148544000Y-70611276D02*
X148544000Y-71120724D01*
X150468000Y-74136000D02*
X150138000Y-74136000D01*
X147728000Y-74136000D02*
X148058000Y-74136000D01*
%TO.C,G\u002A\u002A\u002A*%
G36*
X166717315Y-73115048D02*
G01*
X166856466Y-73117841D01*
X167523163Y-73150124D01*
X167998720Y-73192295D01*
X168075008Y-73204522D01*
X168128716Y-73221736D01*
X168156033Y-73241919D01*
X168153149Y-73263050D01*
X168144999Y-73269833D01*
X168112636Y-73278557D01*
X168051312Y-73283599D01*
X167967164Y-73285049D01*
X167866330Y-73282999D01*
X167754950Y-73277542D01*
X167639160Y-73268769D01*
X167562512Y-73261120D01*
X167484744Y-73253689D01*
X167379969Y-73245361D01*
X167256453Y-73236703D01*
X167122460Y-73228279D01*
X166986255Y-73220654D01*
X166927070Y-73217664D01*
X166756540Y-73209022D01*
X166618402Y-73201158D01*
X166509762Y-73193785D01*
X166427727Y-73186615D01*
X166369404Y-73179359D01*
X166331897Y-73171730D01*
X166312315Y-73163438D01*
X166307602Y-73155964D01*
X166316478Y-73140855D01*
X166345728Y-73129298D01*
X166397894Y-73121115D01*
X166475519Y-73116130D01*
X166581145Y-73114167D01*
X166717315Y-73115048D01*
G37*
G36*
X166500760Y-68824165D02*
G01*
X166528656Y-68831459D01*
X166538187Y-68847455D01*
X166538745Y-68856401D01*
X166531185Y-68878566D01*
X166503540Y-68894577D01*
X166448363Y-68908672D01*
X166446076Y-68909136D01*
X166361967Y-68923092D01*
X166248131Y-68937461D01*
X166110134Y-68951755D01*
X165953539Y-68965486D01*
X165783912Y-68978166D01*
X165606816Y-68989309D01*
X165427817Y-68998425D01*
X165426723Y-68998474D01*
X165292201Y-69004404D01*
X165187294Y-69008749D01*
X165106351Y-69011527D01*
X165043721Y-69012758D01*
X164993753Y-69012463D01*
X164950795Y-69010660D01*
X164909198Y-69007368D01*
X164863309Y-69002609D01*
X164844235Y-69000493D01*
X164765679Y-68988015D01*
X164719554Y-68971233D01*
X164703139Y-68949114D01*
X164703026Y-68946780D01*
X164707015Y-68937884D01*
X164721095Y-68930321D01*
X164748438Y-68923831D01*
X164792212Y-68918156D01*
X164855588Y-68913038D01*
X164941736Y-68908216D01*
X165053826Y-68903433D01*
X165195029Y-68898430D01*
X165359061Y-68893236D01*
X165509628Y-68887987D01*
X165659441Y-68881571D01*
X165802021Y-68874354D01*
X165930884Y-68866700D01*
X166039550Y-68858973D01*
X166121538Y-68851539D01*
X166141594Y-68849217D01*
X166234838Y-68838494D01*
X166325150Y-68829814D01*
X166401261Y-68824167D01*
X166446076Y-68822491D01*
X166500760Y-68824165D01*
G37*
G36*
X167220400Y-71294755D02*
G01*
X167279472Y-71311240D01*
X167293843Y-71317854D01*
X167326423Y-71330259D01*
X167388002Y-71349535D01*
X167473280Y-71374187D01*
X167576960Y-71402718D01*
X167693744Y-71433631D01*
X167799764Y-71460765D01*
X167962419Y-71502349D01*
X168093835Y-71537673D01*
X168197234Y-71568138D01*
X168275840Y-71595140D01*
X168332875Y-71620078D01*
X168371562Y-71644352D01*
X168395123Y-71669358D01*
X168406781Y-71696496D01*
X168409767Y-71725463D01*
X168400508Y-71745055D01*
X168371278Y-71767112D01*
X168319897Y-71792437D01*
X168244183Y-71821833D01*
X168141955Y-71856102D01*
X168011033Y-71896046D01*
X167849235Y-71942467D01*
X167730197Y-71975474D01*
X167603357Y-72011134D01*
X167469109Y-72050337D01*
X167338186Y-72089852D01*
X167221318Y-72126446D01*
X167139273Y-72153446D01*
X167033743Y-72191176D01*
X166932033Y-72230732D01*
X166839398Y-72269738D01*
X166761096Y-72305815D01*
X166702383Y-72336589D01*
X166668517Y-72359680D01*
X166662303Y-72369103D01*
X166674532Y-72387941D01*
X166712276Y-72405073D01*
X166777117Y-72420734D01*
X166870639Y-72435160D01*
X166994425Y-72448586D01*
X167150058Y-72461248D01*
X167339122Y-72473383D01*
X167377174Y-72475548D01*
X167569820Y-72487258D01*
X167729511Y-72499159D01*
X167858598Y-72511641D01*
X167959427Y-72525094D01*
X168034347Y-72539908D01*
X168085707Y-72556472D01*
X168115854Y-72575178D01*
X168127137Y-72596414D01*
X168127348Y-72600102D01*
X168110018Y-72608160D01*
X168059014Y-72613021D01*
X167975818Y-72614707D01*
X167861914Y-72613238D01*
X167718782Y-72608635D01*
X167547905Y-72600921D01*
X167350764Y-72590117D01*
X167324221Y-72588542D01*
X167142568Y-72576210D01*
X166992532Y-72562571D01*
X166870432Y-72547022D01*
X166772589Y-72528960D01*
X166695325Y-72507784D01*
X166634959Y-72482889D01*
X166616070Y-72472556D01*
X166556248Y-72428179D01*
X166531225Y-72385762D01*
X166540609Y-72344462D01*
X166550555Y-72331630D01*
X166603390Y-72287637D01*
X166685993Y-72237475D01*
X166793783Y-72183131D01*
X166922180Y-72126588D01*
X167066603Y-72069830D01*
X167222472Y-72014843D01*
X167385206Y-71963611D01*
X167430128Y-71950565D01*
X167478876Y-71936739D01*
X167554561Y-71915358D01*
X167650133Y-71888405D01*
X167758542Y-71857866D01*
X167872736Y-71825724D01*
X167985664Y-71793965D01*
X168090276Y-71764574D01*
X168179521Y-71739534D01*
X168239445Y-71722759D01*
X168259926Y-71709045D01*
X168256351Y-71697872D01*
X168235985Y-71689934D01*
X168185489Y-71674705D01*
X168109018Y-71653308D01*
X168010728Y-71626867D01*
X167894773Y-71596508D01*
X167765308Y-71563353D01*
X167677457Y-71541231D01*
X167505962Y-71497827D01*
X167366313Y-71461164D01*
X167255910Y-71430256D01*
X167172152Y-71404115D01*
X167112441Y-71381755D01*
X167074175Y-71362189D01*
X167054755Y-71344431D01*
X167051580Y-71327494D01*
X167062051Y-71310391D01*
X167063965Y-71308416D01*
X167099863Y-71292818D01*
X167156269Y-71288439D01*
X167220400Y-71294755D01*
G37*
G36*
X166927572Y-67333401D02*
G01*
X167036036Y-67333401D01*
X167039063Y-67356084D01*
X167041007Y-67357305D01*
X167058566Y-67346120D01*
X167093919Y-67316791D01*
X167139430Y-67275655D01*
X167139640Y-67275459D01*
X167193858Y-67221659D01*
X167222018Y-67186376D01*
X167223500Y-67170659D01*
X167198882Y-67175094D01*
X167166108Y-67174665D01*
X167146538Y-67147024D01*
X167140513Y-67097834D01*
X167148375Y-67032759D01*
X167159564Y-66994621D01*
X167390062Y-66994621D01*
X167390355Y-67039467D01*
X167396331Y-67056778D01*
X167396704Y-67056798D01*
X167418464Y-67046826D01*
X167458544Y-67021463D01*
X167496320Y-66994847D01*
X167548371Y-66952559D01*
X167576787Y-66920433D01*
X167579165Y-66901757D01*
X167566757Y-66898375D01*
X167547926Y-66885170D01*
X167532108Y-66864358D01*
X167521834Y-66837051D01*
X167521383Y-66797372D01*
X167531008Y-66736140D01*
X167536381Y-66709910D01*
X167550082Y-66630624D01*
X167559466Y-66548432D01*
X167562205Y-66494431D01*
X167562512Y-66399382D01*
X167523173Y-66450303D01*
X167490235Y-66491382D01*
X167462983Y-66522867D01*
X167461278Y-66524665D01*
X167425473Y-66574469D01*
X167408542Y-66635238D01*
X167406519Y-66708136D01*
X167406230Y-66775757D01*
X167401897Y-66858860D01*
X167395518Y-66929265D01*
X167390062Y-66994621D01*
X167159564Y-66994621D01*
X167170466Y-66957463D01*
X167183760Y-66924854D01*
X167206023Y-66871241D01*
X167219626Y-66831948D01*
X167221757Y-66816504D01*
X167204873Y-66821428D01*
X167172952Y-66842641D01*
X167169400Y-66845398D01*
X167129841Y-66894596D01*
X167096025Y-66972321D01*
X167070432Y-67071949D01*
X167060392Y-67136666D01*
X167051708Y-67204955D01*
X167042649Y-67271383D01*
X167039779Y-67291113D01*
X167036036Y-67333401D01*
X166927572Y-67333401D01*
X166927361Y-67331711D01*
X166931750Y-67273205D01*
X166943054Y-67194654D01*
X166959205Y-67106103D01*
X166978136Y-67017603D01*
X166997779Y-66939202D01*
X167016068Y-66880947D01*
X167023769Y-66863073D01*
X167045927Y-66831929D01*
X167089115Y-66781148D01*
X167148912Y-66715557D01*
X167220898Y-66639984D01*
X167300653Y-66559258D01*
X167314682Y-66545352D01*
X167443005Y-66421103D01*
X167565809Y-66307057D01*
X167680556Y-66205243D01*
X167784708Y-66117691D01*
X167875724Y-66046429D01*
X167951067Y-65993487D01*
X168008197Y-65960896D01*
X168044575Y-65950683D01*
X168053996Y-65954402D01*
X168061790Y-65981159D01*
X168064559Y-66034941D01*
X168062818Y-66107908D01*
X168057080Y-66192221D01*
X168047862Y-66280040D01*
X168035677Y-66363525D01*
X168022978Y-66426890D01*
X168006150Y-66504423D01*
X167993356Y-66576060D01*
X167986660Y-66629757D01*
X167986139Y-66642008D01*
X167987733Y-66669679D01*
X167995182Y-66694546D01*
X168012485Y-66721216D01*
X168043642Y-66754294D01*
X168092654Y-66798388D01*
X168163520Y-66858102D01*
X168200091Y-66888393D01*
X168272613Y-66953076D01*
X168315037Y-67003140D01*
X168328406Y-67040593D01*
X168313763Y-67067445D01*
X168297945Y-67076772D01*
X168271116Y-67097313D01*
X168236674Y-67134108D01*
X168201314Y-67178339D01*
X168171733Y-67221183D01*
X168154627Y-67253821D01*
X168154046Y-67266328D01*
X168169697Y-67260137D01*
X168197323Y-67234023D01*
X168202837Y-67227772D01*
X168238213Y-67195872D01*
X168270458Y-67180945D01*
X168272980Y-67180793D01*
X168307547Y-67188282D01*
X168364911Y-67208237D01*
X168436519Y-67236891D01*
X168513819Y-67270477D01*
X168588259Y-67305228D01*
X168651288Y-67337377D01*
X168694352Y-67363156D01*
X168703752Y-67370543D01*
X168735947Y-67397654D01*
X168756125Y-67410161D01*
X168756928Y-67410258D01*
X168773745Y-67398212D01*
X168808128Y-67366286D01*
X168853979Y-67320801D01*
X168905204Y-67268078D01*
X168955706Y-67214437D01*
X168999391Y-67166198D01*
X169030163Y-67129681D01*
X169038404Y-67118406D01*
X169055075Y-67082515D01*
X169055360Y-67059382D01*
X169030769Y-67044697D01*
X168978297Y-67028259D01*
X168905218Y-67011557D01*
X168818805Y-66996079D01*
X168726331Y-66983316D01*
X168645730Y-66975513D01*
X168569656Y-66968456D01*
X168502741Y-66959752D01*
X168456059Y-66950928D01*
X168446425Y-66948047D01*
X168417139Y-66934406D01*
X168418231Y-66919046D01*
X168433943Y-66902062D01*
X168454425Y-66887892D01*
X168486214Y-66879036D01*
X168536499Y-66874520D01*
X168612466Y-66873371D01*
X168644401Y-66873566D01*
X168777020Y-66881371D01*
X168900945Y-66901091D01*
X169010351Y-66930929D01*
X169099409Y-66969090D01*
X169162293Y-67013779D01*
X169183071Y-67039586D01*
X169196467Y-67072257D01*
X169188357Y-67104130D01*
X169176115Y-67124897D01*
X169143672Y-67169524D01*
X169114763Y-67202153D01*
X169078953Y-67240338D01*
X169059538Y-67263932D01*
X169036065Y-67289742D01*
X168992168Y-67333636D01*
X168933669Y-67390090D01*
X168866391Y-67453579D01*
X168796154Y-67518578D01*
X168728782Y-67579562D01*
X168700725Y-67604421D01*
X168645871Y-67649913D01*
X168587457Y-67694101D01*
X168533502Y-67731390D01*
X168492026Y-67756190D01*
X168472962Y-67763281D01*
X168451822Y-67772845D01*
X168412219Y-67797538D01*
X168376829Y-67822005D01*
X168310650Y-67863991D01*
X168234385Y-67904692D01*
X168197953Y-67921277D01*
X168134076Y-67950647D01*
X168075156Y-67982154D01*
X168047918Y-67999350D01*
X168008392Y-68021079D01*
X167959910Y-68032717D01*
X167890747Y-68036757D01*
X167871407Y-68036874D01*
X167750348Y-68030852D01*
X167651308Y-68013612D01*
X167577172Y-67986390D01*
X167530826Y-67950424D01*
X167515158Y-67906949D01*
X167518734Y-67885735D01*
X167533031Y-67861877D01*
X167559656Y-67853825D01*
X167604355Y-67861893D01*
X167672875Y-67886394D01*
X167694895Y-67895328D01*
X167758750Y-67918553D01*
X167816962Y-67934540D01*
X167850483Y-67939374D01*
X167884444Y-67934268D01*
X167932397Y-67920959D01*
X167984576Y-67903056D01*
X168031215Y-67884169D01*
X168062548Y-67867908D01*
X168069505Y-67858414D01*
X168050547Y-67854154D01*
X168004241Y-67847458D01*
X167938365Y-67839379D01*
X167888043Y-67833812D01*
X167782618Y-67822072D01*
X167707607Y-67812129D01*
X167682210Y-67807409D01*
X168197953Y-67807409D01*
X168206778Y-67816235D01*
X168215604Y-67807409D01*
X168206778Y-67798584D01*
X168197953Y-67807409D01*
X167682210Y-67807409D01*
X167658233Y-67802953D01*
X167629721Y-67793516D01*
X167617296Y-67782789D01*
X167615577Y-67775117D01*
X167629610Y-67753220D01*
X167663733Y-67727202D01*
X167668530Y-67724387D01*
X167704384Y-67696461D01*
X167721195Y-67668549D01*
X167721372Y-67666144D01*
X167717873Y-67650292D01*
X167704038Y-67649794D01*
X167674861Y-67666952D01*
X167625335Y-67704070D01*
X167606126Y-67719153D01*
X167550298Y-67765891D01*
X167494099Y-67817327D01*
X167443912Y-67867060D01*
X167406117Y-67908686D01*
X167387094Y-67935805D01*
X167386000Y-67940020D01*
X167396731Y-67959526D01*
X167425001Y-67998247D01*
X167464926Y-68048984D01*
X167510621Y-68104539D01*
X167556202Y-68157715D01*
X167595784Y-68201314D01*
X167616697Y-68222211D01*
X167643346Y-68251043D01*
X167680595Y-68296306D01*
X167705182Y-68328118D01*
X167741725Y-68375306D01*
X167771894Y-68411866D01*
X167784311Y-68425199D01*
X167807239Y-68453785D01*
X167841841Y-68505986D01*
X167883562Y-68574071D01*
X167927845Y-68650306D01*
X167970136Y-68726956D01*
X168005877Y-68796288D01*
X168018362Y-68822499D01*
X168054798Y-68904144D01*
X168082574Y-68974640D01*
X168102920Y-69041023D01*
X168117067Y-69110328D01*
X168126245Y-69189589D01*
X168131687Y-69285843D01*
X168134621Y-69406123D01*
X168135695Y-69493094D01*
X168139315Y-69854942D01*
X168117225Y-69272454D01*
X168109697Y-69987326D01*
X168054855Y-69987326D01*
X168017213Y-69983158D01*
X168008123Y-69968250D01*
X168010258Y-69960629D01*
X168020218Y-69918267D01*
X168029662Y-69849167D01*
X168038020Y-69761895D01*
X168044727Y-69665013D01*
X168049214Y-69567087D01*
X168050914Y-69476681D01*
X168049261Y-69402359D01*
X168048248Y-69387187D01*
X168030186Y-69227547D01*
X168001030Y-69087415D01*
X167956772Y-68952178D01*
X167893403Y-68807221D01*
X167883624Y-68787048D01*
X167836188Y-68692018D01*
X167793600Y-68612777D01*
X167751320Y-68543101D01*
X167704812Y-68476762D01*
X167649537Y-68407536D01*
X167580956Y-68329198D01*
X167494532Y-68235521D01*
X167437140Y-68174562D01*
X167375424Y-68110419D01*
X167330871Y-68069491D01*
X167296851Y-68048916D01*
X167266733Y-68045829D01*
X167233887Y-68057368D01*
X167203714Y-68073761D01*
X167133324Y-68107119D01*
X167083486Y-68115571D01*
X167055870Y-68099101D01*
X167050628Y-68074912D01*
X167066177Y-68026314D01*
X167104516Y-67988565D01*
X167149099Y-67974360D01*
X167160910Y-67965617D01*
X167147192Y-67943248D01*
X167112952Y-67911340D01*
X167063201Y-67873980D01*
X167002945Y-67835255D01*
X166937193Y-67799252D01*
X166930419Y-67795915D01*
X166870347Y-67767628D01*
X166833511Y-67754175D01*
X166811888Y-67753990D01*
X166797454Y-67765503D01*
X166794518Y-67769353D01*
X166768639Y-67792253D01*
X166743815Y-67798322D01*
X166732908Y-67784678D01*
X166722443Y-67763692D01*
X166696212Y-67727758D01*
X166684367Y-67713316D01*
X166653078Y-67682467D01*
X166613213Y-67657936D01*
X166570558Y-67641150D01*
X166927070Y-67641150D01*
X166942957Y-67662854D01*
X166990265Y-67699204D01*
X167068468Y-67749829D01*
X167150490Y-67798937D01*
X167213671Y-67834108D01*
X167254916Y-67851733D01*
X167281432Y-67854188D01*
X167296567Y-67847069D01*
X167324572Y-67825051D01*
X167369293Y-67789210D01*
X167411659Y-67754924D01*
X167466399Y-67709560D01*
X167516901Y-67666264D01*
X167544043Y-67641931D01*
X167573820Y-67615377D01*
X167624290Y-67571644D01*
X167674597Y-67528601D01*
X167839395Y-67528601D01*
X167917180Y-67537396D01*
X167992169Y-67554380D01*
X168077138Y-67586375D01*
X168158380Y-67627146D01*
X168222188Y-67670455D01*
X168234779Y-67681904D01*
X168271445Y-67711491D01*
X168302418Y-67725635D01*
X168303860Y-67725771D01*
X168331014Y-67717795D01*
X168378344Y-67695337D01*
X168436322Y-67662988D01*
X168445069Y-67657736D01*
X168512010Y-67617672D01*
X168577067Y-67579586D01*
X168625993Y-67551816D01*
X168666674Y-67526304D01*
X168690012Y-67505549D01*
X168692185Y-67500583D01*
X168675891Y-67492666D01*
X168632323Y-67484108D01*
X168569450Y-67476308D01*
X168537737Y-67473478D01*
X168416185Y-67460847D01*
X168303675Y-67443526D01*
X168207176Y-67422944D01*
X168133659Y-67400533D01*
X168097214Y-67383008D01*
X168069972Y-67368873D01*
X168043660Y-67367666D01*
X168011612Y-67382354D01*
X167967161Y-67415903D01*
X167908354Y-67467075D01*
X167839395Y-67528601D01*
X167674597Y-67528601D01*
X167689077Y-67516212D01*
X167761800Y-67454558D01*
X167783151Y-67436561D01*
X167897441Y-67337925D01*
X167989155Y-67252773D01*
X168064817Y-67174603D01*
X168130953Y-67096913D01*
X168155352Y-67065628D01*
X168198359Y-67009242D01*
X168131964Y-66965126D01*
X168064825Y-66915291D01*
X167998306Y-66857044D01*
X167939303Y-66797406D01*
X167894714Y-66743398D01*
X167871434Y-66702040D01*
X167870585Y-66699039D01*
X167869397Y-66655852D01*
X167878880Y-66581840D01*
X167898629Y-66479701D01*
X167913430Y-66413755D01*
X167933561Y-66326136D01*
X167950391Y-66250338D01*
X167962433Y-66193253D01*
X167968200Y-66161774D01*
X167968488Y-66158573D01*
X167957288Y-66140049D01*
X167923780Y-66148710D01*
X167868099Y-66184491D01*
X167801806Y-66237562D01*
X167735274Y-66297751D01*
X167697565Y-66341662D01*
X167687378Y-66371426D01*
X167703413Y-66389172D01*
X167708133Y-66390974D01*
X167718108Y-66404874D01*
X167724201Y-66441242D01*
X167726758Y-66504228D01*
X167726125Y-66597981D01*
X167725980Y-66605325D01*
X167724580Y-66692920D01*
X167725067Y-66750180D01*
X167728082Y-66782049D01*
X167734269Y-66793471D01*
X167744271Y-66789393D01*
X167749305Y-66784708D01*
X167787524Y-66761319D01*
X167824284Y-66760690D01*
X167847452Y-66782414D01*
X167849113Y-66788055D01*
X167849872Y-66824359D01*
X167833207Y-66860864D01*
X167795432Y-66901753D01*
X167732860Y-66951210D01*
X167662665Y-66999625D01*
X167379169Y-67205789D01*
X167185729Y-67371095D01*
X167115582Y-67437077D01*
X167050153Y-67501380D01*
X166994207Y-67559034D01*
X166952506Y-67605064D01*
X166929814Y-67634498D01*
X166927070Y-67641150D01*
X166570558Y-67641150D01*
X166555924Y-67635391D01*
X166476966Y-67611775D01*
X166255089Y-67563813D01*
X166037438Y-67545328D01*
X165819616Y-67556741D01*
X165597226Y-67598470D01*
X165365873Y-67670933D01*
X165214909Y-67731956D01*
X165141907Y-67764605D01*
X165079344Y-67794076D01*
X165035494Y-67816392D01*
X165020746Y-67825326D01*
X164991047Y-67844990D01*
X164942897Y-67873984D01*
X164906014Y-67895137D01*
X164765127Y-67983390D01*
X164621070Y-68090044D01*
X164480939Y-68208687D01*
X164351829Y-68332909D01*
X164240836Y-68456299D01*
X164155054Y-68572446D01*
X164153274Y-68575234D01*
X164106578Y-68659615D01*
X164060295Y-68761779D01*
X164020328Y-68867202D01*
X163992578Y-68961362D01*
X163988286Y-68981210D01*
X163970728Y-69104430D01*
X163960567Y-69248560D01*
X163958155Y-69399920D01*
X163963847Y-69544828D01*
X163971607Y-69625477D01*
X163994618Y-69783949D01*
X164023009Y-69921573D01*
X164060261Y-70049596D01*
X164109854Y-70179268D01*
X164175266Y-70321838D01*
X164206376Y-70384476D01*
X164270106Y-70505754D01*
X164323509Y-70596100D01*
X164368178Y-70657816D01*
X164405703Y-70693200D01*
X164427039Y-70703174D01*
X164465348Y-70730270D01*
X164490465Y-70777382D01*
X164530626Y-70861939D01*
X164589771Y-70941049D01*
X164672131Y-71019016D01*
X164781936Y-71100140D01*
X164853061Y-71146108D01*
X164994508Y-71219841D01*
X165165736Y-71282989D01*
X165368775Y-71336284D01*
X165400246Y-71343084D01*
X165476762Y-71358468D01*
X165544955Y-71369920D01*
X165612372Y-71378020D01*
X165686560Y-71383344D01*
X165775065Y-71386473D01*
X165885434Y-71387985D01*
X165991559Y-71388413D01*
X166117887Y-71388450D01*
X166215069Y-71387693D01*
X166289261Y-71385592D01*
X166346618Y-71381599D01*
X166393297Y-71375162D01*
X166435452Y-71365733D01*
X166479240Y-71352762D01*
X166512268Y-71341912D01*
X166630761Y-71295001D01*
X166745026Y-71233058D01*
X166851795Y-71161127D01*
X166878622Y-71155644D01*
X166899160Y-71174365D01*
X166922087Y-71197414D01*
X166949683Y-71202755D01*
X166991028Y-71189939D01*
X167037686Y-71167550D01*
X167123029Y-71116605D01*
X167223647Y-71044672D01*
X167332242Y-70957909D01*
X167441514Y-70862468D01*
X167544164Y-70764506D01*
X167632895Y-70670176D01*
X167647314Y-70653483D01*
X167705397Y-70580041D01*
X167766810Y-70494413D01*
X167817021Y-70417110D01*
X167893100Y-70290882D01*
X167851364Y-70271866D01*
X167815769Y-70245626D01*
X167813589Y-70218717D01*
X167843504Y-70196762D01*
X167870778Y-70189267D01*
X167922474Y-70174347D01*
X167953965Y-70147355D01*
X167974896Y-70098359D01*
X167981152Y-70075581D01*
X167997152Y-70032666D01*
X168023256Y-70013547D01*
X168053348Y-70008271D01*
X168090032Y-70008038D01*
X168106857Y-70021124D01*
X168106374Y-70054226D01*
X168092217Y-70110288D01*
X168083671Y-70164562D01*
X168092217Y-70188719D01*
X168104367Y-70217338D01*
X168109687Y-70262484D01*
X168109697Y-70264449D01*
X168105171Y-70305575D01*
X168087887Y-70321382D01*
X168074673Y-70322697D01*
X168029208Y-70338566D01*
X167977349Y-70382768D01*
X167924011Y-70450194D01*
X167879238Y-70525686D01*
X167824322Y-70631593D01*
X167958869Y-70640418D01*
X168041103Y-70648885D01*
X168091165Y-70661717D01*
X168110111Y-70675720D01*
X168123584Y-70692259D01*
X168127073Y-70677673D01*
X168127078Y-70677287D01*
X168144145Y-70669486D01*
X168192583Y-70663895D01*
X168268538Y-70660385D01*
X168368156Y-70658829D01*
X168487583Y-70659097D01*
X168622965Y-70661063D01*
X168770449Y-70664597D01*
X168926179Y-70669573D01*
X169086303Y-70675862D01*
X169246965Y-70683336D01*
X169404314Y-70691868D01*
X169554493Y-70701328D01*
X169693650Y-70711589D01*
X169817931Y-70722523D01*
X169923481Y-70734002D01*
X169954242Y-70737983D01*
X170124947Y-70764010D01*
X170265994Y-70792528D01*
X170383023Y-70825687D01*
X170481678Y-70865635D01*
X170567599Y-70914521D01*
X170646428Y-70974493D01*
X170696982Y-71020872D01*
X170780925Y-71117103D01*
X170830793Y-71208743D01*
X170846508Y-71295052D01*
X170827993Y-71375286D01*
X170775168Y-71448703D01*
X170744669Y-71475791D01*
X170705279Y-71508990D01*
X170678669Y-71533592D01*
X170643431Y-71557628D01*
X170583079Y-71587825D01*
X170506418Y-71620559D01*
X170422252Y-71652202D01*
X170339385Y-71679130D01*
X170297115Y-71690726D01*
X170233873Y-71705175D01*
X170147427Y-71722982D01*
X170049418Y-71741831D01*
X169956587Y-71758523D01*
X169730276Y-71797631D01*
X169934928Y-71883744D01*
X170012397Y-71917241D01*
X170076418Y-71946635D01*
X170120806Y-71968962D01*
X170139378Y-71981255D01*
X170139579Y-71981874D01*
X170153734Y-71997236D01*
X170182331Y-72013369D01*
X170228924Y-72039192D01*
X170257348Y-72059239D01*
X170287061Y-72083337D01*
X170334223Y-72121373D01*
X170388739Y-72165205D01*
X170389890Y-72166129D01*
X170446834Y-72215411D01*
X170497815Y-72265666D01*
X170530249Y-72304017D01*
X170558526Y-72342821D01*
X170578721Y-72367561D01*
X170581529Y-72370230D01*
X170597169Y-72396003D01*
X170613988Y-72442343D01*
X170627639Y-72494954D01*
X170633775Y-72539537D01*
X170633811Y-72542238D01*
X170616879Y-72605454D01*
X170568958Y-72665263D01*
X170494359Y-72717941D01*
X170397393Y-72759764D01*
X170373457Y-72767147D01*
X170342585Y-72783067D01*
X170333742Y-72797442D01*
X170345540Y-72816809D01*
X170377561Y-72855055D01*
X170424744Y-72906425D01*
X170475112Y-72958240D01*
X170555558Y-73045076D01*
X170609887Y-73120561D01*
X170641693Y-73192410D01*
X170654569Y-73268339D01*
X170653375Y-73341044D01*
X170635042Y-73386117D01*
X170590371Y-73438745D01*
X170525911Y-73493657D01*
X170448214Y-73545580D01*
X170363830Y-73589244D01*
X170325814Y-73604649D01*
X170170698Y-73655851D01*
X170004462Y-73698826D01*
X169821149Y-73734735D01*
X169614805Y-73764740D01*
X169379475Y-73790003D01*
X169371754Y-73790714D01*
X169212091Y-73804630D01*
X169055791Y-73816655D01*
X168899063Y-73826905D01*
X168738117Y-73835492D01*
X168569161Y-73842531D01*
X168388405Y-73848135D01*
X168192057Y-73852419D01*
X167976327Y-73855495D01*
X167737423Y-73857479D01*
X167471555Y-73858483D01*
X167174931Y-73858621D01*
X167112407Y-73858556D01*
X166834195Y-73857937D01*
X166589124Y-73856769D01*
X166375036Y-73854969D01*
X166189771Y-73852456D01*
X166031172Y-73849147D01*
X165897080Y-73844962D01*
X165785337Y-73839817D01*
X165693785Y-73833632D01*
X165620265Y-73826324D01*
X165562618Y-73817812D01*
X165518687Y-73808013D01*
X165486378Y-73796874D01*
X165403132Y-73755036D01*
X165309400Y-73698678D01*
X165211630Y-73632679D01*
X165116266Y-73561918D01*
X165029753Y-73491277D01*
X164958538Y-73425633D01*
X164909066Y-73369867D01*
X164895932Y-73349869D01*
X164866862Y-73300612D01*
X164840953Y-73261532D01*
X164834176Y-73252788D01*
X164808995Y-73214743D01*
X164776159Y-73153883D01*
X164740563Y-73080392D01*
X164707099Y-73004453D01*
X164680661Y-72936247D01*
X164677247Y-72926242D01*
X164656298Y-72839264D01*
X164642247Y-72732438D01*
X164635820Y-72619022D01*
X164637743Y-72512273D01*
X164648741Y-72425447D01*
X164649615Y-72421551D01*
X164667199Y-72360689D01*
X164693873Y-72285940D01*
X164725819Y-72206257D01*
X164759218Y-72130590D01*
X164790249Y-72067893D01*
X164815095Y-72027118D01*
X164820662Y-72020607D01*
X164843727Y-71993124D01*
X164877325Y-71948189D01*
X164900355Y-71915524D01*
X164950980Y-71848389D01*
X165010145Y-71779943D01*
X165072689Y-71715007D01*
X165133449Y-71658400D01*
X165187264Y-71614944D01*
X165228971Y-71589458D01*
X165252846Y-71586383D01*
X165267924Y-71613456D01*
X165252699Y-71657527D01*
X165207053Y-71718847D01*
X165175194Y-71753557D01*
X165025658Y-71921302D01*
X164908545Y-72080759D01*
X164822774Y-72234767D01*
X164767265Y-72386162D01*
X164740937Y-72537784D01*
X164742710Y-72692470D01*
X164765662Y-72829160D01*
X164782107Y-72885168D01*
X164807196Y-72954009D01*
X164837609Y-73028348D01*
X164870028Y-73100850D01*
X164901134Y-73164178D01*
X164927610Y-73210998D01*
X164946136Y-73233973D01*
X164949321Y-73235137D01*
X164963969Y-73249691D01*
X164985046Y-73286200D01*
X164993069Y-73303078D01*
X165028214Y-73353985D01*
X165089780Y-73415041D01*
X165171999Y-73481892D01*
X165269107Y-73550185D01*
X165375338Y-73615566D01*
X165482152Y-73672335D01*
X165519314Y-73687933D01*
X165564043Y-73701389D01*
X165619205Y-73712908D01*
X165687667Y-73722693D01*
X165772295Y-73730948D01*
X165875957Y-73737875D01*
X166001519Y-73743680D01*
X166151849Y-73748565D01*
X166329812Y-73752735D01*
X166538277Y-73756392D01*
X166697605Y-73758673D01*
X166969013Y-73761053D01*
X167248210Y-73761172D01*
X167531040Y-73759154D01*
X167813351Y-73755124D01*
X168090987Y-73749206D01*
X168359795Y-73741525D01*
X168615620Y-73732206D01*
X168854308Y-73721373D01*
X169071704Y-73709150D01*
X169263654Y-73695662D01*
X169426005Y-73681033D01*
X169477661Y-73675365D01*
X169616222Y-73656416D01*
X169763709Y-73631317D01*
X169912679Y-73601744D01*
X170055690Y-73569372D01*
X170185300Y-73535877D01*
X170294067Y-73502934D01*
X170369044Y-73474678D01*
X170456003Y-73422114D01*
X170510627Y-73356312D01*
X170532230Y-73279483D01*
X170520128Y-73193839D01*
X170481101Y-73113015D01*
X170433981Y-73054985D01*
X170365116Y-72990267D01*
X170284686Y-72927239D01*
X170202872Y-72874283D01*
X170169702Y-72856648D01*
X170125050Y-72837043D01*
X170078336Y-72822542D01*
X170021517Y-72811655D01*
X169946551Y-72802892D01*
X169845398Y-72794762D01*
X169829730Y-72793662D01*
X169664682Y-72781025D01*
X169510752Y-72766962D01*
X169371932Y-72751988D01*
X169252216Y-72736617D01*
X169155596Y-72721365D01*
X169086065Y-72706746D01*
X169047616Y-72693275D01*
X169046642Y-72692679D01*
X169003948Y-72665583D01*
X169055467Y-72637052D01*
X169100329Y-72623400D01*
X169173721Y-72613864D01*
X169269122Y-72608349D01*
X169380012Y-72606760D01*
X169499869Y-72609005D01*
X169622175Y-72614989D01*
X169740407Y-72624618D01*
X169848045Y-72637798D01*
X169915423Y-72649454D01*
X170054422Y-72673885D01*
X170167865Y-72684894D01*
X170262864Y-72682435D01*
X170346532Y-72666463D01*
X170404297Y-72646345D01*
X170477339Y-72606163D01*
X170517388Y-72558511D01*
X170524491Y-72502087D01*
X170498693Y-72435590D01*
X170440043Y-72357718D01*
X170415598Y-72331479D01*
X170308848Y-72230764D01*
X170195666Y-72144866D01*
X170067089Y-72067883D01*
X169914156Y-71993915D01*
X169880650Y-71979305D01*
X169707126Y-71904743D01*
X169354103Y-71891839D01*
X169246487Y-71887843D01*
X169151659Y-71884203D01*
X169074984Y-71881135D01*
X169021832Y-71878855D01*
X168997569Y-71877578D01*
X168996667Y-71877466D01*
X168992637Y-71861668D01*
X168992254Y-71851663D01*
X168995428Y-71836938D01*
X169007134Y-71823719D01*
X169030645Y-71811257D01*
X169069239Y-71798799D01*
X169126189Y-71785595D01*
X169204771Y-71770894D01*
X169308260Y-71753945D01*
X169439932Y-71733997D01*
X169603061Y-71710298D01*
X169618204Y-71708126D01*
X169829249Y-71676126D01*
X170009283Y-71644742D01*
X170162555Y-71612905D01*
X170293315Y-71579541D01*
X170405814Y-71543581D01*
X170504302Y-71503953D01*
X170583473Y-71464807D01*
X170666373Y-71407049D01*
X170714675Y-71342613D01*
X170728289Y-71272255D01*
X170707128Y-71196729D01*
X170651103Y-71116792D01*
X170627030Y-71091616D01*
X170573191Y-71044493D01*
X170511055Y-71002297D01*
X170438466Y-70964695D01*
X170353263Y-70931354D01*
X170253290Y-70901941D01*
X170136388Y-70876123D01*
X170000398Y-70853568D01*
X169843162Y-70833942D01*
X169662523Y-70816913D01*
X169456320Y-70802147D01*
X169222398Y-70789311D01*
X168958596Y-70778074D01*
X168662757Y-70768101D01*
X168499187Y-70763404D01*
X168345675Y-70759008D01*
X168203189Y-70754536D01*
X168075593Y-70750138D01*
X167966749Y-70745965D01*
X167880521Y-70742168D01*
X167820773Y-70738897D01*
X167791367Y-70736304D01*
X167789093Y-70735718D01*
X167763922Y-70737173D01*
X167724851Y-70754082D01*
X167685663Y-70779991D01*
X167675660Y-70788828D01*
X167654505Y-70808433D01*
X167613859Y-70845467D01*
X167560500Y-70893772D01*
X167525261Y-70925546D01*
X167463054Y-70981690D01*
X167405127Y-71034203D01*
X167360261Y-71075116D01*
X167345376Y-71088819D01*
X167309498Y-71118544D01*
X167283387Y-71134021D01*
X167280093Y-71134650D01*
X167257711Y-71145648D01*
X167223379Y-71172648D01*
X167217548Y-71177942D01*
X167162114Y-71218918D01*
X167082266Y-71264744D01*
X166987654Y-71311009D01*
X166887932Y-71353299D01*
X166792748Y-71387203D01*
X166715016Y-71407684D01*
X166639696Y-71423041D01*
X166544721Y-71443324D01*
X166444795Y-71465362D01*
X166388710Y-71478077D01*
X166295824Y-71496917D01*
X166201606Y-71511851D01*
X166119438Y-71520948D01*
X166078804Y-71522816D01*
X166001919Y-71519873D01*
X165898678Y-71511578D01*
X165777437Y-71498984D01*
X165646557Y-71483142D01*
X165514396Y-71465107D01*
X165389312Y-71445930D01*
X165279666Y-71426663D01*
X165222317Y-71414962D01*
X165053327Y-71377797D01*
X165026882Y-71415552D01*
X164999004Y-71451151D01*
X164958938Y-71497718D01*
X164939597Y-71519031D01*
X164890666Y-71575154D01*
X164833851Y-71645275D01*
X164775687Y-71720767D01*
X164722710Y-71793001D01*
X164681452Y-71853351D01*
X164662553Y-71884824D01*
X164637994Y-71939654D01*
X164607335Y-72020940D01*
X164572999Y-72120882D01*
X164537408Y-72231679D01*
X164502987Y-72345529D01*
X164472157Y-72454632D01*
X164447343Y-72551186D01*
X164430967Y-72627391D01*
X164429788Y-72634179D01*
X164397804Y-72879201D01*
X164388786Y-73097539D01*
X164402730Y-73289320D01*
X164411722Y-73343440D01*
X164470880Y-73572054D01*
X164556472Y-73777844D01*
X164668166Y-73960337D01*
X164805627Y-74119061D01*
X164968521Y-74253546D01*
X165121171Y-74345577D01*
X165205660Y-74386793D01*
X165287253Y-74419946D01*
X165376538Y-74448616D01*
X165484108Y-74476380D01*
X165558622Y-74493384D01*
X165604313Y-74503142D01*
X165647147Y-74511102D01*
X165691171Y-74517425D01*
X165740437Y-74522273D01*
X165798991Y-74525808D01*
X165870884Y-74528191D01*
X165960164Y-74529584D01*
X166070880Y-74530147D01*
X166207082Y-74530043D01*
X166372818Y-74529434D01*
X166453044Y-74529062D01*
X166672431Y-74527795D01*
X166867346Y-74525976D01*
X167042317Y-74523231D01*
X167201873Y-74519186D01*
X167350543Y-74513466D01*
X167492856Y-74505697D01*
X167633341Y-74495503D01*
X167776525Y-74482511D01*
X167926939Y-74466346D01*
X168089111Y-74446634D01*
X168267570Y-74422999D01*
X168466844Y-74395069D01*
X168691462Y-74362467D01*
X168945954Y-74324821D01*
X168974603Y-74320558D01*
X169140556Y-74296042D01*
X169312221Y-74271010D01*
X169482366Y-74246495D01*
X169643758Y-74223529D01*
X169789164Y-74203143D01*
X169911350Y-74186370D01*
X169971893Y-74178287D01*
X170096953Y-74160458D01*
X170226080Y-74139617D01*
X170349155Y-74117563D01*
X170456057Y-74096098D01*
X170527904Y-74079337D01*
X170628708Y-74053331D01*
X170747958Y-74022717D01*
X170869873Y-73991538D01*
X170966836Y-73966845D01*
X171072438Y-73937646D01*
X171169978Y-73906291D01*
X171250103Y-73875985D01*
X171297052Y-73853714D01*
X171345574Y-73824394D01*
X171407331Y-73784368D01*
X171475006Y-73738724D01*
X171541282Y-73692549D01*
X171598842Y-73650929D01*
X171640367Y-73618952D01*
X171657708Y-73602998D01*
X171675894Y-73585710D01*
X171711686Y-73555557D01*
X171732008Y-73539180D01*
X171828696Y-73447361D01*
X171926555Y-73324295D01*
X172026403Y-73168800D01*
X172129056Y-72979693D01*
X172155636Y-72926242D01*
X172221398Y-72787218D01*
X172270927Y-72670920D01*
X172306816Y-72570211D01*
X172331659Y-72477952D01*
X172345691Y-72403051D01*
X172355006Y-72319717D01*
X172361497Y-72215923D01*
X172365010Y-72102353D01*
X172365392Y-71989693D01*
X172362487Y-71888625D01*
X172356141Y-71809834D01*
X172354431Y-71797595D01*
X172322546Y-71685976D01*
X172262202Y-71564866D01*
X172177465Y-71438501D01*
X172072403Y-71311115D01*
X171951080Y-71186945D01*
X171817562Y-71070225D01*
X171675917Y-70965191D01*
X171530209Y-70876078D01*
X171416152Y-70820260D01*
X171295482Y-70771317D01*
X171170896Y-70727640D01*
X171038582Y-70688469D01*
X170894729Y-70653046D01*
X170735526Y-70620611D01*
X170557163Y-70590404D01*
X170355828Y-70561665D01*
X170127710Y-70533634D01*
X169868999Y-70505553D01*
X169804207Y-70498951D01*
X169674028Y-70485450D01*
X169520618Y-70468932D01*
X169355779Y-70450707D01*
X169191318Y-70432082D01*
X169039038Y-70414366D01*
X169009906Y-70410906D01*
X168873989Y-70394919D01*
X168734889Y-70378945D01*
X168601237Y-70363948D01*
X168481666Y-70350891D01*
X168384807Y-70340739D01*
X168352400Y-70337517D01*
X168127348Y-70315690D01*
X168127348Y-70257206D01*
X168129376Y-70219383D01*
X168142345Y-70204803D01*
X168176581Y-70205812D01*
X168193540Y-70208152D01*
X168241489Y-70214425D01*
X168322012Y-70224269D01*
X168432593Y-70237393D01*
X168570716Y-70253509D01*
X168733865Y-70272328D01*
X168919524Y-70293559D01*
X169125176Y-70316914D01*
X169348305Y-70342103D01*
X169586395Y-70368836D01*
X169730965Y-70385003D01*
X169891339Y-70403004D01*
X170045458Y-70420478D01*
X170188715Y-70436889D01*
X170316498Y-70451702D01*
X170424199Y-70464382D01*
X170507209Y-70474394D01*
X170560918Y-70481201D01*
X170569394Y-70482364D01*
X170723162Y-70507237D01*
X170881996Y-70538539D01*
X171036156Y-70574008D01*
X171175907Y-70611381D01*
X171291510Y-70648395D01*
X171304555Y-70653173D01*
X171387376Y-70686116D01*
X171471945Y-70723194D01*
X171550763Y-70760739D01*
X171616331Y-70795083D01*
X171661151Y-70822557D01*
X171675229Y-70834529D01*
X171694125Y-70850424D01*
X171730826Y-70877501D01*
X171745833Y-70888066D01*
X171828207Y-70950855D01*
X171923576Y-71032275D01*
X172023562Y-71124358D01*
X172119786Y-71219139D01*
X172203871Y-71308650D01*
X172265043Y-71381766D01*
X172340842Y-71487629D01*
X172396337Y-71583405D01*
X172434326Y-71678073D01*
X172457606Y-71780613D01*
X172468975Y-71900008D01*
X172471244Y-72043684D01*
X172465886Y-72230277D01*
X172453272Y-72392016D01*
X172433760Y-72525849D01*
X172407707Y-72628720D01*
X172400262Y-72649121D01*
X172338776Y-72794350D01*
X172269086Y-72941050D01*
X172194077Y-73084452D01*
X172116636Y-73219787D01*
X172039649Y-73342286D01*
X171966002Y-73447180D01*
X171898582Y-73529699D01*
X171840275Y-73585075D01*
X171828939Y-73593153D01*
X171788103Y-73624270D01*
X171745833Y-73661965D01*
X171700922Y-73701221D01*
X171647984Y-73741637D01*
X171639926Y-73747243D01*
X171599572Y-73775807D01*
X171573128Y-73796365D01*
X171569322Y-73800037D01*
X171545324Y-73819910D01*
X171499675Y-73851358D01*
X171441471Y-73888614D01*
X171379813Y-73925914D01*
X171323798Y-73957491D01*
X171307184Y-73966138D01*
X171266345Y-73985571D01*
X171221975Y-74003779D01*
X171169114Y-74022258D01*
X171102802Y-74042503D01*
X171018080Y-74066009D01*
X170909987Y-74094273D01*
X170773565Y-74128791D01*
X170739718Y-74137257D01*
X170641284Y-74161820D01*
X170558707Y-74182127D01*
X170486820Y-74199097D01*
X170420452Y-74213648D01*
X170354435Y-74226700D01*
X170283599Y-74239171D01*
X170202776Y-74251980D01*
X170106795Y-74266046D01*
X169990489Y-74282287D01*
X169848688Y-74301622D01*
X169707126Y-74320786D01*
X169541538Y-74343341D01*
X169364005Y-74367777D01*
X169183661Y-74392818D01*
X169009642Y-74417190D01*
X168851080Y-74439619D01*
X168717111Y-74458830D01*
X168701010Y-74461165D01*
X168365257Y-74508651D01*
X168063535Y-74548597D01*
X167795399Y-74581057D01*
X167560403Y-74606084D01*
X167358103Y-74623729D01*
X167271268Y-74629667D01*
X167195312Y-74633191D01*
X167093545Y-74636264D01*
X166971209Y-74638864D01*
X166833548Y-74640972D01*
X166685803Y-74642566D01*
X166533219Y-74643625D01*
X166381037Y-74644130D01*
X166234500Y-74644058D01*
X166098852Y-74643391D01*
X165979335Y-74642106D01*
X165881192Y-74640184D01*
X165809666Y-74637603D01*
X165779746Y-74635545D01*
X165547483Y-74601402D01*
X165332571Y-74546713D01*
X165139886Y-74472976D01*
X164994270Y-74394584D01*
X164844830Y-74292438D01*
X164720136Y-74187950D01*
X164615600Y-74075059D01*
X164526632Y-73947704D01*
X164448645Y-73799825D01*
X164377050Y-73625361D01*
X164346518Y-73538989D01*
X164324898Y-73474102D01*
X164309443Y-73421311D01*
X164299150Y-73372483D01*
X164293016Y-73319484D01*
X164290037Y-73254180D01*
X164289211Y-73168436D01*
X164289439Y-73076276D01*
X164292435Y-72918436D01*
X164301024Y-72777570D01*
X164316721Y-72645568D01*
X164341042Y-72514320D01*
X164375502Y-72375717D01*
X164421617Y-72221648D01*
X164480903Y-72044005D01*
X164484067Y-72034859D01*
X164520250Y-71937789D01*
X164557336Y-71857927D01*
X164602700Y-71781516D01*
X164663719Y-71694797D01*
X164673345Y-71681836D01*
X164723021Y-71615601D01*
X164765119Y-71560146D01*
X164795115Y-71521386D01*
X164808377Y-71505324D01*
X164844319Y-71466865D01*
X164879322Y-71419313D01*
X164905453Y-71374553D01*
X164914840Y-71345854D01*
X164898436Y-71314445D01*
X164851692Y-71277252D01*
X164830997Y-71264751D01*
X164752386Y-71215278D01*
X164669146Y-71153049D01*
X164574040Y-71072444D01*
X164517689Y-71021583D01*
X164472150Y-70980984D01*
X164437310Y-70952092D01*
X164420652Y-70941108D01*
X164420607Y-70941110D01*
X164406168Y-70954342D01*
X164377821Y-70988139D01*
X164350003Y-71024204D01*
X164267000Y-71123248D01*
X164187708Y-71194371D01*
X164133776Y-71226921D01*
X164099665Y-71245203D01*
X164085511Y-71258054D01*
X164085511Y-71258104D01*
X164096377Y-71275083D01*
X164124295Y-71310067D01*
X164155389Y-71346464D01*
X164202155Y-71406684D01*
X164245115Y-71473988D01*
X164279997Y-71540096D01*
X164302527Y-71596724D01*
X164308434Y-71635589D01*
X164307171Y-71640696D01*
X164293704Y-71654989D01*
X164262611Y-71661666D01*
X164206590Y-71661844D01*
X164177902Y-71660476D01*
X164107471Y-71654916D01*
X164015768Y-71645277D01*
X163910172Y-71632589D01*
X163798063Y-71617879D01*
X163686819Y-71602176D01*
X163583818Y-71586508D01*
X163496440Y-71571903D01*
X163432063Y-71559390D01*
X163406353Y-71552957D01*
X163359578Y-71534537D01*
X163335188Y-71507905D01*
X163321006Y-71461196D01*
X163319692Y-71448725D01*
X163414492Y-71448725D01*
X163568940Y-71470257D01*
X163661932Y-71484138D01*
X163769379Y-71501548D01*
X163871099Y-71519191D01*
X163891073Y-71522845D01*
X164006860Y-71542718D01*
X164090647Y-71553358D01*
X164144472Y-71554890D01*
X164170374Y-71547441D01*
X164173491Y-71540433D01*
X164161959Y-71521098D01*
X164130738Y-71482580D01*
X164084897Y-71430867D01*
X164041108Y-71384024D01*
X163987039Y-71325109D01*
X163943634Y-71273391D01*
X163916015Y-71235258D01*
X163908724Y-71218981D01*
X163924774Y-71197330D01*
X163968604Y-71171362D01*
X164007961Y-71154527D01*
X164133615Y-71090853D01*
X164233239Y-71006804D01*
X164290078Y-70930090D01*
X164335594Y-70852424D01*
X164297986Y-70774737D01*
X164264456Y-70715482D01*
X164225906Y-70660898D01*
X164213912Y-70646912D01*
X164167446Y-70596774D01*
X164151189Y-70645545D01*
X164120152Y-70691411D01*
X164067832Y-70728548D01*
X164022643Y-70757409D01*
X163964114Y-70802637D01*
X163903585Y-70855357D01*
X163892949Y-70865342D01*
X163839997Y-70917011D01*
X163807987Y-70953985D01*
X163791680Y-70985251D01*
X163785836Y-71019794D01*
X163785166Y-71050236D01*
X163781803Y-71101272D01*
X163773286Y-71136021D01*
X163768120Y-71143102D01*
X163744920Y-71141262D01*
X163703428Y-71127003D01*
X163655812Y-71105748D01*
X163614239Y-71082923D01*
X163591004Y-71064137D01*
X163568154Y-71045420D01*
X163529898Y-71024514D01*
X163489383Y-71007397D01*
X163459759Y-71000047D01*
X163453419Y-71001584D01*
X163445389Y-71025170D01*
X163436759Y-71075274D01*
X163428486Y-71143148D01*
X163421527Y-71220041D01*
X163416839Y-71297205D01*
X163415398Y-71349054D01*
X163414492Y-71448725D01*
X163319692Y-71448725D01*
X163316448Y-71417943D01*
X163314472Y-71348668D01*
X163314800Y-71262540D01*
X163317151Y-71168722D01*
X163321249Y-71076381D01*
X163326813Y-70994684D01*
X163333566Y-70932794D01*
X163337757Y-70910231D01*
X163355951Y-70875255D01*
X163390288Y-70862494D01*
X163444523Y-70871864D01*
X163522409Y-70903282D01*
X163528186Y-70905994D01*
X163644947Y-70961161D01*
X163755512Y-70858156D01*
X163808107Y-70808483D01*
X163837484Y-70777651D01*
X163846565Y-70760775D01*
X163838271Y-70752970D01*
X163820281Y-70749879D01*
X163783478Y-70750273D01*
X163721992Y-70755639D01*
X163645931Y-70764975D01*
X163598901Y-70771848D01*
X163419980Y-70798268D01*
X163273571Y-70816883D01*
X163157793Y-70827857D01*
X163070767Y-70831357D01*
X163010614Y-70827548D01*
X162996572Y-70824772D01*
X162955692Y-70812528D01*
X162935070Y-70794825D01*
X162926566Y-70760396D01*
X162923692Y-70723933D01*
X162928202Y-70641034D01*
X162948829Y-70535051D01*
X162982941Y-70412811D01*
X163027904Y-70281141D01*
X163081085Y-70146869D01*
X163139853Y-70016821D01*
X163201573Y-69897824D01*
X163263613Y-69796706D01*
X163300615Y-69746565D01*
X163345415Y-69691142D01*
X163172553Y-69565257D01*
X163094646Y-69508401D01*
X163036727Y-69465551D01*
X162990205Y-69429984D01*
X162946487Y-69394981D01*
X162896984Y-69353821D01*
X162833104Y-69299784D01*
X162832098Y-69298931D01*
X162731786Y-69208699D01*
X162646333Y-69121622D01*
X162578627Y-69041377D01*
X162531556Y-68971644D01*
X162508007Y-68916102D01*
X162507790Y-68897459D01*
X162614015Y-68897459D01*
X162622994Y-68934309D01*
X162658256Y-68986549D01*
X162714335Y-69052301D01*
X162783991Y-69123650D01*
X162857086Y-69190214D01*
X162910714Y-69235922D01*
X162955542Y-69273536D01*
X162997059Y-69307264D01*
X163040752Y-69341312D01*
X163092111Y-69379888D01*
X163156624Y-69427199D01*
X163239780Y-69487451D01*
X163326236Y-69549833D01*
X163390982Y-69598533D01*
X163463318Y-69656172D01*
X163537368Y-69717678D01*
X163607256Y-69777976D01*
X163667104Y-69831993D01*
X163711037Y-69874655D01*
X163733177Y-69900890D01*
X163733475Y-69901428D01*
X163742366Y-69942915D01*
X163720582Y-69971332D01*
X163671152Y-69984102D01*
X163636658Y-69983787D01*
X163590727Y-69978296D01*
X163569962Y-69965026D01*
X163564242Y-69935169D01*
X163563935Y-69920516D01*
X163554601Y-69872411D01*
X163522851Y-69829166D01*
X163502156Y-69810237D01*
X163462955Y-69778857D01*
X163434818Y-69760173D01*
X163428578Y-69757902D01*
X163408436Y-69773019D01*
X163376837Y-69814911D01*
X163337022Y-69878254D01*
X163292230Y-69957723D01*
X163245700Y-70047996D01*
X163221609Y-70098046D01*
X163148452Y-70263699D01*
X163091466Y-70413705D01*
X163052228Y-70543540D01*
X163033831Y-70636005D01*
X163021619Y-70728674D01*
X163110014Y-70728674D01*
X163164272Y-70725560D01*
X163241730Y-70717140D01*
X163330926Y-70704802D01*
X163399119Y-70693725D01*
X163496298Y-70677979D01*
X163596885Y-70663629D01*
X163686519Y-70652640D01*
X163732213Y-70648219D01*
X163805212Y-70640334D01*
X163871227Y-70629648D01*
X163916394Y-70618423D01*
X163917550Y-70618003D01*
X163973520Y-70592375D01*
X164030635Y-70558678D01*
X164078544Y-70523830D01*
X164106900Y-70494753D01*
X164109567Y-70489608D01*
X164106690Y-70463637D01*
X164091128Y-70414607D01*
X164065808Y-70351119D01*
X164051484Y-70318978D01*
X163996579Y-70189576D01*
X163952675Y-70061022D01*
X163918257Y-69926201D01*
X163891810Y-69777997D01*
X163871821Y-69609296D01*
X163856775Y-69412982D01*
X163856017Y-69400523D01*
X163849092Y-69299531D01*
X163841290Y-69209309D01*
X163833309Y-69136441D01*
X163825843Y-69087507D01*
X163821172Y-69070781D01*
X163790496Y-69042489D01*
X163730279Y-69011110D01*
X163646004Y-68977979D01*
X163543155Y-68944431D01*
X163427215Y-68911799D01*
X163303668Y-68881419D01*
X163177998Y-68854623D01*
X163055687Y-68832746D01*
X162942220Y-68817123D01*
X162843079Y-68809087D01*
X162763749Y-68809973D01*
X162753494Y-68811004D01*
X162679677Y-68828270D01*
X162632145Y-68858070D01*
X162614015Y-68897459D01*
X162507790Y-68897459D01*
X162507651Y-68885535D01*
X162549346Y-68808252D01*
X162616800Y-68748233D01*
X162702681Y-68710447D01*
X162782186Y-68699532D01*
X162886297Y-68704116D01*
X163012240Y-68718359D01*
X163152162Y-68740563D01*
X163298208Y-68769029D01*
X163442525Y-68802059D01*
X163577259Y-68837955D01*
X163694557Y-68875019D01*
X163786563Y-68911551D01*
X163805496Y-68920817D01*
X163847776Y-68939961D01*
X163873579Y-68939381D01*
X163890185Y-68914197D01*
X163904875Y-68859528D01*
X163906297Y-68853240D01*
X163955638Y-68703815D01*
X164037269Y-68552483D01*
X164152109Y-68397745D01*
X164255980Y-68283273D01*
X164405765Y-68137820D01*
X164553229Y-68013602D01*
X164708599Y-67903105D01*
X164882104Y-67798816D01*
X165004893Y-67733143D01*
X165178882Y-67647057D01*
X165332314Y-67579587D01*
X165472927Y-67528238D01*
X165608458Y-67490515D01*
X165746644Y-67463923D01*
X165895222Y-67445967D01*
X165895441Y-67445947D01*
X166027860Y-67437526D01*
X166147893Y-67439415D01*
X166265938Y-67452922D01*
X166392395Y-67479354D01*
X166537662Y-67520018D01*
X166574047Y-67531277D01*
X166794687Y-67600486D01*
X166842525Y-67566449D01*
X166891900Y-67523944D01*
X166929532Y-67477933D01*
X166950213Y-67436453D01*
X166948736Y-67407542D01*
X166946892Y-67405368D01*
X166932702Y-67374497D01*
X166927572Y-67333401D01*
G37*
%TO.C,IC2*%
X120681000Y-100674000D02*
X121539000Y-101563000D01*
X123190000Y-103214000D02*
X122555000Y-102579000D01*
X120681000Y-94070000D02*
X140462000Y-94070000D01*
X140431000Y-103214000D02*
X123190000Y-103214000D01*
X120681000Y-100674000D02*
X120681000Y-94070000D01*
X140431000Y-103214000D02*
X140431000Y-94070000D01*
%TO.C,IC1*%
X117295000Y-66548000D02*
X117676000Y-66167000D01*
X118946000Y-65024000D02*
X119835000Y-64085000D01*
X126439000Y-64085000D02*
X126439000Y-86995000D01*
X117295000Y-87045000D02*
X117295000Y-66548000D01*
X117295000Y-87045000D02*
X126439000Y-87045000D01*
X119835000Y-64085000D02*
X126439000Y-64085000D01*
%TO.C,IC3*%
X130619500Y-90868000D02*
X173291500Y-90851000D01*
X130619500Y-90868000D02*
X129476500Y-89725000D01*
X173291500Y-90868000D02*
X173291500Y-76390000D01*
X129476500Y-89725000D02*
X129476500Y-76390000D01*
X173291500Y-76281000D02*
X129603500Y-76281000D01*
%TO.C,R3*%
X145569000Y-99536000D02*
X145569000Y-92996000D01*
X145899000Y-99536000D02*
X145569000Y-99536000D01*
X147979000Y-99536000D02*
X148309000Y-99536000D01*
X148309000Y-99536000D02*
X148309000Y-92996000D01*
X146448000Y-96520724D02*
X146448000Y-96011276D01*
X147493000Y-96520724D02*
X147493000Y-96011276D01*
X145569000Y-92996000D02*
X145899000Y-92996000D01*
X148309000Y-92996000D02*
X147979000Y-92996000D01*
%TO.C,R1*%
X161644000Y-67596000D02*
X161314000Y-67596000D01*
X158904000Y-67596000D02*
X159234000Y-67596000D01*
X160828000Y-71120724D02*
X160828000Y-70611276D01*
X159783000Y-71120724D02*
X159783000Y-70611276D01*
X161644000Y-74136000D02*
X161644000Y-67596000D01*
X161314000Y-74136000D02*
X161644000Y-74136000D01*
X159234000Y-74136000D02*
X158904000Y-74136000D01*
X158904000Y-74136000D02*
X158904000Y-67596000D01*
%TO.C,R7*%
X149506000Y-99536000D02*
X149506000Y-92996000D01*
X149836000Y-99536000D02*
X149506000Y-99536000D01*
X151916000Y-99536000D02*
X152246000Y-99536000D01*
X152246000Y-99536000D02*
X152246000Y-92996000D01*
X150385000Y-96520724D02*
X150385000Y-96011276D01*
X151430000Y-96520724D02*
X151430000Y-96011276D01*
X149506000Y-92996000D02*
X149836000Y-92996000D01*
X152246000Y-92996000D02*
X151916000Y-92996000D01*
%TO.C,J2*%
X99690000Y-88520000D02*
X99690000Y-89280000D01*
X99690000Y-89280000D02*
X105690000Y-89280000D01*
X99690000Y-91060000D02*
X99690000Y-91820000D01*
X99690000Y-91820000D02*
X105690000Y-91820000D01*
X99690000Y-93600000D02*
X99690000Y-94360000D01*
X99690000Y-94360000D02*
X105690000Y-94360000D01*
X99690000Y-96140000D02*
X99690000Y-96900000D01*
X99690000Y-96900000D02*
X105690000Y-96900000D01*
X99690000Y-98680000D02*
X99690000Y-99440000D01*
X99690000Y-99440000D02*
X105690000Y-99440000D01*
X99690000Y-101220000D02*
X99690000Y-101980000D01*
X99690000Y-101980000D02*
X105690000Y-101980000D01*
X105690000Y-87570000D02*
X108350000Y-87570000D01*
X105690000Y-88520000D02*
X99690000Y-88520000D01*
X105690000Y-88580000D02*
X99690000Y-88580000D01*
X105690000Y-88700000D02*
X99690000Y-88700000D01*
X105690000Y-88820000D02*
X99690000Y-88820000D01*
X105690000Y-88940000D02*
X99690000Y-88940000D01*
X105690000Y-89060000D02*
X99690000Y-89060000D01*
X105690000Y-89180000D02*
X99690000Y-89180000D01*
X105690000Y-91060000D02*
X99690000Y-91060000D01*
X105690000Y-93600000D02*
X99690000Y-93600000D01*
X105690000Y-96140000D02*
X99690000Y-96140000D01*
X105690000Y-98680000D02*
X99690000Y-98680000D01*
X105690000Y-101220000D02*
X99690000Y-101220000D01*
X105690000Y-102930000D02*
X105690000Y-87570000D01*
X108350000Y-87570000D02*
X108350000Y-102930000D01*
X108350000Y-90170000D02*
X105690000Y-90170000D01*
X108350000Y-92710000D02*
X105690000Y-92710000D01*
X108350000Y-95250000D02*
X105690000Y-95250000D01*
X108350000Y-97790000D02*
X105690000Y-97790000D01*
X108350000Y-100330000D02*
X105690000Y-100330000D01*
X108350000Y-102930000D02*
X105690000Y-102930000D01*
X108747071Y-88520000D02*
X108350000Y-88520000D01*
X108747071Y-89280000D02*
X108350000Y-89280000D01*
X108747071Y-91060000D02*
X108350000Y-91060000D01*
X108747071Y-91820000D02*
X108350000Y-91820000D01*
X108747071Y-93600000D02*
X108350000Y-93600000D01*
X108747071Y-94360000D02*
X108350000Y-94360000D01*
X108747071Y-96140000D02*
X108350000Y-96140000D01*
X108747071Y-96900000D02*
X108350000Y-96900000D01*
X108747071Y-98680000D02*
X108350000Y-98680000D01*
X108747071Y-99440000D02*
X108350000Y-99440000D01*
X108747071Y-101220000D02*
X108350000Y-101220000D01*
X108747071Y-101980000D02*
X108350000Y-101980000D01*
X111220000Y-88520000D02*
X110832929Y-88520000D01*
X111220000Y-89280000D02*
X110832929Y-89280000D01*
X111287071Y-91060000D02*
X110832929Y-91060000D01*
X111287071Y-91820000D02*
X110832929Y-91820000D01*
X111287071Y-93600000D02*
X110832929Y-93600000D01*
X111287071Y-94360000D02*
X110832929Y-94360000D01*
X111287071Y-96140000D02*
X110832929Y-96140000D01*
X111287071Y-96900000D02*
X110832929Y-96900000D01*
X111287071Y-98680000D02*
X110832929Y-98680000D01*
X111287071Y-99440000D02*
X110832929Y-99440000D01*
X111287071Y-101220000D02*
X110832929Y-101220000D01*
X111287071Y-101980000D02*
X110832929Y-101980000D01*
X113600000Y-87630000D02*
X112330000Y-87630000D01*
X113600000Y-88900000D02*
X113600000Y-87630000D01*
%TO.C,R4*%
X158088000Y-67596000D02*
X157758000Y-67596000D01*
X155348000Y-67596000D02*
X155678000Y-67596000D01*
X157272000Y-71120724D02*
X157272000Y-70611276D01*
X156227000Y-71120724D02*
X156227000Y-70611276D01*
X158088000Y-74136000D02*
X158088000Y-67596000D01*
X157758000Y-74136000D02*
X158088000Y-74136000D01*
X155678000Y-74136000D02*
X155348000Y-74136000D01*
X155348000Y-74136000D02*
X155348000Y-67596000D01*
%TO.C,R5*%
X146150000Y-67596000D02*
X146150000Y-74136000D01*
X145820000Y-67596000D02*
X146150000Y-67596000D01*
X143740000Y-67596000D02*
X143410000Y-67596000D01*
X143410000Y-67596000D02*
X143410000Y-74136000D01*
X145271000Y-70611276D02*
X145271000Y-71120724D01*
X144226000Y-70611276D02*
X144226000Y-71120724D01*
X146150000Y-74136000D02*
X145820000Y-74136000D01*
X143410000Y-74136000D02*
X143740000Y-74136000D01*
%TO.C,J1*%
X99690000Y-65660000D02*
X99690000Y-66420000D01*
X99690000Y-66420000D02*
X105690000Y-66420000D01*
X99690000Y-68200000D02*
X99690000Y-68960000D01*
X99690000Y-68960000D02*
X105690000Y-68960000D01*
X99690000Y-70740000D02*
X99690000Y-71500000D01*
X99690000Y-71500000D02*
X105690000Y-71500000D01*
X99690000Y-73280000D02*
X99690000Y-74040000D01*
X99690000Y-74040000D02*
X105690000Y-74040000D01*
X99690000Y-75820000D02*
X99690000Y-76580000D01*
X99690000Y-76580000D02*
X105690000Y-76580000D01*
X99690000Y-78360000D02*
X99690000Y-79120000D01*
X99690000Y-79120000D02*
X105690000Y-79120000D01*
X105690000Y-64710000D02*
X108350000Y-64710000D01*
X105690000Y-65660000D02*
X99690000Y-65660000D01*
X105690000Y-65720000D02*
X99690000Y-65720000D01*
X105690000Y-65840000D02*
X99690000Y-65840000D01*
X105690000Y-65960000D02*
X99690000Y-65960000D01*
X105690000Y-66080000D02*
X99690000Y-66080000D01*
X105690000Y-66200000D02*
X99690000Y-66200000D01*
X105690000Y-66320000D02*
X99690000Y-66320000D01*
X105690000Y-68200000D02*
X99690000Y-68200000D01*
X105690000Y-70740000D02*
X99690000Y-70740000D01*
X105690000Y-73280000D02*
X99690000Y-73280000D01*
X105690000Y-75820000D02*
X99690000Y-75820000D01*
X105690000Y-78360000D02*
X99690000Y-78360000D01*
X105690000Y-80070000D02*
X105690000Y-64710000D01*
X108350000Y-64710000D02*
X108350000Y-80070000D01*
X108350000Y-67310000D02*
X105690000Y-67310000D01*
X108350000Y-69850000D02*
X105690000Y-69850000D01*
X108350000Y-72390000D02*
X105690000Y-72390000D01*
X108350000Y-74930000D02*
X105690000Y-74930000D01*
X108350000Y-77470000D02*
X105690000Y-77470000D01*
X108350000Y-80070000D02*
X105690000Y-80070000D01*
X108747071Y-65660000D02*
X108350000Y-65660000D01*
X108747071Y-66420000D02*
X108350000Y-66420000D01*
X108747071Y-68200000D02*
X108350000Y-68200000D01*
X108747071Y-68960000D02*
X108350000Y-68960000D01*
X108747071Y-70740000D02*
X108350000Y-70740000D01*
X108747071Y-71500000D02*
X108350000Y-71500000D01*
X108747071Y-73280000D02*
X108350000Y-73280000D01*
X108747071Y-74040000D02*
X108350000Y-74040000D01*
X108747071Y-75820000D02*
X108350000Y-75820000D01*
X108747071Y-76580000D02*
X108350000Y-76580000D01*
X108747071Y-78360000D02*
X108350000Y-78360000D01*
X108747071Y-79120000D02*
X108350000Y-79120000D01*
X111220000Y-65660000D02*
X110832929Y-65660000D01*
X111220000Y-66420000D02*
X110832929Y-66420000D01*
X111287071Y-68200000D02*
X110832929Y-68200000D01*
X111287071Y-68960000D02*
X110832929Y-68960000D01*
X111287071Y-70740000D02*
X110832929Y-70740000D01*
X111287071Y-71500000D02*
X110832929Y-71500000D01*
X111287071Y-73280000D02*
X110832929Y-73280000D01*
X111287071Y-74040000D02*
X110832929Y-74040000D01*
X111287071Y-75820000D02*
X110832929Y-75820000D01*
X111287071Y-76580000D02*
X110832929Y-76580000D01*
X111287071Y-78360000D02*
X110832929Y-78360000D01*
X111287071Y-79120000D02*
X110832929Y-79120000D01*
X113600000Y-64770000D02*
X112330000Y-64770000D01*
X113600000Y-66040000D02*
X113600000Y-64770000D01*
%TO.C,R8*%
X157126000Y-99536000D02*
X157126000Y-92996000D01*
X157456000Y-99536000D02*
X157126000Y-99536000D01*
X159536000Y-99536000D02*
X159866000Y-99536000D01*
X159866000Y-99536000D02*
X159866000Y-92996000D01*
X158005000Y-96520724D02*
X158005000Y-96011276D01*
X159050000Y-96520724D02*
X159050000Y-96011276D01*
X157126000Y-92996000D02*
X157456000Y-92996000D01*
X159866000Y-92996000D02*
X159536000Y-92996000D01*
%TO.C,R2*%
X151538000Y-74136000D02*
X151538000Y-67596000D01*
X151868000Y-74136000D02*
X151538000Y-74136000D01*
X153948000Y-74136000D02*
X154278000Y-74136000D01*
X154278000Y-74136000D02*
X154278000Y-67596000D01*
X152417000Y-71120724D02*
X152417000Y-70611276D01*
X153462000Y-71120724D02*
X153462000Y-70611276D01*
X151538000Y-67596000D02*
X151868000Y-67596000D01*
X154278000Y-67596000D02*
X153948000Y-67596000D01*
%TD*%
M02*
