%TF.GenerationSoftware,KiCad,Pcbnew,7.0.1*%
%TF.CreationDate,2023-05-14T00:25:17+09:00*%
%TF.ProjectId,Pmod_7Seg,506d6f64-5f37-4536-9567-2e6b69636164,rev?*%
%TF.SameCoordinates,Original*%
%TF.FileFunction,Legend,Bot*%
%TF.FilePolarity,Positive*%
%FSLAX46Y46*%
G04 Gerber Fmt 4.6, Leading zero omitted, Abs format (unit mm)*
G04 Created by KiCad (PCBNEW 7.0.1) date 2023-05-14 00:25:17*
%MOMM*%
%LPD*%
G01*
G04 APERTURE LIST*
%ADD10C,0.150000*%
G04 APERTURE END LIST*
D10*
X129159095Y-85412238D02*
X129254333Y-85364619D01*
X129254333Y-85364619D02*
X129397190Y-85364619D01*
X129397190Y-85364619D02*
X129540047Y-85412238D01*
X129540047Y-85412238D02*
X129635285Y-85507476D01*
X129635285Y-85507476D02*
X129682904Y-85602714D01*
X129682904Y-85602714D02*
X129730523Y-85793190D01*
X129730523Y-85793190D02*
X129730523Y-85936047D01*
X129730523Y-85936047D02*
X129682904Y-86126523D01*
X129682904Y-86126523D02*
X129635285Y-86221761D01*
X129635285Y-86221761D02*
X129540047Y-86317000D01*
X129540047Y-86317000D02*
X129397190Y-86364619D01*
X129397190Y-86364619D02*
X129301952Y-86364619D01*
X129301952Y-86364619D02*
X129159095Y-86317000D01*
X129159095Y-86317000D02*
X129111476Y-86269380D01*
X129111476Y-86269380D02*
X129111476Y-85936047D01*
X129111476Y-85936047D02*
X129301952Y-85936047D01*
X128682904Y-86364619D02*
X128682904Y-85364619D01*
X128682904Y-85364619D02*
X128111476Y-86364619D01*
X128111476Y-86364619D02*
X128111476Y-85364619D01*
X127635285Y-86364619D02*
X127635285Y-85364619D01*
X127635285Y-85364619D02*
X127397190Y-85364619D01*
X127397190Y-85364619D02*
X127254333Y-85412238D01*
X127254333Y-85412238D02*
X127159095Y-85507476D01*
X127159095Y-85507476D02*
X127111476Y-85602714D01*
X127111476Y-85602714D02*
X127063857Y-85793190D01*
X127063857Y-85793190D02*
X127063857Y-85936047D01*
X127063857Y-85936047D02*
X127111476Y-86126523D01*
X127111476Y-86126523D02*
X127159095Y-86221761D01*
X127159095Y-86221761D02*
X127254333Y-86317000D01*
X127254333Y-86317000D02*
X127397190Y-86364619D01*
X127397190Y-86364619D02*
X127635285Y-86364619D01*
X135467790Y-99536552D02*
X135705885Y-99536552D01*
X135705885Y-99536552D02*
X135705885Y-98107980D01*
X135705885Y-98107980D02*
X135467790Y-98107980D01*
X135229694Y-98203219D02*
X134658266Y-98203219D01*
X134943980Y-99203219D02*
X134943980Y-98203219D01*
X133991599Y-98679409D02*
X133848742Y-98727028D01*
X133848742Y-98727028D02*
X133801123Y-98774647D01*
X133801123Y-98774647D02*
X133753504Y-98869885D01*
X133753504Y-98869885D02*
X133753504Y-99012742D01*
X133753504Y-99012742D02*
X133801123Y-99107980D01*
X133801123Y-99107980D02*
X133848742Y-99155600D01*
X133848742Y-99155600D02*
X133943980Y-99203219D01*
X133943980Y-99203219D02*
X134324932Y-99203219D01*
X134324932Y-99203219D02*
X134324932Y-98203219D01*
X134324932Y-98203219D02*
X133991599Y-98203219D01*
X133991599Y-98203219D02*
X133896361Y-98250838D01*
X133896361Y-98250838D02*
X133848742Y-98298457D01*
X133848742Y-98298457D02*
X133801123Y-98393695D01*
X133801123Y-98393695D02*
X133801123Y-98488933D01*
X133801123Y-98488933D02*
X133848742Y-98584171D01*
X133848742Y-98584171D02*
X133896361Y-98631790D01*
X133896361Y-98631790D02*
X133991599Y-98679409D01*
X133991599Y-98679409D02*
X134324932Y-98679409D01*
X133324932Y-99203219D02*
X133324932Y-98203219D01*
X133324932Y-98203219D02*
X133086837Y-98203219D01*
X133086837Y-98203219D02*
X132943980Y-98250838D01*
X132943980Y-98250838D02*
X132848742Y-98346076D01*
X132848742Y-98346076D02*
X132801123Y-98441314D01*
X132801123Y-98441314D02*
X132753504Y-98631790D01*
X132753504Y-98631790D02*
X132753504Y-98774647D01*
X132753504Y-98774647D02*
X132801123Y-98965123D01*
X132801123Y-98965123D02*
X132848742Y-99060361D01*
X132848742Y-99060361D02*
X132943980Y-99155600D01*
X132943980Y-99155600D02*
X133086837Y-99203219D01*
X133086837Y-99203219D02*
X133324932Y-99203219D01*
X131896361Y-98203219D02*
X132086837Y-98203219D01*
X132086837Y-98203219D02*
X132182075Y-98250838D01*
X132182075Y-98250838D02*
X132229694Y-98298457D01*
X132229694Y-98298457D02*
X132324932Y-98441314D01*
X132324932Y-98441314D02*
X132372551Y-98631790D01*
X132372551Y-98631790D02*
X132372551Y-99012742D01*
X132372551Y-99012742D02*
X132324932Y-99107980D01*
X132324932Y-99107980D02*
X132277313Y-99155600D01*
X132277313Y-99155600D02*
X132182075Y-99203219D01*
X132182075Y-99203219D02*
X131991599Y-99203219D01*
X131991599Y-99203219D02*
X131896361Y-99155600D01*
X131896361Y-99155600D02*
X131848742Y-99107980D01*
X131848742Y-99107980D02*
X131801123Y-99012742D01*
X131801123Y-99012742D02*
X131801123Y-98774647D01*
X131801123Y-98774647D02*
X131848742Y-98679409D01*
X131848742Y-98679409D02*
X131896361Y-98631790D01*
X131896361Y-98631790D02*
X131991599Y-98584171D01*
X131991599Y-98584171D02*
X132182075Y-98584171D01*
X132182075Y-98584171D02*
X132277313Y-98631790D01*
X132277313Y-98631790D02*
X132324932Y-98679409D01*
X132324932Y-98679409D02*
X132372551Y-98774647D01*
X131420170Y-98298457D02*
X131372551Y-98250838D01*
X131372551Y-98250838D02*
X131277313Y-98203219D01*
X131277313Y-98203219D02*
X131039218Y-98203219D01*
X131039218Y-98203219D02*
X130943980Y-98250838D01*
X130943980Y-98250838D02*
X130896361Y-98298457D01*
X130896361Y-98298457D02*
X130848742Y-98393695D01*
X130848742Y-98393695D02*
X130848742Y-98488933D01*
X130848742Y-98488933D02*
X130896361Y-98631790D01*
X130896361Y-98631790D02*
X131467789Y-99203219D01*
X131467789Y-99203219D02*
X130848742Y-99203219D01*
X130229694Y-98203219D02*
X130134456Y-98203219D01*
X130134456Y-98203219D02*
X130039218Y-98250838D01*
X130039218Y-98250838D02*
X129991599Y-98298457D01*
X129991599Y-98298457D02*
X129943980Y-98393695D01*
X129943980Y-98393695D02*
X129896361Y-98584171D01*
X129896361Y-98584171D02*
X129896361Y-98822266D01*
X129896361Y-98822266D02*
X129943980Y-99012742D01*
X129943980Y-99012742D02*
X129991599Y-99107980D01*
X129991599Y-99107980D02*
X130039218Y-99155600D01*
X130039218Y-99155600D02*
X130134456Y-99203219D01*
X130134456Y-99203219D02*
X130229694Y-99203219D01*
X130229694Y-99203219D02*
X130324932Y-99155600D01*
X130324932Y-99155600D02*
X130372551Y-99107980D01*
X130372551Y-99107980D02*
X130420170Y-99012742D01*
X130420170Y-99012742D02*
X130467789Y-98822266D01*
X130467789Y-98822266D02*
X130467789Y-98584171D01*
X130467789Y-98584171D02*
X130420170Y-98393695D01*
X130420170Y-98393695D02*
X130372551Y-98298457D01*
X130372551Y-98298457D02*
X130324932Y-98250838D01*
X130324932Y-98250838D02*
X130229694Y-98203219D01*
X129277313Y-98203219D02*
X129182075Y-98203219D01*
X129182075Y-98203219D02*
X129086837Y-98250838D01*
X129086837Y-98250838D02*
X129039218Y-98298457D01*
X129039218Y-98298457D02*
X128991599Y-98393695D01*
X128991599Y-98393695D02*
X128943980Y-98584171D01*
X128943980Y-98584171D02*
X128943980Y-98822266D01*
X128943980Y-98822266D02*
X128991599Y-99012742D01*
X128991599Y-99012742D02*
X129039218Y-99107980D01*
X129039218Y-99107980D02*
X129086837Y-99155600D01*
X129086837Y-99155600D02*
X129182075Y-99203219D01*
X129182075Y-99203219D02*
X129277313Y-99203219D01*
X129277313Y-99203219D02*
X129372551Y-99155600D01*
X129372551Y-99155600D02*
X129420170Y-99107980D01*
X129420170Y-99107980D02*
X129467789Y-99012742D01*
X129467789Y-99012742D02*
X129515408Y-98822266D01*
X129515408Y-98822266D02*
X129515408Y-98584171D01*
X129515408Y-98584171D02*
X129467789Y-98393695D01*
X129467789Y-98393695D02*
X129420170Y-98298457D01*
X129420170Y-98298457D02*
X129372551Y-98250838D01*
X129372551Y-98250838D02*
X129277313Y-98203219D01*
X128610646Y-98203219D02*
X127991599Y-98203219D01*
X127991599Y-98203219D02*
X128324932Y-98584171D01*
X128324932Y-98584171D02*
X128182075Y-98584171D01*
X128182075Y-98584171D02*
X128086837Y-98631790D01*
X128086837Y-98631790D02*
X128039218Y-98679409D01*
X128039218Y-98679409D02*
X127991599Y-98774647D01*
X127991599Y-98774647D02*
X127991599Y-99012742D01*
X127991599Y-99012742D02*
X128039218Y-99107980D01*
X128039218Y-99107980D02*
X128086837Y-99155600D01*
X128086837Y-99155600D02*
X128182075Y-99203219D01*
X128182075Y-99203219D02*
X128467789Y-99203219D01*
X128467789Y-99203219D02*
X128563027Y-99155600D01*
X128563027Y-99155600D02*
X128610646Y-99107980D01*
X127610646Y-98917504D02*
X127134456Y-98917504D01*
X127705884Y-99203219D02*
X127372551Y-98203219D01*
X127372551Y-98203219D02*
X127039218Y-99203219D01*
X126705884Y-99203219D02*
X126705884Y-98203219D01*
X126705884Y-98203219D02*
X126324932Y-98203219D01*
X126324932Y-98203219D02*
X126229694Y-98250838D01*
X126229694Y-98250838D02*
X126182075Y-98298457D01*
X126182075Y-98298457D02*
X126134456Y-98393695D01*
X126134456Y-98393695D02*
X126134456Y-98536552D01*
X126134456Y-98536552D02*
X126182075Y-98631790D01*
X126182075Y-98631790D02*
X126229694Y-98679409D01*
X126229694Y-98679409D02*
X126324932Y-98727028D01*
X126324932Y-98727028D02*
X126705884Y-98727028D01*
X125182075Y-98250838D02*
X125277313Y-98203219D01*
X125277313Y-98203219D02*
X125420170Y-98203219D01*
X125420170Y-98203219D02*
X125563027Y-98250838D01*
X125563027Y-98250838D02*
X125658265Y-98346076D01*
X125658265Y-98346076D02*
X125705884Y-98441314D01*
X125705884Y-98441314D02*
X125753503Y-98631790D01*
X125753503Y-98631790D02*
X125753503Y-98774647D01*
X125753503Y-98774647D02*
X125705884Y-98965123D01*
X125705884Y-98965123D02*
X125658265Y-99060361D01*
X125658265Y-99060361D02*
X125563027Y-99155600D01*
X125563027Y-99155600D02*
X125420170Y-99203219D01*
X125420170Y-99203219D02*
X125324932Y-99203219D01*
X125324932Y-99203219D02*
X125182075Y-99155600D01*
X125182075Y-99155600D02*
X125134456Y-99107980D01*
X125134456Y-99107980D02*
X125134456Y-98774647D01*
X125134456Y-98774647D02*
X125324932Y-98774647D01*
X124801122Y-99536552D02*
X124563027Y-99536552D01*
X124563027Y-99536552D02*
X124563027Y-98107980D01*
X124563027Y-98107980D02*
X124801122Y-98107980D01*
X122638952Y-70119809D02*
X122638952Y-69881714D01*
X122638952Y-69881714D02*
X121210380Y-69881714D01*
X121210380Y-69881714D02*
X121210380Y-70119809D01*
X121305619Y-70357905D02*
X121305619Y-70929333D01*
X122305619Y-70643619D02*
X121305619Y-70643619D01*
X121781809Y-71596000D02*
X121829428Y-71738857D01*
X121829428Y-71738857D02*
X121877047Y-71786476D01*
X121877047Y-71786476D02*
X121972285Y-71834095D01*
X121972285Y-71834095D02*
X122115142Y-71834095D01*
X122115142Y-71834095D02*
X122210380Y-71786476D01*
X122210380Y-71786476D02*
X122258000Y-71738857D01*
X122258000Y-71738857D02*
X122305619Y-71643619D01*
X122305619Y-71643619D02*
X122305619Y-71262667D01*
X122305619Y-71262667D02*
X121305619Y-71262667D01*
X121305619Y-71262667D02*
X121305619Y-71596000D01*
X121305619Y-71596000D02*
X121353238Y-71691238D01*
X121353238Y-71691238D02*
X121400857Y-71738857D01*
X121400857Y-71738857D02*
X121496095Y-71786476D01*
X121496095Y-71786476D02*
X121591333Y-71786476D01*
X121591333Y-71786476D02*
X121686571Y-71738857D01*
X121686571Y-71738857D02*
X121734190Y-71691238D01*
X121734190Y-71691238D02*
X121781809Y-71596000D01*
X121781809Y-71596000D02*
X121781809Y-71262667D01*
X122305619Y-72262667D02*
X121305619Y-72262667D01*
X121305619Y-72262667D02*
X121305619Y-72500762D01*
X121305619Y-72500762D02*
X121353238Y-72643619D01*
X121353238Y-72643619D02*
X121448476Y-72738857D01*
X121448476Y-72738857D02*
X121543714Y-72786476D01*
X121543714Y-72786476D02*
X121734190Y-72834095D01*
X121734190Y-72834095D02*
X121877047Y-72834095D01*
X121877047Y-72834095D02*
X122067523Y-72786476D01*
X122067523Y-72786476D02*
X122162761Y-72738857D01*
X122162761Y-72738857D02*
X122258000Y-72643619D01*
X122258000Y-72643619D02*
X122305619Y-72500762D01*
X122305619Y-72500762D02*
X122305619Y-72262667D01*
X121305619Y-73691238D02*
X121305619Y-73500762D01*
X121305619Y-73500762D02*
X121353238Y-73405524D01*
X121353238Y-73405524D02*
X121400857Y-73357905D01*
X121400857Y-73357905D02*
X121543714Y-73262667D01*
X121543714Y-73262667D02*
X121734190Y-73215048D01*
X121734190Y-73215048D02*
X122115142Y-73215048D01*
X122115142Y-73215048D02*
X122210380Y-73262667D01*
X122210380Y-73262667D02*
X122258000Y-73310286D01*
X122258000Y-73310286D02*
X122305619Y-73405524D01*
X122305619Y-73405524D02*
X122305619Y-73596000D01*
X122305619Y-73596000D02*
X122258000Y-73691238D01*
X122258000Y-73691238D02*
X122210380Y-73738857D01*
X122210380Y-73738857D02*
X122115142Y-73786476D01*
X122115142Y-73786476D02*
X121877047Y-73786476D01*
X121877047Y-73786476D02*
X121781809Y-73738857D01*
X121781809Y-73738857D02*
X121734190Y-73691238D01*
X121734190Y-73691238D02*
X121686571Y-73596000D01*
X121686571Y-73596000D02*
X121686571Y-73405524D01*
X121686571Y-73405524D02*
X121734190Y-73310286D01*
X121734190Y-73310286D02*
X121781809Y-73262667D01*
X121781809Y-73262667D02*
X121877047Y-73215048D01*
X121400857Y-74167429D02*
X121353238Y-74215048D01*
X121353238Y-74215048D02*
X121305619Y-74310286D01*
X121305619Y-74310286D02*
X121305619Y-74548381D01*
X121305619Y-74548381D02*
X121353238Y-74643619D01*
X121353238Y-74643619D02*
X121400857Y-74691238D01*
X121400857Y-74691238D02*
X121496095Y-74738857D01*
X121496095Y-74738857D02*
X121591333Y-74738857D01*
X121591333Y-74738857D02*
X121734190Y-74691238D01*
X121734190Y-74691238D02*
X122305619Y-74119810D01*
X122305619Y-74119810D02*
X122305619Y-74738857D01*
X121305619Y-75072191D02*
X121305619Y-75738857D01*
X121305619Y-75738857D02*
X122305619Y-75310286D01*
X121734190Y-76262667D02*
X121686571Y-76167429D01*
X121686571Y-76167429D02*
X121638952Y-76119810D01*
X121638952Y-76119810D02*
X121543714Y-76072191D01*
X121543714Y-76072191D02*
X121496095Y-76072191D01*
X121496095Y-76072191D02*
X121400857Y-76119810D01*
X121400857Y-76119810D02*
X121353238Y-76167429D01*
X121353238Y-76167429D02*
X121305619Y-76262667D01*
X121305619Y-76262667D02*
X121305619Y-76453143D01*
X121305619Y-76453143D02*
X121353238Y-76548381D01*
X121353238Y-76548381D02*
X121400857Y-76596000D01*
X121400857Y-76596000D02*
X121496095Y-76643619D01*
X121496095Y-76643619D02*
X121543714Y-76643619D01*
X121543714Y-76643619D02*
X121638952Y-76596000D01*
X121638952Y-76596000D02*
X121686571Y-76548381D01*
X121686571Y-76548381D02*
X121734190Y-76453143D01*
X121734190Y-76453143D02*
X121734190Y-76262667D01*
X121734190Y-76262667D02*
X121781809Y-76167429D01*
X121781809Y-76167429D02*
X121829428Y-76119810D01*
X121829428Y-76119810D02*
X121924666Y-76072191D01*
X121924666Y-76072191D02*
X122115142Y-76072191D01*
X122115142Y-76072191D02*
X122210380Y-76119810D01*
X122210380Y-76119810D02*
X122258000Y-76167429D01*
X122258000Y-76167429D02*
X122305619Y-76262667D01*
X122305619Y-76262667D02*
X122305619Y-76453143D01*
X122305619Y-76453143D02*
X122258000Y-76548381D01*
X122258000Y-76548381D02*
X122210380Y-76596000D01*
X122210380Y-76596000D02*
X122115142Y-76643619D01*
X122115142Y-76643619D02*
X121924666Y-76643619D01*
X121924666Y-76643619D02*
X121829428Y-76596000D01*
X121829428Y-76596000D02*
X121781809Y-76548381D01*
X121781809Y-76548381D02*
X121734190Y-76453143D01*
X121305619Y-76976953D02*
X121305619Y-77596000D01*
X121305619Y-77596000D02*
X121686571Y-77262667D01*
X121686571Y-77262667D02*
X121686571Y-77405524D01*
X121686571Y-77405524D02*
X121734190Y-77500762D01*
X121734190Y-77500762D02*
X121781809Y-77548381D01*
X121781809Y-77548381D02*
X121877047Y-77596000D01*
X121877047Y-77596000D02*
X122115142Y-77596000D01*
X122115142Y-77596000D02*
X122210380Y-77548381D01*
X122210380Y-77548381D02*
X122258000Y-77500762D01*
X122258000Y-77500762D02*
X122305619Y-77405524D01*
X122305619Y-77405524D02*
X122305619Y-77119810D01*
X122305619Y-77119810D02*
X122258000Y-77024572D01*
X122258000Y-77024572D02*
X122210380Y-76976953D01*
X122019904Y-77976953D02*
X122019904Y-78453143D01*
X122305619Y-77881715D02*
X121305619Y-78215048D01*
X121305619Y-78215048D02*
X122305619Y-78548381D01*
X122305619Y-78881715D02*
X121305619Y-78881715D01*
X121305619Y-78881715D02*
X121305619Y-79262667D01*
X121305619Y-79262667D02*
X121353238Y-79357905D01*
X121353238Y-79357905D02*
X121400857Y-79405524D01*
X121400857Y-79405524D02*
X121496095Y-79453143D01*
X121496095Y-79453143D02*
X121638952Y-79453143D01*
X121638952Y-79453143D02*
X121734190Y-79405524D01*
X121734190Y-79405524D02*
X121781809Y-79357905D01*
X121781809Y-79357905D02*
X121829428Y-79262667D01*
X121829428Y-79262667D02*
X121829428Y-78881715D01*
X121353238Y-80405524D02*
X121305619Y-80310286D01*
X121305619Y-80310286D02*
X121305619Y-80167429D01*
X121305619Y-80167429D02*
X121353238Y-80024572D01*
X121353238Y-80024572D02*
X121448476Y-79929334D01*
X121448476Y-79929334D02*
X121543714Y-79881715D01*
X121543714Y-79881715D02*
X121734190Y-79834096D01*
X121734190Y-79834096D02*
X121877047Y-79834096D01*
X121877047Y-79834096D02*
X122067523Y-79881715D01*
X122067523Y-79881715D02*
X122162761Y-79929334D01*
X122162761Y-79929334D02*
X122258000Y-80024572D01*
X122258000Y-80024572D02*
X122305619Y-80167429D01*
X122305619Y-80167429D02*
X122305619Y-80262667D01*
X122305619Y-80262667D02*
X122258000Y-80405524D01*
X122258000Y-80405524D02*
X122210380Y-80453143D01*
X122210380Y-80453143D02*
X121877047Y-80453143D01*
X121877047Y-80453143D02*
X121877047Y-80262667D01*
X122638952Y-80786477D02*
X122638952Y-81024572D01*
X122638952Y-81024572D02*
X121210380Y-81024572D01*
X121210380Y-81024572D02*
X121210380Y-80786477D01*
M02*
