%TF.GenerationSoftware,KiCad,Pcbnew,7.0.1*%
%TF.CreationDate,2023-05-14T00:25:16+09:00*%
%TF.ProjectId,Pmod_7Seg,506d6f64-5f37-4536-9567-2e6b69636164,rev?*%
%TF.SameCoordinates,Original*%
%TF.FileFunction,Copper,L2,Bot*%
%TF.FilePolarity,Positive*%
%FSLAX46Y46*%
G04 Gerber Fmt 4.6, Leading zero omitted, Abs format (unit mm)*
G04 Created by KiCad (PCBNEW 7.0.1) date 2023-05-14 00:25:16*
%MOMM*%
%LPD*%
G01*
G04 APERTURE LIST*
%TA.AperFunction,ComponentPad*%
%ADD10C,1.600000*%
%TD*%
%TA.AperFunction,ComponentPad*%
%ADD11O,1.600000X1.600000*%
%TD*%
%TA.AperFunction,ComponentPad*%
%ADD12R,1.200000X1.200000*%
%TD*%
%TA.AperFunction,ComponentPad*%
%ADD13C,1.200000*%
%TD*%
%TA.AperFunction,ComponentPad*%
%ADD14C,1.150000*%
%TD*%
%TA.AperFunction,ComponentPad*%
%ADD15R,1.150000X1.150000*%
%TD*%
%TA.AperFunction,ComponentPad*%
%ADD16R,1.400000X2.524000*%
%TD*%
%TA.AperFunction,ComponentPad*%
%ADD17O,1.524000X2.524000*%
%TD*%
%TA.AperFunction,ComponentPad*%
%ADD18O,1.400000X2.524000*%
%TD*%
%TA.AperFunction,ComponentPad*%
%ADD19R,1.700000X1.700000*%
%TD*%
%TA.AperFunction,ComponentPad*%
%ADD20O,1.700000X1.700000*%
%TD*%
%TA.AperFunction,ViaPad*%
%ADD21C,0.800000*%
%TD*%
%TA.AperFunction,Conductor*%
%ADD22C,0.250000*%
%TD*%
%TA.AperFunction,Conductor*%
%ADD23C,1.000000*%
%TD*%
G04 APERTURE END LIST*
D10*
%TO.P,R6,1*%
%TO.N,Net-(IC1-O5)*%
X149098000Y-67056000D03*
D11*
%TO.P,R6,2*%
%TO.N,Net-(DS1-ANODE_C)*%
X149098000Y-74676000D03*
%TD*%
D12*
%TO.P,IC2,1,I1*%
%TO.N,Net-(J2-Pin_4)*%
X121666000Y-102452000D03*
D13*
%TO.P,IC2,2,I2*%
%TO.N,Net-(J2-Pin_3)*%
X124206000Y-102452000D03*
%TO.P,IC2,3,I3*%
%TO.N,Net-(J2-Pin_2)*%
X126746000Y-102452000D03*
%TO.P,IC2,4,I4*%
%TO.N,Net-(J2-Pin_1)*%
X129286000Y-102452000D03*
%TO.P,IC2,5,I5*%
%TO.N,Net-(J2-Pin_8)*%
X131826000Y-102452000D03*
%TO.P,IC2,6,I6*%
%TO.N,Net-(J2-Pin_7)*%
X134366000Y-102452000D03*
%TO.P,IC2,7,I7*%
%TO.N,unconnected-(Q1-I7-Pad7)*%
X136906000Y-102452000D03*
%TO.P,IC2,8,GND*%
%TO.N,GND*%
X139446000Y-102452000D03*
%TO.P,IC2,9,COMMON*%
%TO.N,unconnected-(Q1-COMMON-Pad9)*%
X139446000Y-94832000D03*
%TO.P,IC2,10,O7*%
%TO.N,unconnected-(Q1-O7-Pad10)*%
X136906000Y-94832000D03*
%TO.P,IC2,11,O6*%
%TO.N,Net-(DS1-KATHODE_5)*%
X134366000Y-94832000D03*
%TO.P,IC2,12,O5*%
%TO.N,Net-(DS1-KATHODE_6)*%
X131826000Y-94832000D03*
%TO.P,IC2,13,O4*%
%TO.N,Net-(DS1-KATHODE_1)*%
X129286000Y-94832000D03*
%TO.P,IC2,14,O3*%
%TO.N,Net-(DS1-KATHODE_2)*%
X126746000Y-94832000D03*
%TO.P,IC2,15,O2*%
%TO.N,Net-(DS1-KATHODE_3)*%
X124206000Y-94832000D03*
%TO.P,IC2,16,O1*%
%TO.N,Net-(DS1-KATHODE_4)*%
X121666000Y-94832000D03*
%TD*%
D14*
%TO.P,IC1,18,O1*%
%TO.N,Net-(IC1-O1)*%
X125677000Y-65405000D03*
%TO.P,IC1,17,O2*%
%TO.N,Net-(IC1-O2)*%
X125677000Y-67945000D03*
%TO.P,IC1,16,O3*%
%TO.N,Net-(IC1-O3)*%
X125677000Y-70485000D03*
%TO.P,IC1,15,O4*%
%TO.N,Net-(IC1-O4)*%
X125677000Y-73025000D03*
%TO.P,IC1,14,O5*%
%TO.N,Net-(IC1-O5)*%
X125677000Y-75565000D03*
%TO.P,IC1,13,O6*%
%TO.N,Net-(IC1-O6)*%
X125677000Y-78105000D03*
%TO.P,IC1,12,O7*%
%TO.N,Net-(IC1-O7)*%
X125677000Y-80645000D03*
%TO.P,IC1,11,O8*%
%TO.N,Net-(IC1-O8)*%
X125677000Y-83185000D03*
%TO.P,IC1,10,GND*%
%TO.N,GND*%
X125677000Y-85725000D03*
%TO.P,IC1,9,VCC*%
%TO.N,VCC*%
X118057000Y-85725000D03*
%TO.P,IC1,8,I8*%
%TO.N,Net-(IC1-I8)*%
X118057000Y-83185000D03*
%TO.P,IC1,7,I7*%
%TO.N,Net-(IC1-I7)*%
X118057000Y-80645000D03*
%TO.P,IC1,6,I6*%
%TO.N,Net-(IC1-I6)*%
X118057000Y-78105000D03*
%TO.P,IC1,5,I5*%
%TO.N,Net-(IC1-I5)*%
X118057000Y-75565000D03*
%TO.P,IC1,4,I4*%
%TO.N,Net-(IC1-I4)*%
X118057000Y-73025000D03*
%TO.P,IC1,3,I3*%
%TO.N,Net-(IC1-I3)*%
X118057000Y-70485000D03*
%TO.P,IC1,2,I2*%
%TO.N,Net-(IC1-I2)*%
X118057000Y-67945000D03*
D15*
%TO.P,IC1,1,I1*%
%TO.N,Net-(IC1-I1)*%
X118057000Y-65405000D03*
%TD*%
D16*
%TO.P,IC3,1,ANODE_E*%
%TO.N,Net-(DS1-ANODE_E)*%
X137731500Y-88836000D03*
D17*
%TO.P,IC3,3,KATHODE_2*%
%TO.N,Net-(DS1-KATHODE_2)*%
X142811500Y-88836000D03*
%TO.P,IC3,4,KATHODE_3*%
%TO.N,Net-(DS1-KATHODE_3)*%
X145351500Y-88836000D03*
%TO.P,IC3,5,ANODE_D*%
%TO.N,Net-(DS1-ANODE_D)*%
X147891500Y-88836000D03*
%TO.P,IC3,8,ANODE_DP*%
%TO.N,Net-(DS1-ANODE_DP)*%
X155511500Y-88836000D03*
%TO.P,IC3,12,KATHODE_6*%
%TO.N,Net-(DS1-KATHODE_6)*%
X163131500Y-78676000D03*
%TO.P,IC3,13,KATHODE_5*%
%TO.N,Net-(DS1-KATHODE_5)*%
X160591500Y-78676000D03*
%TO.P,IC3,14,ANODE_F*%
%TO.N,Net-(DS1-ANODE_F)*%
X158051500Y-78676000D03*
%TO.P,IC3,15,ANODE_A*%
%TO.N,Net-(DS1-ANODE_A)*%
X155511500Y-78676000D03*
%TO.P,IC3,16,KATHODE_4*%
%TO.N,Net-(DS1-KATHODE_4)*%
X152971500Y-78676000D03*
%TO.P,IC3,17,ANODE_G*%
%TO.N,Net-(DS1-ANODE_G)*%
X150431500Y-78676000D03*
%TO.P,IC3,19,ANODE_C*%
%TO.N,Net-(DS1-ANODE_C)*%
X145351500Y-78676000D03*
%TO.P,IC3,20,ANODE_B*%
%TO.N,Net-(DS1-ANODE_B)*%
X142811500Y-78676000D03*
D18*
%TO.P,IC3,22,KATHODE_1*%
%TO.N,Net-(DS1-KATHODE_1)*%
X137731500Y-78676000D03*
%TD*%
D10*
%TO.P,R3,1*%
%TO.N,Net-(IC1-O2)*%
X146939000Y-100076000D03*
D11*
%TO.P,R3,2*%
%TO.N,Net-(DS1-ANODE_E)*%
X146939000Y-92456000D03*
%TD*%
%TO.P,R1,2*%
%TO.N,Net-(IC1-O1)*%
X160274000Y-67056000D03*
D10*
%TO.P,R1,1*%
%TO.N,Net-(DS1-ANODE_F)*%
X160274000Y-74676000D03*
%TD*%
%TO.P,R7,1*%
%TO.N,Net-(IC1-O6)*%
X150876000Y-100076000D03*
D11*
%TO.P,R7,2*%
%TO.N,Net-(DS1-ANODE_D)*%
X150876000Y-92456000D03*
%TD*%
D19*
%TO.P,J2,1,Pin_1*%
%TO.N,Net-(J2-Pin_1)*%
X112330000Y-88900000D03*
D20*
%TO.P,J2,2,Pin_2*%
%TO.N,Net-(J2-Pin_2)*%
X112330000Y-91440000D03*
%TO.P,J2,3,Pin_3*%
%TO.N,Net-(J2-Pin_3)*%
X112330000Y-93980000D03*
%TO.P,J2,4,Pin_4*%
%TO.N,Net-(J2-Pin_4)*%
X112330000Y-96520000D03*
%TO.P,J2,5,Pin_5*%
%TO.N,GND*%
X112330000Y-99060000D03*
%TO.P,J2,6,Pin_6*%
%TO.N,VCC*%
X112330000Y-101600000D03*
%TO.P,J2,7,Pin_7*%
%TO.N,Net-(J2-Pin_7)*%
X109790000Y-88900000D03*
%TO.P,J2,8,Pin_8*%
%TO.N,Net-(J2-Pin_8)*%
X109790000Y-91440000D03*
%TO.P,J2,9,Pin_9*%
%TO.N,unconnected-(J2-Pin_9-Pad9)*%
X109790000Y-93980000D03*
%TO.P,J2,10,Pin_10*%
%TO.N,unconnected-(J2-Pin_10-Pad10)*%
X109790000Y-96520000D03*
%TO.P,J2,11,Pin_11*%
%TO.N,GND*%
X109790000Y-99060000D03*
%TO.P,J2,12,Pin_12*%
%TO.N,VCC*%
X109790000Y-101600000D03*
%TD*%
D11*
%TO.P,R4,2*%
%TO.N,Net-(IC1-O3)*%
X156718000Y-67056000D03*
D10*
%TO.P,R4,1*%
%TO.N,Net-(DS1-ANODE_A)*%
X156718000Y-74676000D03*
%TD*%
%TO.P,R5,1*%
%TO.N,Net-(IC1-O4)*%
X144780000Y-67056000D03*
D11*
%TO.P,R5,2*%
%TO.N,Net-(DS1-ANODE_B)*%
X144780000Y-74676000D03*
%TD*%
D19*
%TO.P,J1,1,Pin_1*%
%TO.N,Net-(IC1-I3)*%
X112330000Y-66040000D03*
D20*
%TO.P,J1,2,Pin_2*%
%TO.N,Net-(IC1-I4)*%
X112330000Y-68580000D03*
%TO.P,J1,3,Pin_3*%
%TO.N,Net-(IC1-I5)*%
X112330000Y-71120000D03*
%TO.P,J1,4,Pin_4*%
%TO.N,Net-(IC1-I6)*%
X112330000Y-73660000D03*
%TO.P,J1,5,Pin_5*%
%TO.N,GND*%
X112330000Y-76200000D03*
%TO.P,J1,6,Pin_6*%
%TO.N,VCC*%
X112330000Y-78740000D03*
%TO.P,J1,7,Pin_7*%
%TO.N,Net-(IC1-I2)*%
X109790000Y-66040000D03*
%TO.P,J1,8,Pin_8*%
%TO.N,Net-(IC1-I1)*%
X109790000Y-68580000D03*
%TO.P,J1,9,Pin_9*%
%TO.N,Net-(IC1-I8)*%
X109790000Y-71120000D03*
%TO.P,J1,10,Pin_10*%
%TO.N,Net-(IC1-I7)*%
X109790000Y-73660000D03*
%TO.P,J1,11,Pin_11*%
%TO.N,GND*%
X109790000Y-76200000D03*
%TO.P,J1,12,Pin_12*%
%TO.N,VCC*%
X109790000Y-78740000D03*
%TD*%
D10*
%TO.P,R8,1*%
%TO.N,Net-(IC1-O7)*%
X158496000Y-100076000D03*
D11*
%TO.P,R8,2*%
%TO.N,Net-(DS1-ANODE_DP)*%
X158496000Y-92456000D03*
%TD*%
D10*
%TO.P,R2,1*%
%TO.N,Net-(DS1-ANODE_G)*%
X152908000Y-74676000D03*
D11*
%TO.P,R2,2*%
%TO.N,Net-(IC1-O8)*%
X152908000Y-67056000D03*
%TD*%
D21*
%TO.N,GND*%
X141224000Y-67691000D03*
X123571000Y-88773000D03*
X133096000Y-92075000D03*
X141224000Y-74422000D03*
X148844000Y-84074000D03*
%TO.N,Net-(DS1-KATHODE_1)*%
X133858000Y-86106000D03*
%TO.N,GND*%
X154432000Y-100838000D03*
X129794000Y-67056000D03*
X131826000Y-73533000D03*
X158496000Y-84074000D03*
X120904000Y-91440000D03*
%TO.N,Net-(DS1-KATHODE_6)*%
X142748000Y-103378000D03*
%TO.N,Net-(IC1-O7)*%
X137922000Y-74422000D03*
%TO.N,GND*%
X169926000Y-69088000D03*
X108712000Y-85852000D03*
X169926000Y-98044000D03*
X169926000Y-84074000D03*
%TD*%
D22*
%TO.N,Net-(DS1-KATHODE_1)*%
X135192000Y-78676000D02*
X137731500Y-78676000D01*
X133858000Y-86106000D02*
X133858000Y-80010000D01*
X133858000Y-80010000D02*
X135192000Y-78676000D01*
%TO.N,Net-(IC1-O6)*%
X150876000Y-96774000D02*
X150876000Y-100076000D01*
X149352000Y-95250000D02*
X150876000Y-96774000D01*
X146050000Y-95250000D02*
X149352000Y-95250000D01*
X140970000Y-91440000D02*
X142240000Y-91440000D01*
X139596500Y-90066500D02*
X140970000Y-91440000D01*
X139065000Y-86360000D02*
X139596500Y-86891500D01*
X136144000Y-86360000D02*
X139065000Y-86360000D01*
X135636000Y-87884000D02*
X135636000Y-86868000D01*
X123317000Y-86360000D02*
X125857000Y-88900000D01*
X142240000Y-91440000D02*
X146050000Y-95250000D01*
X135636000Y-86868000D02*
X136144000Y-86360000D01*
X123317000Y-79502000D02*
X123317000Y-86360000D01*
X134620000Y-88900000D02*
X135636000Y-87884000D01*
X124714000Y-78105000D02*
X123317000Y-79502000D01*
X125677000Y-78105000D02*
X124714000Y-78105000D01*
X139596500Y-86891500D02*
X139596500Y-90066500D01*
X125857000Y-88900000D02*
X134620000Y-88900000D01*
%TO.N,Net-(IC1-O2)*%
X146939000Y-98425000D02*
X146939000Y-100076000D01*
X141224000Y-92710000D02*
X146939000Y-98425000D01*
X136906000Y-92710000D02*
X141224000Y-92710000D01*
X134366000Y-90170000D02*
X136906000Y-92710000D01*
X120650000Y-71247000D02*
X120650000Y-89281000D01*
X120650000Y-89281000D02*
X121539000Y-90170000D01*
X121539000Y-90170000D02*
X134366000Y-90170000D01*
X123952000Y-67945000D02*
X120650000Y-71247000D01*
X125677000Y-67945000D02*
X123952000Y-67945000D01*
%TO.N,Net-(IC1-O8)*%
X152908000Y-69850000D02*
X152908000Y-67056000D01*
X150876000Y-71882000D02*
X152908000Y-69850000D01*
X137668000Y-71882000D02*
X150876000Y-71882000D01*
X126365000Y-83185000D02*
X137668000Y-71882000D01*
X125677000Y-83185000D02*
X126365000Y-83185000D01*
%TO.N,Net-(IC1-O7)*%
X154424500Y-85336500D02*
X154424500Y-96004500D01*
X151384000Y-82296000D02*
X154424500Y-85336500D01*
X141986000Y-82296000D02*
X151384000Y-82296000D01*
X139596500Y-76096500D02*
X139596500Y-79906500D01*
X139596500Y-79906500D02*
X141986000Y-82296000D01*
X137922000Y-74422000D02*
X139596500Y-76096500D01*
X154424500Y-96004500D02*
X158496000Y-100076000D01*
%TO.N,Net-(IC1-O1)*%
X160274000Y-65278000D02*
X160274000Y-67056000D01*
X128778000Y-64262000D02*
X159258000Y-64262000D01*
X159258000Y-64262000D02*
X160274000Y-65278000D01*
X127635000Y-65405000D02*
X128778000Y-64262000D01*
X125677000Y-65405000D02*
X127635000Y-65405000D01*
%TO.N,Net-(DS1-KATHODE_5)*%
X160591500Y-80835500D02*
X160591500Y-78676000D01*
X161798000Y-82042000D02*
X160591500Y-80835500D01*
X161798000Y-101219000D02*
X161798000Y-82042000D01*
X143510000Y-100838000D02*
X146050000Y-103378000D01*
X159639000Y-103378000D02*
X161798000Y-101219000D01*
X143510000Y-98298000D02*
X143510000Y-100838000D01*
X142632600Y-97420600D02*
X143510000Y-98298000D01*
X146050000Y-103378000D02*
X159639000Y-103378000D01*
X134366000Y-96430000D02*
X135356600Y-97420600D01*
X134366000Y-94832000D02*
X134366000Y-96430000D01*
X135356600Y-97420600D02*
X142632600Y-97420600D01*
%TO.N,Net-(IC1-O5)*%
X131826000Y-69850000D02*
X147574000Y-69850000D01*
X147574000Y-69850000D02*
X149098000Y-68326000D01*
X126111000Y-75565000D02*
X131826000Y-69850000D01*
X125677000Y-75565000D02*
X126111000Y-75565000D01*
X149098000Y-68326000D02*
X149098000Y-67056000D01*
%TO.N,Net-(J2-Pin_7)*%
X133604000Y-104140000D02*
X134366000Y-103378000D01*
X134366000Y-103378000D02*
X134366000Y-102452000D01*
X107442000Y-89662000D02*
X107442000Y-102997000D01*
X107442000Y-102997000D02*
X108585000Y-104140000D01*
X108204000Y-88900000D02*
X107442000Y-89662000D01*
X109790000Y-88900000D02*
X108204000Y-88900000D01*
X108585000Y-104140000D02*
X133604000Y-104140000D01*
%TO.N,Net-(IC1-I1)*%
X116660000Y-64008000D02*
X118057000Y-65405000D01*
X107188000Y-65278000D02*
X108458000Y-64008000D01*
X107188000Y-67564000D02*
X107188000Y-65278000D01*
X108204000Y-68580000D02*
X107188000Y-67564000D01*
X108458000Y-64008000D02*
X116660000Y-64008000D01*
X109790000Y-68580000D02*
X108204000Y-68580000D01*
%TO.N,Net-(J2-Pin_2)*%
X126746000Y-100367000D02*
X126746000Y-102452000D01*
X125069600Y-98690600D02*
X126746000Y-100367000D01*
X117856000Y-93726000D02*
X117856000Y-96774000D01*
X117856000Y-96774000D02*
X119772600Y-98690600D01*
X115570000Y-91440000D02*
X117856000Y-93726000D01*
X119772600Y-98690600D02*
X125069600Y-98690600D01*
X112330000Y-91440000D02*
X115570000Y-91440000D01*
%TO.N,Net-(J2-Pin_1)*%
X120624600Y-97293600D02*
X127609600Y-97293600D01*
X119126000Y-95795000D02*
X120624600Y-97293600D01*
X127609600Y-97293600D02*
X129286000Y-98970000D01*
X129286000Y-98970000D02*
X129286000Y-102452000D01*
X119126000Y-92202000D02*
X119126000Y-95795000D01*
X115824000Y-88900000D02*
X119126000Y-92202000D01*
X112330000Y-88900000D02*
X115824000Y-88900000D01*
%TO.N,Net-(J2-Pin_4)*%
X119216000Y-102452000D02*
X121666000Y-102452000D01*
X113284000Y-96520000D02*
X119216000Y-102452000D01*
X112330000Y-96520000D02*
X113284000Y-96520000D01*
%TO.N,Net-(J2-Pin_3)*%
X116586000Y-97790000D02*
X118872000Y-100076000D01*
X116586000Y-94996000D02*
X116586000Y-97790000D01*
X123190000Y-100076000D02*
X124206000Y-101092000D01*
X115570000Y-93980000D02*
X116586000Y-94996000D01*
X124206000Y-101092000D02*
X124206000Y-102452000D01*
X112330000Y-93980000D02*
X115570000Y-93980000D01*
X118872000Y-100076000D02*
X123190000Y-100076000D01*
%TO.N,Net-(DS1-KATHODE_6)*%
X131826000Y-97536000D02*
X131826000Y-94832000D01*
X140462000Y-99822000D02*
X134112000Y-99822000D01*
X141732000Y-101092000D02*
X140462000Y-99822000D01*
X141732000Y-102362000D02*
X141732000Y-101092000D01*
X134112000Y-99822000D02*
X131826000Y-97536000D01*
X142748000Y-103378000D02*
X141732000Y-102362000D01*
D23*
%TO.N,VCC*%
X112330000Y-78740000D02*
X112330000Y-84009000D01*
X112330000Y-84009000D02*
X114046000Y-85725000D01*
X109790000Y-78740000D02*
X112330000Y-78740000D01*
X114046000Y-85725000D02*
X118057000Y-85725000D01*
%TD*%
%TA.AperFunction,Conductor*%
%TO.N,GND*%
G36*
X166619395Y-63002478D02*
G01*
X166660851Y-63032141D01*
X173527440Y-70511819D01*
X173703345Y-70703429D01*
X173727548Y-70742291D01*
X173736000Y-70787287D01*
X173736000Y-97231864D01*
X173726959Y-97278344D01*
X173701155Y-97318045D01*
X170185354Y-100955082D01*
X166406556Y-104864183D01*
X166365823Y-104892155D01*
X166317401Y-104902000D01*
X134000993Y-104902000D01*
X133941256Y-104886662D01*
X133896297Y-104844444D01*
X133877238Y-104785789D01*
X133888793Y-104725207D01*
X133928104Y-104677685D01*
X133943060Y-104666818D01*
X133952830Y-104660400D01*
X133990418Y-104638171D01*
X133990417Y-104638171D01*
X133990420Y-104638170D01*
X134004585Y-104624004D01*
X134019373Y-104611373D01*
X134035587Y-104599594D01*
X134063438Y-104565926D01*
X134071279Y-104557309D01*
X134749786Y-103878802D01*
X134765887Y-103865904D01*
X134767874Y-103863787D01*
X134767877Y-103863786D01*
X134813932Y-103814741D01*
X134816613Y-103811976D01*
X134824647Y-103803942D01*
X134836120Y-103792470D01*
X134838581Y-103789295D01*
X134846152Y-103780431D01*
X134876062Y-103748582D01*
X134885713Y-103731026D01*
X134896393Y-103714767D01*
X134908674Y-103698936D01*
X134926018Y-103658851D01*
X134931160Y-103648356D01*
X134952197Y-103610092D01*
X134957178Y-103590688D01*
X134963480Y-103572283D01*
X134971438Y-103553895D01*
X134978270Y-103510748D01*
X134980639Y-103499316D01*
X134991500Y-103457020D01*
X134991500Y-103436983D01*
X134993026Y-103417591D01*
X134994783Y-103406496D01*
X134995117Y-103404386D01*
X135008434Y-103364954D01*
X135034044Y-103332154D01*
X135182764Y-103196579D01*
X135305673Y-103033821D01*
X135305673Y-103033819D01*
X135305675Y-103033818D01*
X135385302Y-102873903D01*
X135396582Y-102851250D01*
X135452397Y-102655083D01*
X135471215Y-102452000D01*
X135800785Y-102452000D01*
X135819602Y-102655083D01*
X135875418Y-102851251D01*
X135966324Y-103033818D01*
X136089236Y-103196580D01*
X136239958Y-103333981D01*
X136413361Y-103441347D01*
X136413363Y-103441348D01*
X136603544Y-103515024D01*
X136804024Y-103552500D01*
X137007974Y-103552500D01*
X137007976Y-103552500D01*
X137208456Y-103515024D01*
X137398637Y-103441348D01*
X137487640Y-103386240D01*
X138865310Y-103386240D01*
X138953588Y-103440899D01*
X139143679Y-103514540D01*
X139344072Y-103552000D01*
X139547928Y-103552000D01*
X139748320Y-103514540D01*
X139938411Y-103440899D01*
X140026688Y-103386240D01*
X139446001Y-102805553D01*
X139446000Y-102805553D01*
X138865310Y-103386240D01*
X137487640Y-103386240D01*
X137572041Y-103333981D01*
X137722764Y-103196579D01*
X137845673Y-103033821D01*
X137845673Y-103033819D01*
X137845675Y-103033818D01*
X137925302Y-102873903D01*
X137936582Y-102851250D01*
X137992397Y-102655083D01*
X138011215Y-102452000D01*
X138341287Y-102452000D01*
X138360096Y-102654992D01*
X138415885Y-102851068D01*
X138506751Y-103033552D01*
X138508532Y-103035912D01*
X138508533Y-103035913D01*
X139092447Y-102452001D01*
X139092447Y-102452000D01*
X139799553Y-102452000D01*
X140383465Y-103035912D01*
X140385247Y-103033553D01*
X140476115Y-102851066D01*
X140531903Y-102654992D01*
X140550712Y-102452000D01*
X140531903Y-102249007D01*
X140476114Y-102052931D01*
X140385248Y-101870448D01*
X140383465Y-101868086D01*
X140383465Y-101868085D01*
X139799553Y-102452000D01*
X139092447Y-102452000D01*
X138508533Y-101868085D01*
X138506753Y-101870444D01*
X138415884Y-102052933D01*
X138360096Y-102249007D01*
X138341287Y-102452000D01*
X138011215Y-102452000D01*
X137992397Y-102248917D01*
X137991844Y-102246975D01*
X137961187Y-102139228D01*
X137936582Y-102052750D01*
X137935983Y-102051547D01*
X137845675Y-101870181D01*
X137722763Y-101707419D01*
X137572041Y-101570018D01*
X137487638Y-101517758D01*
X138865310Y-101517758D01*
X139446000Y-102098447D01*
X139446001Y-102098447D01*
X140026688Y-101517758D01*
X140026687Y-101517757D01*
X139938414Y-101463101D01*
X139748320Y-101389459D01*
X139547928Y-101352000D01*
X139344072Y-101352000D01*
X139143679Y-101389459D01*
X138953589Y-101463100D01*
X138865310Y-101517758D01*
X137487638Y-101517758D01*
X137398638Y-101462652D01*
X137208457Y-101388976D01*
X137141629Y-101376484D01*
X137007976Y-101351500D01*
X136804024Y-101351500D01*
X136733988Y-101364592D01*
X136603542Y-101388976D01*
X136413361Y-101462652D01*
X136239958Y-101570018D01*
X136089236Y-101707419D01*
X135966324Y-101870181D01*
X135875418Y-102052748D01*
X135819602Y-102248916D01*
X135800785Y-102452000D01*
X135471215Y-102452000D01*
X135452397Y-102248917D01*
X135451844Y-102246975D01*
X135421187Y-102139228D01*
X135396582Y-102052750D01*
X135395983Y-102051547D01*
X135305675Y-101870181D01*
X135182763Y-101707419D01*
X135032041Y-101570018D01*
X134858638Y-101462652D01*
X134668457Y-101388976D01*
X134601629Y-101376484D01*
X134467976Y-101351500D01*
X134264024Y-101351500D01*
X134193988Y-101364592D01*
X134063542Y-101388976D01*
X133873361Y-101462652D01*
X133699958Y-101570018D01*
X133549236Y-101707419D01*
X133426324Y-101870181D01*
X133335418Y-102052748D01*
X133279602Y-102248916D01*
X133260785Y-102452000D01*
X133279602Y-102655083D01*
X133335418Y-102851251D01*
X133426326Y-103033821D01*
X133533083Y-103175191D01*
X133556354Y-103229012D01*
X133552294Y-103287508D01*
X133521810Y-103337598D01*
X133381225Y-103478183D01*
X133341000Y-103505061D01*
X133293547Y-103514500D01*
X132614102Y-103514500D01*
X132556789Y-103500460D01*
X132512454Y-103461519D01*
X132491138Y-103406496D01*
X132497667Y-103347850D01*
X132530564Y-103298863D01*
X132642763Y-103196580D01*
X132644406Y-103194404D01*
X132765673Y-103033821D01*
X132765673Y-103033819D01*
X132765675Y-103033818D01*
X132845302Y-102873903D01*
X132856582Y-102851250D01*
X132912397Y-102655083D01*
X132931215Y-102452000D01*
X132912397Y-102248917D01*
X132911844Y-102246975D01*
X132881187Y-102139228D01*
X132856582Y-102052750D01*
X132855983Y-102051547D01*
X132765675Y-101870181D01*
X132642763Y-101707419D01*
X132492041Y-101570018D01*
X132318638Y-101462652D01*
X132128457Y-101388976D01*
X132061629Y-101376484D01*
X131927976Y-101351500D01*
X131724024Y-101351500D01*
X131653988Y-101364592D01*
X131523542Y-101388976D01*
X131333361Y-101462652D01*
X131159958Y-101570018D01*
X131009236Y-101707419D01*
X130886324Y-101870181D01*
X130795418Y-102052748D01*
X130739602Y-102248916D01*
X130720785Y-102452000D01*
X130739602Y-102655083D01*
X130795418Y-102851251D01*
X130886324Y-103033818D01*
X131009236Y-103196580D01*
X131121436Y-103298863D01*
X131154333Y-103347850D01*
X131160862Y-103406496D01*
X131139546Y-103461519D01*
X131095211Y-103500460D01*
X131037898Y-103514500D01*
X130074102Y-103514500D01*
X130016789Y-103500460D01*
X129972454Y-103461519D01*
X129951138Y-103406496D01*
X129957667Y-103347850D01*
X129990564Y-103298863D01*
X130102763Y-103196580D01*
X130104406Y-103194404D01*
X130225673Y-103033821D01*
X130225673Y-103033819D01*
X130225675Y-103033818D01*
X130305302Y-102873903D01*
X130316582Y-102851250D01*
X130372397Y-102655083D01*
X130391215Y-102452000D01*
X130372397Y-102248917D01*
X130371844Y-102246975D01*
X130341187Y-102139228D01*
X130316582Y-102052750D01*
X130315983Y-102051547D01*
X130225675Y-101870181D01*
X130102763Y-101707419D01*
X129951962Y-101569947D01*
X129922066Y-101528396D01*
X129911500Y-101478310D01*
X129911500Y-99052744D01*
X129913764Y-99032236D01*
X129911561Y-98962113D01*
X129911500Y-98958219D01*
X129911500Y-98930654D01*
X129911500Y-98930650D01*
X129910997Y-98926670D01*
X129910081Y-98915028D01*
X129908710Y-98871373D01*
X129903118Y-98852126D01*
X129899174Y-98833085D01*
X129896664Y-98813208D01*
X129880579Y-98772583D01*
X129876808Y-98761568D01*
X129864618Y-98719610D01*
X129854414Y-98702355D01*
X129845861Y-98684895D01*
X129838486Y-98666269D01*
X129838486Y-98666268D01*
X129812808Y-98630925D01*
X129806401Y-98621171D01*
X129784169Y-98583579D01*
X129770006Y-98569416D01*
X129757367Y-98554617D01*
X129745595Y-98538413D01*
X129711941Y-98510573D01*
X129703299Y-98502709D01*
X128110402Y-96909811D01*
X128097506Y-96893713D01*
X128046375Y-96845698D01*
X128043578Y-96842987D01*
X128024070Y-96823479D01*
X128020890Y-96821012D01*
X128012024Y-96813439D01*
X127980182Y-96783538D01*
X127962624Y-96773885D01*
X127946364Y-96763204D01*
X127930536Y-96750927D01*
X127890451Y-96733580D01*
X127879961Y-96728441D01*
X127841691Y-96707402D01*
X127822291Y-96702421D01*
X127803884Y-96696119D01*
X127785497Y-96688162D01*
X127742358Y-96681329D01*
X127730924Y-96678961D01*
X127688619Y-96668100D01*
X127668584Y-96668100D01*
X127649186Y-96666573D01*
X127641762Y-96665397D01*
X127629405Y-96663440D01*
X127629404Y-96663440D01*
X127596351Y-96666564D01*
X127585925Y-96667550D01*
X127574256Y-96668100D01*
X120935053Y-96668100D01*
X120887600Y-96658661D01*
X120847372Y-96631781D01*
X119787819Y-95572228D01*
X119760939Y-95532000D01*
X119751500Y-95484547D01*
X119751500Y-94831999D01*
X120560785Y-94831999D01*
X120579602Y-95035083D01*
X120635418Y-95231251D01*
X120726324Y-95413818D01*
X120849236Y-95576580D01*
X120999958Y-95713981D01*
X121173361Y-95821347D01*
X121173363Y-95821348D01*
X121363544Y-95895024D01*
X121564024Y-95932500D01*
X121767974Y-95932500D01*
X121767976Y-95932500D01*
X121968456Y-95895024D01*
X122158637Y-95821348D01*
X122332041Y-95713981D01*
X122482764Y-95576579D01*
X122605673Y-95413821D01*
X122605673Y-95413819D01*
X122605675Y-95413818D01*
X122658735Y-95307257D01*
X122696582Y-95231250D01*
X122752397Y-95035083D01*
X122771215Y-94832000D01*
X122771215Y-94831999D01*
X123100785Y-94831999D01*
X123119602Y-95035083D01*
X123175418Y-95231251D01*
X123266324Y-95413818D01*
X123389236Y-95576580D01*
X123539958Y-95713981D01*
X123713361Y-95821347D01*
X123713363Y-95821348D01*
X123903544Y-95895024D01*
X124104024Y-95932500D01*
X124307974Y-95932500D01*
X124307976Y-95932500D01*
X124508456Y-95895024D01*
X124698637Y-95821348D01*
X124872041Y-95713981D01*
X125022764Y-95576579D01*
X125145673Y-95413821D01*
X125145673Y-95413819D01*
X125145675Y-95413818D01*
X125198735Y-95307257D01*
X125236582Y-95231250D01*
X125292397Y-95035083D01*
X125311215Y-94832000D01*
X125311215Y-94831999D01*
X125640785Y-94831999D01*
X125659602Y-95035083D01*
X125715418Y-95231251D01*
X125806324Y-95413818D01*
X125929236Y-95576580D01*
X126079958Y-95713981D01*
X126253361Y-95821347D01*
X126253363Y-95821348D01*
X126443544Y-95895024D01*
X126644024Y-95932500D01*
X126847974Y-95932500D01*
X126847976Y-95932500D01*
X127048456Y-95895024D01*
X127238637Y-95821348D01*
X127412041Y-95713981D01*
X127562764Y-95576579D01*
X127685673Y-95413821D01*
X127685673Y-95413819D01*
X127685675Y-95413818D01*
X127738735Y-95307257D01*
X127776582Y-95231250D01*
X127832397Y-95035083D01*
X127851215Y-94832000D01*
X127851215Y-94831999D01*
X128180785Y-94831999D01*
X128199602Y-95035083D01*
X128255418Y-95231251D01*
X128346324Y-95413818D01*
X128469236Y-95576580D01*
X128619958Y-95713981D01*
X128793361Y-95821347D01*
X128793363Y-95821348D01*
X128983544Y-95895024D01*
X129184024Y-95932500D01*
X129387974Y-95932500D01*
X129387976Y-95932500D01*
X129588456Y-95895024D01*
X129778637Y-95821348D01*
X129952041Y-95713981D01*
X130102764Y-95576579D01*
X130225673Y-95413821D01*
X130225673Y-95413819D01*
X130225675Y-95413818D01*
X130278735Y-95307257D01*
X130316582Y-95231250D01*
X130372397Y-95035083D01*
X130391215Y-94832000D01*
X130391215Y-94831999D01*
X130720785Y-94831999D01*
X130739602Y-95035083D01*
X130795418Y-95231251D01*
X130886324Y-95413818D01*
X131009236Y-95576580D01*
X131160038Y-95714053D01*
X131189934Y-95755604D01*
X131200500Y-95805690D01*
X131200500Y-97453256D01*
X131198235Y-97473762D01*
X131200439Y-97543873D01*
X131200500Y-97547768D01*
X131200500Y-97575349D01*
X131201003Y-97579334D01*
X131201918Y-97590967D01*
X131203290Y-97634626D01*
X131208879Y-97653860D01*
X131212825Y-97672916D01*
X131215335Y-97692792D01*
X131231414Y-97733404D01*
X131235197Y-97744451D01*
X131247382Y-97786391D01*
X131257580Y-97803635D01*
X131266136Y-97821100D01*
X131273514Y-97839732D01*
X131279202Y-97847561D01*
X131299180Y-97875059D01*
X131305593Y-97884822D01*
X131327826Y-97922416D01*
X131327829Y-97922419D01*
X131327830Y-97922420D01*
X131341995Y-97936585D01*
X131354627Y-97951375D01*
X131366406Y-97967587D01*
X131400058Y-97995426D01*
X131408699Y-98003289D01*
X133611196Y-100205787D01*
X133624096Y-100221888D01*
X133626213Y-100223876D01*
X133626214Y-100223877D01*
X133669938Y-100264937D01*
X133675223Y-100269900D01*
X133678020Y-100272611D01*
X133697529Y-100292120D01*
X133700711Y-100294588D01*
X133709571Y-100302155D01*
X133732493Y-100323681D01*
X133741418Y-100332062D01*
X133758970Y-100341711D01*
X133775238Y-100352397D01*
X133791064Y-100364673D01*
X133831146Y-100382017D01*
X133841633Y-100387155D01*
X133879907Y-100408197D01*
X133888410Y-100410379D01*
X133899308Y-100413178D01*
X133917713Y-100419478D01*
X133936104Y-100427437D01*
X133979250Y-100434270D01*
X133990668Y-100436635D01*
X134032981Y-100447500D01*
X134053016Y-100447500D01*
X134072415Y-100449027D01*
X134092196Y-100452160D01*
X134135674Y-100448050D01*
X134147344Y-100447500D01*
X140151548Y-100447500D01*
X140199001Y-100456939D01*
X140239229Y-100483819D01*
X141070181Y-101314772D01*
X141097061Y-101355000D01*
X141106500Y-101402453D01*
X141106500Y-102279256D01*
X141104235Y-102299762D01*
X141106439Y-102369873D01*
X141106500Y-102373768D01*
X141106500Y-102401349D01*
X141107003Y-102405334D01*
X141107918Y-102416967D01*
X141109290Y-102460626D01*
X141114879Y-102479860D01*
X141118825Y-102498916D01*
X141121335Y-102518792D01*
X141137414Y-102559404D01*
X141141197Y-102570451D01*
X141153382Y-102612391D01*
X141163580Y-102629635D01*
X141172136Y-102647100D01*
X141179514Y-102665732D01*
X141179515Y-102665733D01*
X141205180Y-102701059D01*
X141211593Y-102710822D01*
X141233826Y-102748416D01*
X141233829Y-102748419D01*
X141233830Y-102748420D01*
X141247995Y-102762585D01*
X141260627Y-102777375D01*
X141272406Y-102793587D01*
X141306058Y-102821426D01*
X141314699Y-102829289D01*
X141809038Y-103323629D01*
X141833277Y-103357926D01*
X141844678Y-103398348D01*
X141862326Y-103566257D01*
X141920820Y-103746284D01*
X142015466Y-103910216D01*
X142142129Y-104050889D01*
X142295269Y-104162151D01*
X142468197Y-104239144D01*
X142653352Y-104278500D01*
X142653354Y-104278500D01*
X142842646Y-104278500D01*
X142842648Y-104278500D01*
X142966083Y-104252262D01*
X143027803Y-104239144D01*
X143200730Y-104162151D01*
X143353871Y-104050888D01*
X143480533Y-103910216D01*
X143575179Y-103746284D01*
X143633674Y-103566256D01*
X143653460Y-103378000D01*
X143633674Y-103189744D01*
X143597382Y-103078050D01*
X143575179Y-103009715D01*
X143480533Y-102845783D01*
X143353870Y-102705110D01*
X143200730Y-102593848D01*
X143027802Y-102516855D01*
X142842648Y-102477500D01*
X142842646Y-102477500D01*
X142783452Y-102477500D01*
X142735999Y-102468061D01*
X142695771Y-102441181D01*
X142393819Y-102139228D01*
X142366939Y-102099000D01*
X142357500Y-102051547D01*
X142357500Y-101174740D01*
X142359763Y-101154236D01*
X142357561Y-101084144D01*
X142357500Y-101080250D01*
X142357500Y-101052657D01*
X142357500Y-101052650D01*
X142356995Y-101048653D01*
X142356080Y-101037023D01*
X142356080Y-101037019D01*
X142354709Y-100993373D01*
X142349120Y-100974140D01*
X142345174Y-100955082D01*
X142342664Y-100935208D01*
X142334330Y-100914159D01*
X142326585Y-100894597D01*
X142322804Y-100883552D01*
X142310619Y-100841613D01*
X142310618Y-100841612D01*
X142310618Y-100841610D01*
X142300417Y-100824361D01*
X142291860Y-100806895D01*
X142284486Y-100788268D01*
X142258813Y-100752932D01*
X142252402Y-100743172D01*
X142243864Y-100728735D01*
X142230170Y-100705579D01*
X142216006Y-100691415D01*
X142203369Y-100676620D01*
X142191595Y-100660414D01*
X142191594Y-100660413D01*
X142157935Y-100632568D01*
X142149305Y-100624714D01*
X140962802Y-99438211D01*
X140949906Y-99422113D01*
X140898775Y-99374098D01*
X140895978Y-99371387D01*
X140876470Y-99351879D01*
X140873290Y-99349412D01*
X140864424Y-99341839D01*
X140832582Y-99311938D01*
X140815024Y-99302285D01*
X140798764Y-99291604D01*
X140782936Y-99279327D01*
X140742851Y-99261980D01*
X140732361Y-99256841D01*
X140694091Y-99235802D01*
X140674691Y-99230821D01*
X140656284Y-99224519D01*
X140637897Y-99216562D01*
X140594758Y-99209729D01*
X140583324Y-99207361D01*
X140541019Y-99196500D01*
X140520984Y-99196500D01*
X140501586Y-99194973D01*
X140494162Y-99193797D01*
X140481805Y-99191840D01*
X140481804Y-99191840D01*
X140448751Y-99194964D01*
X140438325Y-99195950D01*
X140426656Y-99196500D01*
X134422453Y-99196500D01*
X134375000Y-99187061D01*
X134334772Y-99160181D01*
X132487819Y-97313228D01*
X132460939Y-97273000D01*
X132451500Y-97225547D01*
X132451500Y-95805690D01*
X132462066Y-95755604D01*
X132491962Y-95714053D01*
X132642763Y-95576580D01*
X132642764Y-95576579D01*
X132765673Y-95413821D01*
X132765673Y-95413819D01*
X132765675Y-95413818D01*
X132818735Y-95307257D01*
X132856582Y-95231250D01*
X132912397Y-95035083D01*
X132931215Y-94832000D01*
X132931215Y-94831999D01*
X133260785Y-94831999D01*
X133279602Y-95035083D01*
X133335418Y-95231251D01*
X133426324Y-95413818D01*
X133549236Y-95576580D01*
X133700038Y-95714053D01*
X133729934Y-95755604D01*
X133740500Y-95805690D01*
X133740500Y-96347256D01*
X133738235Y-96367762D01*
X133740439Y-96437873D01*
X133740500Y-96441768D01*
X133740500Y-96469349D01*
X133741003Y-96473334D01*
X133741918Y-96484967D01*
X133743290Y-96528626D01*
X133748879Y-96547860D01*
X133752825Y-96566916D01*
X133755335Y-96586792D01*
X133771414Y-96627404D01*
X133775197Y-96638451D01*
X133787382Y-96680391D01*
X133797580Y-96697635D01*
X133806136Y-96715100D01*
X133813514Y-96733732D01*
X133813515Y-96733733D01*
X133839180Y-96769059D01*
X133845593Y-96778822D01*
X133867826Y-96816416D01*
X133867829Y-96816419D01*
X133867830Y-96816420D01*
X133881995Y-96830585D01*
X133894627Y-96845375D01*
X133906406Y-96861587D01*
X133940058Y-96889426D01*
X133948699Y-96897289D01*
X134855796Y-97804387D01*
X134868696Y-97820488D01*
X134919823Y-97868500D01*
X134922619Y-97871210D01*
X134942129Y-97890720D01*
X134945311Y-97893188D01*
X134954171Y-97900755D01*
X134986018Y-97930662D01*
X135003572Y-97940312D01*
X135019836Y-97950996D01*
X135028497Y-97957714D01*
X135035664Y-97963273D01*
X135060509Y-97974024D01*
X135075752Y-97980621D01*
X135086231Y-97985754D01*
X135124508Y-98006797D01*
X135143906Y-98011777D01*
X135162308Y-98018077D01*
X135180704Y-98026038D01*
X135223861Y-98032873D01*
X135235264Y-98035234D01*
X135277581Y-98046100D01*
X135297616Y-98046100D01*
X135317013Y-98047626D01*
X135336796Y-98050760D01*
X135380274Y-98046650D01*
X135391944Y-98046100D01*
X142322148Y-98046100D01*
X142369601Y-98055539D01*
X142409829Y-98082419D01*
X142848181Y-98520772D01*
X142875061Y-98561000D01*
X142884500Y-98608453D01*
X142884500Y-100755256D01*
X142882235Y-100775762D01*
X142884439Y-100845873D01*
X142884500Y-100849768D01*
X142884500Y-100877349D01*
X142885003Y-100881334D01*
X142885918Y-100892967D01*
X142887290Y-100936626D01*
X142892879Y-100955860D01*
X142896825Y-100974916D01*
X142899335Y-100994792D01*
X142915414Y-101035404D01*
X142919197Y-101046451D01*
X142931382Y-101088391D01*
X142941580Y-101105635D01*
X142950136Y-101123100D01*
X142957514Y-101141732D01*
X142966599Y-101154236D01*
X142983180Y-101177059D01*
X142989593Y-101186822D01*
X143011826Y-101224416D01*
X143011829Y-101224419D01*
X143011830Y-101224420D01*
X143025995Y-101238585D01*
X143038627Y-101253375D01*
X143050406Y-101269587D01*
X143084058Y-101297426D01*
X143092699Y-101305289D01*
X145549196Y-103761787D01*
X145562096Y-103777888D01*
X145613223Y-103825900D01*
X145616020Y-103828611D01*
X145635529Y-103848120D01*
X145638711Y-103850588D01*
X145647571Y-103858155D01*
X145679417Y-103888061D01*
X145679418Y-103888062D01*
X145696970Y-103897711D01*
X145713238Y-103908397D01*
X145729064Y-103920673D01*
X145769146Y-103938017D01*
X145779633Y-103943155D01*
X145817907Y-103964197D01*
X145826410Y-103966379D01*
X145837308Y-103969178D01*
X145855713Y-103975478D01*
X145874104Y-103983437D01*
X145917250Y-103990270D01*
X145928668Y-103992635D01*
X145970981Y-104003500D01*
X145991016Y-104003500D01*
X146010415Y-104005027D01*
X146030196Y-104008160D01*
X146073674Y-104004050D01*
X146085344Y-104003500D01*
X159556256Y-104003500D01*
X159576762Y-104005764D01*
X159579665Y-104005672D01*
X159579667Y-104005673D01*
X159646872Y-104003561D01*
X159650768Y-104003500D01*
X159678349Y-104003500D01*
X159678350Y-104003500D01*
X159682319Y-104002998D01*
X159693965Y-104002080D01*
X159737627Y-104000709D01*
X159756859Y-103995120D01*
X159775918Y-103991174D01*
X159783099Y-103990267D01*
X159795792Y-103988664D01*
X159836407Y-103972582D01*
X159847444Y-103968803D01*
X159889390Y-103956618D01*
X159906629Y-103946422D01*
X159924102Y-103937862D01*
X159942732Y-103930486D01*
X159978064Y-103904814D01*
X159987830Y-103898400D01*
X160025418Y-103876171D01*
X160025417Y-103876171D01*
X160025420Y-103876170D01*
X160039585Y-103862004D01*
X160054373Y-103849373D01*
X160070587Y-103837594D01*
X160098438Y-103803926D01*
X160106279Y-103795309D01*
X162181789Y-101719800D01*
X162197885Y-101706906D01*
X162199873Y-101704787D01*
X162199877Y-101704786D01*
X162245948Y-101655723D01*
X162248566Y-101653023D01*
X162268120Y-101633471D01*
X162270581Y-101630298D01*
X162278156Y-101621427D01*
X162308062Y-101589582D01*
X162317717Y-101572018D01*
X162328394Y-101555764D01*
X162340673Y-101539936D01*
X162358018Y-101499852D01*
X162363160Y-101489356D01*
X162369233Y-101478310D01*
X162384197Y-101451092D01*
X162389179Y-101431684D01*
X162395481Y-101413280D01*
X162403437Y-101394896D01*
X162410269Y-101351752D01*
X162412633Y-101340338D01*
X162423500Y-101298019D01*
X162423500Y-101277984D01*
X162425027Y-101258585D01*
X162425852Y-101253375D01*
X162428160Y-101238804D01*
X162424050Y-101195325D01*
X162423500Y-101183656D01*
X162423500Y-89350047D01*
X162436664Y-89294447D01*
X162473360Y-89250653D01*
X162525797Y-89227961D01*
X162582842Y-89231190D01*
X162632383Y-89259654D01*
X162746107Y-89366448D01*
X162884759Y-89442673D01*
X162890134Y-89445628D01*
X163049321Y-89486500D01*
X163049323Y-89486500D01*
X163172425Y-89486500D01*
X163172427Y-89486500D01*
X163294559Y-89471071D01*
X163379131Y-89437586D01*
X163447371Y-89410568D01*
X163580337Y-89313963D01*
X163685100Y-89187326D01*
X163755079Y-89038613D01*
X163785876Y-88877170D01*
X163775556Y-88713140D01*
X163724768Y-88556829D01*
X163670892Y-88471934D01*
X163636702Y-88418059D01*
X163516893Y-88305552D01*
X163372865Y-88226371D01*
X163213679Y-88185500D01*
X163213677Y-88185500D01*
X163090575Y-88185500D01*
X163090573Y-88185500D01*
X162968440Y-88200928D01*
X162815629Y-88261431D01*
X162682665Y-88358034D01*
X162668530Y-88375121D01*
X162643042Y-88405930D01*
X162594592Y-88441598D01*
X162535055Y-88450262D01*
X162478447Y-88429882D01*
X162438096Y-88385255D01*
X162423500Y-88326888D01*
X162423500Y-82124744D01*
X162425764Y-82104236D01*
X162423561Y-82034113D01*
X162423500Y-82030219D01*
X162423500Y-82002654D01*
X162423500Y-82002650D01*
X162422997Y-81998670D01*
X162422081Y-81987028D01*
X162420710Y-81943373D01*
X162415118Y-81924126D01*
X162411174Y-81905085D01*
X162408664Y-81885208D01*
X162392579Y-81844583D01*
X162388808Y-81833568D01*
X162376618Y-81791610D01*
X162366414Y-81774355D01*
X162357861Y-81756895D01*
X162350486Y-81738269D01*
X162350486Y-81738268D01*
X162324808Y-81702925D01*
X162318401Y-81693171D01*
X162312904Y-81683876D01*
X162296170Y-81655580D01*
X162282006Y-81641416D01*
X162269367Y-81626617D01*
X162257595Y-81610413D01*
X162223941Y-81582573D01*
X162215299Y-81574709D01*
X161253319Y-80612728D01*
X161226439Y-80572500D01*
X161217000Y-80525047D01*
X161217000Y-80347180D01*
X161234553Y-80283579D01*
X161282243Y-80237985D01*
X161284581Y-80236726D01*
X161289819Y-80233908D01*
X161467493Y-80092217D01*
X161617012Y-79921078D01*
X161733571Y-79725992D01*
X161746177Y-79692401D01*
X161778200Y-79644824D01*
X161828209Y-79616743D01*
X161885505Y-79614169D01*
X161937830Y-79637654D01*
X161973990Y-79682172D01*
X162043325Y-79826150D01*
X162084803Y-79883239D01*
X162176904Y-80010005D01*
X162176905Y-80010006D01*
X162176906Y-80010007D01*
X162341161Y-80167052D01*
X162378352Y-80191601D01*
X162530823Y-80292246D01*
X162600144Y-80321875D01*
X162739787Y-80381562D01*
X162810130Y-80397617D01*
X162961346Y-80432131D01*
X163168853Y-80441450D01*
X163188369Y-80442327D01*
X163188369Y-80442326D01*
X163188371Y-80442327D01*
X163413568Y-80411822D01*
X163629700Y-80341596D01*
X163829819Y-80233908D01*
X164007493Y-80092217D01*
X164157012Y-79921078D01*
X164273571Y-79725992D01*
X164283042Y-79700758D01*
X164353422Y-79513229D01*
X164394000Y-79289628D01*
X164394000Y-78119304D01*
X164393392Y-78112546D01*
X164378732Y-77949661D01*
X164375497Y-77937941D01*
X164318273Y-77730594D01*
X164219674Y-77525849D01*
X164150702Y-77430918D01*
X164086096Y-77341995D01*
X164044016Y-77301762D01*
X163921838Y-77184947D01*
X163778174Y-77090116D01*
X163732177Y-77059754D01*
X163732175Y-77059753D01*
X163523212Y-76970437D01*
X163301654Y-76919869D01*
X163074630Y-76909672D01*
X162849432Y-76940177D01*
X162633300Y-77010403D01*
X162633300Y-77010404D01*
X162433181Y-77118092D01*
X162433179Y-77118093D01*
X162433180Y-77118093D01*
X162255506Y-77259783D01*
X162105990Y-77430918D01*
X161989428Y-77626009D01*
X161976822Y-77659598D01*
X161944797Y-77707177D01*
X161894788Y-77735257D01*
X161837493Y-77737829D01*
X161785168Y-77714345D01*
X161749009Y-77669827D01*
X161737248Y-77645406D01*
X161679672Y-77525847D01*
X161546096Y-77341995D01*
X161504016Y-77301762D01*
X161381838Y-77184947D01*
X161238174Y-77090116D01*
X161192177Y-77059754D01*
X161192175Y-77059753D01*
X160983212Y-76970437D01*
X160761654Y-76919869D01*
X160534630Y-76909672D01*
X160309432Y-76940177D01*
X160093300Y-77010403D01*
X160093300Y-77010404D01*
X159893181Y-77118092D01*
X159893179Y-77118093D01*
X159893180Y-77118093D01*
X159715506Y-77259783D01*
X159565990Y-77430918D01*
X159449428Y-77626009D01*
X159436822Y-77659598D01*
X159404797Y-77707177D01*
X159354788Y-77735257D01*
X159297493Y-77737829D01*
X159245168Y-77714345D01*
X159209009Y-77669827D01*
X159197248Y-77645406D01*
X159139672Y-77525847D01*
X159006096Y-77341995D01*
X158964016Y-77301762D01*
X158841838Y-77184947D01*
X158698174Y-77090116D01*
X158652177Y-77059754D01*
X158652175Y-77059753D01*
X158443212Y-76970437D01*
X158221654Y-76919869D01*
X157994630Y-76909672D01*
X157769432Y-76940177D01*
X157553300Y-77010403D01*
X157553300Y-77010404D01*
X157353181Y-77118092D01*
X157353179Y-77118093D01*
X157353180Y-77118093D01*
X157175506Y-77259783D01*
X157025990Y-77430918D01*
X156909428Y-77626009D01*
X156896822Y-77659598D01*
X156864797Y-77707177D01*
X156814788Y-77735257D01*
X156757493Y-77737829D01*
X156705168Y-77714345D01*
X156669009Y-77669827D01*
X156657248Y-77645406D01*
X156599672Y-77525847D01*
X156466096Y-77341995D01*
X156424016Y-77301762D01*
X156301838Y-77184947D01*
X156158174Y-77090116D01*
X156112177Y-77059754D01*
X156112175Y-77059753D01*
X155903212Y-76970437D01*
X155681654Y-76919869D01*
X155454630Y-76909672D01*
X155229432Y-76940177D01*
X155013300Y-77010403D01*
X155013300Y-77010404D01*
X154813181Y-77118092D01*
X154813179Y-77118093D01*
X154813180Y-77118093D01*
X154635506Y-77259783D01*
X154485990Y-77430918D01*
X154369428Y-77626009D01*
X154356822Y-77659598D01*
X154324797Y-77707177D01*
X154274788Y-77735257D01*
X154217493Y-77737829D01*
X154165168Y-77714345D01*
X154129009Y-77669827D01*
X154117248Y-77645406D01*
X154059672Y-77525847D01*
X153926096Y-77341995D01*
X153884016Y-77301762D01*
X153761838Y-77184947D01*
X153618174Y-77090116D01*
X153572177Y-77059754D01*
X153572175Y-77059753D01*
X153363212Y-76970437D01*
X153141654Y-76919869D01*
X152914630Y-76909672D01*
X152689432Y-76940177D01*
X152473300Y-77010403D01*
X152473300Y-77010404D01*
X152273181Y-77118092D01*
X152273179Y-77118093D01*
X152273180Y-77118093D01*
X152095506Y-77259783D01*
X151945990Y-77430918D01*
X151829428Y-77626009D01*
X151816822Y-77659598D01*
X151784797Y-77707177D01*
X151734788Y-77735257D01*
X151677493Y-77737829D01*
X151625168Y-77714345D01*
X151589009Y-77669827D01*
X151577248Y-77645406D01*
X151519672Y-77525847D01*
X151386096Y-77341995D01*
X151344016Y-77301762D01*
X151221838Y-77184947D01*
X151078174Y-77090116D01*
X151032177Y-77059754D01*
X151032175Y-77059753D01*
X150823212Y-76970437D01*
X150601654Y-76919869D01*
X150374630Y-76909672D01*
X150149432Y-76940177D01*
X149933300Y-77010403D01*
X149933300Y-77010404D01*
X149733181Y-77118092D01*
X149733179Y-77118093D01*
X149733180Y-77118093D01*
X149555506Y-77259783D01*
X149405990Y-77430918D01*
X149289426Y-77626012D01*
X149209577Y-77838770D01*
X149169000Y-78062372D01*
X149169000Y-79232696D01*
X149184268Y-79402342D01*
X149244726Y-79621405D01*
X149343325Y-79826150D01*
X149384803Y-79883239D01*
X149476904Y-80010005D01*
X149476905Y-80010006D01*
X149476906Y-80010007D01*
X149641161Y-80167052D01*
X149678352Y-80191601D01*
X149830823Y-80292246D01*
X149900144Y-80321875D01*
X150039787Y-80381562D01*
X150110130Y-80397617D01*
X150261346Y-80432131D01*
X150468853Y-80441450D01*
X150488369Y-80442327D01*
X150488369Y-80442326D01*
X150488371Y-80442327D01*
X150713568Y-80411822D01*
X150929700Y-80341596D01*
X151129819Y-80233908D01*
X151307493Y-80092217D01*
X151457012Y-79921078D01*
X151573571Y-79725992D01*
X151586177Y-79692401D01*
X151618200Y-79644824D01*
X151668209Y-79616743D01*
X151725505Y-79614169D01*
X151777830Y-79637654D01*
X151813990Y-79682172D01*
X151883325Y-79826150D01*
X151924803Y-79883239D01*
X152016904Y-80010005D01*
X152016905Y-80010006D01*
X152016906Y-80010007D01*
X152181161Y-80167052D01*
X152218352Y-80191601D01*
X152370823Y-80292246D01*
X152440144Y-80321875D01*
X152579787Y-80381562D01*
X152650130Y-80397617D01*
X152801346Y-80432131D01*
X153008853Y-80441450D01*
X153028369Y-80442327D01*
X153028369Y-80442326D01*
X153028371Y-80442327D01*
X153253568Y-80411822D01*
X153469700Y-80341596D01*
X153669819Y-80233908D01*
X153847493Y-80092217D01*
X153997012Y-79921078D01*
X154113571Y-79725992D01*
X154126177Y-79692401D01*
X154158200Y-79644824D01*
X154208209Y-79616743D01*
X154265505Y-79614169D01*
X154317830Y-79637654D01*
X154353990Y-79682172D01*
X154423325Y-79826150D01*
X154464803Y-79883239D01*
X154556904Y-80010005D01*
X154556905Y-80010006D01*
X154556906Y-80010007D01*
X154721161Y-80167052D01*
X154758352Y-80191601D01*
X154910823Y-80292246D01*
X154980144Y-80321875D01*
X155119787Y-80381562D01*
X155190130Y-80397617D01*
X155341346Y-80432131D01*
X155548853Y-80441450D01*
X155568369Y-80442327D01*
X155568369Y-80442326D01*
X155568371Y-80442327D01*
X155793568Y-80411822D01*
X156009700Y-80341596D01*
X156209819Y-80233908D01*
X156387493Y-80092217D01*
X156537012Y-79921078D01*
X156653571Y-79725992D01*
X156666177Y-79692401D01*
X156698200Y-79644824D01*
X156748209Y-79616743D01*
X156805505Y-79614169D01*
X156857830Y-79637654D01*
X156893990Y-79682172D01*
X156963325Y-79826150D01*
X157004803Y-79883239D01*
X157096904Y-80010005D01*
X157096905Y-80010006D01*
X157096906Y-80010007D01*
X157261161Y-80167052D01*
X157298352Y-80191601D01*
X157450823Y-80292246D01*
X157520144Y-80321875D01*
X157659787Y-80381562D01*
X157730130Y-80397617D01*
X157881346Y-80432131D01*
X158088853Y-80441450D01*
X158108369Y-80442327D01*
X158108369Y-80442326D01*
X158108371Y-80442327D01*
X158333568Y-80411822D01*
X158549700Y-80341596D01*
X158749819Y-80233908D01*
X158927493Y-80092217D01*
X159077012Y-79921078D01*
X159193571Y-79725992D01*
X159206177Y-79692401D01*
X159238200Y-79644824D01*
X159288209Y-79616743D01*
X159345505Y-79614169D01*
X159397830Y-79637654D01*
X159433990Y-79682172D01*
X159503325Y-79826150D01*
X159544803Y-79883239D01*
X159636904Y-80010005D01*
X159801162Y-80167052D01*
X159866579Y-80210233D01*
X159910311Y-80239100D01*
X159951194Y-80283827D01*
X159966000Y-80342587D01*
X159966000Y-80752756D01*
X159963735Y-80773262D01*
X159965939Y-80843373D01*
X159966000Y-80847268D01*
X159966000Y-80874849D01*
X159966503Y-80878834D01*
X159967418Y-80890467D01*
X159968790Y-80934126D01*
X159974379Y-80953360D01*
X159978325Y-80972416D01*
X159980835Y-80992292D01*
X159996914Y-81032904D01*
X160000697Y-81043951D01*
X160012882Y-81085891D01*
X160023080Y-81103135D01*
X160031636Y-81120600D01*
X160039014Y-81139232D01*
X160039015Y-81139233D01*
X160064680Y-81174559D01*
X160071093Y-81184322D01*
X160093326Y-81221916D01*
X160093329Y-81221919D01*
X160093330Y-81221920D01*
X160107495Y-81236085D01*
X160120127Y-81250875D01*
X160131906Y-81267087D01*
X160165558Y-81294926D01*
X160174199Y-81302789D01*
X161136181Y-82264771D01*
X161163061Y-82304999D01*
X161172500Y-82352452D01*
X161172500Y-88203416D01*
X161156210Y-88264853D01*
X161111621Y-88310148D01*
X161050447Y-88327401D01*
X160988762Y-88312078D01*
X160976895Y-88305553D01*
X160976893Y-88305552D01*
X160836690Y-88228474D01*
X160832865Y-88226371D01*
X160673679Y-88185500D01*
X160673677Y-88185500D01*
X160550575Y-88185500D01*
X160550573Y-88185500D01*
X160428440Y-88200928D01*
X160275629Y-88261431D01*
X160142665Y-88358034D01*
X160037899Y-88484675D01*
X160013043Y-88537498D01*
X159967921Y-88633387D01*
X159964768Y-88649916D01*
X159937123Y-88794833D01*
X159947443Y-88958858D01*
X159967930Y-89021909D01*
X159998232Y-89115171D01*
X160032422Y-89169045D01*
X160086297Y-89253940D01*
X160179075Y-89341063D01*
X160206107Y-89366448D01*
X160344759Y-89442673D01*
X160350134Y-89445628D01*
X160509321Y-89486500D01*
X160509323Y-89486500D01*
X160632425Y-89486500D01*
X160632427Y-89486500D01*
X160754559Y-89471071D01*
X160839131Y-89437586D01*
X160907371Y-89410568D01*
X160940498Y-89386500D01*
X160975615Y-89360987D01*
X161038772Y-89337687D01*
X161104795Y-89350820D01*
X161154227Y-89396515D01*
X161172500Y-89461305D01*
X161172500Y-100908548D01*
X161163061Y-100956001D01*
X161136181Y-100996229D01*
X159416228Y-102716181D01*
X159376000Y-102743061D01*
X159328547Y-102752500D01*
X146360453Y-102752500D01*
X146313000Y-102743061D01*
X146272772Y-102716181D01*
X144171819Y-100615228D01*
X144144939Y-100575000D01*
X144135500Y-100527547D01*
X144135500Y-98380744D01*
X144137764Y-98360237D01*
X144135561Y-98290127D01*
X144135500Y-98286232D01*
X144135500Y-98258653D01*
X144134997Y-98254672D01*
X144134080Y-98243019D01*
X144134070Y-98242698D01*
X144132709Y-98199373D01*
X144127120Y-98180140D01*
X144123174Y-98161082D01*
X144120664Y-98141206D01*
X144104588Y-98100604D01*
X144100804Y-98089553D01*
X144090957Y-98055661D01*
X144088618Y-98047610D01*
X144078414Y-98030355D01*
X144069861Y-98012895D01*
X144068261Y-98008854D01*
X144062486Y-97994268D01*
X144036808Y-97958925D01*
X144030401Y-97949171D01*
X144022954Y-97936579D01*
X144008170Y-97911580D01*
X143994006Y-97897415D01*
X143981367Y-97882617D01*
X143969595Y-97866413D01*
X143935941Y-97838573D01*
X143927299Y-97830709D01*
X143133402Y-97036811D01*
X143120506Y-97020713D01*
X143069375Y-96972698D01*
X143066578Y-96969987D01*
X143047070Y-96950479D01*
X143043890Y-96948012D01*
X143035024Y-96940439D01*
X143003182Y-96910538D01*
X142985624Y-96900885D01*
X142969364Y-96890204D01*
X142953536Y-96877927D01*
X142913451Y-96860580D01*
X142902961Y-96855441D01*
X142864691Y-96834402D01*
X142845291Y-96829421D01*
X142826884Y-96823119D01*
X142808497Y-96815162D01*
X142765358Y-96808329D01*
X142753924Y-96805961D01*
X142711619Y-96795100D01*
X142691584Y-96795100D01*
X142672186Y-96793573D01*
X142664762Y-96792397D01*
X142652405Y-96790440D01*
X142652404Y-96790440D01*
X142619351Y-96793564D01*
X142608925Y-96794550D01*
X142597256Y-96795100D01*
X135667052Y-96795100D01*
X135619599Y-96785661D01*
X135579371Y-96758781D01*
X135027819Y-96207228D01*
X135000939Y-96167000D01*
X134991500Y-96119547D01*
X134991500Y-95805690D01*
X135002066Y-95755604D01*
X135031962Y-95714053D01*
X135182763Y-95576580D01*
X135182764Y-95576579D01*
X135305673Y-95413821D01*
X135305673Y-95413819D01*
X135305675Y-95413818D01*
X135358735Y-95307257D01*
X135396582Y-95231250D01*
X135452397Y-95035083D01*
X135471215Y-94832000D01*
X135471215Y-94831999D01*
X135800785Y-94831999D01*
X135819602Y-95035083D01*
X135875418Y-95231251D01*
X135966324Y-95413818D01*
X136089236Y-95576580D01*
X136239958Y-95713981D01*
X136413361Y-95821347D01*
X136413363Y-95821348D01*
X136603544Y-95895024D01*
X136804024Y-95932500D01*
X137007974Y-95932500D01*
X137007976Y-95932500D01*
X137208456Y-95895024D01*
X137398637Y-95821348D01*
X137572041Y-95713981D01*
X137722764Y-95576579D01*
X137845673Y-95413821D01*
X137845673Y-95413819D01*
X137845675Y-95413818D01*
X137898735Y-95307257D01*
X137936582Y-95231250D01*
X137992397Y-95035083D01*
X138011215Y-94832000D01*
X138011215Y-94831999D01*
X138340785Y-94831999D01*
X138359602Y-95035083D01*
X138415418Y-95231251D01*
X138506324Y-95413818D01*
X138629236Y-95576580D01*
X138779958Y-95713981D01*
X138953361Y-95821347D01*
X138953363Y-95821348D01*
X139143544Y-95895024D01*
X139344024Y-95932500D01*
X139547974Y-95932500D01*
X139547976Y-95932500D01*
X139748456Y-95895024D01*
X139938637Y-95821348D01*
X140112041Y-95713981D01*
X140262764Y-95576579D01*
X140385673Y-95413821D01*
X140385673Y-95413819D01*
X140385675Y-95413818D01*
X140438735Y-95307257D01*
X140476582Y-95231250D01*
X140532397Y-95035083D01*
X140551215Y-94832000D01*
X140532397Y-94628917D01*
X140531844Y-94626975D01*
X140479687Y-94443663D01*
X140476582Y-94432750D01*
X140476209Y-94432001D01*
X140385675Y-94250181D01*
X140262763Y-94087419D01*
X140112041Y-93950018D01*
X139938638Y-93842652D01*
X139748457Y-93768976D01*
X139681629Y-93756483D01*
X139547976Y-93731500D01*
X139344024Y-93731500D01*
X139273988Y-93744592D01*
X139143542Y-93768976D01*
X138953361Y-93842652D01*
X138779958Y-93950018D01*
X138629236Y-94087419D01*
X138506324Y-94250181D01*
X138415418Y-94432748D01*
X138359602Y-94628916D01*
X138340785Y-94831999D01*
X138011215Y-94831999D01*
X137992397Y-94628917D01*
X137991844Y-94626975D01*
X137939687Y-94443663D01*
X137936582Y-94432750D01*
X137936209Y-94432001D01*
X137845675Y-94250181D01*
X137722763Y-94087419D01*
X137572041Y-93950018D01*
X137398638Y-93842652D01*
X137208457Y-93768976D01*
X137141629Y-93756483D01*
X137007976Y-93731500D01*
X136804024Y-93731500D01*
X136733988Y-93744592D01*
X136603542Y-93768976D01*
X136413361Y-93842652D01*
X136239958Y-93950018D01*
X136089236Y-94087419D01*
X135966324Y-94250181D01*
X135875418Y-94432748D01*
X135819602Y-94628916D01*
X135800785Y-94831999D01*
X135471215Y-94831999D01*
X135452397Y-94628917D01*
X135451844Y-94626975D01*
X135399687Y-94443663D01*
X135396582Y-94432750D01*
X135396209Y-94432001D01*
X135305675Y-94250181D01*
X135182763Y-94087419D01*
X135032041Y-93950018D01*
X134858638Y-93842652D01*
X134668457Y-93768976D01*
X134601629Y-93756483D01*
X134467976Y-93731500D01*
X134264024Y-93731500D01*
X134193988Y-93744592D01*
X134063542Y-93768976D01*
X133873361Y-93842652D01*
X133699958Y-93950018D01*
X133549236Y-94087419D01*
X133426324Y-94250181D01*
X133335418Y-94432748D01*
X133279602Y-94628916D01*
X133260785Y-94831999D01*
X132931215Y-94831999D01*
X132912397Y-94628917D01*
X132911844Y-94626975D01*
X132859687Y-94443663D01*
X132856582Y-94432750D01*
X132856209Y-94432001D01*
X132765675Y-94250181D01*
X132642763Y-94087419D01*
X132492041Y-93950018D01*
X132318638Y-93842652D01*
X132128457Y-93768976D01*
X132061629Y-93756483D01*
X131927976Y-93731500D01*
X131724024Y-93731500D01*
X131653988Y-93744592D01*
X131523542Y-93768976D01*
X131333361Y-93842652D01*
X131159958Y-93950018D01*
X131009236Y-94087419D01*
X130886324Y-94250181D01*
X130795418Y-94432748D01*
X130739602Y-94628916D01*
X130720785Y-94831999D01*
X130391215Y-94831999D01*
X130372397Y-94628917D01*
X130371844Y-94626975D01*
X130319687Y-94443663D01*
X130316582Y-94432750D01*
X130316209Y-94432001D01*
X130225675Y-94250181D01*
X130102763Y-94087419D01*
X129952041Y-93950018D01*
X129778638Y-93842652D01*
X129588457Y-93768976D01*
X129521629Y-93756483D01*
X129387976Y-93731500D01*
X129184024Y-93731500D01*
X129113988Y-93744592D01*
X128983542Y-93768976D01*
X128793361Y-93842652D01*
X128619958Y-93950018D01*
X128469236Y-94087419D01*
X128346324Y-94250181D01*
X128255418Y-94432748D01*
X128199602Y-94628916D01*
X128180785Y-94831999D01*
X127851215Y-94831999D01*
X127832397Y-94628917D01*
X127831844Y-94626975D01*
X127779687Y-94443663D01*
X127776582Y-94432750D01*
X127776209Y-94432001D01*
X127685675Y-94250181D01*
X127562763Y-94087419D01*
X127412041Y-93950018D01*
X127238638Y-93842652D01*
X127048457Y-93768976D01*
X126981629Y-93756483D01*
X126847976Y-93731500D01*
X126644024Y-93731500D01*
X126573988Y-93744592D01*
X126443542Y-93768976D01*
X126253361Y-93842652D01*
X126079958Y-93950018D01*
X125929236Y-94087419D01*
X125806324Y-94250181D01*
X125715418Y-94432748D01*
X125659602Y-94628916D01*
X125640785Y-94831999D01*
X125311215Y-94831999D01*
X125292397Y-94628917D01*
X125291844Y-94626975D01*
X125239687Y-94443663D01*
X125236582Y-94432750D01*
X125236209Y-94432001D01*
X125145675Y-94250181D01*
X125022763Y-94087419D01*
X124872041Y-93950018D01*
X124698638Y-93842652D01*
X124508457Y-93768976D01*
X124441629Y-93756483D01*
X124307976Y-93731500D01*
X124104024Y-93731500D01*
X124033988Y-93744592D01*
X123903542Y-93768976D01*
X123713361Y-93842652D01*
X123539958Y-93950018D01*
X123389236Y-94087419D01*
X123266324Y-94250181D01*
X123175418Y-94432748D01*
X123119602Y-94628916D01*
X123100785Y-94831999D01*
X122771215Y-94831999D01*
X122752397Y-94628917D01*
X122751844Y-94626975D01*
X122699687Y-94443663D01*
X122696582Y-94432750D01*
X122696209Y-94432001D01*
X122605675Y-94250181D01*
X122482763Y-94087419D01*
X122332041Y-93950018D01*
X122158638Y-93842652D01*
X121968457Y-93768976D01*
X121901629Y-93756483D01*
X121767976Y-93731500D01*
X121564024Y-93731500D01*
X121493988Y-93744592D01*
X121363542Y-93768976D01*
X121173361Y-93842652D01*
X120999958Y-93950018D01*
X120849236Y-94087419D01*
X120726324Y-94250181D01*
X120635418Y-94432748D01*
X120579602Y-94628916D01*
X120560785Y-94831999D01*
X119751500Y-94831999D01*
X119751500Y-92284740D01*
X119753763Y-92264236D01*
X119751561Y-92194144D01*
X119751500Y-92190250D01*
X119751500Y-92162657D01*
X119751500Y-92162650D01*
X119750995Y-92158653D01*
X119750080Y-92147023D01*
X119748709Y-92103373D01*
X119743120Y-92084140D01*
X119739174Y-92065082D01*
X119736664Y-92045208D01*
X119729137Y-92026197D01*
X119720585Y-92004597D01*
X119716804Y-91993552D01*
X119704619Y-91951613D01*
X119704618Y-91951612D01*
X119704618Y-91951610D01*
X119694417Y-91934361D01*
X119685860Y-91916895D01*
X119678486Y-91898268D01*
X119652813Y-91862932D01*
X119646402Y-91853172D01*
X119624169Y-91815578D01*
X119610006Y-91801415D01*
X119597369Y-91786620D01*
X119585595Y-91770414D01*
X119585594Y-91770413D01*
X119551935Y-91742568D01*
X119543305Y-91734714D01*
X116324802Y-88516211D01*
X116311906Y-88500113D01*
X116260775Y-88452098D01*
X116257978Y-88449387D01*
X116238470Y-88429879D01*
X116235290Y-88427412D01*
X116226424Y-88419839D01*
X116194582Y-88389938D01*
X116177024Y-88380285D01*
X116160764Y-88369604D01*
X116144936Y-88357327D01*
X116104851Y-88339980D01*
X116094361Y-88334841D01*
X116056091Y-88313802D01*
X116036691Y-88308821D01*
X116018284Y-88302519D01*
X115999897Y-88294562D01*
X115956758Y-88287729D01*
X115945324Y-88285361D01*
X115903019Y-88274500D01*
X115882984Y-88274500D01*
X115863586Y-88272973D01*
X115856162Y-88271797D01*
X115843805Y-88269840D01*
X115843804Y-88269840D01*
X115818468Y-88272235D01*
X115800325Y-88273950D01*
X115788656Y-88274500D01*
X113804499Y-88274500D01*
X113742499Y-88257887D01*
X113697112Y-88212500D01*
X113680499Y-88150500D01*
X113680499Y-88002130D01*
X113678489Y-87983430D01*
X113674091Y-87942517D01*
X113623796Y-87807669D01*
X113537546Y-87692454D01*
X113422331Y-87606204D01*
X113287483Y-87555909D01*
X113227873Y-87549500D01*
X113227869Y-87549500D01*
X111432130Y-87549500D01*
X111372515Y-87555909D01*
X111237669Y-87606204D01*
X111122454Y-87692454D01*
X111036204Y-87807669D01*
X110987189Y-87939083D01*
X110952209Y-87989462D01*
X110897365Y-88016915D01*
X110836072Y-88014726D01*
X110783326Y-87983430D01*
X110661404Y-87861508D01*
X110661401Y-87861505D01*
X110467830Y-87725965D01*
X110253663Y-87626097D01*
X110192501Y-87609709D01*
X110025407Y-87564936D01*
X109789999Y-87544340D01*
X109554592Y-87564936D01*
X109326336Y-87626097D01*
X109112170Y-87725965D01*
X108918598Y-87861505D01*
X108751505Y-88028598D01*
X108694748Y-88109657D01*
X108629098Y-88203416D01*
X108616349Y-88221623D01*
X108572031Y-88260489D01*
X108514774Y-88274500D01*
X108286744Y-88274500D01*
X108266236Y-88272235D01*
X108196113Y-88274439D01*
X108192219Y-88274500D01*
X108164650Y-88274500D01*
X108160671Y-88275002D01*
X108149041Y-88275917D01*
X108105372Y-88277289D01*
X108086128Y-88282880D01*
X108067084Y-88286824D01*
X108047208Y-88289335D01*
X108006600Y-88305413D01*
X107995554Y-88309194D01*
X107953610Y-88321382D01*
X107953607Y-88321383D01*
X107936365Y-88331579D01*
X107918904Y-88340133D01*
X107900267Y-88347512D01*
X107864931Y-88373185D01*
X107855174Y-88379595D01*
X107817580Y-88401829D01*
X107803413Y-88415996D01*
X107788624Y-88428626D01*
X107772413Y-88440404D01*
X107744572Y-88474058D01*
X107736711Y-88482697D01*
X107058208Y-89161199D01*
X107042110Y-89174096D01*
X106994096Y-89225225D01*
X106991391Y-89228017D01*
X106971874Y-89247534D01*
X106969415Y-89250705D01*
X106961842Y-89259572D01*
X106931935Y-89291420D01*
X106922285Y-89308974D01*
X106911609Y-89325228D01*
X106899326Y-89341063D01*
X106881975Y-89381158D01*
X106876838Y-89391644D01*
X106855802Y-89429907D01*
X106850821Y-89449309D01*
X106844520Y-89467711D01*
X106836561Y-89486102D01*
X106829728Y-89529242D01*
X106827360Y-89540674D01*
X106816500Y-89582978D01*
X106816500Y-89603016D01*
X106814973Y-89622415D01*
X106811876Y-89641971D01*
X106811840Y-89642196D01*
X106813517Y-89659938D01*
X106815950Y-89685675D01*
X106816500Y-89697344D01*
X106816500Y-102914256D01*
X106814235Y-102934762D01*
X106816439Y-103004873D01*
X106816500Y-103008768D01*
X106816500Y-103036349D01*
X106817003Y-103040334D01*
X106817918Y-103051967D01*
X106819290Y-103095626D01*
X106824879Y-103114860D01*
X106828825Y-103133916D01*
X106831335Y-103153792D01*
X106847414Y-103194404D01*
X106851197Y-103205451D01*
X106863382Y-103247391D01*
X106873580Y-103264635D01*
X106882136Y-103282100D01*
X106889514Y-103300732D01*
X106889515Y-103300733D01*
X106915180Y-103336059D01*
X106921593Y-103345822D01*
X106943826Y-103383416D01*
X106943829Y-103383419D01*
X106943830Y-103383420D01*
X106957995Y-103397585D01*
X106970627Y-103412375D01*
X106982406Y-103428587D01*
X107016058Y-103456426D01*
X107024699Y-103464289D01*
X108084196Y-104523787D01*
X108097096Y-104539888D01*
X108148223Y-104587900D01*
X108151020Y-104590611D01*
X108170529Y-104610120D01*
X108173711Y-104612588D01*
X108182571Y-104620155D01*
X108214417Y-104650061D01*
X108214418Y-104650062D01*
X108231970Y-104659711D01*
X108248238Y-104670397D01*
X108260647Y-104680023D01*
X108298135Y-104728042D01*
X108308230Y-104788119D01*
X108288497Y-104845754D01*
X108243697Y-104887036D01*
X108184644Y-104902000D01*
X106042000Y-104902000D01*
X105980000Y-104885387D01*
X105934613Y-104840000D01*
X105918000Y-104778000D01*
X105918000Y-78740000D01*
X108434340Y-78740000D01*
X108454936Y-78975407D01*
X108488206Y-79099572D01*
X108516097Y-79203663D01*
X108615965Y-79417830D01*
X108751505Y-79611401D01*
X108918599Y-79778495D01*
X109112170Y-79914035D01*
X109326337Y-80013903D01*
X109554592Y-80075063D01*
X109790000Y-80095659D01*
X110025408Y-80075063D01*
X110253663Y-80013903D01*
X110467830Y-79914035D01*
X110661401Y-79778495D01*
X110663076Y-79776819D01*
X110703305Y-79749939D01*
X110750758Y-79740500D01*
X111205500Y-79740500D01*
X111267500Y-79757113D01*
X111312887Y-79802500D01*
X111329500Y-79864500D01*
X111329500Y-83994721D01*
X111329460Y-83997863D01*
X111327242Y-84085362D01*
X111337648Y-84143420D01*
X111338957Y-84152749D01*
X111344926Y-84211438D01*
X111354033Y-84240467D01*
X111357772Y-84255702D01*
X111363141Y-84285652D01*
X111385020Y-84340425D01*
X111388180Y-84349300D01*
X111405841Y-84405588D01*
X111420607Y-84432191D01*
X111427337Y-84446364D01*
X111438622Y-84474617D01*
X111471080Y-84523867D01*
X111475961Y-84531923D01*
X111504590Y-84583501D01*
X111524404Y-84606581D01*
X111533856Y-84619116D01*
X111550599Y-84644520D01*
X111592300Y-84686221D01*
X111598705Y-84693132D01*
X111637130Y-84737891D01*
X111637131Y-84737892D01*
X111637134Y-84737895D01*
X111661198Y-84756522D01*
X111672968Y-84766889D01*
X113328449Y-86422370D01*
X113330642Y-86424619D01*
X113390161Y-86487233D01*
X113390941Y-86488053D01*
X113439370Y-86521760D01*
X113446862Y-86527409D01*
X113492592Y-86564697D01*
X113512939Y-86575325D01*
X113519557Y-86578782D01*
X113532981Y-86586915D01*
X113557951Y-86604295D01*
X113583982Y-86615466D01*
X113612165Y-86627560D01*
X113620675Y-86631602D01*
X113672951Y-86658909D01*
X113702200Y-86667277D01*
X113716970Y-86672535D01*
X113744942Y-86684540D01*
X113744945Y-86684540D01*
X113744946Y-86684541D01*
X113802726Y-86696414D01*
X113811869Y-86698657D01*
X113868582Y-86714886D01*
X113898920Y-86717196D01*
X113914448Y-86719373D01*
X113944259Y-86725500D01*
X114003244Y-86725500D01*
X114012659Y-86725858D01*
X114016806Y-86726173D01*
X114071476Y-86730337D01*
X114098278Y-86726923D01*
X114101652Y-86726494D01*
X114117317Y-86725500D01*
X117639176Y-86725500D01*
X117683970Y-86733874D01*
X117702411Y-86741018D01*
X117761414Y-86763876D01*
X117957340Y-86800500D01*
X118156658Y-86800500D01*
X118156660Y-86800500D01*
X118352586Y-86763876D01*
X118538446Y-86691873D01*
X118707910Y-86586945D01*
X118855209Y-86452664D01*
X118975326Y-86293604D01*
X119064171Y-86115180D01*
X119064224Y-86114996D01*
X119118717Y-85923470D01*
X119120854Y-85900405D01*
X119137108Y-85725000D01*
X119121592Y-85557560D01*
X119118717Y-85526529D01*
X119064172Y-85334821D01*
X119015896Y-85237871D01*
X118975326Y-85156396D01*
X118881966Y-85032768D01*
X118855208Y-84997334D01*
X118707912Y-84863056D01*
X118538447Y-84758127D01*
X118445516Y-84722125D01*
X118352586Y-84686124D01*
X118156660Y-84649500D01*
X117957340Y-84649500D01*
X117761414Y-84686124D01*
X117761409Y-84686125D01*
X117683970Y-84716126D01*
X117639176Y-84724500D01*
X114511783Y-84724500D01*
X114464330Y-84715061D01*
X114424102Y-84688181D01*
X113366819Y-83630899D01*
X113339939Y-83590671D01*
X113330500Y-83543218D01*
X113330500Y-83185000D01*
X116976892Y-83185000D01*
X116995282Y-83383470D01*
X117049827Y-83575178D01*
X117096552Y-83669012D01*
X117138674Y-83753604D01*
X117178818Y-83806763D01*
X117258791Y-83912665D01*
X117406087Y-84046943D01*
X117406089Y-84046944D01*
X117406090Y-84046945D01*
X117575554Y-84151873D01*
X117761414Y-84223876D01*
X117957340Y-84260500D01*
X118156658Y-84260500D01*
X118156660Y-84260500D01*
X118352586Y-84223876D01*
X118538446Y-84151873D01*
X118707910Y-84046945D01*
X118855209Y-83912664D01*
X118975326Y-83753604D01*
X119064171Y-83575180D01*
X119118717Y-83383469D01*
X119137108Y-83185000D01*
X119118717Y-82986531D01*
X119118717Y-82986529D01*
X119064172Y-82794821D01*
X119006891Y-82679787D01*
X118975326Y-82616396D01*
X118895795Y-82511080D01*
X118855208Y-82457334D01*
X118707912Y-82323056D01*
X118538447Y-82218127D01*
X118445515Y-82182125D01*
X118352586Y-82146124D01*
X118156660Y-82109500D01*
X117957340Y-82109500D01*
X117761413Y-82146124D01*
X117761414Y-82146124D01*
X117575552Y-82218127D01*
X117406087Y-82323056D01*
X117258791Y-82457334D01*
X117138674Y-82616396D01*
X117049827Y-82794821D01*
X116995282Y-82986529D01*
X116976892Y-83185000D01*
X113330500Y-83185000D01*
X113330500Y-80644999D01*
X116976892Y-80644999D01*
X116995282Y-80843470D01*
X117049827Y-81035178D01*
X117087848Y-81111532D01*
X117138674Y-81213604D01*
X117160861Y-81242984D01*
X117258791Y-81372665D01*
X117406087Y-81506943D01*
X117406089Y-81506944D01*
X117406090Y-81506945D01*
X117575554Y-81611873D01*
X117761414Y-81683876D01*
X117957340Y-81720500D01*
X118156658Y-81720500D01*
X118156660Y-81720500D01*
X118352586Y-81683876D01*
X118538446Y-81611873D01*
X118707910Y-81506945D01*
X118855209Y-81372664D01*
X118975326Y-81213604D01*
X119064171Y-81035180D01*
X119109789Y-80874850D01*
X119118717Y-80843470D01*
X119124953Y-80776167D01*
X119137108Y-80645000D01*
X119118717Y-80446531D01*
X119118717Y-80446529D01*
X119064172Y-80254821D01*
X119023994Y-80174135D01*
X118975326Y-80076396D01*
X118888011Y-79960773D01*
X118855208Y-79917334D01*
X118707912Y-79783056D01*
X118538447Y-79678127D01*
X118433974Y-79637654D01*
X118352586Y-79606124D01*
X118156660Y-79569500D01*
X117957340Y-79569500D01*
X117776420Y-79603319D01*
X117761414Y-79606124D01*
X117575552Y-79678127D01*
X117406087Y-79783056D01*
X117258791Y-79917334D01*
X117138674Y-80076396D01*
X117049827Y-80254821D01*
X116995282Y-80446529D01*
X116976892Y-80644999D01*
X113330500Y-80644999D01*
X113330500Y-79700758D01*
X113339939Y-79653305D01*
X113366819Y-79613077D01*
X113366818Y-79613077D01*
X113368495Y-79611401D01*
X113504035Y-79417830D01*
X113603903Y-79203663D01*
X113665063Y-78975408D01*
X113685659Y-78740000D01*
X113665063Y-78504592D01*
X113603903Y-78276337D01*
X113524007Y-78105000D01*
X116976892Y-78105000D01*
X116995282Y-78303470D01*
X117049827Y-78495178D01*
X117078690Y-78553141D01*
X117138674Y-78673604D01*
X117171571Y-78717166D01*
X117258791Y-78832665D01*
X117406087Y-78966943D01*
X117406089Y-78966944D01*
X117406090Y-78966945D01*
X117575554Y-79071873D01*
X117761414Y-79143876D01*
X117957340Y-79180500D01*
X118156658Y-79180500D01*
X118156660Y-79180500D01*
X118352586Y-79143876D01*
X118538446Y-79071873D01*
X118707910Y-78966945D01*
X118855209Y-78832664D01*
X118975326Y-78673604D01*
X119064171Y-78495180D01*
X119070373Y-78473385D01*
X119118717Y-78303470D01*
X119124139Y-78244954D01*
X119137108Y-78105000D01*
X119118717Y-77906531D01*
X119118717Y-77906529D01*
X119064172Y-77714821D01*
X119020888Y-77627897D01*
X118975326Y-77536396D01*
X118881716Y-77412437D01*
X118855208Y-77377334D01*
X118707912Y-77243056D01*
X118538447Y-77138127D01*
X118365381Y-77071081D01*
X118352586Y-77066124D01*
X118156660Y-77029500D01*
X117957340Y-77029500D01*
X117761414Y-77066123D01*
X117761414Y-77066124D01*
X117575552Y-77138127D01*
X117406087Y-77243056D01*
X117258791Y-77377334D01*
X117138674Y-77536396D01*
X117049827Y-77714821D01*
X116995282Y-77906529D01*
X116976892Y-78105000D01*
X113524007Y-78105000D01*
X113504035Y-78062171D01*
X113368495Y-77868599D01*
X113201401Y-77701505D01*
X113015402Y-77571267D01*
X112976539Y-77526951D01*
X112962528Y-77469694D01*
X112976539Y-77412437D01*
X113015405Y-77368119D01*
X113201078Y-77238109D01*
X113368106Y-77071081D01*
X113503600Y-76877576D01*
X113603430Y-76663492D01*
X113660636Y-76450000D01*
X108459364Y-76450000D01*
X108516569Y-76663492D01*
X108616399Y-76877576D01*
X108751893Y-77071081D01*
X108918918Y-77238106D01*
X109104595Y-77368119D01*
X109143460Y-77412437D01*
X109157471Y-77469694D01*
X109143460Y-77526951D01*
X109104595Y-77571269D01*
X108998718Y-77645405D01*
X108938321Y-77687696D01*
X108918595Y-77701508D01*
X108751505Y-77868598D01*
X108615965Y-78062170D01*
X108516097Y-78276336D01*
X108454936Y-78504592D01*
X108434340Y-78740000D01*
X105918000Y-78740000D01*
X105918000Y-65258194D01*
X106557840Y-65258194D01*
X106561950Y-65301675D01*
X106562500Y-65313344D01*
X106562500Y-67481256D01*
X106560235Y-67501762D01*
X106562439Y-67571873D01*
X106562500Y-67575768D01*
X106562500Y-67603349D01*
X106563003Y-67607334D01*
X106563918Y-67618967D01*
X106565290Y-67662626D01*
X106570879Y-67681860D01*
X106574825Y-67700916D01*
X106577335Y-67720792D01*
X106593414Y-67761404D01*
X106597197Y-67772451D01*
X106609382Y-67814391D01*
X106619580Y-67831635D01*
X106628136Y-67849100D01*
X106635514Y-67867732D01*
X106635515Y-67867733D01*
X106661180Y-67903059D01*
X106667593Y-67912822D01*
X106689826Y-67950416D01*
X106689829Y-67950419D01*
X106689830Y-67950420D01*
X106703995Y-67964585D01*
X106716627Y-67979375D01*
X106728406Y-67995587D01*
X106762058Y-68023426D01*
X106770699Y-68031289D01*
X107703196Y-68963787D01*
X107716096Y-68979888D01*
X107767223Y-69027900D01*
X107770020Y-69030611D01*
X107789529Y-69050120D01*
X107792711Y-69052588D01*
X107801571Y-69060155D01*
X107833418Y-69090062D01*
X107850972Y-69099712D01*
X107867236Y-69110396D01*
X107878972Y-69119499D01*
X107883064Y-69122673D01*
X107907909Y-69133424D01*
X107923152Y-69140021D01*
X107933631Y-69145154D01*
X107971908Y-69166197D01*
X107991306Y-69171177D01*
X108009708Y-69177477D01*
X108028104Y-69185438D01*
X108071261Y-69192273D01*
X108082664Y-69194634D01*
X108124981Y-69205500D01*
X108145016Y-69205500D01*
X108164413Y-69207026D01*
X108184196Y-69210160D01*
X108227674Y-69206050D01*
X108239344Y-69205500D01*
X108514773Y-69205500D01*
X108572030Y-69219511D01*
X108616346Y-69258374D01*
X108751505Y-69451401D01*
X108918599Y-69618495D01*
X109104160Y-69748426D01*
X109143024Y-69792743D01*
X109157035Y-69850000D01*
X109143024Y-69907257D01*
X109104159Y-69951575D01*
X108918595Y-70081508D01*
X108751505Y-70248598D01*
X108615965Y-70442170D01*
X108516097Y-70656336D01*
X108454936Y-70884592D01*
X108434340Y-71119999D01*
X108454936Y-71355407D01*
X108485580Y-71469771D01*
X108516097Y-71583663D01*
X108615965Y-71797830D01*
X108751505Y-71991401D01*
X108918599Y-72158495D01*
X109104160Y-72288426D01*
X109143024Y-72332743D01*
X109157035Y-72390000D01*
X109143024Y-72447257D01*
X109104159Y-72491575D01*
X108918595Y-72621508D01*
X108751505Y-72788598D01*
X108615965Y-72982170D01*
X108516097Y-73196336D01*
X108454936Y-73424592D01*
X108434340Y-73660000D01*
X108454936Y-73895407D01*
X108480784Y-73991872D01*
X108516097Y-74123663D01*
X108615965Y-74337830D01*
X108751505Y-74531401D01*
X108918599Y-74698495D01*
X109104597Y-74828732D01*
X109143460Y-74873048D01*
X109157471Y-74930305D01*
X109143461Y-74987561D01*
X109104595Y-75031880D01*
X108918919Y-75161892D01*
X108751890Y-75328921D01*
X108616400Y-75522421D01*
X108516569Y-75736507D01*
X108459364Y-75949999D01*
X108459364Y-75950000D01*
X113660636Y-75950000D01*
X113660635Y-75949999D01*
X113603430Y-75736507D01*
X113523454Y-75565000D01*
X116976892Y-75565000D01*
X116995282Y-75763470D01*
X117049827Y-75955178D01*
X117092825Y-76041528D01*
X117138674Y-76133604D01*
X117155461Y-76155833D01*
X117258791Y-76292665D01*
X117406087Y-76426943D01*
X117406089Y-76426944D01*
X117406090Y-76426945D01*
X117575554Y-76531873D01*
X117761414Y-76603876D01*
X117957340Y-76640500D01*
X118156658Y-76640500D01*
X118156660Y-76640500D01*
X118352586Y-76603876D01*
X118538446Y-76531873D01*
X118707910Y-76426945D01*
X118855209Y-76292664D01*
X118975326Y-76133604D01*
X119064171Y-75955180D01*
X119065646Y-75949999D01*
X119118717Y-75763470D01*
X119123664Y-75710079D01*
X119137108Y-75565000D01*
X119118717Y-75366531D01*
X119118717Y-75366529D01*
X119064172Y-75174821D01*
X119024369Y-75094888D01*
X118975326Y-74996396D01*
X118882178Y-74873048D01*
X118855208Y-74837334D01*
X118707912Y-74703056D01*
X118538447Y-74598127D01*
X118416075Y-74550720D01*
X118352586Y-74526124D01*
X118156660Y-74489500D01*
X117957340Y-74489500D01*
X117761414Y-74526123D01*
X117761414Y-74526124D01*
X117575552Y-74598127D01*
X117406087Y-74703056D01*
X117258791Y-74837334D01*
X117138674Y-74996396D01*
X117049827Y-75174821D01*
X116995282Y-75366529D01*
X116976892Y-75565000D01*
X113523454Y-75565000D01*
X113503599Y-75522421D01*
X113368109Y-75328921D01*
X113201081Y-75161893D01*
X113015404Y-75031880D01*
X112976539Y-74987562D01*
X112962528Y-74930305D01*
X112976539Y-74873048D01*
X113015402Y-74828732D01*
X113201401Y-74698495D01*
X113368495Y-74531401D01*
X113504035Y-74337830D01*
X113603903Y-74123663D01*
X113665063Y-73895408D01*
X113685659Y-73660000D01*
X113665063Y-73424592D01*
X113603903Y-73196337D01*
X113524006Y-73024999D01*
X116976892Y-73024999D01*
X116995282Y-73223470D01*
X117049827Y-73415178D01*
X117066799Y-73449261D01*
X117138674Y-73593604D01*
X117188814Y-73660000D01*
X117258791Y-73752665D01*
X117406087Y-73886943D01*
X117406089Y-73886944D01*
X117406090Y-73886945D01*
X117575554Y-73991873D01*
X117761414Y-74063876D01*
X117957340Y-74100500D01*
X118156658Y-74100500D01*
X118156660Y-74100500D01*
X118352586Y-74063876D01*
X118538446Y-73991873D01*
X118707910Y-73886945D01*
X118855209Y-73752664D01*
X118975326Y-73593604D01*
X119064171Y-73415180D01*
X119071232Y-73390365D01*
X119118717Y-73223470D01*
X119122007Y-73187967D01*
X119137108Y-73025000D01*
X119118717Y-72826531D01*
X119118717Y-72826529D01*
X119064172Y-72634821D01*
X119034475Y-72575183D01*
X118975326Y-72456396D01*
X118888631Y-72341594D01*
X118855208Y-72297334D01*
X118707912Y-72163056D01*
X118538447Y-72058127D01*
X118445516Y-72022125D01*
X118352586Y-71986124D01*
X118156660Y-71949500D01*
X117957340Y-71949500D01*
X117761414Y-71986123D01*
X117761414Y-71986124D01*
X117575552Y-72058127D01*
X117406087Y-72163056D01*
X117258791Y-72297334D01*
X117138674Y-72456396D01*
X117049827Y-72634821D01*
X116995282Y-72826529D01*
X116976892Y-73024999D01*
X113524006Y-73024999D01*
X113504035Y-72982171D01*
X113368495Y-72788599D01*
X113201401Y-72621505D01*
X113015839Y-72491573D01*
X112976976Y-72447257D01*
X112962965Y-72390000D01*
X112976976Y-72332743D01*
X113015839Y-72288426D01*
X113201401Y-72158495D01*
X113368495Y-71991401D01*
X113504035Y-71797830D01*
X113603903Y-71583663D01*
X113665063Y-71355408D01*
X113685659Y-71120000D01*
X113665063Y-70884592D01*
X113603903Y-70656337D01*
X113524007Y-70485000D01*
X116976892Y-70485000D01*
X116995282Y-70683470D01*
X117049827Y-70875178D01*
X117075166Y-70926064D01*
X117138674Y-71053604D01*
X117184466Y-71114242D01*
X117258791Y-71212665D01*
X117406087Y-71346943D01*
X117406089Y-71346944D01*
X117406090Y-71346945D01*
X117465660Y-71383829D01*
X117499680Y-71404894D01*
X117575554Y-71451873D01*
X117761414Y-71523876D01*
X117957340Y-71560500D01*
X118156658Y-71560500D01*
X118156660Y-71560500D01*
X118352586Y-71523876D01*
X118538446Y-71451873D01*
X118707910Y-71346945D01*
X118839270Y-71227194D01*
X120019840Y-71227194D01*
X120023950Y-71270675D01*
X120024500Y-71282344D01*
X120024500Y-89198256D01*
X120022235Y-89218762D01*
X120024439Y-89288873D01*
X120024500Y-89292768D01*
X120024500Y-89320349D01*
X120025003Y-89324334D01*
X120025918Y-89335967D01*
X120027290Y-89379626D01*
X120029292Y-89386514D01*
X120032678Y-89398170D01*
X120032879Y-89398860D01*
X120036825Y-89417916D01*
X120039335Y-89437792D01*
X120055414Y-89478404D01*
X120059197Y-89489451D01*
X120071382Y-89531391D01*
X120081580Y-89548635D01*
X120090136Y-89566100D01*
X120097514Y-89584732D01*
X120097515Y-89584733D01*
X120123180Y-89620059D01*
X120129593Y-89629822D01*
X120151826Y-89667416D01*
X120151829Y-89667419D01*
X120151830Y-89667420D01*
X120165995Y-89681585D01*
X120178627Y-89696375D01*
X120190406Y-89712587D01*
X120224058Y-89740426D01*
X120232699Y-89748289D01*
X121038196Y-90553787D01*
X121051096Y-90569888D01*
X121053213Y-90571876D01*
X121053214Y-90571877D01*
X121074781Y-90592130D01*
X121102223Y-90617900D01*
X121105020Y-90620611D01*
X121124529Y-90640120D01*
X121127711Y-90642588D01*
X121136571Y-90650155D01*
X121168418Y-90680062D01*
X121185972Y-90689712D01*
X121202236Y-90700396D01*
X121213972Y-90709499D01*
X121218064Y-90712673D01*
X121242909Y-90723424D01*
X121258152Y-90730021D01*
X121268631Y-90735154D01*
X121306908Y-90756197D01*
X121326306Y-90761177D01*
X121344708Y-90767477D01*
X121363104Y-90775438D01*
X121406261Y-90782273D01*
X121417664Y-90784634D01*
X121459981Y-90795500D01*
X121480016Y-90795500D01*
X121499413Y-90797026D01*
X121519196Y-90800160D01*
X121562674Y-90796050D01*
X121574344Y-90795500D01*
X134055548Y-90795500D01*
X134103001Y-90804939D01*
X134143228Y-90831818D01*
X135275823Y-91964414D01*
X136405196Y-93093787D01*
X136418096Y-93109888D01*
X136469223Y-93157900D01*
X136472019Y-93160610D01*
X136491529Y-93180120D01*
X136494711Y-93182588D01*
X136503571Y-93190155D01*
X136535417Y-93220061D01*
X136535418Y-93220062D01*
X136552970Y-93229711D01*
X136569238Y-93240397D01*
X136585064Y-93252673D01*
X136625146Y-93270017D01*
X136635633Y-93275155D01*
X136673907Y-93296197D01*
X136682410Y-93298379D01*
X136693308Y-93301178D01*
X136711713Y-93307478D01*
X136730104Y-93315437D01*
X136773250Y-93322270D01*
X136784668Y-93324635D01*
X136826981Y-93335500D01*
X136847016Y-93335500D01*
X136866415Y-93337027D01*
X136886196Y-93340160D01*
X136929674Y-93336050D01*
X136941344Y-93335500D01*
X140913548Y-93335500D01*
X140961001Y-93344939D01*
X141001229Y-93371819D01*
X146277181Y-98647771D01*
X146304061Y-98687999D01*
X146313500Y-98735452D01*
X146313500Y-98861812D01*
X146299489Y-98919069D01*
X146260623Y-98963387D01*
X146099859Y-99075953D01*
X145938953Y-99236859D01*
X145808432Y-99423264D01*
X145712261Y-99629502D01*
X145653364Y-99849310D01*
X145633531Y-100076000D01*
X145653364Y-100302689D01*
X145712261Y-100522497D01*
X145808432Y-100728735D01*
X145938953Y-100915140D01*
X146099859Y-101076046D01*
X146286264Y-101206567D01*
X146286265Y-101206567D01*
X146286266Y-101206568D01*
X146492504Y-101302739D01*
X146712308Y-101361635D01*
X146939000Y-101381468D01*
X147165692Y-101361635D01*
X147385496Y-101302739D01*
X147591734Y-101206568D01*
X147778139Y-101076047D01*
X147939047Y-100915139D01*
X148069568Y-100728734D01*
X148165739Y-100522496D01*
X148224635Y-100302692D01*
X148244468Y-100076000D01*
X148224635Y-99849308D01*
X148165739Y-99629504D01*
X148069568Y-99423266D01*
X148067367Y-99420123D01*
X147939046Y-99236859D01*
X147778140Y-99075953D01*
X147617377Y-98963387D01*
X147578511Y-98919069D01*
X147564500Y-98861812D01*
X147564500Y-98507744D01*
X147566764Y-98487236D01*
X147564561Y-98417113D01*
X147564500Y-98413219D01*
X147564500Y-98385654D01*
X147564500Y-98385650D01*
X147563997Y-98381670D01*
X147563081Y-98370028D01*
X147562988Y-98367054D01*
X147561710Y-98326373D01*
X147556118Y-98307126D01*
X147552174Y-98288085D01*
X147549664Y-98268208D01*
X147533579Y-98227583D01*
X147529806Y-98216562D01*
X147517618Y-98174610D01*
X147515345Y-98170766D01*
X147507419Y-98157364D01*
X147498861Y-98139897D01*
X147491486Y-98121268D01*
X147465808Y-98085926D01*
X147459405Y-98076176D01*
X147450099Y-98060440D01*
X147437171Y-98038580D01*
X147423006Y-98024415D01*
X147410369Y-98009620D01*
X147398595Y-97993414D01*
X147383131Y-97980621D01*
X147364935Y-97965568D01*
X147356305Y-97957714D01*
X141724802Y-92326211D01*
X141711906Y-92310114D01*
X141679723Y-92279892D01*
X141647676Y-92230770D01*
X141641790Y-92172414D01*
X141663381Y-92117881D01*
X141707619Y-92079371D01*
X141764607Y-92065500D01*
X141929548Y-92065500D01*
X141977001Y-92074939D01*
X142017229Y-92101819D01*
X145549197Y-95633787D01*
X145562098Y-95649889D01*
X145564212Y-95651874D01*
X145564214Y-95651877D01*
X145609120Y-95694047D01*
X145613240Y-95697916D01*
X145616035Y-95700625D01*
X145635530Y-95720120D01*
X145638704Y-95722582D01*
X145647568Y-95730153D01*
X145679418Y-95760062D01*
X145689914Y-95765832D01*
X145696974Y-95769714D01*
X145713231Y-95780392D01*
X145729064Y-95792674D01*
X145745185Y-95799649D01*
X145769156Y-95810023D01*
X145779643Y-95815160D01*
X145817908Y-95836197D01*
X145837316Y-95841180D01*
X145855710Y-95847478D01*
X145874105Y-95855438D01*
X145917254Y-95862271D01*
X145928680Y-95864638D01*
X145944222Y-95868629D01*
X145970980Y-95875500D01*
X145970981Y-95875500D01*
X145991016Y-95875500D01*
X146010413Y-95877026D01*
X146030196Y-95880160D01*
X146073674Y-95876050D01*
X146085344Y-95875500D01*
X149041548Y-95875500D01*
X149089001Y-95884939D01*
X149129229Y-95911819D01*
X150214181Y-96996772D01*
X150241061Y-97037000D01*
X150250500Y-97084453D01*
X150250500Y-98861812D01*
X150236489Y-98919069D01*
X150197623Y-98963387D01*
X150036859Y-99075953D01*
X149875953Y-99236859D01*
X149745432Y-99423264D01*
X149649261Y-99629502D01*
X149590364Y-99849310D01*
X149570531Y-100076000D01*
X149590364Y-100302689D01*
X149649261Y-100522497D01*
X149745432Y-100728735D01*
X149875953Y-100915140D01*
X150036859Y-101076046D01*
X150223264Y-101206567D01*
X150223265Y-101206567D01*
X150223266Y-101206568D01*
X150429504Y-101302739D01*
X150649308Y-101361635D01*
X150876000Y-101381468D01*
X151102692Y-101361635D01*
X151322496Y-101302739D01*
X151528734Y-101206568D01*
X151715139Y-101076047D01*
X151876047Y-100915139D01*
X152006568Y-100728734D01*
X152102739Y-100522496D01*
X152161635Y-100302692D01*
X152181468Y-100076000D01*
X152161635Y-99849308D01*
X152102739Y-99629504D01*
X152006568Y-99423266D01*
X152004367Y-99420123D01*
X151876046Y-99236859D01*
X151715140Y-99075953D01*
X151554377Y-98963387D01*
X151515511Y-98919069D01*
X151501500Y-98861812D01*
X151501500Y-96856740D01*
X151503763Y-96836236D01*
X151503585Y-96830579D01*
X151501561Y-96766144D01*
X151501500Y-96762250D01*
X151501500Y-96734657D01*
X151501500Y-96734650D01*
X151500995Y-96730653D01*
X151500080Y-96719023D01*
X151499957Y-96715101D01*
X151498709Y-96675372D01*
X151493119Y-96656134D01*
X151489174Y-96637082D01*
X151486664Y-96617208D01*
X151474621Y-96586792D01*
X151470578Y-96576581D01*
X151466805Y-96565560D01*
X151454617Y-96523610D01*
X151449471Y-96514909D01*
X151444421Y-96506369D01*
X151435863Y-96488902D01*
X151428486Y-96470268D01*
X151402798Y-96434912D01*
X151396409Y-96425184D01*
X151374170Y-96387579D01*
X151360005Y-96373414D01*
X151347369Y-96358620D01*
X151335595Y-96342414D01*
X151335594Y-96342413D01*
X151301935Y-96314568D01*
X151293305Y-96306714D01*
X149852802Y-94866211D01*
X149839906Y-94850113D01*
X149788775Y-94802098D01*
X149785978Y-94799387D01*
X149766470Y-94779879D01*
X149763290Y-94777412D01*
X149754424Y-94769839D01*
X149722582Y-94739938D01*
X149705024Y-94730285D01*
X149688764Y-94719604D01*
X149672936Y-94707327D01*
X149632851Y-94689980D01*
X149622361Y-94684841D01*
X149584091Y-94663802D01*
X149564691Y-94658821D01*
X149546284Y-94652519D01*
X149527897Y-94644562D01*
X149484758Y-94637729D01*
X149473324Y-94635361D01*
X149431019Y-94624500D01*
X149410984Y-94624500D01*
X149391586Y-94622973D01*
X149384162Y-94621797D01*
X149371805Y-94619840D01*
X149371804Y-94619840D01*
X149338751Y-94622964D01*
X149328325Y-94623950D01*
X149316656Y-94624500D01*
X146360452Y-94624500D01*
X146312999Y-94615061D01*
X146272771Y-94588181D01*
X144140591Y-92456000D01*
X145633531Y-92456000D01*
X145653364Y-92682689D01*
X145712261Y-92902497D01*
X145808432Y-93108735D01*
X145938953Y-93295140D01*
X146099859Y-93456046D01*
X146286264Y-93586567D01*
X146286265Y-93586567D01*
X146286266Y-93586568D01*
X146492504Y-93682739D01*
X146712308Y-93741635D01*
X146939000Y-93761468D01*
X147165692Y-93741635D01*
X147385496Y-93682739D01*
X147591734Y-93586568D01*
X147778139Y-93456047D01*
X147939047Y-93295139D01*
X148069568Y-93108734D01*
X148165739Y-92902496D01*
X148224635Y-92682692D01*
X148244468Y-92456000D01*
X149570531Y-92456000D01*
X149590364Y-92682689D01*
X149649261Y-92902497D01*
X149745432Y-93108735D01*
X149875953Y-93295140D01*
X150036859Y-93456046D01*
X150223264Y-93586567D01*
X150223265Y-93586567D01*
X150223266Y-93586568D01*
X150429504Y-93682739D01*
X150649308Y-93741635D01*
X150876000Y-93761468D01*
X151102692Y-93741635D01*
X151322496Y-93682739D01*
X151528734Y-93586568D01*
X151715139Y-93456047D01*
X151876047Y-93295139D01*
X152006568Y-93108734D01*
X152102739Y-92902496D01*
X152161635Y-92682692D01*
X152181468Y-92456000D01*
X152161635Y-92229308D01*
X152102739Y-92009504D01*
X152006568Y-91803266D01*
X151994912Y-91786620D01*
X151876046Y-91616859D01*
X151715140Y-91455953D01*
X151528735Y-91325432D01*
X151322497Y-91229261D01*
X151102689Y-91170364D01*
X150876000Y-91150531D01*
X150649310Y-91170364D01*
X150429502Y-91229261D01*
X150223264Y-91325432D01*
X150036859Y-91455953D01*
X149875953Y-91616859D01*
X149745432Y-91803264D01*
X149649261Y-92009502D01*
X149590364Y-92229310D01*
X149570531Y-92456000D01*
X148244468Y-92456000D01*
X148224635Y-92229308D01*
X148165739Y-92009504D01*
X148069568Y-91803266D01*
X148057912Y-91786620D01*
X147939046Y-91616859D01*
X147778140Y-91455953D01*
X147591735Y-91325432D01*
X147385497Y-91229261D01*
X147165689Y-91170364D01*
X146939000Y-91150531D01*
X146712310Y-91170364D01*
X146492502Y-91229261D01*
X146286264Y-91325432D01*
X146099859Y-91455953D01*
X145938953Y-91616859D01*
X145808432Y-91803264D01*
X145712261Y-92009502D01*
X145653364Y-92229310D01*
X145633531Y-92456000D01*
X144140591Y-92456000D01*
X142740802Y-91056211D01*
X142727906Y-91040113D01*
X142676775Y-90992098D01*
X142673978Y-90989387D01*
X142654470Y-90969879D01*
X142651290Y-90967412D01*
X142642424Y-90959839D01*
X142610582Y-90929938D01*
X142593024Y-90920285D01*
X142576764Y-90909604D01*
X142560936Y-90897327D01*
X142520851Y-90879980D01*
X142510361Y-90874841D01*
X142472091Y-90853802D01*
X142452691Y-90848821D01*
X142434284Y-90842519D01*
X142415897Y-90834562D01*
X142372758Y-90827729D01*
X142361324Y-90825361D01*
X142319019Y-90814500D01*
X142298984Y-90814500D01*
X142279586Y-90812973D01*
X142272162Y-90811797D01*
X142259805Y-90809840D01*
X142259804Y-90809840D01*
X142226751Y-90812964D01*
X142216325Y-90813950D01*
X142204656Y-90814500D01*
X141280453Y-90814500D01*
X141233000Y-90805061D01*
X141192772Y-90778181D01*
X140258319Y-89843728D01*
X140231439Y-89803500D01*
X140222000Y-89756047D01*
X140222000Y-89506602D01*
X140235902Y-89449554D01*
X140274492Y-89405298D01*
X140306440Y-89392699D01*
X141549000Y-89392699D01*
X141553498Y-89442673D01*
X141564268Y-89562342D01*
X141624726Y-89781405D01*
X141723325Y-89986150D01*
X141783102Y-90068425D01*
X141856904Y-90170005D01*
X141856905Y-90170006D01*
X141856906Y-90170007D01*
X142021161Y-90327052D01*
X142086577Y-90370232D01*
X142210823Y-90452246D01*
X142245527Y-90467079D01*
X142419787Y-90541562D01*
X142501592Y-90560233D01*
X142641346Y-90592131D01*
X142848853Y-90601450D01*
X142868369Y-90602327D01*
X142868369Y-90602326D01*
X142868371Y-90602327D01*
X143093568Y-90571822D01*
X143309700Y-90501596D01*
X143509819Y-90393908D01*
X143687493Y-90252217D01*
X143837012Y-90081078D01*
X143953571Y-89885992D01*
X143966177Y-89852401D01*
X143998200Y-89804824D01*
X144048209Y-89776743D01*
X144105505Y-89774169D01*
X144157830Y-89797654D01*
X144193990Y-89842172D01*
X144263325Y-89986150D01*
X144323102Y-90068425D01*
X144396904Y-90170005D01*
X144396905Y-90170006D01*
X144396906Y-90170007D01*
X144561161Y-90327052D01*
X144626577Y-90370232D01*
X144750823Y-90452246D01*
X144785527Y-90467079D01*
X144959787Y-90541562D01*
X145041592Y-90560233D01*
X145181346Y-90592131D01*
X145388853Y-90601450D01*
X145408369Y-90602327D01*
X145408369Y-90602326D01*
X145408371Y-90602327D01*
X145633568Y-90571822D01*
X145849700Y-90501596D01*
X146049819Y-90393908D01*
X146227493Y-90252217D01*
X146377012Y-90081078D01*
X146493571Y-89885992D01*
X146506177Y-89852401D01*
X146538200Y-89804824D01*
X146588209Y-89776743D01*
X146645505Y-89774169D01*
X146697830Y-89797654D01*
X146733990Y-89842172D01*
X146803325Y-89986150D01*
X146863102Y-90068425D01*
X146936904Y-90170005D01*
X146936905Y-90170006D01*
X146936906Y-90170007D01*
X147101161Y-90327052D01*
X147166577Y-90370232D01*
X147290823Y-90452246D01*
X147325527Y-90467079D01*
X147499787Y-90541562D01*
X147581592Y-90560233D01*
X147721346Y-90592131D01*
X147928853Y-90601450D01*
X147948369Y-90602327D01*
X147948369Y-90602326D01*
X147948371Y-90602327D01*
X148173568Y-90571822D01*
X148389700Y-90501596D01*
X148589819Y-90393908D01*
X148767493Y-90252217D01*
X148917012Y-90081078D01*
X149033571Y-89885992D01*
X149066643Y-89797873D01*
X149113422Y-89673229D01*
X149154000Y-89449628D01*
X149154000Y-88794833D01*
X149777123Y-88794833D01*
X149787443Y-88958858D01*
X149807930Y-89021909D01*
X149838232Y-89115171D01*
X149872422Y-89169045D01*
X149926297Y-89253940D01*
X150019075Y-89341063D01*
X150046107Y-89366448D01*
X150184759Y-89442673D01*
X150190134Y-89445628D01*
X150349321Y-89486500D01*
X150349323Y-89486500D01*
X150472425Y-89486500D01*
X150472427Y-89486500D01*
X150594559Y-89471071D01*
X150679131Y-89437586D01*
X150747371Y-89410568D01*
X150880337Y-89313963D01*
X150985100Y-89187326D01*
X151055079Y-89038613D01*
X151085876Y-88877170D01*
X151075556Y-88713140D01*
X151024768Y-88556829D01*
X150970892Y-88471934D01*
X150936702Y-88418059D01*
X150816893Y-88305552D01*
X150672865Y-88226371D01*
X150513679Y-88185500D01*
X150513677Y-88185500D01*
X150390575Y-88185500D01*
X150390573Y-88185500D01*
X150268440Y-88200928D01*
X150115629Y-88261431D01*
X149982665Y-88358034D01*
X149877899Y-88484675D01*
X149853043Y-88537498D01*
X149807921Y-88633387D01*
X149804768Y-88649916D01*
X149777123Y-88794833D01*
X149154000Y-88794833D01*
X149154000Y-88279304D01*
X149153148Y-88269840D01*
X149138732Y-88109661D01*
X149078274Y-87890596D01*
X149063696Y-87860325D01*
X148979674Y-87685849D01*
X148891825Y-87564936D01*
X148846096Y-87501995D01*
X148808988Y-87466516D01*
X148681838Y-87344947D01*
X148492175Y-87219753D01*
X148283212Y-87130437D01*
X148061654Y-87079869D01*
X147834630Y-87069672D01*
X147609432Y-87100177D01*
X147430001Y-87158479D01*
X147393300Y-87170404D01*
X147193181Y-87278092D01*
X147193179Y-87278093D01*
X147193180Y-87278093D01*
X147015506Y-87419783D01*
X146865990Y-87590918D01*
X146749428Y-87786009D01*
X146736822Y-87819598D01*
X146704797Y-87867177D01*
X146654788Y-87895257D01*
X146597493Y-87897829D01*
X146545168Y-87874345D01*
X146509009Y-87829827D01*
X146487907Y-87786009D01*
X146439672Y-87685847D01*
X146306096Y-87501995D01*
X146268988Y-87466516D01*
X146141838Y-87344947D01*
X145952175Y-87219753D01*
X145743212Y-87130437D01*
X145521654Y-87079869D01*
X145294630Y-87069672D01*
X145069432Y-87100177D01*
X144890001Y-87158479D01*
X144853300Y-87170404D01*
X144653181Y-87278092D01*
X144653179Y-87278093D01*
X144653180Y-87278093D01*
X144475506Y-87419783D01*
X144325990Y-87590918D01*
X144209428Y-87786009D01*
X144196822Y-87819598D01*
X144164797Y-87867177D01*
X144114788Y-87895257D01*
X144057493Y-87897829D01*
X144005168Y-87874345D01*
X143969009Y-87829827D01*
X143947907Y-87786009D01*
X143899672Y-87685847D01*
X143766096Y-87501995D01*
X143728988Y-87466516D01*
X143601838Y-87344947D01*
X143412175Y-87219753D01*
X143203212Y-87130437D01*
X142981654Y-87079869D01*
X142754630Y-87069672D01*
X142529432Y-87100177D01*
X142350001Y-87158479D01*
X142313300Y-87170404D01*
X142113181Y-87278092D01*
X142113179Y-87278093D01*
X142113180Y-87278093D01*
X141935506Y-87419783D01*
X141785990Y-87590918D01*
X141669426Y-87786012D01*
X141589577Y-87998770D01*
X141549000Y-88222372D01*
X141549000Y-88222373D01*
X141549000Y-89392699D01*
X140306440Y-89392699D01*
X140329115Y-89383757D01*
X140330606Y-89383551D01*
X140421420Y-89371070D01*
X140560220Y-89310780D01*
X140677608Y-89215278D01*
X140764877Y-89091647D01*
X140815554Y-88949056D01*
X140825881Y-88798079D01*
X140825206Y-88794833D01*
X140795092Y-88649916D01*
X140795092Y-88649915D01*
X140725471Y-88515553D01*
X140622180Y-88404956D01*
X140622179Y-88404955D01*
X140622178Y-88404954D01*
X140527721Y-88347514D01*
X140492882Y-88326328D01*
X140347165Y-88285500D01*
X140346000Y-88285500D01*
X140284000Y-88268887D01*
X140238613Y-88223500D01*
X140222000Y-88161500D01*
X140222000Y-86974244D01*
X140224264Y-86953736D01*
X140222061Y-86883613D01*
X140222000Y-86879719D01*
X140222000Y-86852154D01*
X140222000Y-86852150D01*
X140221497Y-86848170D01*
X140220581Y-86836528D01*
X140220044Y-86819426D01*
X140219210Y-86792873D01*
X140213618Y-86773626D01*
X140209674Y-86754585D01*
X140207164Y-86734708D01*
X140191079Y-86694083D01*
X140187306Y-86683062D01*
X140175118Y-86641110D01*
X140175100Y-86641079D01*
X140164919Y-86623864D01*
X140156361Y-86606397D01*
X140148986Y-86587768D01*
X140123308Y-86552426D01*
X140116905Y-86542676D01*
X140094670Y-86505079D01*
X140080506Y-86490915D01*
X140067869Y-86476120D01*
X140056095Y-86459914D01*
X140048377Y-86453529D01*
X140022435Y-86432068D01*
X140013805Y-86424214D01*
X139565802Y-85976211D01*
X139552906Y-85960113D01*
X139501775Y-85912098D01*
X139498978Y-85909387D01*
X139479470Y-85889879D01*
X139476290Y-85887412D01*
X139467424Y-85879839D01*
X139435582Y-85849938D01*
X139418024Y-85840285D01*
X139401764Y-85829604D01*
X139385936Y-85817327D01*
X139345851Y-85799980D01*
X139335361Y-85794841D01*
X139297091Y-85773802D01*
X139277691Y-85768821D01*
X139259284Y-85762519D01*
X139240897Y-85754562D01*
X139197758Y-85747729D01*
X139186324Y-85745361D01*
X139144019Y-85734500D01*
X139123984Y-85734500D01*
X139104586Y-85732973D01*
X139097162Y-85731797D01*
X139084805Y-85729840D01*
X139084804Y-85729840D01*
X139058484Y-85732328D01*
X139041325Y-85733950D01*
X139029656Y-85734500D01*
X136226740Y-85734500D01*
X136206236Y-85732236D01*
X136136144Y-85734439D01*
X136132250Y-85734500D01*
X136104648Y-85734500D01*
X136100653Y-85735004D01*
X136089029Y-85735918D01*
X136045368Y-85737290D01*
X136026129Y-85742880D01*
X136007080Y-85746825D01*
X135987208Y-85749335D01*
X135946593Y-85765415D01*
X135935549Y-85769196D01*
X135893611Y-85781382D01*
X135876364Y-85791581D01*
X135858900Y-85800136D01*
X135840267Y-85807514D01*
X135804926Y-85833189D01*
X135795168Y-85839599D01*
X135757579Y-85861829D01*
X135743410Y-85875998D01*
X135728622Y-85888628D01*
X135712413Y-85900405D01*
X135684572Y-85934058D01*
X135676711Y-85942696D01*
X135252208Y-86367199D01*
X135236110Y-86380096D01*
X135188096Y-86431225D01*
X135185391Y-86434017D01*
X135165874Y-86453534D01*
X135163415Y-86456705D01*
X135155842Y-86465572D01*
X135125935Y-86497420D01*
X135116285Y-86514974D01*
X135105609Y-86531228D01*
X135093326Y-86547063D01*
X135075975Y-86587158D01*
X135070838Y-86597644D01*
X135049802Y-86635907D01*
X135044821Y-86655309D01*
X135038520Y-86673711D01*
X135030561Y-86692102D01*
X135023728Y-86735242D01*
X135021360Y-86746674D01*
X135010500Y-86788978D01*
X135010500Y-86809016D01*
X135008973Y-86828415D01*
X135005840Y-86848194D01*
X135009950Y-86891675D01*
X135010500Y-86903344D01*
X135010500Y-87573548D01*
X135001061Y-87621001D01*
X134974181Y-87661229D01*
X134397228Y-88238181D01*
X134357000Y-88265061D01*
X134309547Y-88274500D01*
X126167453Y-88274500D01*
X126120000Y-88265061D01*
X126079772Y-88238181D01*
X124482670Y-86641079D01*
X125114472Y-86641079D01*
X125195778Y-86691422D01*
X125381552Y-86763391D01*
X125577389Y-86800000D01*
X125776611Y-86800000D01*
X125972447Y-86763391D01*
X126158223Y-86691422D01*
X126239525Y-86641080D01*
X126239525Y-86641079D01*
X125677001Y-86078553D01*
X125677000Y-86078553D01*
X125114472Y-86641079D01*
X124482670Y-86641079D01*
X123978819Y-86137228D01*
X123951939Y-86097000D01*
X123942500Y-86049547D01*
X123942500Y-85725000D01*
X124597395Y-85725000D01*
X124615777Y-85923378D01*
X124670296Y-86114996D01*
X124757773Y-86290672D01*
X125323446Y-85725001D01*
X126030553Y-85725001D01*
X126596225Y-86290672D01*
X126596226Y-86290672D01*
X126683703Y-86114995D01*
X126686262Y-86106000D01*
X132952540Y-86106000D01*
X132953505Y-86115178D01*
X132972326Y-86294257D01*
X133030820Y-86474283D01*
X133125466Y-86638216D01*
X133252129Y-86778889D01*
X133405269Y-86890151D01*
X133578197Y-86967144D01*
X133763352Y-87006500D01*
X133763354Y-87006500D01*
X133952646Y-87006500D01*
X133952648Y-87006500D01*
X134076084Y-86980262D01*
X134137803Y-86967144D01*
X134310730Y-86890151D01*
X134322400Y-86881672D01*
X134463870Y-86778889D01*
X134480357Y-86760579D01*
X134590533Y-86638216D01*
X134620134Y-86586945D01*
X134685180Y-86474283D01*
X134718489Y-86371768D01*
X134743674Y-86294256D01*
X134763460Y-86106000D01*
X134743674Y-85917744D01*
X134705410Y-85799980D01*
X134685179Y-85737715D01*
X134590535Y-85573786D01*
X134547984Y-85526529D01*
X134515347Y-85490282D01*
X134491736Y-85451751D01*
X134483500Y-85407313D01*
X134483500Y-80320452D01*
X134492939Y-80272999D01*
X134519819Y-80232771D01*
X135414772Y-79337819D01*
X135455000Y-79310939D01*
X135502453Y-79301500D01*
X136418700Y-79301500D01*
X136477364Y-79316255D01*
X136522067Y-79357007D01*
X136542171Y-79414059D01*
X136546385Y-79459537D01*
X136607269Y-79673526D01*
X136706441Y-79872688D01*
X136840519Y-80050237D01*
X137004937Y-80200124D01*
X137194095Y-80317245D01*
X137194097Y-80317245D01*
X137194099Y-80317247D01*
X137401560Y-80397618D01*
X137620257Y-80438500D01*
X137842741Y-80438500D01*
X137842743Y-80438500D01*
X138061440Y-80397618D01*
X138268901Y-80317247D01*
X138458062Y-80200124D01*
X138622481Y-80050236D01*
X138634944Y-80033733D01*
X138748591Y-79883239D01*
X138793592Y-79846318D01*
X138850482Y-79834000D01*
X138906725Y-79848999D01*
X138949928Y-79888009D01*
X138970569Y-79942435D01*
X138971503Y-79949834D01*
X138972418Y-79961467D01*
X138973790Y-80005126D01*
X138979379Y-80024360D01*
X138983325Y-80043416D01*
X138985835Y-80063292D01*
X139001914Y-80103904D01*
X139005697Y-80114951D01*
X139017882Y-80156891D01*
X139028080Y-80174135D01*
X139036636Y-80191600D01*
X139044014Y-80210232D01*
X139044015Y-80210233D01*
X139069680Y-80245559D01*
X139076093Y-80255322D01*
X139098326Y-80292916D01*
X139098329Y-80292919D01*
X139098330Y-80292920D01*
X139112495Y-80307085D01*
X139125127Y-80321875D01*
X139136906Y-80338087D01*
X139170558Y-80365926D01*
X139179199Y-80373789D01*
X141485196Y-82679787D01*
X141498096Y-82695888D01*
X141549223Y-82743900D01*
X141552020Y-82746611D01*
X141571529Y-82766120D01*
X141574711Y-82768588D01*
X141583571Y-82776155D01*
X141615418Y-82806062D01*
X141632970Y-82815711D01*
X141649238Y-82826397D01*
X141665064Y-82838673D01*
X141705146Y-82856017D01*
X141715633Y-82861155D01*
X141753907Y-82882197D01*
X141762410Y-82884379D01*
X141773308Y-82887178D01*
X141791713Y-82893478D01*
X141810104Y-82901437D01*
X141853250Y-82908270D01*
X141864668Y-82910635D01*
X141906981Y-82921500D01*
X141927016Y-82921500D01*
X141946415Y-82923027D01*
X141966196Y-82926160D01*
X142009674Y-82922050D01*
X142021344Y-82921500D01*
X151073548Y-82921500D01*
X151121001Y-82930939D01*
X151161229Y-82957819D01*
X153762681Y-85559272D01*
X153789561Y-85599500D01*
X153799000Y-85646953D01*
X153799000Y-88499110D01*
X153782903Y-88560208D01*
X153738790Y-88605443D01*
X153678116Y-88623071D01*
X153616633Y-88608514D01*
X153570303Y-88565552D01*
X153564768Y-88556831D01*
X153564768Y-88556829D01*
X153512240Y-88474058D01*
X153476702Y-88418059D01*
X153356893Y-88305552D01*
X153212865Y-88226371D01*
X153053679Y-88185500D01*
X153053677Y-88185500D01*
X152930575Y-88185500D01*
X152930573Y-88185500D01*
X152808440Y-88200928D01*
X152655629Y-88261431D01*
X152522665Y-88358034D01*
X152417899Y-88484675D01*
X152393043Y-88537498D01*
X152347921Y-88633387D01*
X152344768Y-88649916D01*
X152317123Y-88794833D01*
X152327443Y-88958858D01*
X152347930Y-89021909D01*
X152378232Y-89115171D01*
X152412422Y-89169045D01*
X152466297Y-89253940D01*
X152559075Y-89341063D01*
X152586107Y-89366448D01*
X152724759Y-89442673D01*
X152730134Y-89445628D01*
X152889321Y-89486500D01*
X152889323Y-89486500D01*
X153012425Y-89486500D01*
X153012427Y-89486500D01*
X153134559Y-89471071D01*
X153219131Y-89437586D01*
X153287371Y-89410568D01*
X153420337Y-89313963D01*
X153525100Y-89187326D01*
X153562801Y-89107206D01*
X153605947Y-89057009D01*
X153668769Y-89036160D01*
X153733367Y-89050599D01*
X153781333Y-89096212D01*
X153799000Y-89160003D01*
X153799000Y-95921756D01*
X153796735Y-95942262D01*
X153798939Y-96012373D01*
X153799000Y-96016268D01*
X153799000Y-96043850D01*
X153799290Y-96046154D01*
X153799503Y-96047834D01*
X153800418Y-96059467D01*
X153801790Y-96103126D01*
X153807379Y-96122360D01*
X153811325Y-96141416D01*
X153813835Y-96161292D01*
X153829914Y-96201904D01*
X153833697Y-96212951D01*
X153845882Y-96254891D01*
X153856080Y-96272135D01*
X153864636Y-96289600D01*
X153872014Y-96308232D01*
X153872015Y-96308233D01*
X153897680Y-96343559D01*
X153904093Y-96353322D01*
X153926326Y-96390916D01*
X153926329Y-96390919D01*
X153926330Y-96390920D01*
X153940495Y-96405085D01*
X153953127Y-96419875D01*
X153964906Y-96436087D01*
X153998558Y-96463926D01*
X154007199Y-96471789D01*
X157196586Y-99661176D01*
X157228680Y-99716763D01*
X157228680Y-99780949D01*
X157210364Y-99849307D01*
X157190531Y-100076000D01*
X157210364Y-100302689D01*
X157269261Y-100522497D01*
X157365432Y-100728735D01*
X157495953Y-100915140D01*
X157656859Y-101076046D01*
X157843264Y-101206567D01*
X157843265Y-101206567D01*
X157843266Y-101206568D01*
X158049504Y-101302739D01*
X158269308Y-101361635D01*
X158496000Y-101381468D01*
X158722692Y-101361635D01*
X158942496Y-101302739D01*
X159148734Y-101206568D01*
X159335139Y-101076047D01*
X159496047Y-100915139D01*
X159626568Y-100728734D01*
X159722739Y-100522496D01*
X159781635Y-100302692D01*
X159801468Y-100076000D01*
X159781635Y-99849308D01*
X159722739Y-99629504D01*
X159626568Y-99423266D01*
X159624367Y-99420123D01*
X159496046Y-99236859D01*
X159335140Y-99075953D01*
X159148735Y-98945432D01*
X158942497Y-98849261D01*
X158722689Y-98790364D01*
X158496000Y-98770531D01*
X158269307Y-98790364D01*
X158200950Y-98808680D01*
X158136764Y-98808680D01*
X158081177Y-98776586D01*
X155086319Y-95781728D01*
X155059439Y-95741500D01*
X155050000Y-95694047D01*
X155050000Y-92456000D01*
X157190531Y-92456000D01*
X157210364Y-92682689D01*
X157269261Y-92902497D01*
X157365432Y-93108735D01*
X157495953Y-93295140D01*
X157656859Y-93456046D01*
X157843264Y-93586567D01*
X157843265Y-93586567D01*
X157843266Y-93586568D01*
X158049504Y-93682739D01*
X158269308Y-93741635D01*
X158496000Y-93761468D01*
X158722692Y-93741635D01*
X158942496Y-93682739D01*
X159148734Y-93586568D01*
X159335139Y-93456047D01*
X159496047Y-93295139D01*
X159626568Y-93108734D01*
X159722739Y-92902496D01*
X159781635Y-92682692D01*
X159801468Y-92456000D01*
X159781635Y-92229308D01*
X159722739Y-92009504D01*
X159626568Y-91803266D01*
X159614912Y-91786620D01*
X159496046Y-91616859D01*
X159335140Y-91455953D01*
X159148735Y-91325432D01*
X158942497Y-91229261D01*
X158722689Y-91170364D01*
X158496000Y-91150531D01*
X158269310Y-91170364D01*
X158049502Y-91229261D01*
X157843264Y-91325432D01*
X157656859Y-91455953D01*
X157495953Y-91616859D01*
X157365432Y-91803264D01*
X157269261Y-92009502D01*
X157210364Y-92229310D01*
X157190531Y-92456000D01*
X155050000Y-92456000D01*
X155050000Y-90681124D01*
X155062280Y-90627322D01*
X155096687Y-90584177D01*
X155146407Y-90560233D01*
X155201592Y-90560233D01*
X155341346Y-90592131D01*
X155548853Y-90601450D01*
X155568369Y-90602327D01*
X155568369Y-90602326D01*
X155568371Y-90602327D01*
X155793568Y-90571822D01*
X156009700Y-90501596D01*
X156209819Y-90393908D01*
X156387493Y-90252217D01*
X156537012Y-90081078D01*
X156653571Y-89885992D01*
X156686643Y-89797873D01*
X156733422Y-89673229D01*
X156774000Y-89449628D01*
X156774000Y-88794833D01*
X157397123Y-88794833D01*
X157407443Y-88958858D01*
X157427930Y-89021909D01*
X157458232Y-89115171D01*
X157492422Y-89169045D01*
X157546297Y-89253940D01*
X157639075Y-89341063D01*
X157666107Y-89366448D01*
X157804759Y-89442673D01*
X157810134Y-89445628D01*
X157969321Y-89486500D01*
X157969323Y-89486500D01*
X158092425Y-89486500D01*
X158092427Y-89486500D01*
X158214559Y-89471071D01*
X158299131Y-89437586D01*
X158367371Y-89410568D01*
X158500337Y-89313963D01*
X158605100Y-89187326D01*
X158675079Y-89038613D01*
X158705876Y-88877170D01*
X158695556Y-88713140D01*
X158644768Y-88556829D01*
X158590892Y-88471934D01*
X158556702Y-88418059D01*
X158436893Y-88305552D01*
X158292865Y-88226371D01*
X158133679Y-88185500D01*
X158133677Y-88185500D01*
X158010575Y-88185500D01*
X158010573Y-88185500D01*
X157888440Y-88200928D01*
X157735629Y-88261431D01*
X157602665Y-88358034D01*
X157497899Y-88484675D01*
X157473043Y-88537498D01*
X157427921Y-88633387D01*
X157424768Y-88649916D01*
X157397123Y-88794833D01*
X156774000Y-88794833D01*
X156774000Y-88279304D01*
X156773148Y-88269840D01*
X156758732Y-88109661D01*
X156698274Y-87890596D01*
X156683696Y-87860325D01*
X156599674Y-87685849D01*
X156511825Y-87564936D01*
X156466096Y-87501995D01*
X156428988Y-87466516D01*
X156301838Y-87344947D01*
X156112175Y-87219753D01*
X155903212Y-87130437D01*
X155681654Y-87079869D01*
X155454630Y-87069672D01*
X155229428Y-87100178D01*
X155212317Y-87105738D01*
X155154601Y-87110280D01*
X155101114Y-87088125D01*
X155063515Y-87044101D01*
X155050000Y-86987807D01*
X155050000Y-85419240D01*
X155052263Y-85398736D01*
X155050061Y-85328644D01*
X155050000Y-85324750D01*
X155050000Y-85297157D01*
X155050000Y-85297150D01*
X155049495Y-85293153D01*
X155048580Y-85281523D01*
X155047209Y-85237873D01*
X155041620Y-85218637D01*
X155037676Y-85199593D01*
X155035164Y-85179708D01*
X155019082Y-85139091D01*
X155015298Y-85128040D01*
X155003117Y-85086110D01*
X154992921Y-85068869D01*
X154984363Y-85051402D01*
X154976986Y-85032768D01*
X154951298Y-84997412D01*
X154944909Y-84987684D01*
X154922670Y-84950079D01*
X154908506Y-84935915D01*
X154895869Y-84921120D01*
X154884095Y-84904914D01*
X154884094Y-84904913D01*
X154850435Y-84877068D01*
X154841805Y-84869214D01*
X151884802Y-81912211D01*
X151871906Y-81896113D01*
X151820775Y-81848098D01*
X151817978Y-81845387D01*
X151798470Y-81825879D01*
X151795290Y-81823412D01*
X151786424Y-81815839D01*
X151754582Y-81785938D01*
X151737024Y-81776285D01*
X151720764Y-81765604D01*
X151704936Y-81753327D01*
X151664851Y-81735980D01*
X151654361Y-81730841D01*
X151616091Y-81709802D01*
X151596691Y-81704821D01*
X151578284Y-81698519D01*
X151559897Y-81690562D01*
X151516758Y-81683729D01*
X151505324Y-81681361D01*
X151463019Y-81670500D01*
X151442984Y-81670500D01*
X151423586Y-81668973D01*
X151416162Y-81667797D01*
X151403805Y-81665840D01*
X151403804Y-81665840D01*
X151370751Y-81668964D01*
X151360325Y-81669950D01*
X151348656Y-81670500D01*
X142296453Y-81670500D01*
X142249000Y-81661061D01*
X142208772Y-81634181D01*
X140258319Y-79683728D01*
X140231439Y-79643500D01*
X140222000Y-79596047D01*
X140222000Y-79346602D01*
X140235902Y-79289554D01*
X140274492Y-79245298D01*
X140306448Y-79232696D01*
X141549000Y-79232696D01*
X141564268Y-79402342D01*
X141624726Y-79621405D01*
X141723325Y-79826150D01*
X141764803Y-79883239D01*
X141856904Y-80010005D01*
X141856905Y-80010006D01*
X141856906Y-80010007D01*
X142021161Y-80167052D01*
X142058352Y-80191601D01*
X142210823Y-80292246D01*
X142280144Y-80321875D01*
X142419787Y-80381562D01*
X142490130Y-80397617D01*
X142641346Y-80432131D01*
X142848853Y-80441450D01*
X142868369Y-80442327D01*
X142868369Y-80442326D01*
X142868371Y-80442327D01*
X143093568Y-80411822D01*
X143309700Y-80341596D01*
X143509819Y-80233908D01*
X143687493Y-80092217D01*
X143837012Y-79921078D01*
X143953571Y-79725992D01*
X143966177Y-79692401D01*
X143998200Y-79644824D01*
X144048209Y-79616743D01*
X144105505Y-79614169D01*
X144157830Y-79637654D01*
X144193990Y-79682172D01*
X144263325Y-79826150D01*
X144304803Y-79883239D01*
X144396904Y-80010005D01*
X144396905Y-80010006D01*
X144396906Y-80010007D01*
X144561161Y-80167052D01*
X144598352Y-80191601D01*
X144750823Y-80292246D01*
X144820144Y-80321875D01*
X144959787Y-80381562D01*
X145030130Y-80397617D01*
X145181346Y-80432131D01*
X145388853Y-80441450D01*
X145408369Y-80442327D01*
X145408369Y-80442326D01*
X145408371Y-80442327D01*
X145633568Y-80411822D01*
X145849700Y-80341596D01*
X146049819Y-80233908D01*
X146227493Y-80092217D01*
X146377012Y-79921078D01*
X146493571Y-79725992D01*
X146503042Y-79700758D01*
X146573422Y-79513229D01*
X146614000Y-79289628D01*
X146614000Y-78634833D01*
X147237123Y-78634833D01*
X147247443Y-78798858D01*
X147258427Y-78832664D01*
X147298232Y-78955171D01*
X147332422Y-79009045D01*
X147386297Y-79093940D01*
X147450216Y-79153963D01*
X147506107Y-79206448D01*
X147650132Y-79285627D01*
X147650134Y-79285628D01*
X147809321Y-79326500D01*
X147809323Y-79326500D01*
X147932425Y-79326500D01*
X147932427Y-79326500D01*
X148054559Y-79311071D01*
X148130964Y-79280819D01*
X148207371Y-79250568D01*
X148340337Y-79153963D01*
X148445100Y-79027326D01*
X148515079Y-78878613D01*
X148545876Y-78717170D01*
X148535556Y-78553140D01*
X148484768Y-78396829D01*
X148408301Y-78276337D01*
X148396702Y-78258059D01*
X148276893Y-78145552D01*
X148132865Y-78066371D01*
X147973679Y-78025500D01*
X147973677Y-78025500D01*
X147850575Y-78025500D01*
X147850573Y-78025500D01*
X147728440Y-78040928D01*
X147575629Y-78101431D01*
X147442665Y-78198034D01*
X147337899Y-78324675D01*
X147323369Y-78355553D01*
X147267921Y-78473387D01*
X147252707Y-78553140D01*
X147237123Y-78634833D01*
X146614000Y-78634833D01*
X146614000Y-78119304D01*
X146613392Y-78112546D01*
X146598732Y-77949661D01*
X146595497Y-77937941D01*
X146538273Y-77730594D01*
X146439674Y-77525849D01*
X146370702Y-77430918D01*
X146306096Y-77341995D01*
X146264016Y-77301762D01*
X146141838Y-77184947D01*
X145998174Y-77090116D01*
X145952177Y-77059754D01*
X145952175Y-77059753D01*
X145743212Y-76970437D01*
X145521654Y-76919869D01*
X145294630Y-76909672D01*
X145069432Y-76940177D01*
X144853300Y-77010403D01*
X144853300Y-77010404D01*
X144653181Y-77118092D01*
X144653179Y-77118093D01*
X144653180Y-77118093D01*
X144475506Y-77259783D01*
X144325990Y-77430918D01*
X144209428Y-77626009D01*
X144196822Y-77659598D01*
X144164797Y-77707177D01*
X144114788Y-77735257D01*
X144057493Y-77737829D01*
X144005168Y-77714345D01*
X143969009Y-77669827D01*
X143957248Y-77645406D01*
X143899672Y-77525847D01*
X143766096Y-77341995D01*
X143724016Y-77301762D01*
X143601838Y-77184947D01*
X143458174Y-77090116D01*
X143412177Y-77059754D01*
X143412175Y-77059753D01*
X143203212Y-76970437D01*
X142981654Y-76919869D01*
X142754630Y-76909672D01*
X142529432Y-76940177D01*
X142313300Y-77010403D01*
X142313300Y-77010404D01*
X142113181Y-77118092D01*
X142113179Y-77118093D01*
X142113180Y-77118093D01*
X141935506Y-77259783D01*
X141785990Y-77430918D01*
X141669426Y-77626012D01*
X141589577Y-77838770D01*
X141549000Y-78062372D01*
X141549000Y-79232696D01*
X140306448Y-79232696D01*
X140329115Y-79223757D01*
X140330606Y-79223551D01*
X140421420Y-79211070D01*
X140560220Y-79150780D01*
X140677608Y-79055278D01*
X140764877Y-78931647D01*
X140815554Y-78789056D01*
X140825881Y-78638079D01*
X140825206Y-78634833D01*
X140796186Y-78495180D01*
X140795092Y-78489915D01*
X140725471Y-78355553D01*
X140622180Y-78244956D01*
X140622179Y-78244955D01*
X140622178Y-78244954D01*
X140511796Y-78177830D01*
X140492882Y-78166328D01*
X140347165Y-78125500D01*
X140346000Y-78125500D01*
X140284000Y-78108887D01*
X140238613Y-78063500D01*
X140222000Y-78001500D01*
X140222000Y-76179244D01*
X140224264Y-76158736D01*
X140223474Y-76133604D01*
X140222061Y-76088613D01*
X140222000Y-76084719D01*
X140222000Y-76057154D01*
X140222000Y-76057150D01*
X140221497Y-76053170D01*
X140220581Y-76041528D01*
X140219210Y-75997873D01*
X140213618Y-75978626D01*
X140209674Y-75959585D01*
X140207164Y-75939708D01*
X140191079Y-75899083D01*
X140187308Y-75888068D01*
X140175118Y-75846110D01*
X140164914Y-75828855D01*
X140156361Y-75811395D01*
X140154450Y-75806568D01*
X140148986Y-75792768D01*
X140123308Y-75757425D01*
X140116901Y-75747671D01*
X140094669Y-75710079D01*
X140080506Y-75695916D01*
X140067867Y-75681117D01*
X140056095Y-75664913D01*
X140022441Y-75637073D01*
X140013799Y-75629209D01*
X139060591Y-74676000D01*
X143474531Y-74676000D01*
X143494364Y-74902689D01*
X143553261Y-75122497D01*
X143649432Y-75328735D01*
X143779953Y-75515140D01*
X143940859Y-75676046D01*
X144127264Y-75806567D01*
X144127265Y-75806567D01*
X144127266Y-75806568D01*
X144333504Y-75902739D01*
X144553308Y-75961635D01*
X144780000Y-75981468D01*
X145006692Y-75961635D01*
X145226496Y-75902739D01*
X145432734Y-75806568D01*
X145619139Y-75676047D01*
X145780047Y-75515139D01*
X145910568Y-75328734D01*
X146006739Y-75122496D01*
X146065635Y-74902692D01*
X146085468Y-74676000D01*
X147792531Y-74676000D01*
X147812364Y-74902689D01*
X147871261Y-75122497D01*
X147967432Y-75328735D01*
X148097953Y-75515140D01*
X148258859Y-75676046D01*
X148445264Y-75806567D01*
X148445265Y-75806567D01*
X148445266Y-75806568D01*
X148651504Y-75902739D01*
X148871308Y-75961635D01*
X149098000Y-75981468D01*
X149324692Y-75961635D01*
X149544496Y-75902739D01*
X149750734Y-75806568D01*
X149937139Y-75676047D01*
X150098047Y-75515139D01*
X150228568Y-75328734D01*
X150324739Y-75122496D01*
X150383635Y-74902692D01*
X150403468Y-74676000D01*
X151602531Y-74676000D01*
X151622364Y-74902689D01*
X151681261Y-75122497D01*
X151777432Y-75328735D01*
X151907953Y-75515140D01*
X152068859Y-75676046D01*
X152255264Y-75806567D01*
X152255265Y-75806567D01*
X152255266Y-75806568D01*
X152461504Y-75902739D01*
X152681308Y-75961635D01*
X152908000Y-75981468D01*
X153134692Y-75961635D01*
X153354496Y-75902739D01*
X153560734Y-75806568D01*
X153747139Y-75676047D01*
X153908047Y-75515139D01*
X154038568Y-75328734D01*
X154134739Y-75122496D01*
X154193635Y-74902692D01*
X154213468Y-74676000D01*
X155412531Y-74676000D01*
X155432364Y-74902689D01*
X155491261Y-75122497D01*
X155587432Y-75328735D01*
X155717953Y-75515140D01*
X155878859Y-75676046D01*
X156065264Y-75806567D01*
X156065265Y-75806567D01*
X156065266Y-75806568D01*
X156271504Y-75902739D01*
X156491308Y-75961635D01*
X156718000Y-75981468D01*
X156944692Y-75961635D01*
X157164496Y-75902739D01*
X157370734Y-75806568D01*
X157557139Y-75676047D01*
X157718047Y-75515139D01*
X157848568Y-75328734D01*
X157944739Y-75122496D01*
X158003635Y-74902692D01*
X158023468Y-74676000D01*
X158968531Y-74676000D01*
X158988364Y-74902689D01*
X159047261Y-75122497D01*
X159143432Y-75328735D01*
X159273953Y-75515140D01*
X159434859Y-75676046D01*
X159621264Y-75806567D01*
X159621265Y-75806567D01*
X159621266Y-75806568D01*
X159827504Y-75902739D01*
X160047308Y-75961635D01*
X160274000Y-75981468D01*
X160500692Y-75961635D01*
X160720496Y-75902739D01*
X160926734Y-75806568D01*
X161113139Y-75676047D01*
X161274047Y-75515139D01*
X161404568Y-75328734D01*
X161500739Y-75122496D01*
X161559635Y-74902692D01*
X161579468Y-74676000D01*
X161559635Y-74449308D01*
X161500739Y-74229504D01*
X161404568Y-74023266D01*
X161309114Y-73886943D01*
X161274046Y-73836859D01*
X161113140Y-73675953D01*
X160926735Y-73545432D01*
X160720497Y-73449261D01*
X160500689Y-73390364D01*
X160274000Y-73370531D01*
X160047310Y-73390364D01*
X159827502Y-73449261D01*
X159621264Y-73545432D01*
X159434859Y-73675953D01*
X159273953Y-73836859D01*
X159143432Y-74023264D01*
X159047261Y-74229502D01*
X158988364Y-74449310D01*
X158968531Y-74676000D01*
X158023468Y-74676000D01*
X158003635Y-74449308D01*
X157944739Y-74229504D01*
X157848568Y-74023266D01*
X157753114Y-73886943D01*
X157718046Y-73836859D01*
X157557140Y-73675953D01*
X157370735Y-73545432D01*
X157164497Y-73449261D01*
X156944689Y-73390364D01*
X156718000Y-73370531D01*
X156491310Y-73390364D01*
X156271502Y-73449261D01*
X156065264Y-73545432D01*
X155878859Y-73675953D01*
X155717953Y-73836859D01*
X155587432Y-74023264D01*
X155491261Y-74229502D01*
X155432364Y-74449310D01*
X155412531Y-74676000D01*
X154213468Y-74676000D01*
X154193635Y-74449308D01*
X154134739Y-74229504D01*
X154038568Y-74023266D01*
X153943114Y-73886943D01*
X153908046Y-73836859D01*
X153747140Y-73675953D01*
X153560735Y-73545432D01*
X153354497Y-73449261D01*
X153134689Y-73390364D01*
X152908000Y-73370531D01*
X152681310Y-73390364D01*
X152461502Y-73449261D01*
X152255264Y-73545432D01*
X152068859Y-73675953D01*
X151907953Y-73836859D01*
X151777432Y-74023264D01*
X151681261Y-74229502D01*
X151622364Y-74449310D01*
X151602531Y-74676000D01*
X150403468Y-74676000D01*
X150383635Y-74449308D01*
X150324739Y-74229504D01*
X150228568Y-74023266D01*
X150133114Y-73886943D01*
X150098046Y-73836859D01*
X149937140Y-73675953D01*
X149750735Y-73545432D01*
X149544497Y-73449261D01*
X149324689Y-73390364D01*
X149098000Y-73370531D01*
X148871310Y-73390364D01*
X148651502Y-73449261D01*
X148445264Y-73545432D01*
X148258859Y-73675953D01*
X148097953Y-73836859D01*
X147967432Y-74023264D01*
X147871261Y-74229502D01*
X147812364Y-74449310D01*
X147792531Y-74676000D01*
X146085468Y-74676000D01*
X146065635Y-74449308D01*
X146006739Y-74229504D01*
X145910568Y-74023266D01*
X145815114Y-73886943D01*
X145780046Y-73836859D01*
X145619140Y-73675953D01*
X145432735Y-73545432D01*
X145226497Y-73449261D01*
X145006689Y-73390364D01*
X144780000Y-73370531D01*
X144553310Y-73390364D01*
X144333502Y-73449261D01*
X144127264Y-73545432D01*
X143940859Y-73675953D01*
X143779953Y-73836859D01*
X143649432Y-74023264D01*
X143553261Y-74229502D01*
X143494364Y-74449310D01*
X143474531Y-74676000D01*
X139060591Y-74676000D01*
X138860960Y-74476369D01*
X138836720Y-74442071D01*
X138825321Y-74401655D01*
X138807674Y-74233744D01*
X138749179Y-74053716D01*
X138749179Y-74053715D01*
X138654533Y-73889783D01*
X138527870Y-73749110D01*
X138374730Y-73637848D01*
X138201802Y-73560855D01*
X138016648Y-73521500D01*
X138016646Y-73521500D01*
X137827354Y-73521500D01*
X137827352Y-73521500D01*
X137642197Y-73560855D01*
X137469269Y-73637848D01*
X137316129Y-73749110D01*
X137189466Y-73889783D01*
X137094820Y-74053715D01*
X137036326Y-74233742D01*
X137036325Y-74233744D01*
X137036326Y-74233744D01*
X137016540Y-74422000D01*
X137019410Y-74449308D01*
X137036326Y-74610257D01*
X137094820Y-74790284D01*
X137189466Y-74954216D01*
X137316129Y-75094889D01*
X137469269Y-75206151D01*
X137642197Y-75283144D01*
X137827352Y-75322500D01*
X137827354Y-75322500D01*
X137886548Y-75322500D01*
X137934001Y-75331939D01*
X137974229Y-75358819D01*
X138934681Y-76319271D01*
X138961561Y-76359499D01*
X138971000Y-76406952D01*
X138971000Y-77393312D01*
X138955882Y-77452647D01*
X138914215Y-77497515D01*
X138856158Y-77516973D01*
X138795868Y-77506279D01*
X138748046Y-77468039D01*
X138622480Y-77301762D01*
X138458062Y-77151875D01*
X138268904Y-77034754D01*
X138102885Y-76970438D01*
X138061440Y-76954382D01*
X137842743Y-76913500D01*
X137620257Y-76913500D01*
X137401559Y-76954382D01*
X137401560Y-76954382D01*
X137194095Y-77034754D01*
X137004937Y-77151875D01*
X136840519Y-77301762D01*
X136706441Y-77479311D01*
X136607269Y-77678473D01*
X136546385Y-77892462D01*
X136542171Y-77937941D01*
X136522067Y-77994993D01*
X136477364Y-78035745D01*
X136418700Y-78050500D01*
X135274744Y-78050500D01*
X135254237Y-78048235D01*
X135184127Y-78050439D01*
X135180232Y-78050500D01*
X135152650Y-78050500D01*
X135148665Y-78051003D01*
X135137033Y-78051918D01*
X135093369Y-78053290D01*
X135074129Y-78058880D01*
X135055081Y-78062825D01*
X135035209Y-78065335D01*
X134994599Y-78081413D01*
X134983554Y-78085194D01*
X134941610Y-78097381D01*
X134924365Y-78107579D01*
X134906904Y-78116133D01*
X134888267Y-78123512D01*
X134852931Y-78149185D01*
X134843174Y-78155595D01*
X134805580Y-78177829D01*
X134791413Y-78191996D01*
X134776624Y-78204626D01*
X134760413Y-78216404D01*
X134732572Y-78250058D01*
X134724711Y-78258697D01*
X133474208Y-79509199D01*
X133458110Y-79522096D01*
X133410096Y-79573225D01*
X133407391Y-79576017D01*
X133387874Y-79595534D01*
X133385415Y-79598705D01*
X133377842Y-79607572D01*
X133347935Y-79639420D01*
X133338285Y-79656974D01*
X133327609Y-79673228D01*
X133315326Y-79689063D01*
X133297975Y-79729158D01*
X133292838Y-79739644D01*
X133271802Y-79777907D01*
X133266821Y-79797309D01*
X133260520Y-79815711D01*
X133252561Y-79834102D01*
X133245728Y-79877242D01*
X133243360Y-79888674D01*
X133232500Y-79930978D01*
X133232500Y-79951016D01*
X133230973Y-79970413D01*
X133227840Y-79990196D01*
X133231390Y-80027751D01*
X133231950Y-80033675D01*
X133232500Y-80045344D01*
X133232500Y-85407313D01*
X133224264Y-85451751D01*
X133200652Y-85490282D01*
X133168016Y-85526529D01*
X133125464Y-85573786D01*
X133030820Y-85737715D01*
X132972326Y-85917742D01*
X132966181Y-85976211D01*
X132952540Y-86106000D01*
X126686262Y-86106000D01*
X126738222Y-85923378D01*
X126756604Y-85724999D01*
X126738222Y-85526621D01*
X126683703Y-85335003D01*
X126596225Y-85159327D01*
X126030553Y-85725000D01*
X126030553Y-85725001D01*
X125323446Y-85725001D01*
X125323446Y-85725000D01*
X124757773Y-85159326D01*
X124757772Y-85159326D01*
X124670297Y-85335001D01*
X124615777Y-85526621D01*
X124597395Y-85725000D01*
X123942500Y-85725000D01*
X123942500Y-84808919D01*
X125114472Y-84808919D01*
X125677000Y-85371446D01*
X125677001Y-85371446D01*
X126239526Y-84808919D01*
X126158221Y-84758577D01*
X125972447Y-84686608D01*
X125776611Y-84650000D01*
X125577389Y-84650000D01*
X125381552Y-84686608D01*
X125195775Y-84758578D01*
X125114473Y-84808918D01*
X125114472Y-84808919D01*
X123942500Y-84808919D01*
X123942500Y-83185000D01*
X124596892Y-83185000D01*
X124615282Y-83383470D01*
X124669827Y-83575178D01*
X124716552Y-83669012D01*
X124758674Y-83753604D01*
X124798818Y-83806763D01*
X124878791Y-83912665D01*
X125026087Y-84046943D01*
X125026089Y-84046944D01*
X125026090Y-84046945D01*
X125195554Y-84151873D01*
X125381414Y-84223876D01*
X125577340Y-84260500D01*
X125776658Y-84260500D01*
X125776660Y-84260500D01*
X125972586Y-84223876D01*
X126158446Y-84151873D01*
X126327910Y-84046945D01*
X126475209Y-83912664D01*
X126555184Y-83806758D01*
X126583780Y-83779379D01*
X126608853Y-83767483D01*
X126615385Y-83763619D01*
X126615390Y-83763618D01*
X126632639Y-83753416D01*
X126650096Y-83744864D01*
X126668732Y-83737486D01*
X126704064Y-83711814D01*
X126713830Y-83705400D01*
X126751418Y-83683171D01*
X126751417Y-83683171D01*
X126751420Y-83683170D01*
X126765585Y-83669004D01*
X126780373Y-83656373D01*
X126796587Y-83644594D01*
X126824438Y-83610926D01*
X126832279Y-83602309D01*
X137890771Y-72543819D01*
X137931000Y-72516939D01*
X137978453Y-72507500D01*
X150793256Y-72507500D01*
X150813762Y-72509764D01*
X150816665Y-72509672D01*
X150816667Y-72509673D01*
X150883872Y-72507561D01*
X150887768Y-72507500D01*
X150915349Y-72507500D01*
X150915350Y-72507500D01*
X150919319Y-72506998D01*
X150930965Y-72506080D01*
X150974627Y-72504709D01*
X150993859Y-72499120D01*
X151012918Y-72495174D01*
X151019196Y-72494381D01*
X151032792Y-72492664D01*
X151073407Y-72476582D01*
X151084444Y-72472803D01*
X151126390Y-72460618D01*
X151143629Y-72450422D01*
X151161102Y-72441862D01*
X151179732Y-72434486D01*
X151215064Y-72408814D01*
X151224830Y-72402400D01*
X151245798Y-72390000D01*
X151262420Y-72380170D01*
X151276585Y-72366004D01*
X151291373Y-72353373D01*
X151307587Y-72341594D01*
X151335438Y-72307926D01*
X151343279Y-72299309D01*
X153291789Y-70350800D01*
X153307885Y-70337906D01*
X153309873Y-70335787D01*
X153309877Y-70335786D01*
X153355948Y-70286723D01*
X153358566Y-70284023D01*
X153378120Y-70264471D01*
X153380581Y-70261298D01*
X153388156Y-70252427D01*
X153418062Y-70220582D01*
X153427712Y-70203027D01*
X153438400Y-70186757D01*
X153450671Y-70170938D01*
X153450673Y-70170936D01*
X153468026Y-70130832D01*
X153473157Y-70120362D01*
X153494197Y-70082092D01*
X153499175Y-70062699D01*
X153505481Y-70044282D01*
X153507018Y-70040728D01*
X153513438Y-70025896D01*
X153520272Y-69982745D01*
X153522635Y-69971331D01*
X153533500Y-69929019D01*
X153533500Y-69908984D01*
X153535027Y-69889585D01*
X153538160Y-69869804D01*
X153534050Y-69826325D01*
X153533500Y-69814656D01*
X153533500Y-68270188D01*
X153547511Y-68212931D01*
X153586377Y-68168613D01*
X153747140Y-68056046D01*
X153908046Y-67895140D01*
X153927236Y-67867733D01*
X154038568Y-67708734D01*
X154134739Y-67502496D01*
X154193635Y-67282692D01*
X154213468Y-67056000D01*
X155412531Y-67056000D01*
X155432364Y-67282689D01*
X155491261Y-67502497D01*
X155587432Y-67708735D01*
X155717953Y-67895140D01*
X155878859Y-68056046D01*
X156065264Y-68186567D01*
X156065265Y-68186567D01*
X156065266Y-68186568D01*
X156271504Y-68282739D01*
X156491308Y-68341635D01*
X156718000Y-68361468D01*
X156944692Y-68341635D01*
X157164496Y-68282739D01*
X157370734Y-68186568D01*
X157557139Y-68056047D01*
X157718047Y-67895139D01*
X157848568Y-67708734D01*
X157944739Y-67502496D01*
X158003635Y-67282692D01*
X158023468Y-67056000D01*
X158003635Y-66829308D01*
X157944739Y-66609504D01*
X157848568Y-66403266D01*
X157753114Y-66266943D01*
X157718046Y-66216859D01*
X157557140Y-66055953D01*
X157370735Y-65925432D01*
X157164497Y-65829261D01*
X156944689Y-65770364D01*
X156718000Y-65750531D01*
X156491310Y-65770364D01*
X156271502Y-65829261D01*
X156065264Y-65925432D01*
X155878859Y-66055953D01*
X155717953Y-66216859D01*
X155587432Y-66403264D01*
X155491261Y-66609502D01*
X155432364Y-66829310D01*
X155412531Y-67056000D01*
X154213468Y-67056000D01*
X154193635Y-66829308D01*
X154134739Y-66609504D01*
X154038568Y-66403266D01*
X153943114Y-66266943D01*
X153908046Y-66216859D01*
X153747140Y-66055953D01*
X153560735Y-65925432D01*
X153354497Y-65829261D01*
X153134689Y-65770364D01*
X152908000Y-65750531D01*
X152681310Y-65770364D01*
X152461502Y-65829261D01*
X152255264Y-65925432D01*
X152068859Y-66055953D01*
X151907953Y-66216859D01*
X151777432Y-66403264D01*
X151681261Y-66609502D01*
X151622364Y-66829310D01*
X151602531Y-67056000D01*
X151622364Y-67282689D01*
X151681261Y-67502497D01*
X151777432Y-67708735D01*
X151907953Y-67895140D01*
X152068859Y-68056046D01*
X152229623Y-68168613D01*
X152268489Y-68212931D01*
X152282500Y-68270188D01*
X152282500Y-69539548D01*
X152273061Y-69587001D01*
X152246181Y-69627229D01*
X150653228Y-71220181D01*
X150613000Y-71247061D01*
X150565547Y-71256500D01*
X137750744Y-71256500D01*
X137730237Y-71254235D01*
X137660127Y-71256439D01*
X137656232Y-71256500D01*
X137628650Y-71256500D01*
X137624665Y-71257003D01*
X137613033Y-71257918D01*
X137569369Y-71259290D01*
X137550129Y-71264880D01*
X137531081Y-71268825D01*
X137511209Y-71271335D01*
X137470599Y-71287413D01*
X137459554Y-71291194D01*
X137417610Y-71303381D01*
X137400365Y-71313579D01*
X137382904Y-71322133D01*
X137364267Y-71329512D01*
X137328931Y-71355185D01*
X137319174Y-71361595D01*
X137281580Y-71383829D01*
X137267413Y-71397996D01*
X137252624Y-71410626D01*
X137236413Y-71422404D01*
X137208572Y-71456058D01*
X137200711Y-71464697D01*
X126406281Y-82259126D01*
X126359812Y-82288396D01*
X126305258Y-82294725D01*
X126253322Y-82276872D01*
X126158447Y-82218127D01*
X126065515Y-82182125D01*
X125972586Y-82146124D01*
X125776660Y-82109500D01*
X125577340Y-82109500D01*
X125381413Y-82146124D01*
X125381414Y-82146124D01*
X125195552Y-82218127D01*
X125026087Y-82323056D01*
X124878791Y-82457334D01*
X124758674Y-82616396D01*
X124669827Y-82794821D01*
X124615282Y-82986529D01*
X124596892Y-83185000D01*
X123942500Y-83185000D01*
X123942500Y-80644999D01*
X124596892Y-80644999D01*
X124615282Y-80843470D01*
X124669827Y-81035178D01*
X124707848Y-81111532D01*
X124758674Y-81213604D01*
X124780861Y-81242984D01*
X124878791Y-81372665D01*
X125026087Y-81506943D01*
X125026089Y-81506944D01*
X125026090Y-81506945D01*
X125195554Y-81611873D01*
X125381414Y-81683876D01*
X125577340Y-81720500D01*
X125776658Y-81720500D01*
X125776660Y-81720500D01*
X125972586Y-81683876D01*
X126158446Y-81611873D01*
X126327910Y-81506945D01*
X126475209Y-81372664D01*
X126595326Y-81213604D01*
X126684171Y-81035180D01*
X126729789Y-80874850D01*
X126738717Y-80843470D01*
X126744953Y-80776167D01*
X126757108Y-80645000D01*
X126738717Y-80446531D01*
X126738717Y-80446529D01*
X126684172Y-80254821D01*
X126643994Y-80174135D01*
X126595326Y-80076396D01*
X126508011Y-79960773D01*
X126475208Y-79917334D01*
X126327912Y-79783056D01*
X126158447Y-79678127D01*
X126053974Y-79637654D01*
X125972586Y-79606124D01*
X125776660Y-79569500D01*
X125577340Y-79569500D01*
X125396420Y-79603319D01*
X125381414Y-79606124D01*
X125195552Y-79678127D01*
X125026087Y-79783056D01*
X124878791Y-79917334D01*
X124758674Y-80076396D01*
X124669827Y-80254821D01*
X124615282Y-80446529D01*
X124596892Y-80644999D01*
X123942500Y-80644999D01*
X123942500Y-79812452D01*
X123951939Y-79764999D01*
X123978819Y-79724771D01*
X124377488Y-79326102D01*
X124790957Y-78912632D01*
X124844702Y-78881049D01*
X124907026Y-78879609D01*
X124962174Y-78908678D01*
X125026087Y-78966943D01*
X125026089Y-78966944D01*
X125026090Y-78966945D01*
X125195554Y-79071873D01*
X125381414Y-79143876D01*
X125577340Y-79180500D01*
X125776658Y-79180500D01*
X125776660Y-79180500D01*
X125972586Y-79143876D01*
X126158446Y-79071873D01*
X126327910Y-78966945D01*
X126475209Y-78832664D01*
X126595326Y-78673604D01*
X126684171Y-78495180D01*
X126690373Y-78473385D01*
X126738717Y-78303470D01*
X126744139Y-78244954D01*
X126757108Y-78105000D01*
X126738717Y-77906531D01*
X126738717Y-77906529D01*
X126684172Y-77714821D01*
X126640888Y-77627897D01*
X126595326Y-77536396D01*
X126501716Y-77412437D01*
X126475208Y-77377334D01*
X126327912Y-77243056D01*
X126158447Y-77138127D01*
X125985381Y-77071081D01*
X125972586Y-77066124D01*
X125776660Y-77029500D01*
X125577340Y-77029500D01*
X125381413Y-77066124D01*
X125381414Y-77066124D01*
X125195552Y-77138127D01*
X125026087Y-77243056D01*
X124878791Y-77377335D01*
X124839764Y-77429015D01*
X124797818Y-77464406D01*
X124744706Y-77478227D01*
X124710218Y-77479311D01*
X124706142Y-77479439D01*
X124702250Y-77479500D01*
X124674648Y-77479500D01*
X124670653Y-77480004D01*
X124659029Y-77480918D01*
X124615372Y-77482290D01*
X124596135Y-77487879D01*
X124577094Y-77491822D01*
X124557208Y-77494335D01*
X124516582Y-77510419D01*
X124505537Y-77514200D01*
X124463613Y-77526381D01*
X124446365Y-77536581D01*
X124428903Y-77545135D01*
X124416915Y-77549881D01*
X124410265Y-77552515D01*
X124374926Y-77578189D01*
X124365168Y-77584599D01*
X124327579Y-77606829D01*
X124313410Y-77620998D01*
X124298622Y-77633628D01*
X124282413Y-77645405D01*
X124254572Y-77679058D01*
X124246711Y-77687696D01*
X122933208Y-79001199D01*
X122917110Y-79014096D01*
X122869096Y-79065225D01*
X122866391Y-79068017D01*
X122846874Y-79087534D01*
X122844415Y-79090705D01*
X122836842Y-79099572D01*
X122806935Y-79131420D01*
X122797285Y-79148974D01*
X122786609Y-79165228D01*
X122774326Y-79181063D01*
X122756975Y-79221158D01*
X122751838Y-79231644D01*
X122730802Y-79269907D01*
X122725821Y-79289309D01*
X122719520Y-79307711D01*
X122711561Y-79326102D01*
X122704728Y-79369242D01*
X122702360Y-79380674D01*
X122691500Y-79422978D01*
X122691500Y-79443016D01*
X122689973Y-79462415D01*
X122686840Y-79482194D01*
X122690950Y-79525675D01*
X122691500Y-79537344D01*
X122691500Y-86277256D01*
X122689235Y-86297762D01*
X122691439Y-86367873D01*
X122691500Y-86371768D01*
X122691500Y-86399349D01*
X122692003Y-86403334D01*
X122692918Y-86414967D01*
X122694290Y-86458626D01*
X122699879Y-86477860D01*
X122703825Y-86496916D01*
X122706335Y-86516792D01*
X122722414Y-86557404D01*
X122726197Y-86568451D01*
X122738382Y-86610391D01*
X122748580Y-86627635D01*
X122757136Y-86645100D01*
X122764514Y-86663732D01*
X122770913Y-86672539D01*
X122790180Y-86699059D01*
X122796593Y-86708822D01*
X122818826Y-86746416D01*
X122818829Y-86746419D01*
X122818830Y-86746420D01*
X122832995Y-86760585D01*
X122845627Y-86775375D01*
X122857406Y-86791587D01*
X122891058Y-86819426D01*
X122899699Y-86827289D01*
X125356196Y-89283787D01*
X125369096Y-89299888D01*
X125371213Y-89301876D01*
X125371214Y-89301877D01*
X125396840Y-89325942D01*
X125401277Y-89330108D01*
X125433324Y-89379230D01*
X125439210Y-89437586D01*
X125417619Y-89492119D01*
X125373381Y-89530629D01*
X125316393Y-89544500D01*
X121849452Y-89544500D01*
X121801999Y-89535061D01*
X121761771Y-89508181D01*
X121311819Y-89058228D01*
X121284939Y-89018000D01*
X121275500Y-88970547D01*
X121275500Y-75565000D01*
X124596892Y-75565000D01*
X124615282Y-75763470D01*
X124669827Y-75955178D01*
X124712825Y-76041528D01*
X124758674Y-76133604D01*
X124775461Y-76155833D01*
X124878791Y-76292665D01*
X125026087Y-76426943D01*
X125026089Y-76426944D01*
X125026090Y-76426945D01*
X125195554Y-76531873D01*
X125381414Y-76603876D01*
X125577340Y-76640500D01*
X125776658Y-76640500D01*
X125776660Y-76640500D01*
X125972586Y-76603876D01*
X126158446Y-76531873D01*
X126327910Y-76426945D01*
X126475209Y-76292664D01*
X126595326Y-76133604D01*
X126684171Y-75955180D01*
X126706678Y-75876070D01*
X126738262Y-75822326D01*
X132048770Y-70511819D01*
X132088999Y-70484939D01*
X132136452Y-70475500D01*
X147491256Y-70475500D01*
X147511762Y-70477764D01*
X147514665Y-70477672D01*
X147514667Y-70477673D01*
X147581872Y-70475561D01*
X147585768Y-70475500D01*
X147613349Y-70475500D01*
X147613350Y-70475500D01*
X147617319Y-70474998D01*
X147628965Y-70474080D01*
X147672627Y-70472709D01*
X147691859Y-70467120D01*
X147710918Y-70463174D01*
X147717196Y-70462381D01*
X147730792Y-70460664D01*
X147771407Y-70444582D01*
X147782444Y-70440803D01*
X147824390Y-70428618D01*
X147841629Y-70418422D01*
X147859102Y-70409862D01*
X147877732Y-70402486D01*
X147913064Y-70376814D01*
X147922830Y-70370400D01*
X147960418Y-70348171D01*
X147960417Y-70348171D01*
X147960420Y-70348170D01*
X147974585Y-70334004D01*
X147989373Y-70321373D01*
X148005587Y-70309594D01*
X148033438Y-70275926D01*
X148041279Y-70267309D01*
X149481788Y-68826800D01*
X149497885Y-68813906D01*
X149499873Y-68811787D01*
X149499877Y-68811786D01*
X149545948Y-68762723D01*
X149548566Y-68760023D01*
X149568120Y-68740471D01*
X149570581Y-68737298D01*
X149578156Y-68728427D01*
X149608062Y-68696582D01*
X149617717Y-68679018D01*
X149628394Y-68662764D01*
X149640673Y-68646936D01*
X149658018Y-68606852D01*
X149663160Y-68596356D01*
X149670228Y-68583500D01*
X149684197Y-68558092D01*
X149689179Y-68538684D01*
X149695481Y-68520280D01*
X149703437Y-68501896D01*
X149710269Y-68458752D01*
X149712633Y-68447338D01*
X149723500Y-68405019D01*
X149723500Y-68384984D01*
X149725027Y-68365585D01*
X149725679Y-68361468D01*
X149728160Y-68345804D01*
X149724050Y-68302325D01*
X149723500Y-68290656D01*
X149723500Y-68270188D01*
X149737511Y-68212931D01*
X149776377Y-68168613D01*
X149937140Y-68056046D01*
X150098046Y-67895140D01*
X150117236Y-67867733D01*
X150228568Y-67708734D01*
X150324739Y-67502496D01*
X150383635Y-67282692D01*
X150403468Y-67056000D01*
X150383635Y-66829308D01*
X150324739Y-66609504D01*
X150228568Y-66403266D01*
X150133114Y-66266943D01*
X150098046Y-66216859D01*
X149937140Y-66055953D01*
X149750735Y-65925432D01*
X149544497Y-65829261D01*
X149324689Y-65770364D01*
X149098000Y-65750531D01*
X148871310Y-65770364D01*
X148651502Y-65829261D01*
X148445264Y-65925432D01*
X148258859Y-66055953D01*
X148097953Y-66216859D01*
X147967432Y-66403264D01*
X147871261Y-66609502D01*
X147812364Y-66829310D01*
X147792531Y-67056000D01*
X147812364Y-67282689D01*
X147871261Y-67502497D01*
X147967432Y-67708735D01*
X148097953Y-67895139D01*
X148258859Y-68056046D01*
X148269851Y-68063742D01*
X148306115Y-68103317D01*
X148322256Y-68154510D01*
X148315250Y-68207727D01*
X148286409Y-68252998D01*
X147351228Y-69188181D01*
X147311000Y-69215061D01*
X147263547Y-69224500D01*
X131908744Y-69224500D01*
X131888236Y-69222235D01*
X131818113Y-69224439D01*
X131814219Y-69224500D01*
X131786650Y-69224500D01*
X131782671Y-69225002D01*
X131771041Y-69225917D01*
X131727372Y-69227289D01*
X131708128Y-69232880D01*
X131689084Y-69236824D01*
X131669208Y-69239335D01*
X131628600Y-69255413D01*
X131617554Y-69259194D01*
X131608707Y-69261765D01*
X131575608Y-69271382D01*
X131558355Y-69281585D01*
X131540892Y-69290139D01*
X131522268Y-69297513D01*
X131486934Y-69323183D01*
X131477177Y-69329592D01*
X131439581Y-69351827D01*
X131425410Y-69365998D01*
X131410622Y-69378628D01*
X131394413Y-69390405D01*
X131366572Y-69424058D01*
X131358711Y-69432696D01*
X126240687Y-74550720D01*
X126201340Y-74577231D01*
X126154916Y-74587024D01*
X126108213Y-74578666D01*
X126036075Y-74550720D01*
X125972586Y-74526124D01*
X125776660Y-74489500D01*
X125577340Y-74489500D01*
X125381414Y-74526123D01*
X125381414Y-74526124D01*
X125195552Y-74598127D01*
X125026087Y-74703056D01*
X124878791Y-74837334D01*
X124758674Y-74996396D01*
X124669827Y-75174821D01*
X124615282Y-75366529D01*
X124596892Y-75565000D01*
X121275500Y-75565000D01*
X121275500Y-73024999D01*
X124596892Y-73024999D01*
X124615282Y-73223470D01*
X124669827Y-73415178D01*
X124686799Y-73449261D01*
X124758674Y-73593604D01*
X124808814Y-73660000D01*
X124878791Y-73752665D01*
X125026087Y-73886943D01*
X125026089Y-73886944D01*
X125026090Y-73886945D01*
X125195554Y-73991873D01*
X125381414Y-74063876D01*
X125577340Y-74100500D01*
X125776658Y-74100500D01*
X125776660Y-74100500D01*
X125972586Y-74063876D01*
X126158446Y-73991873D01*
X126327910Y-73886945D01*
X126475209Y-73752664D01*
X126595326Y-73593604D01*
X126684171Y-73415180D01*
X126691232Y-73390365D01*
X126738717Y-73223470D01*
X126742007Y-73187967D01*
X126757108Y-73025000D01*
X126738717Y-72826531D01*
X126738717Y-72826529D01*
X126684172Y-72634821D01*
X126654475Y-72575183D01*
X126595326Y-72456396D01*
X126508631Y-72341594D01*
X126475208Y-72297334D01*
X126327912Y-72163056D01*
X126158447Y-72058127D01*
X126065516Y-72022125D01*
X125972586Y-71986124D01*
X125776660Y-71949500D01*
X125577340Y-71949500D01*
X125381414Y-71986123D01*
X125381414Y-71986124D01*
X125195552Y-72058127D01*
X125026087Y-72163056D01*
X124878791Y-72297334D01*
X124758674Y-72456396D01*
X124669827Y-72634821D01*
X124615282Y-72826529D01*
X124596892Y-73024999D01*
X121275500Y-73024999D01*
X121275500Y-71557452D01*
X121284939Y-71509999D01*
X121311819Y-71469771D01*
X122296590Y-70485000D01*
X124596892Y-70485000D01*
X124615282Y-70683470D01*
X124669827Y-70875178D01*
X124695166Y-70926064D01*
X124758674Y-71053604D01*
X124804466Y-71114242D01*
X124878791Y-71212665D01*
X125026087Y-71346943D01*
X125026089Y-71346944D01*
X125026090Y-71346945D01*
X125085660Y-71383829D01*
X125119680Y-71404894D01*
X125195554Y-71451873D01*
X125381414Y-71523876D01*
X125577340Y-71560500D01*
X125776658Y-71560500D01*
X125776660Y-71560500D01*
X125972586Y-71523876D01*
X126158446Y-71451873D01*
X126327910Y-71346945D01*
X126475209Y-71212664D01*
X126595326Y-71053604D01*
X126684171Y-70875180D01*
X126696307Y-70832529D01*
X126738717Y-70683470D01*
X126742007Y-70647967D01*
X126757108Y-70485000D01*
X126738717Y-70286531D01*
X126738717Y-70286529D01*
X126684172Y-70094821D01*
X126628374Y-69982765D01*
X126595326Y-69916396D01*
X126501947Y-69792743D01*
X126475208Y-69757334D01*
X126327912Y-69623056D01*
X126158447Y-69518127D01*
X126065516Y-69482125D01*
X125972586Y-69446124D01*
X125776660Y-69409500D01*
X125577340Y-69409500D01*
X125381413Y-69446124D01*
X125381414Y-69446124D01*
X125195552Y-69518127D01*
X125026087Y-69623056D01*
X124878791Y-69757334D01*
X124758674Y-69916396D01*
X124669827Y-70094821D01*
X124615282Y-70286529D01*
X124596892Y-70485000D01*
X122296590Y-70485000D01*
X124174772Y-68606819D01*
X124215000Y-68579939D01*
X124262453Y-68570500D01*
X124739895Y-68570500D01*
X124795166Y-68583500D01*
X124838849Y-68619773D01*
X124878791Y-68672665D01*
X125026087Y-68806943D01*
X125026089Y-68806944D01*
X125026090Y-68806945D01*
X125195554Y-68911873D01*
X125381414Y-68983876D01*
X125577340Y-69020500D01*
X125776658Y-69020500D01*
X125776660Y-69020500D01*
X125972586Y-68983876D01*
X126158446Y-68911873D01*
X126327910Y-68806945D01*
X126475209Y-68672664D01*
X126595326Y-68513604D01*
X126684171Y-68335180D01*
X126695175Y-68296507D01*
X126738717Y-68143470D01*
X126749495Y-68027152D01*
X126757108Y-67945000D01*
X126738717Y-67746531D01*
X126738717Y-67746529D01*
X126684172Y-67554821D01*
X126630398Y-67446830D01*
X126595326Y-67376396D01*
X126515151Y-67270227D01*
X126475208Y-67217334D01*
X126327912Y-67083056D01*
X126284215Y-67056000D01*
X143474531Y-67056000D01*
X143494364Y-67282689D01*
X143553261Y-67502497D01*
X143649432Y-67708735D01*
X143779953Y-67895140D01*
X143940859Y-68056046D01*
X144127264Y-68186567D01*
X144127265Y-68186567D01*
X144127266Y-68186568D01*
X144333504Y-68282739D01*
X144553308Y-68341635D01*
X144780000Y-68361468D01*
X145006692Y-68341635D01*
X145226496Y-68282739D01*
X145432734Y-68186568D01*
X145619139Y-68056047D01*
X145780047Y-67895139D01*
X145910568Y-67708734D01*
X146006739Y-67502496D01*
X146065635Y-67282692D01*
X146085468Y-67056000D01*
X146065635Y-66829308D01*
X146006739Y-66609504D01*
X145910568Y-66403266D01*
X145815114Y-66266943D01*
X145780046Y-66216859D01*
X145619140Y-66055953D01*
X145432735Y-65925432D01*
X145226497Y-65829261D01*
X145006689Y-65770364D01*
X144780000Y-65750531D01*
X144553310Y-65770364D01*
X144333502Y-65829261D01*
X144127264Y-65925432D01*
X143940859Y-66055953D01*
X143779953Y-66216859D01*
X143649432Y-66403264D01*
X143553261Y-66609502D01*
X143494364Y-66829310D01*
X143474531Y-67056000D01*
X126284215Y-67056000D01*
X126158447Y-66978127D01*
X126054539Y-66937873D01*
X125972586Y-66906124D01*
X125776660Y-66869500D01*
X125577340Y-66869500D01*
X125381413Y-66906124D01*
X125381414Y-66906124D01*
X125195552Y-66978127D01*
X125026087Y-67083056D01*
X124878791Y-67217334D01*
X124838849Y-67270227D01*
X124795166Y-67306500D01*
X124739895Y-67319500D01*
X124034740Y-67319500D01*
X124014236Y-67317236D01*
X123944144Y-67319439D01*
X123940250Y-67319500D01*
X123912648Y-67319500D01*
X123908653Y-67320004D01*
X123897029Y-67320918D01*
X123853368Y-67322290D01*
X123834128Y-67327880D01*
X123815081Y-67331825D01*
X123795209Y-67334335D01*
X123754599Y-67350413D01*
X123743554Y-67354194D01*
X123701611Y-67366380D01*
X123684369Y-67376578D01*
X123666897Y-67385138D01*
X123648266Y-67392514D01*
X123612938Y-67418181D01*
X123603180Y-67424591D01*
X123565579Y-67446829D01*
X123551410Y-67460998D01*
X123536622Y-67473628D01*
X123520413Y-67485405D01*
X123492572Y-67519058D01*
X123484711Y-67527696D01*
X120266208Y-70746199D01*
X120250110Y-70759096D01*
X120202096Y-70810225D01*
X120199391Y-70813017D01*
X120179874Y-70832534D01*
X120177415Y-70835705D01*
X120169842Y-70844572D01*
X120139935Y-70876420D01*
X120130285Y-70893974D01*
X120119609Y-70910228D01*
X120107326Y-70926063D01*
X120089975Y-70966158D01*
X120084838Y-70976644D01*
X120063802Y-71014907D01*
X120058821Y-71034309D01*
X120052520Y-71052711D01*
X120044561Y-71071102D01*
X120037728Y-71114242D01*
X120035360Y-71125674D01*
X120024500Y-71167978D01*
X120024500Y-71188016D01*
X120022973Y-71207415D01*
X120019840Y-71227194D01*
X118839270Y-71227194D01*
X118855209Y-71212664D01*
X118975326Y-71053604D01*
X119064171Y-70875180D01*
X119076307Y-70832529D01*
X119118717Y-70683470D01*
X119122007Y-70647967D01*
X119137108Y-70485000D01*
X119118717Y-70286531D01*
X119118717Y-70286529D01*
X119064172Y-70094821D01*
X119008374Y-69982765D01*
X118975326Y-69916396D01*
X118881947Y-69792743D01*
X118855208Y-69757334D01*
X118707912Y-69623056D01*
X118538447Y-69518127D01*
X118445516Y-69482125D01*
X118352586Y-69446124D01*
X118156660Y-69409500D01*
X117957340Y-69409500D01*
X117761413Y-69446124D01*
X117761414Y-69446124D01*
X117575552Y-69518127D01*
X117406087Y-69623056D01*
X117258791Y-69757334D01*
X117138674Y-69916396D01*
X117049827Y-70094821D01*
X116995282Y-70286529D01*
X116976892Y-70485000D01*
X113524007Y-70485000D01*
X113504035Y-70442171D01*
X113368495Y-70248599D01*
X113201401Y-70081505D01*
X113015839Y-69951573D01*
X112976975Y-69907257D01*
X112962964Y-69850000D01*
X112976975Y-69792743D01*
X113015839Y-69748426D01*
X113201401Y-69618495D01*
X113368495Y-69451401D01*
X113504035Y-69257830D01*
X113603903Y-69043663D01*
X113665063Y-68815408D01*
X113685659Y-68580000D01*
X113682044Y-68538687D01*
X113665063Y-68344592D01*
X113645127Y-68270188D01*
X113603903Y-68116337D01*
X113524007Y-67945000D01*
X116976892Y-67945000D01*
X116995282Y-68143470D01*
X117049827Y-68335178D01*
X117105672Y-68447327D01*
X117138674Y-68513604D01*
X117157616Y-68538687D01*
X117258791Y-68672665D01*
X117406087Y-68806943D01*
X117406089Y-68806944D01*
X117406090Y-68806945D01*
X117575554Y-68911873D01*
X117761414Y-68983876D01*
X117957340Y-69020500D01*
X118156658Y-69020500D01*
X118156660Y-69020500D01*
X118352586Y-68983876D01*
X118538446Y-68911873D01*
X118707910Y-68806945D01*
X118855209Y-68672664D01*
X118975326Y-68513604D01*
X119064171Y-68335180D01*
X119075175Y-68296507D01*
X119118717Y-68143470D01*
X119129495Y-68027152D01*
X119137108Y-67945000D01*
X119118717Y-67746531D01*
X119118717Y-67746529D01*
X119064172Y-67554821D01*
X119010398Y-67446830D01*
X118975326Y-67376396D01*
X118895151Y-67270227D01*
X118855208Y-67217334D01*
X118707912Y-67083056D01*
X118538447Y-66978127D01*
X118434539Y-66937873D01*
X118352586Y-66906124D01*
X118156660Y-66869500D01*
X117957340Y-66869500D01*
X117761413Y-66906124D01*
X117761414Y-66906124D01*
X117575552Y-66978127D01*
X117406087Y-67083056D01*
X117258791Y-67217334D01*
X117138674Y-67376396D01*
X117049827Y-67554821D01*
X116995282Y-67746529D01*
X116976892Y-67945000D01*
X113524007Y-67945000D01*
X113504035Y-67902171D01*
X113368495Y-67708599D01*
X113246569Y-67586673D01*
X113215273Y-67533927D01*
X113213084Y-67472634D01*
X113240537Y-67417789D01*
X113290916Y-67382810D01*
X113422331Y-67333796D01*
X113537546Y-67247546D01*
X113623796Y-67132331D01*
X113674091Y-66997483D01*
X113680500Y-66937873D01*
X113680499Y-65142128D01*
X113674091Y-65082517D01*
X113623796Y-64947669D01*
X113537546Y-64832454D01*
X113537065Y-64831811D01*
X113512826Y-64768552D01*
X113525448Y-64701996D01*
X113571165Y-64652005D01*
X113636332Y-64633500D01*
X116349548Y-64633500D01*
X116397001Y-64642939D01*
X116437229Y-64669819D01*
X116945181Y-65177771D01*
X116972061Y-65217999D01*
X116981500Y-65265452D01*
X116981500Y-66027869D01*
X116987080Y-66079773D01*
X116987909Y-66087483D01*
X117038204Y-66222331D01*
X117124454Y-66337546D01*
X117239669Y-66423796D01*
X117374517Y-66474091D01*
X117434127Y-66480500D01*
X118679872Y-66480499D01*
X118739483Y-66474091D01*
X118874331Y-66423796D01*
X118989546Y-66337546D01*
X119075796Y-66222331D01*
X119126091Y-66087483D01*
X119132500Y-66027873D01*
X119132499Y-65405000D01*
X124596892Y-65405000D01*
X124615282Y-65603470D01*
X124669827Y-65795178D01*
X124716552Y-65889012D01*
X124758674Y-65973604D01*
X124799656Y-66027873D01*
X124878791Y-66132665D01*
X125026087Y-66266943D01*
X125140112Y-66337545D01*
X125195554Y-66371873D01*
X125381414Y-66443876D01*
X125577340Y-66480500D01*
X125776658Y-66480500D01*
X125776660Y-66480500D01*
X125972586Y-66443876D01*
X126158446Y-66371873D01*
X126327910Y-66266945D01*
X126475209Y-66132664D01*
X126490354Y-66112607D01*
X126515151Y-66079773D01*
X126558834Y-66043500D01*
X126614105Y-66030500D01*
X127552256Y-66030500D01*
X127572762Y-66032764D01*
X127575665Y-66032672D01*
X127575667Y-66032673D01*
X127642872Y-66030561D01*
X127646768Y-66030500D01*
X127674349Y-66030500D01*
X127674350Y-66030500D01*
X127678319Y-66029998D01*
X127689965Y-66029080D01*
X127733627Y-66027709D01*
X127752859Y-66022120D01*
X127771918Y-66018174D01*
X127778196Y-66017381D01*
X127791792Y-66015664D01*
X127832407Y-65999582D01*
X127843444Y-65995803D01*
X127885390Y-65983618D01*
X127902629Y-65973422D01*
X127920102Y-65964862D01*
X127938732Y-65957486D01*
X127974064Y-65931814D01*
X127983830Y-65925400D01*
X128021418Y-65903171D01*
X128021417Y-65903171D01*
X128021420Y-65903170D01*
X128035585Y-65889004D01*
X128050373Y-65876373D01*
X128066587Y-65864594D01*
X128094438Y-65830926D01*
X128102279Y-65822309D01*
X129000771Y-64923819D01*
X129041000Y-64896939D01*
X129088453Y-64887500D01*
X158947548Y-64887500D01*
X158995001Y-64896939D01*
X159035229Y-64923819D01*
X159612181Y-65500772D01*
X159639061Y-65541000D01*
X159648500Y-65588453D01*
X159648500Y-65841812D01*
X159634489Y-65899069D01*
X159595623Y-65943387D01*
X159434859Y-66055953D01*
X159273953Y-66216859D01*
X159143432Y-66403264D01*
X159047261Y-66609502D01*
X158988364Y-66829310D01*
X158968531Y-67056000D01*
X158988364Y-67282689D01*
X159047261Y-67502497D01*
X159143432Y-67708735D01*
X159273953Y-67895140D01*
X159434859Y-68056046D01*
X159621264Y-68186567D01*
X159621265Y-68186567D01*
X159621266Y-68186568D01*
X159827504Y-68282739D01*
X160047308Y-68341635D01*
X160274000Y-68361468D01*
X160500692Y-68341635D01*
X160720496Y-68282739D01*
X160926734Y-68186568D01*
X161113139Y-68056047D01*
X161274047Y-67895139D01*
X161404568Y-67708734D01*
X161500739Y-67502496D01*
X161559635Y-67282692D01*
X161579468Y-67056000D01*
X161559635Y-66829308D01*
X161500739Y-66609504D01*
X161404568Y-66403266D01*
X161309114Y-66266943D01*
X161274046Y-66216859D01*
X161113140Y-66055953D01*
X160952377Y-65943387D01*
X160913511Y-65899069D01*
X160899500Y-65841812D01*
X160899500Y-65360744D01*
X160901764Y-65340237D01*
X160899561Y-65270127D01*
X160899500Y-65266232D01*
X160899500Y-65238653D01*
X160898997Y-65234672D01*
X160898080Y-65223019D01*
X160897954Y-65219016D01*
X160896709Y-65179373D01*
X160891120Y-65160140D01*
X160887174Y-65141082D01*
X160884664Y-65121206D01*
X160868588Y-65080604D01*
X160864804Y-65069553D01*
X160857934Y-65045907D01*
X160852618Y-65027610D01*
X160842414Y-65010355D01*
X160833861Y-64992895D01*
X160826486Y-64974269D01*
X160826486Y-64974268D01*
X160800808Y-64938925D01*
X160794401Y-64929171D01*
X160791236Y-64923819D01*
X160772170Y-64891580D01*
X160758006Y-64877416D01*
X160745367Y-64862617D01*
X160733595Y-64846413D01*
X160699941Y-64818573D01*
X160691299Y-64810709D01*
X159758802Y-63878211D01*
X159745906Y-63862113D01*
X159694775Y-63814098D01*
X159691978Y-63811387D01*
X159672470Y-63791879D01*
X159669290Y-63789412D01*
X159660424Y-63781839D01*
X159628582Y-63751938D01*
X159611024Y-63742285D01*
X159594764Y-63731604D01*
X159578936Y-63719327D01*
X159538851Y-63701980D01*
X159528361Y-63696841D01*
X159490091Y-63675802D01*
X159470691Y-63670821D01*
X159452284Y-63664519D01*
X159433897Y-63656562D01*
X159390758Y-63649729D01*
X159379324Y-63647361D01*
X159337019Y-63636500D01*
X159316984Y-63636500D01*
X159297586Y-63634973D01*
X159290162Y-63633797D01*
X159277805Y-63631840D01*
X159277804Y-63631840D01*
X159251484Y-63634328D01*
X159234325Y-63635950D01*
X159222656Y-63636500D01*
X128860741Y-63636500D01*
X128840237Y-63634236D01*
X128770145Y-63636439D01*
X128766251Y-63636500D01*
X128738648Y-63636500D01*
X128734653Y-63637004D01*
X128723029Y-63637918D01*
X128679368Y-63639290D01*
X128660128Y-63644880D01*
X128641081Y-63648825D01*
X128621209Y-63651335D01*
X128580599Y-63667413D01*
X128569554Y-63671194D01*
X128527610Y-63683381D01*
X128510365Y-63693579D01*
X128492904Y-63702133D01*
X128474267Y-63709512D01*
X128438931Y-63735185D01*
X128429174Y-63741595D01*
X128391580Y-63763829D01*
X128377413Y-63777996D01*
X128362624Y-63790626D01*
X128346413Y-63802404D01*
X128318572Y-63836058D01*
X128310711Y-63844697D01*
X127412228Y-64743181D01*
X127372000Y-64770061D01*
X127324547Y-64779500D01*
X126614105Y-64779500D01*
X126558834Y-64766500D01*
X126515151Y-64730227D01*
X126475208Y-64677334D01*
X126327912Y-64543056D01*
X126158447Y-64438127D01*
X126024418Y-64386204D01*
X125972586Y-64366124D01*
X125776660Y-64329500D01*
X125577340Y-64329500D01*
X125381414Y-64366123D01*
X125381414Y-64366124D01*
X125195552Y-64438127D01*
X125026087Y-64543056D01*
X124878791Y-64677334D01*
X124758674Y-64836396D01*
X124669827Y-65014821D01*
X124615282Y-65206529D01*
X124596892Y-65405000D01*
X119132499Y-65405000D01*
X119132499Y-64782128D01*
X119126091Y-64722517D01*
X119075796Y-64587669D01*
X118989546Y-64472454D01*
X118874331Y-64386204D01*
X118739483Y-64335909D01*
X118679873Y-64329500D01*
X118679869Y-64329500D01*
X117917453Y-64329500D01*
X117870000Y-64320061D01*
X117829772Y-64293181D01*
X117160802Y-63624211D01*
X117147906Y-63608113D01*
X117096775Y-63560098D01*
X117093978Y-63557387D01*
X117074470Y-63537879D01*
X117071290Y-63535412D01*
X117062424Y-63527839D01*
X117030582Y-63497938D01*
X117013024Y-63488285D01*
X116996764Y-63477604D01*
X116980936Y-63465327D01*
X116940851Y-63447980D01*
X116930361Y-63442841D01*
X116892091Y-63421802D01*
X116872691Y-63416821D01*
X116854284Y-63410519D01*
X116835897Y-63402562D01*
X116792758Y-63395729D01*
X116781324Y-63393361D01*
X116739019Y-63382500D01*
X116718984Y-63382500D01*
X116699586Y-63380973D01*
X116692162Y-63379797D01*
X116679805Y-63377840D01*
X116679804Y-63377840D01*
X116653484Y-63380328D01*
X116636325Y-63381950D01*
X116624656Y-63382500D01*
X108540740Y-63382500D01*
X108520236Y-63380236D01*
X108450144Y-63382439D01*
X108446250Y-63382500D01*
X108418648Y-63382500D01*
X108414653Y-63383004D01*
X108403029Y-63383918D01*
X108359368Y-63385290D01*
X108340128Y-63390880D01*
X108321081Y-63394825D01*
X108301209Y-63397335D01*
X108260599Y-63413413D01*
X108249554Y-63417194D01*
X108207611Y-63429380D01*
X108190369Y-63439578D01*
X108172897Y-63448138D01*
X108154266Y-63455514D01*
X108118938Y-63481181D01*
X108109180Y-63487591D01*
X108071579Y-63509829D01*
X108057410Y-63523998D01*
X108042622Y-63536628D01*
X108026413Y-63548405D01*
X107998572Y-63582058D01*
X107990711Y-63590696D01*
X106804208Y-64777199D01*
X106788110Y-64790096D01*
X106740096Y-64841225D01*
X106737391Y-64844017D01*
X106717874Y-64863534D01*
X106715415Y-64866705D01*
X106707842Y-64875572D01*
X106677935Y-64907420D01*
X106668285Y-64924974D01*
X106657609Y-64941228D01*
X106645326Y-64957063D01*
X106627975Y-64997158D01*
X106622838Y-65007644D01*
X106601802Y-65045907D01*
X106596821Y-65065309D01*
X106590520Y-65083711D01*
X106582561Y-65102102D01*
X106575728Y-65145242D01*
X106573360Y-65156674D01*
X106562500Y-65198978D01*
X106562500Y-65219016D01*
X106560973Y-65238415D01*
X106557840Y-65258194D01*
X105918000Y-65258194D01*
X105918000Y-63116000D01*
X105934613Y-63054000D01*
X105980000Y-63008613D01*
X106042000Y-62992000D01*
X166569507Y-62992000D01*
X166619395Y-63002478D01*
G37*
%TD.AperFunction*%
%TA.AperFunction,Conductor*%
G36*
X108572030Y-89539511D02*
G01*
X108616346Y-89578374D01*
X108751505Y-89771401D01*
X108918599Y-89938495D01*
X109104160Y-90068426D01*
X109143024Y-90112743D01*
X109157035Y-90170000D01*
X109143024Y-90227257D01*
X109104159Y-90271575D01*
X109073738Y-90292875D01*
X109016958Y-90332634D01*
X108918595Y-90401508D01*
X108751505Y-90568598D01*
X108615965Y-90762170D01*
X108516097Y-90976336D01*
X108454936Y-91204592D01*
X108434340Y-91440000D01*
X108454936Y-91675407D01*
X108497289Y-91833469D01*
X108516097Y-91903663D01*
X108615965Y-92117830D01*
X108751505Y-92311401D01*
X108918599Y-92478495D01*
X109104160Y-92608426D01*
X109143024Y-92652743D01*
X109157035Y-92710000D01*
X109143024Y-92767257D01*
X109104160Y-92811574D01*
X108974309Y-92902497D01*
X108918595Y-92941508D01*
X108751505Y-93108598D01*
X108615965Y-93302170D01*
X108516097Y-93516336D01*
X108454936Y-93744592D01*
X108434340Y-93979999D01*
X108454936Y-94215407D01*
X108464254Y-94250181D01*
X108516097Y-94443663D01*
X108615965Y-94657830D01*
X108751505Y-94851401D01*
X108918599Y-95018495D01*
X109104160Y-95148426D01*
X109143024Y-95192743D01*
X109157035Y-95250000D01*
X109143024Y-95307257D01*
X109104158Y-95351575D01*
X109015267Y-95413818D01*
X108918595Y-95481508D01*
X108751505Y-95648598D01*
X108615965Y-95842170D01*
X108516097Y-96056336D01*
X108454936Y-96284592D01*
X108434340Y-96520000D01*
X108454936Y-96755407D01*
X108491055Y-96890204D01*
X108516097Y-96983663D01*
X108615965Y-97197830D01*
X108751505Y-97391401D01*
X108918599Y-97558495D01*
X109104597Y-97688732D01*
X109143460Y-97733048D01*
X109157471Y-97790305D01*
X109143461Y-97847561D01*
X109104595Y-97891880D01*
X108918919Y-98021892D01*
X108751890Y-98188921D01*
X108616400Y-98382421D01*
X108516569Y-98596507D01*
X108459364Y-98809999D01*
X108459364Y-98810000D01*
X113660636Y-98810000D01*
X113660635Y-98809999D01*
X113603430Y-98596507D01*
X113503599Y-98382421D01*
X113368109Y-98188921D01*
X113201081Y-98021893D01*
X113015404Y-97891880D01*
X112976539Y-97847562D01*
X112962528Y-97790305D01*
X112976539Y-97733048D01*
X113015402Y-97688732D01*
X113201401Y-97558495D01*
X113231971Y-97527923D01*
X113287557Y-97495830D01*
X113351745Y-97495830D01*
X113407333Y-97527924D01*
X118715196Y-102835787D01*
X118728096Y-102851888D01*
X118779223Y-102899900D01*
X118782019Y-102902610D01*
X118801529Y-102922120D01*
X118804711Y-102924588D01*
X118813571Y-102932155D01*
X118845418Y-102962062D01*
X118862972Y-102971712D01*
X118879236Y-102982396D01*
X118890972Y-102991499D01*
X118895064Y-102994673D01*
X118918635Y-103004873D01*
X118935152Y-103012021D01*
X118945631Y-103017154D01*
X118983908Y-103038197D01*
X119003306Y-103043177D01*
X119021708Y-103049477D01*
X119040104Y-103057438D01*
X119083261Y-103064273D01*
X119094664Y-103066634D01*
X119136981Y-103077500D01*
X119157016Y-103077500D01*
X119176413Y-103079026D01*
X119196196Y-103082160D01*
X119239674Y-103078050D01*
X119251344Y-103077500D01*
X120455236Y-103077500D01*
X120504049Y-103087512D01*
X120544979Y-103115930D01*
X120571418Y-103158167D01*
X120571909Y-103159483D01*
X120622204Y-103294331D01*
X120638568Y-103316190D01*
X120662807Y-103379448D01*
X120650184Y-103446005D01*
X120604467Y-103495996D01*
X120539300Y-103514500D01*
X108895452Y-103514500D01*
X108847999Y-103505061D01*
X108807771Y-103478181D01*
X108103819Y-102774228D01*
X108076939Y-102734000D01*
X108067500Y-102686547D01*
X108067500Y-101600000D01*
X108434340Y-101600000D01*
X108454936Y-101835407D01*
X108499709Y-102002501D01*
X108516097Y-102063663D01*
X108615965Y-102277830D01*
X108751505Y-102471401D01*
X108918599Y-102638495D01*
X109112170Y-102774035D01*
X109326337Y-102873903D01*
X109554592Y-102935063D01*
X109790000Y-102955659D01*
X110025408Y-102935063D01*
X110253663Y-102873903D01*
X110467830Y-102774035D01*
X110661401Y-102638495D01*
X110828495Y-102471401D01*
X110958426Y-102285839D01*
X111002743Y-102246975D01*
X111060000Y-102232964D01*
X111117257Y-102246975D01*
X111161573Y-102285839D01*
X111291505Y-102471401D01*
X111458599Y-102638495D01*
X111652170Y-102774035D01*
X111866337Y-102873903D01*
X112094592Y-102935063D01*
X112330000Y-102955659D01*
X112565408Y-102935063D01*
X112793663Y-102873903D01*
X113007830Y-102774035D01*
X113201401Y-102638495D01*
X113368495Y-102471401D01*
X113504035Y-102277830D01*
X113603903Y-102063663D01*
X113665063Y-101835408D01*
X113685659Y-101600000D01*
X113665063Y-101364592D01*
X113603903Y-101136337D01*
X113504035Y-100922171D01*
X113368495Y-100728599D01*
X113201401Y-100561505D01*
X113015402Y-100431267D01*
X112976539Y-100386951D01*
X112962528Y-100329694D01*
X112976539Y-100272437D01*
X113015405Y-100228119D01*
X113201078Y-100098109D01*
X113368106Y-99931081D01*
X113503600Y-99737576D01*
X113603430Y-99523492D01*
X113660636Y-99310000D01*
X108459364Y-99310000D01*
X108516569Y-99523492D01*
X108616399Y-99737576D01*
X108751893Y-99931081D01*
X108918918Y-100098106D01*
X109104595Y-100228119D01*
X109143460Y-100272437D01*
X109157471Y-100329694D01*
X109143460Y-100386951D01*
X109104595Y-100431269D01*
X108918595Y-100561508D01*
X108751505Y-100728598D01*
X108615965Y-100922170D01*
X108516097Y-101136336D01*
X108454936Y-101364592D01*
X108434340Y-101600000D01*
X108067500Y-101600000D01*
X108067500Y-89972452D01*
X108076939Y-89924999D01*
X108103819Y-89884771D01*
X108426771Y-89561819D01*
X108466999Y-89534939D01*
X108514452Y-89525500D01*
X108514773Y-89525500D01*
X108572030Y-89539511D01*
G37*
%TD.AperFunction*%
%TD*%
M02*
