%TF.GenerationSoftware,KiCad,Pcbnew,7.0.1*%
%TF.CreationDate,2023-05-14T00:25:17+09:00*%
%TF.ProjectId,Pmod_7Seg,506d6f64-5f37-4536-9567-2e6b69636164,rev?*%
%TF.SameCoordinates,Original*%
%TF.FileFunction,Soldermask,Top*%
%TF.FilePolarity,Negative*%
%FSLAX46Y46*%
G04 Gerber Fmt 4.6, Leading zero omitted, Abs format (unit mm)*
G04 Created by KiCad (PCBNEW 7.0.1) date 2023-05-14 00:25:17*
%MOMM*%
%LPD*%
G01*
G04 APERTURE LIST*
G04 Aperture macros list*
%AMRoundRect*
0 Rectangle with rounded corners*
0 $1 Rounding radius*
0 $2 $3 $4 $5 $6 $7 $8 $9 X,Y pos of 4 corners*
0 Add a 4 corners polygon primitive as box body*
4,1,4,$2,$3,$4,$5,$6,$7,$8,$9,$2,$3,0*
0 Add four circle primitives for the rounded corners*
1,1,$1+$1,$2,$3*
1,1,$1+$1,$4,$5*
1,1,$1+$1,$6,$7*
1,1,$1+$1,$8,$9*
0 Add four rect primitives between the rounded corners*
20,1,$1+$1,$2,$3,$4,$5,0*
20,1,$1+$1,$4,$5,$6,$7,0*
20,1,$1+$1,$6,$7,$8,$9,0*
20,1,$1+$1,$8,$9,$2,$3,0*%
%AMFreePoly0*
4,1,6,1.000000,0.000000,0.500000,-0.750000,-0.500000,-0.750000,-0.500000,0.750000,0.500000,0.750000,1.000000,0.000000,1.000000,0.000000,$1*%
%AMFreePoly1*
4,1,6,0.500000,-0.750000,-0.650000,-0.750000,-0.150000,0.000000,-0.650000,0.750000,0.500000,0.750000,0.500000,-0.750000,0.500000,-0.750000,$1*%
G04 Aperture macros list end*
%ADD10C,1.600000*%
%ADD11RoundRect,0.237500X-0.237500X0.250000X-0.237500X-0.250000X0.237500X-0.250000X0.237500X0.250000X0*%
%ADD12O,1.600000X1.600000*%
%ADD13R,1.200000X1.200000*%
%ADD14FreePoly0,90.000000*%
%ADD15C,1.200000*%
%ADD16FreePoly1,90.000000*%
%ADD17C,1.150000*%
%ADD18FreePoly1,0.000000*%
%ADD19FreePoly0,0.000000*%
%ADD20R,1.150000X1.150000*%
%ADD21C,0.600000*%
%ADD22C,0.800000*%
%ADD23R,1.400000X2.524000*%
%ADD24O,1.524000X2.524000*%
%ADD25O,1.400000X2.524000*%
%ADD26RoundRect,0.237500X0.237500X-0.250000X0.237500X0.250000X-0.237500X0.250000X-0.237500X-0.250000X0*%
%ADD27R,1.700000X1.700000*%
%ADD28O,1.700000X1.700000*%
G04 APERTURE END LIST*
D10*
%TO.C,R6*%
X149098000Y-67056000D03*
D11*
X149098000Y-69953500D03*
X149098000Y-71778500D03*
D12*
X149098000Y-74676000D03*
%TD*%
D13*
%TO.C,IC2*%
X121666000Y-102452000D03*
D14*
X121666000Y-99510000D03*
D15*
X124206000Y-102452000D03*
D14*
X124206000Y-99510000D03*
D15*
X126746000Y-102452000D03*
D14*
X126746000Y-99510000D03*
D15*
X129286000Y-102452000D03*
D14*
X129286000Y-99510000D03*
D15*
X131826000Y-102452000D03*
D14*
X131826000Y-99510000D03*
D15*
X134366000Y-102452000D03*
D14*
X134366000Y-99510000D03*
D15*
X136906000Y-102452000D03*
D14*
X136906000Y-99510000D03*
D15*
X139446000Y-102452000D03*
X139446000Y-94832000D03*
D16*
X136906000Y-98060000D03*
D15*
X136906000Y-94832000D03*
D16*
X134366000Y-98060000D03*
D15*
X134366000Y-94832000D03*
D16*
X131826000Y-98060000D03*
D15*
X131826000Y-94832000D03*
D16*
X129286000Y-98060000D03*
D15*
X129286000Y-94832000D03*
D16*
X126746000Y-98060000D03*
D15*
X126746000Y-94832000D03*
D16*
X124206000Y-98060000D03*
D15*
X124206000Y-94832000D03*
D16*
X121666000Y-98060000D03*
D15*
X121666000Y-94832000D03*
%TD*%
D17*
%TO.C,IC1*%
X125677000Y-65405000D03*
D18*
X122555000Y-65405000D03*
D17*
X125677000Y-67945000D03*
D18*
X122555000Y-67945000D03*
D17*
X125677000Y-70485000D03*
D18*
X122555000Y-70485000D03*
D17*
X125677000Y-73025000D03*
D18*
X122555000Y-73025000D03*
D17*
X125677000Y-75565000D03*
D18*
X122555000Y-75565000D03*
D17*
X125677000Y-78105000D03*
D18*
X122555000Y-78105000D03*
D17*
X125677000Y-80645000D03*
D18*
X122555000Y-80645000D03*
D17*
X125677000Y-83185000D03*
D18*
X122555000Y-83185000D03*
D17*
X125677000Y-85725000D03*
X118057000Y-85725000D03*
D19*
X121105000Y-83185000D03*
D17*
X118057000Y-83185000D03*
D19*
X121105000Y-80645000D03*
D17*
X118057000Y-80645000D03*
D19*
X121105000Y-78105000D03*
D17*
X118057000Y-78105000D03*
D19*
X121105000Y-75565000D03*
D17*
X118057000Y-75565000D03*
D19*
X121105000Y-73025000D03*
D17*
X118057000Y-73025000D03*
D19*
X121105000Y-70485000D03*
D17*
X118057000Y-70485000D03*
D19*
X121105000Y-67945000D03*
D17*
X118057000Y-67945000D03*
D19*
X121105000Y-65405000D03*
D20*
X118057000Y-65405000D03*
%TD*%
D21*
%TO.C,IC3*%
X140271500Y-88836000D03*
D22*
X150431500Y-88836000D03*
X152971500Y-88836000D03*
X158051500Y-88836000D03*
X160591500Y-88836000D03*
X163131500Y-88836000D03*
D21*
X140271500Y-78676000D03*
D22*
X147891500Y-78676000D03*
D23*
X137731500Y-88836000D03*
D24*
X142811500Y-88836000D03*
X145351500Y-88836000D03*
X147891500Y-88836000D03*
X155511500Y-88836000D03*
X163131500Y-78676000D03*
X160591500Y-78676000D03*
X158051500Y-78676000D03*
X155511500Y-78676000D03*
X152971500Y-78676000D03*
X150431500Y-78676000D03*
X145351500Y-78676000D03*
X142811500Y-78676000D03*
D25*
X137731500Y-78676000D03*
%TD*%
D10*
%TO.C,R3*%
X146939000Y-100076000D03*
D26*
X146939000Y-97178500D03*
X146939000Y-95353500D03*
D12*
X146939000Y-92456000D03*
%TD*%
%TO.C,R1*%
X160274000Y-67056000D03*
D26*
X160274000Y-69953500D03*
X160274000Y-71778500D03*
D10*
X160274000Y-74676000D03*
%TD*%
%TO.C,R7*%
X150876000Y-100076000D03*
D26*
X150876000Y-97178500D03*
X150876000Y-95353500D03*
D12*
X150876000Y-92456000D03*
%TD*%
D27*
%TO.C,J2*%
X112330000Y-88900000D03*
D28*
X112330000Y-91440000D03*
X112330000Y-93980000D03*
X112330000Y-96520000D03*
X112330000Y-99060000D03*
X112330000Y-101600000D03*
X109790000Y-88900000D03*
X109790000Y-91440000D03*
X109790000Y-93980000D03*
X109790000Y-96520000D03*
X109790000Y-99060000D03*
X109790000Y-101600000D03*
%TD*%
D12*
%TO.C,R4*%
X156718000Y-67056000D03*
D26*
X156718000Y-69953500D03*
X156718000Y-71778500D03*
D10*
X156718000Y-74676000D03*
%TD*%
%TO.C,R5*%
X144780000Y-67056000D03*
D11*
X144780000Y-69953500D03*
X144780000Y-71778500D03*
D12*
X144780000Y-74676000D03*
%TD*%
D27*
%TO.C,J1*%
X112330000Y-66040000D03*
D28*
X112330000Y-68580000D03*
X112330000Y-71120000D03*
X112330000Y-73660000D03*
X112330000Y-76200000D03*
X112330000Y-78740000D03*
X109790000Y-66040000D03*
X109790000Y-68580000D03*
X109790000Y-71120000D03*
X109790000Y-73660000D03*
X109790000Y-76200000D03*
X109790000Y-78740000D03*
%TD*%
D10*
%TO.C,R8*%
X158496000Y-100076000D03*
D26*
X158496000Y-97178500D03*
X158496000Y-95353500D03*
D12*
X158496000Y-92456000D03*
%TD*%
D10*
%TO.C,R2*%
X152908000Y-74676000D03*
D26*
X152908000Y-71778500D03*
X152908000Y-69953500D03*
D12*
X152908000Y-67056000D03*
%TD*%
M02*
