M48
; DRILL file {KiCad 7.0.1} date Sun May 14 01:33:22 2023
; FORMAT={-:-/ absolute / inch / decimal}
; #@! TF.CreationDate,2023-05-14T01:33:22+09:00
; #@! TF.GenerationSoftware,Kicad,Pcbnew,7.0.1
; #@! TF.FileFunction,NonPlated,1,2,NPTH
FMAT,2
INCH
; #@! TA.AperFunction,NonPlated,NPTH,ComponentDrill
T1C0.0197
; #@! TA.AperFunction,NonPlated,NPTH,ComponentDrill
T2C0.0236
; #@! TA.AperFunction,NonPlated,NPTH,ComponentDrill
T3C0.0315
%
G90
G05
T1
X6.7496Y-0.9843
X6.7496Y-4.403
X6.7824Y-0.9843
X6.7824Y-4.403
X6.8152Y-0.9843
X6.8152Y-4.403
X6.9104Y-1.7159
X6.9104Y-1.7504
X6.9104Y-1.7848
X6.9104Y-1.8193
X6.9104Y-1.8537
X6.9104Y-1.8881
X6.9104Y-1.9226
X6.9104Y-3.4646
X6.9104Y-3.4991
X6.9104Y-3.5335
X6.9104Y-3.568
X6.9104Y-3.6024
X6.9104Y-3.6369
X6.9104Y-3.6713
X6.9202Y-0.8136
X6.9202Y-0.8465
X6.9202Y-0.8793
X6.9202Y-4.508
X6.9202Y-4.5408
X6.9202Y-4.5736
X8.1644Y-0.9744
X8.1644Y-2.6641
X8.1644Y-2.7231
X8.1644Y-4.4128
X8.1988Y-0.9744
X8.1988Y-2.6641
X8.1988Y-2.7231
X8.1988Y-4.4128
X8.2333Y-0.9744
X8.2333Y-2.6641
X8.2333Y-2.7231
X8.2333Y-4.4128
X8.2677Y-0.9744
X8.2677Y-2.6641
X8.2677Y-2.7231
X8.2677Y-4.4128
X8.3022Y-0.9744
X8.3022Y-2.6641
X8.3022Y-2.7231
X8.3022Y-4.4128
X8.3366Y-0.9744
X8.3366Y-2.6641
X8.3366Y-2.7231
X8.3366Y-4.4128
X8.3711Y-0.9744
X8.3711Y-2.6641
X8.3711Y-2.7231
X8.3711Y-4.4128
X9.6152Y-0.8136
X9.6152Y-0.8465
X9.6152Y-0.8793
X9.6152Y-4.508
X9.6152Y-4.5408
X9.6152Y-4.5736
X9.6251Y-1.7159
X9.6251Y-1.7504
X9.6251Y-1.7848
X9.6251Y-1.8193
X9.6251Y-1.8537
X9.6251Y-1.8881
X9.6251Y-1.9226
X9.6251Y-3.4646
X9.6251Y-3.4991
X9.6251Y-3.5335
X9.6251Y-3.568
X9.6251Y-3.6024
X9.6251Y-3.6369
X9.6251Y-3.6713
X9.7202Y-0.9843
X9.7202Y-4.403
X9.753Y-0.9843
X9.753Y-4.403
X9.7858Y-0.9843
X9.7858Y-4.403
T2
X8.2877Y-1.6117
X8.2877Y-2.0117
X8.2877Y-3.3605
X8.2877Y-3.7605
T3
X8.5877Y-1.6117
X8.5877Y-3.3605
X8.6877Y-2.0117
X8.6877Y-3.7605
X8.7877Y-2.0117
X8.7877Y-3.7605
X8.9877Y-2.0117
X8.9877Y-3.7605
X9.0877Y-2.0117
X9.0877Y-3.7605
X9.1877Y-2.0117
X9.1877Y-3.7605
T0
M30
