M48
; DRILL file {KiCad 7.0.1} date Sun May 14 01:33:22 2023
; FORMAT={-:-/ absolute / inch / decimal}
; #@! TF.CreationDate,2023-05-14T01:33:22+09:00
; #@! TF.GenerationSoftware,Kicad,Pcbnew,7.0.1
; #@! TF.FileFunction,Plated,1,2,PTH
FMAT,2
INCH
; #@! TA.AperFunction,Plated,PTH,ViaDrill
T1C0.0157
; #@! TA.AperFunction,Plated,PTH,ComponentDrill
T2C0.0295
; #@! TA.AperFunction,Plated,PTH,ComponentDrill
T3C0.0315
; #@! TA.AperFunction,Plated,PTH,ComponentDrill
T4C0.0394
%
G90
G05
T1
X7.0452Y-1.8943
X7.0452Y-3.643
X7.5252Y-2.1143
X7.5252Y-3.863
X7.6302Y-2.0093
X7.6302Y-3.758
X7.8752Y-1.1543
X7.8752Y-2.903
X7.9552Y-1.4093
X7.9552Y-3.158
X8.0052Y-2.1393
X8.0052Y-3.888
X8.0352Y-1.9043
X8.0352Y-3.653
X8.1952Y-1.4443
X8.1952Y-3.193
X8.3252Y-1.1793
X8.3252Y-1.4443
X8.3252Y-2.928
X8.3252Y-3.193
X8.3852Y-2.5843
X8.3852Y-4.333
X8.6252Y-1.8243
X8.6252Y-3.573
X8.8452Y-2.4843
X8.8452Y-4.233
X9.0052Y-1.8243
X9.0052Y-3.573
X9.4552Y-1.2343
X9.4552Y-1.8243
X9.4552Y-2.3743
X9.4552Y-2.983
X9.4552Y-3.573
X9.4552Y-4.123
T2
X7.4131Y-1.0893
X7.4131Y-1.1893
X7.4131Y-1.2893
X7.4131Y-1.3893
X7.4131Y-1.4893
X7.4131Y-1.5893
X7.4131Y-1.6893
X7.4131Y-1.7893
X7.4131Y-1.8893
X7.4131Y-2.838
X7.4131Y-2.938
X7.4131Y-3.038
X7.4131Y-3.138
X7.4131Y-3.238
X7.4131Y-3.338
X7.4131Y-3.438
X7.4131Y-3.538
X7.4131Y-3.638
X7.7131Y-1.0893
X7.7131Y-1.1893
X7.7131Y-1.2893
X7.7131Y-1.3893
X7.7131Y-1.4893
X7.7131Y-1.5893
X7.7131Y-1.6893
X7.7131Y-1.7893
X7.7131Y-1.8893
X7.7131Y-2.838
X7.7131Y-2.938
X7.7131Y-3.038
X7.7131Y-3.138
X7.7131Y-3.238
X7.7131Y-3.338
X7.7131Y-3.438
X7.7131Y-3.538
X7.7131Y-3.638
T3
X7.5552Y-2.2478
X7.5552Y-2.5478
X7.5552Y-3.9965
X7.5552Y-4.2965
X7.6552Y-2.2478
X7.6552Y-2.5478
X7.6552Y-3.9965
X7.6552Y-4.2965
X7.7552Y-2.2478
X7.7552Y-2.5478
X7.7552Y-3.9965
X7.7552Y-4.2965
X7.8552Y-2.2478
X7.8552Y-2.5478
X7.8552Y-3.9965
X7.8552Y-4.2965
X7.9552Y-2.2478
X7.9552Y-2.5478
X7.9552Y-3.9965
X7.9552Y-4.2965
X8.0552Y-2.2478
X8.0552Y-2.5478
X8.0552Y-3.9965
X8.0552Y-4.2965
X8.1552Y-2.2478
X8.1552Y-2.5478
X8.1552Y-3.9965
X8.1552Y-4.2965
X8.1877Y-1.6117
X8.1877Y-2.0117
X8.1877Y-3.3605
X8.1877Y-3.7605
X8.2552Y-2.2478
X8.2552Y-2.5478
X8.2552Y-3.9965
X8.2552Y-4.2965
X8.3877Y-1.6117
X8.3877Y-2.0117
X8.3877Y-3.3605
X8.3877Y-3.7605
X8.4652Y-1.1543
X8.4652Y-1.4543
X8.4652Y-2.903
X8.4652Y-3.203
X8.4877Y-1.6117
X8.4877Y-2.0117
X8.4877Y-3.3605
X8.4877Y-3.7605
X8.5502Y-2.1543
X8.5502Y-2.4543
X8.5502Y-3.903
X8.5502Y-4.203
X8.5877Y-2.0117
X8.5877Y-3.7605
X8.6352Y-1.1543
X8.6352Y-1.4543
X8.6352Y-2.903
X8.6352Y-3.203
X8.6877Y-1.6117
X8.6877Y-3.3605
X8.7052Y-2.1543
X8.7052Y-2.4543
X8.7052Y-3.903
X8.7052Y-4.203
X8.7852Y-1.1543
X8.7852Y-1.4543
X8.7852Y-2.903
X8.7852Y-3.203
X8.7877Y-1.6117
X8.7877Y-3.3605
X8.8877Y-1.6117
X8.8877Y-2.0117
X8.8877Y-3.3605
X8.8877Y-3.7605
X8.9352Y-1.1543
X8.9352Y-1.4543
X8.9352Y-2.903
X8.9352Y-3.203
X8.9877Y-1.6117
X8.9877Y-3.3605
X9.0052Y-2.1543
X9.0052Y-2.4543
X9.0052Y-3.903
X9.0052Y-4.203
X9.0752Y-1.1543
X9.0752Y-1.4543
X9.0752Y-2.903
X9.0752Y-3.203
X9.0877Y-1.6117
X9.0877Y-3.3605
X9.1877Y-1.6117
X9.1877Y-3.3605
T4
X7.0784Y-3.7624
X7.0784Y-3.8624
X7.0784Y-3.9624
X7.0784Y-4.0624
X7.0784Y-4.1624
X7.0784Y-4.2624
X7.0808Y-2.8624
X7.0808Y-2.9624
X7.0808Y-3.0624
X7.0808Y-3.1624
X7.0808Y-3.2624
X7.0808Y-3.3624
X7.0832Y-2.0124
X7.0832Y-2.1124
X7.0832Y-2.2124
X7.0832Y-2.3124
X7.0832Y-2.4124
X7.0832Y-2.5124
X7.0834Y-1.1124
X7.0834Y-1.2124
X7.0834Y-1.3124
X7.0834Y-1.4124
X7.0834Y-1.5124
X7.0834Y-1.6124
X7.1784Y-3.7624
X7.1784Y-3.8624
X7.1784Y-3.9624
X7.1784Y-4.0624
X7.1784Y-4.1624
X7.1784Y-4.2624
X7.1808Y-2.8624
X7.1808Y-2.9624
X7.1808Y-3.0624
X7.1808Y-3.1624
X7.1808Y-3.2624
X7.1808Y-3.3624
X7.1832Y-2.0124
X7.1832Y-2.1124
X7.1832Y-2.2124
X7.1832Y-2.3124
X7.1832Y-2.4124
X7.1832Y-2.5124
X7.1834Y-1.1124
X7.1834Y-1.2124
X7.1834Y-1.3124
X7.1834Y-1.4124
X7.1834Y-1.5124
X7.1834Y-1.6124
T0
M30
