%TF.GenerationSoftware,KiCad,Pcbnew,7.0.1*%
%TF.CreationDate,2023-05-14T01:33:17+09:00*%
%TF.ProjectId,___,62d8512e-6b69-4636-9164-5f7063625858,rev?*%
%TF.SameCoordinates,Original*%
%TF.FileFunction,Profile,NP*%
%FSLAX46Y46*%
G04 Gerber Fmt 4.6, Leading zero omitted, Abs format (unit mm)*
G04 Created by KiCad (PCBNEW 7.0.1) date 2023-05-14 01:33:17*
%MOMM*%
%LPD*%
G01*
G04 APERTURE LIST*
%TA.AperFunction,Profile*%
%ADD10C,0.100000*%
%TD*%
G04 APERTURE END LIST*
D10*
X206797380Y-69375368D02*
X206750549Y-69388328D01*
X170869824Y-112811151D02*
X170869919Y-112811632D01*
X174173759Y-113641173D02*
X174135452Y-113611278D01*
X246150788Y-116450252D02*
X246151011Y-116450150D01*
X207305173Y-113435740D02*
X207275278Y-113474047D01*
X244704328Y-20023474D02*
X244238757Y-20000602D01*
X207060012Y-113669152D02*
X207018960Y-113695148D01*
X249202144Y-112325811D02*
X249203010Y-112314072D01*
X170774102Y-111848257D02*
X170796974Y-112313828D01*
X175783309Y-25000057D02*
X175782818Y-25000081D01*
X244749818Y-48825900D02*
X244793221Y-48804053D01*
X206888855Y-111911362D02*
X206933278Y-111931053D01*
X245570019Y-93184874D02*
X245615355Y-93202362D01*
X207489281Y-23844737D02*
X207495229Y-23892963D01*
X245970039Y-87801841D02*
X245936533Y-87837033D01*
X207498804Y-112894576D02*
X207495229Y-112943036D01*
X245216622Y-43709000D02*
X245167923Y-43707804D01*
X247388804Y-21127785D02*
X247388609Y-21127637D01*
X246151011Y-20385849D02*
X246150788Y-20385747D01*
X175773500Y-111823727D02*
X175773503Y-111823972D01*
X245826240Y-43514173D02*
X245786512Y-43542152D01*
X174333981Y-116623683D02*
X174786143Y-116736944D01*
X245333536Y-23004770D02*
X245381762Y-23010718D01*
X175162355Y-88051637D02*
X175117019Y-88069125D01*
X175773797Y-67410136D02*
X175773916Y-67410612D01*
X245864547Y-87902278D02*
X245826240Y-87932173D01*
X213392963Y-23004770D02*
X213441423Y-23001195D01*
X245381762Y-93137718D02*
X245429638Y-93146025D01*
X246168625Y-49365480D02*
X246183868Y-49411619D01*
X212694826Y-67818259D02*
X212724721Y-67779952D01*
X213296861Y-69398974D02*
X213249450Y-69388328D01*
X245477049Y-43679328D02*
X245429638Y-43689974D01*
X212575362Y-68029144D02*
X212595053Y-67984721D01*
X173890400Y-23523318D02*
X173914351Y-23481039D01*
X170992852Y-113298746D02*
X170992932Y-113298978D01*
X175762781Y-93971737D02*
X175768729Y-94019963D01*
X246109599Y-113312681D02*
X246085648Y-113354960D01*
X245786512Y-48875847D02*
X245826240Y-48903826D01*
X245689478Y-20219432D02*
X245689246Y-20219352D01*
X171908527Y-21828416D02*
X171901285Y-21837695D01*
X245213856Y-20099055D02*
X245213617Y-20098998D01*
X206750549Y-23029671D02*
X206797380Y-23042631D01*
X175773503Y-67405972D02*
X175773557Y-67408190D01*
X236862436Y-67415564D02*
X236862820Y-67415237D01*
X244343400Y-87603681D02*
X244321553Y-87560278D01*
X175774059Y-111829082D02*
X175774224Y-111829544D01*
X248083310Y-21818940D02*
X247770275Y-21473559D01*
X172246879Y-21456391D02*
X172238354Y-21464507D01*
X171150053Y-113738092D02*
X171154289Y-113749073D01*
X212616900Y-113312681D02*
X212595053Y-113269278D01*
X175773500Y-42718877D02*
X175772304Y-42767576D01*
X175162355Y-48784362D02*
X175206778Y-48804053D01*
X207404946Y-67984721D02*
X207424637Y-68029144D01*
X174029960Y-43383841D02*
X173998221Y-43347047D01*
X247752940Y-115379775D02*
X247753120Y-115379608D01*
X212504770Y-112943036D02*
X212501195Y-112894576D01*
X248840650Y-113760511D02*
X248840752Y-113760288D01*
X246128362Y-20376467D02*
X245689478Y-20219432D01*
X246215781Y-87282262D02*
X246207474Y-87330138D01*
X213023318Y-111952900D02*
X213066721Y-111931053D01*
X175070880Y-48751631D02*
X175117019Y-48766874D01*
X245570019Y-113778125D02*
X245523880Y-113793368D01*
X244284374Y-93783480D02*
X244301862Y-93738144D01*
X172601916Y-115700972D02*
X172611195Y-115708214D01*
X174714923Y-93128195D02*
X174763622Y-93127000D01*
X246183868Y-23702619D02*
X246196828Y-23749450D01*
X173006175Y-20836342D02*
X173005966Y-20836471D01*
X174429980Y-113778125D02*
X174384644Y-113760637D01*
X244226500Y-42718877D02*
X244226500Y-32759670D01*
X174786143Y-20099055D02*
X174333981Y-20212316D01*
X174098658Y-93383460D02*
X174135452Y-93351721D01*
X175780417Y-67417440D02*
X175780887Y-67417583D01*
X248091472Y-115007583D02*
X248098714Y-114998304D01*
X173940347Y-113396012D02*
X173914351Y-113354960D01*
X213441423Y-67419195D02*
X213490122Y-67418000D01*
X173890400Y-43185681D02*
X173868553Y-43142278D01*
X245615355Y-48784362D02*
X245659778Y-48804053D01*
X207470328Y-113086549D02*
X207457368Y-113133380D01*
X212500000Y-23990122D02*
X212500000Y-23990122D01*
X170872555Y-24012643D02*
X170872498Y-24012882D01*
X212616900Y-23523318D02*
X212640851Y-23481039D01*
X236848149Y-67417996D02*
X236856397Y-67417788D01*
X175656599Y-49232318D02*
X175678446Y-49275721D01*
X174618237Y-93137718D02*
X174666463Y-93131770D01*
X175773916Y-67410612D02*
X175774059Y-67411082D01*
X212501195Y-112777423D02*
X212504770Y-112728963D01*
X212825158Y-113579539D02*
X212789966Y-113546033D01*
X173868553Y-43142278D02*
X173848862Y-43097855D01*
X245745460Y-113695148D02*
X245703181Y-113719099D01*
X175517039Y-49034158D02*
X175548778Y-49070952D01*
X246196828Y-23749450D02*
X246207474Y-23796861D01*
X173868553Y-93693721D02*
X173890400Y-93650318D01*
X170796989Y-24521927D02*
X170796974Y-24522171D01*
X244226309Y-104148644D02*
X244226497Y-104140796D01*
X175775982Y-25003522D02*
X175775670Y-25003902D01*
X175785527Y-20000003D02*
X175761487Y-20000593D01*
X212666847Y-67857987D02*
X212694826Y-67818259D01*
X207480974Y-68621138D02*
X207470328Y-68668549D01*
X212595053Y-112402721D02*
X212616900Y-112359318D01*
X244421326Y-43308740D02*
X244393347Y-43269012D01*
X175775105Y-67413295D02*
X175775378Y-67413703D01*
X248091161Y-21828036D02*
X248083473Y-21819124D01*
X175779955Y-67417275D02*
X175780417Y-67417440D01*
X207275278Y-67779952D02*
X207305173Y-67818259D01*
X207275278Y-23361952D02*
X207305173Y-23400259D01*
X175206778Y-48804053D02*
X175250181Y-48825900D01*
X171609971Y-114603533D02*
X171616268Y-114613478D01*
X172995613Y-20843041D02*
X172985990Y-20849818D01*
X175448341Y-48965460D02*
X175483533Y-48998966D01*
X245202132Y-116739580D02*
X245213617Y-116737001D01*
X206933278Y-113740946D02*
X206888855Y-113760637D01*
X170985878Y-113275756D02*
X170989018Y-113287100D01*
X175783309Y-67417942D02*
X175785527Y-67417996D01*
X175772304Y-87185576D02*
X175768729Y-87234036D01*
X246168625Y-23656480D02*
X246183868Y-23702619D01*
X175773557Y-111826190D02*
X175773581Y-111826681D01*
X245666018Y-20212316D02*
X245213856Y-20099055D01*
X245523880Y-23042631D02*
X245570019Y-23057874D01*
X174333981Y-20212316D02*
X174333743Y-20212378D01*
X175483533Y-48998966D02*
X175517039Y-49034158D01*
X171370202Y-114203510D02*
X171609842Y-114603324D01*
X171901137Y-21837890D02*
X171623462Y-22212291D01*
X248083473Y-21819124D02*
X248083310Y-21818940D01*
X213066721Y-23095053D02*
X213111144Y-23075362D01*
X175785527Y-69418003D02*
X175783309Y-69418057D01*
X174618237Y-48719718D02*
X174666463Y-48713770D01*
X170989160Y-23548430D02*
X170989018Y-23548899D01*
X213023318Y-23116900D02*
X213066721Y-23095053D01*
X173940347Y-49148987D02*
X173968326Y-49109259D01*
X244237218Y-87282262D02*
X244231270Y-87234036D01*
X246151011Y-116450150D02*
X246572389Y-116250853D01*
X206655262Y-113825281D02*
X206607036Y-113831229D01*
X236861745Y-25001904D02*
X236861344Y-25001646D01*
X175715625Y-93783480D02*
X175730868Y-93829619D01*
X172238354Y-115371492D02*
X172246879Y-115379608D01*
X206843519Y-69360125D02*
X206797380Y-69375368D01*
X207138047Y-112060721D02*
X207174841Y-112092460D01*
X236856846Y-25000205D02*
X236856370Y-25000182D01*
X173968326Y-43308740D02*
X173940347Y-43269012D01*
X170989018Y-23548899D02*
X170985878Y-23560243D01*
X248629920Y-114203298D02*
X248635722Y-114193056D01*
X244226500Y-94117122D02*
X244227695Y-94068423D01*
X174135452Y-113611278D02*
X174098658Y-113579539D01*
X212510718Y-24155262D02*
X212504770Y-24107036D01*
X245703181Y-43592099D02*
X245659778Y-43613946D01*
X174880536Y-88122229D02*
X174832076Y-88125804D01*
X170992932Y-113298978D02*
X171149967Y-113737862D01*
X175578673Y-87726740D02*
X175548778Y-87765047D01*
X236857401Y-67417712D02*
X236857900Y-67417636D01*
X244929119Y-48751631D02*
X244975950Y-48738671D01*
X244225834Y-104151460D02*
X244225969Y-104151002D01*
X212789966Y-23289966D02*
X212825158Y-23256460D01*
X175776311Y-69421159D02*
X175775982Y-69421522D01*
X246207474Y-87330138D02*
X246196828Y-87377549D01*
X249226500Y-25012272D02*
X249226496Y-25012027D01*
X175773500Y-67405727D02*
X175773503Y-67405972D01*
X244226279Y-32750828D02*
X244226253Y-32750322D01*
X206509877Y-113836000D02*
X174763622Y-113836000D01*
X246207474Y-93923861D02*
X246215781Y-93971737D01*
X172247059Y-21456224D02*
X172246879Y-21456391D01*
X244226286Y-104149121D02*
X244226309Y-104148644D01*
X207174841Y-112092460D02*
X207210033Y-112125966D01*
X173940347Y-93566987D02*
X173968326Y-93527259D01*
X212616900Y-67941318D02*
X212640851Y-67899039D01*
X173773500Y-94117122D02*
X173774695Y-94068423D01*
X207359148Y-23481039D02*
X207383099Y-23523318D01*
X175333512Y-87960152D02*
X175292460Y-87986148D01*
X175743828Y-42959549D02*
X175730868Y-43006380D01*
X212939987Y-67584847D02*
X212981039Y-67558851D01*
X175283199Y-116811596D02*
X175283688Y-116811644D01*
X175250181Y-43592099D02*
X175206778Y-43613946D01*
X206843519Y-111893874D02*
X206888855Y-111911362D01*
X174666463Y-43704229D02*
X174618237Y-43698281D01*
X249202096Y-112326300D02*
X249202144Y-112325811D01*
X174296818Y-88010099D02*
X174254539Y-87986148D01*
X246221729Y-49601963D02*
X246225304Y-49650423D01*
X213202619Y-113793368D02*
X213156480Y-113778125D01*
X212666847Y-112275987D02*
X212694826Y-112236259D01*
X171623462Y-114623708D02*
X171901137Y-114998109D01*
X244218235Y-104161121D02*
X244218398Y-104160946D01*
X244225677Y-59733912D02*
X244225834Y-59733460D01*
X172985791Y-20849962D02*
X172611390Y-21127637D01*
X175775378Y-67413703D02*
X175775670Y-67414097D01*
X175773500Y-94117122D02*
X175773500Y-111823727D01*
X236861622Y-67416158D02*
X236862037Y-67415871D01*
X245190054Y-116741688D02*
X245201651Y-116739675D01*
X245381762Y-48719718D02*
X245429638Y-48728025D01*
X175772304Y-42767576D02*
X175768729Y-42816036D01*
X213156480Y-24942125D02*
X213111144Y-24924637D01*
X249203025Y-112313828D02*
X249225897Y-111848257D01*
X245864547Y-48933721D02*
X245901341Y-48965460D01*
X173773500Y-23990122D02*
X173774695Y-23941423D01*
X206703138Y-24980974D02*
X206655262Y-24989281D01*
X174173759Y-43514173D02*
X174135452Y-43484278D01*
X173416876Y-116245453D02*
X173427389Y-116250745D01*
X245429638Y-43689974D02*
X245381762Y-43698281D01*
X245523880Y-48751631D02*
X245570019Y-48766874D01*
X213202619Y-69375368D02*
X213156480Y-69360125D01*
X248641353Y-114181889D02*
X248840650Y-113760511D01*
X245023361Y-48728025D02*
X245071237Y-48719718D01*
X174063466Y-93416966D02*
X174098658Y-93383460D01*
X212529671Y-24250549D02*
X212519025Y-24203138D01*
X175606652Y-43269012D02*
X175578673Y-43308740D01*
X173427389Y-20585254D02*
X173416876Y-20590546D01*
X213111144Y-111911362D02*
X213156480Y-111893874D01*
X244227695Y-42767576D02*
X244226500Y-42718877D01*
X236857793Y-25000319D02*
X236857321Y-25000251D01*
X206750549Y-69388328D02*
X206703138Y-69398974D01*
X170989160Y-113287569D02*
X170992852Y-113298746D01*
X174570361Y-113816974D02*
X174522950Y-113806328D01*
X213111144Y-113760637D02*
X213066721Y-113740946D01*
X173914351Y-43227960D02*
X173890400Y-43185681D01*
X212519025Y-68621138D02*
X212510718Y-68573262D01*
X212640851Y-23481039D02*
X212666847Y-23439987D01*
X174340221Y-93222053D02*
X174384644Y-93202362D01*
X174340221Y-48804053D02*
X174384644Y-48784362D01*
X246207474Y-42912138D02*
X246196828Y-42959549D01*
X212756460Y-113510841D02*
X212724721Y-113474047D01*
X246583123Y-20590546D02*
X246572610Y-20585254D01*
X245167923Y-88125804D02*
X245119463Y-88122229D01*
X246225304Y-49650423D02*
X246226500Y-49699122D01*
X244238512Y-116835406D02*
X244238757Y-116835397D01*
X245901341Y-93383460D02*
X245936533Y-93416966D01*
X245936533Y-43419033D02*
X245901341Y-43452539D01*
X206976681Y-67534900D02*
X207018960Y-67558851D01*
X174714923Y-43707804D02*
X174666463Y-43704229D01*
X244225080Y-59735213D02*
X244225300Y-59734789D01*
X175780887Y-69418416D02*
X175780417Y-69418559D01*
X212756460Y-23325158D02*
X212789966Y-23289966D01*
X171623318Y-114623509D02*
X171623462Y-114623708D01*
X207359148Y-113354960D02*
X207333152Y-113396012D01*
X236848578Y-69418000D02*
X213490122Y-69418000D01*
X245381762Y-43698281D02*
X245333536Y-43704229D01*
X207333152Y-24560012D02*
X207305173Y-24599740D01*
X212504770Y-68310963D02*
X212510718Y-68262737D01*
X246059652Y-49148987D02*
X246085648Y-49190039D01*
X171908838Y-115007963D02*
X171916526Y-115016875D01*
X244837644Y-43633637D02*
X244793221Y-43613946D01*
X174832076Y-48710195D02*
X174880536Y-48713770D01*
X247407375Y-21143026D02*
X247398463Y-21135338D01*
X206558576Y-24998804D02*
X206509877Y-25000000D01*
X174029960Y-87801841D02*
X173998221Y-87765047D01*
X247388804Y-115708214D02*
X247398083Y-115700972D01*
X175781844Y-69418201D02*
X175781363Y-69418297D01*
X173803171Y-87377549D02*
X173792525Y-87330138D01*
X207495229Y-24107036D02*
X207489281Y-24155262D01*
X246221729Y-42816036D02*
X246215781Y-42864262D01*
X244238757Y-20000602D02*
X244238512Y-20000593D01*
X244343400Y-49232318D02*
X244367351Y-49190039D01*
X236860508Y-25001188D02*
X236860075Y-25000990D01*
X244393347Y-93566987D02*
X244421326Y-93527259D01*
X245429638Y-93146025D02*
X245477049Y-93156671D01*
X175775670Y-25003902D02*
X175775378Y-25004296D01*
X245236377Y-88127000D02*
X245216622Y-88127000D01*
X245970039Y-49034158D02*
X246001778Y-49070952D01*
X175785527Y-116835996D02*
X175785772Y-116836000D01*
X207489281Y-24155262D02*
X207480974Y-24203138D01*
X174797867Y-116739580D02*
X174798348Y-116739675D01*
X244269131Y-43006380D02*
X244256171Y-42959549D01*
X207457368Y-23702619D02*
X207470328Y-23749450D01*
X244728482Y-116810155D02*
X244728725Y-116810122D01*
X175774412Y-111829997D02*
X175774622Y-111830441D01*
X245970039Y-43383841D02*
X245936533Y-43419033D01*
X170797855Y-24510188D02*
X170796989Y-24521927D01*
X171358754Y-22653889D02*
X171358646Y-22654110D01*
X212510718Y-112680737D02*
X212519025Y-112632861D01*
X175678446Y-87560278D02*
X175656599Y-87603681D01*
X213296861Y-111855025D02*
X213344737Y-111846718D01*
X174763622Y-23000000D02*
X206509877Y-23000000D01*
X212542631Y-23702619D02*
X212557874Y-23656480D01*
X249132227Y-112799311D02*
X249200622Y-112338225D01*
X246109599Y-49232318D02*
X246131446Y-49275721D01*
X244224582Y-104154028D02*
X244224841Y-104153626D01*
X175373240Y-43514173D02*
X175333512Y-43542152D01*
X212595053Y-68851278D02*
X212575362Y-68806855D01*
X246226500Y-87136877D02*
X246225304Y-87185576D01*
X245936533Y-23289966D02*
X245970039Y-23325158D01*
X175774224Y-69424455D02*
X175774059Y-69424917D01*
X172611195Y-21127785D02*
X172601916Y-21135027D01*
X206509877Y-25000000D02*
X175785772Y-25000000D01*
X174429980Y-23057874D02*
X174476119Y-23042631D01*
X175778625Y-67416646D02*
X175779058Y-67416877D01*
X245285076Y-113834804D02*
X245236377Y-113836000D01*
X175773581Y-69427318D02*
X175773557Y-69427809D01*
X246594010Y-116239297D02*
X246993824Y-115999657D01*
X174618237Y-23010718D02*
X174666463Y-23004770D01*
X245333536Y-48713770D02*
X245381762Y-48719718D01*
X244301862Y-87515855D02*
X244284374Y-87470519D01*
X174063466Y-48998966D02*
X174098658Y-48965460D01*
X175483533Y-93416966D02*
X175517039Y-93452158D01*
X175292460Y-93267851D02*
X175333512Y-93293847D01*
X213249450Y-67447671D02*
X213296861Y-67437025D01*
X174173759Y-48903826D02*
X174213487Y-48875847D01*
X246226500Y-112845877D02*
X246225304Y-112894576D01*
X247398463Y-21135338D02*
X247398083Y-21135027D01*
X244626759Y-48903826D02*
X244666487Y-48875847D01*
X245745460Y-93267851D02*
X245786512Y-93293847D01*
X175730868Y-87424380D02*
X175715625Y-87470519D01*
X174098658Y-43452539D02*
X174063466Y-43419033D01*
X244224631Y-32745578D02*
X244224341Y-32745162D01*
X212595053Y-67984721D02*
X212616900Y-67941318D01*
X175773581Y-67408681D02*
X175773629Y-67409169D01*
X244343400Y-43185681D02*
X244321553Y-43142278D01*
X206933278Y-67513053D02*
X206976681Y-67534900D01*
X174809945Y-20094311D02*
X174798348Y-20096324D01*
X175773797Y-111828136D02*
X175773916Y-111828612D01*
X173868553Y-113269278D02*
X173848862Y-113224855D01*
X173848988Y-20385849D02*
X173427610Y-20585146D01*
X249007067Y-113298978D02*
X249007147Y-113298746D01*
X171623462Y-22212291D02*
X171623318Y-22212490D01*
X172995613Y-115992958D02*
X172996021Y-115993231D01*
X174798348Y-116739675D02*
X174809945Y-116741688D01*
X206843519Y-24942125D02*
X206797380Y-24957368D01*
X212542631Y-24297380D02*
X212529671Y-24250549D01*
X174798348Y-20096324D02*
X174797867Y-20096419D01*
X175774412Y-69424002D02*
X175774224Y-69424455D01*
X244225300Y-104152789D02*
X244225499Y-104152355D01*
X244224341Y-77163162D02*
X244224031Y-77162761D01*
X244975950Y-43679328D02*
X244929119Y-43666368D01*
X244214472Y-116835996D02*
X244238512Y-116835406D01*
X244793221Y-43613946D02*
X244749818Y-43592099D01*
X207495229Y-112728963D02*
X207498804Y-112777423D01*
X207383099Y-113312681D02*
X207359148Y-113354960D01*
X172229891Y-21473379D02*
X172229724Y-21473559D01*
X249132188Y-112799554D02*
X249132227Y-112799311D01*
X173774695Y-42767576D02*
X173773500Y-42718877D01*
X206558576Y-111837195D02*
X206607036Y-111840770D01*
X171159247Y-23075711D02*
X171154477Y-23086472D01*
X212694826Y-112236259D02*
X212724721Y-112197952D01*
X172996021Y-115993231D02*
X173005966Y-115999528D01*
X247004386Y-20843041D02*
X247003978Y-20842768D01*
X246183868Y-49411619D02*
X246196828Y-49458450D01*
X207500000Y-68408122D02*
X207500000Y-68427877D01*
X248840650Y-23075488D02*
X248641353Y-22654110D01*
X212529671Y-68167450D02*
X212542631Y-68120619D01*
X244704572Y-116812510D02*
X244716311Y-116811644D01*
X171916526Y-115016875D02*
X171916689Y-115017059D01*
X244975950Y-88097328D02*
X244929119Y-88084368D01*
X171916689Y-115017059D02*
X172229724Y-115362440D01*
X174783377Y-43709000D02*
X174763622Y-43709000D01*
X245677600Y-116620481D02*
X245678069Y-116620339D01*
X173816131Y-43006380D02*
X173803171Y-42959549D01*
X244666487Y-87960152D02*
X244626759Y-87932173D01*
X174063466Y-87837033D02*
X174029960Y-87801841D01*
X236869221Y-111826902D02*
X244218235Y-104161121D01*
X173848862Y-113224855D02*
X173831374Y-113179519D01*
X175768729Y-42816036D02*
X175762781Y-42864262D01*
X171358646Y-114181889D02*
X171358754Y-114182110D01*
X175762781Y-42864262D02*
X175754474Y-42912138D01*
X245615355Y-23075362D02*
X245659778Y-23095053D01*
X244975950Y-93156671D02*
X245023361Y-93146025D01*
X244666487Y-93293847D02*
X244707539Y-93267851D01*
X248845710Y-23086926D02*
X248845522Y-23086472D01*
X175785772Y-20000000D02*
X175785527Y-20000003D01*
X174570361Y-23019025D02*
X174618237Y-23010718D01*
X175271517Y-116810155D02*
X175283199Y-116811596D01*
X207060012Y-67584847D02*
X207099740Y-67612826D01*
X236859182Y-69418656D02*
X236858724Y-69418522D01*
X175776311Y-67414840D02*
X175776659Y-67415188D01*
X172985791Y-115986037D02*
X172985990Y-115986181D01*
X212939987Y-24833152D02*
X212900259Y-24805173D01*
X244301862Y-93738144D02*
X244321553Y-93693721D01*
X245570019Y-23057874D02*
X245615355Y-23075362D01*
X244749818Y-43592099D02*
X244707539Y-43568148D01*
X173773500Y-42718877D02*
X173773500Y-23990122D01*
X207305173Y-23400259D02*
X207333152Y-23439987D01*
X249203010Y-112314072D02*
X249203025Y-112313828D01*
X174296818Y-23116900D02*
X174340221Y-23095053D01*
X246059652Y-23439987D02*
X246085648Y-23481039D01*
X246059652Y-113396012D02*
X246031673Y-113435740D01*
X207138047Y-69193278D02*
X207099740Y-69223173D01*
X213111144Y-24924637D02*
X213066721Y-24904946D01*
X244716311Y-20024355D02*
X244704572Y-20023489D01*
X172592624Y-21143026D02*
X172592440Y-21143189D01*
X212666847Y-68978012D02*
X212640851Y-68936960D01*
X213156480Y-69360125D02*
X213111144Y-69342637D01*
X171159349Y-113760511D02*
X171358646Y-114181889D01*
X248083310Y-115017059D02*
X248083473Y-115016875D01*
X212575362Y-113224855D02*
X212557874Y-113179519D01*
X174928762Y-93137718D02*
X174976638Y-93146025D01*
X244225969Y-59733002D02*
X244226082Y-59732538D01*
X246994033Y-115999528D02*
X247003978Y-115993231D01*
X173914351Y-49190039D02*
X173940347Y-49148987D01*
X213202619Y-24957368D02*
X213156480Y-24942125D01*
X207498804Y-68359423D02*
X207500000Y-68408122D01*
X175698137Y-93738144D02*
X175715625Y-93783480D01*
X174476119Y-23042631D02*
X174522950Y-23029671D01*
X212724721Y-67779952D02*
X212756460Y-67743158D01*
X247398463Y-115700661D02*
X247407375Y-115692973D01*
X207404946Y-23566721D02*
X207424637Y-23611144D01*
X175295671Y-116812525D02*
X175761242Y-116835397D01*
X174809945Y-116741688D02*
X174810188Y-116741727D01*
X245477049Y-48738671D02*
X245523880Y-48751631D01*
X245477049Y-88097328D02*
X245429638Y-88107974D01*
X174476119Y-48751631D02*
X174522950Y-48738671D01*
X248091161Y-115007963D02*
X248091472Y-115007583D01*
X206655262Y-111846718D02*
X206703138Y-111855025D01*
X246001778Y-23361952D02*
X246031673Y-23400259D01*
X245659778Y-93222053D02*
X245703181Y-93243900D01*
X173792525Y-93923861D02*
X173803171Y-93876450D01*
X245970039Y-113510841D02*
X245936533Y-113546033D01*
X244231270Y-87234036D02*
X244227695Y-87185576D01*
X175117019Y-43651125D02*
X175070880Y-43666368D01*
X212981039Y-24859148D02*
X212939987Y-24833152D01*
X245236377Y-113836000D02*
X213490122Y-113836000D01*
X173803171Y-42959549D02*
X173792525Y-42912138D01*
X245285076Y-48710195D02*
X245333536Y-48713770D01*
X175774853Y-67412874D02*
X175775105Y-67413295D01*
X171159247Y-113760288D02*
X171159349Y-113760511D01*
X244245525Y-93923861D02*
X244256171Y-93876450D01*
X212694826Y-24599740D02*
X212666847Y-24560012D01*
X236858724Y-69418522D02*
X236858261Y-69418409D01*
X175785772Y-116836000D02*
X244214227Y-116836000D01*
X249202144Y-24510188D02*
X249202096Y-24509699D01*
X173860426Y-20380789D02*
X173859972Y-20380977D01*
X174173759Y-23194826D02*
X174213487Y-23166847D01*
X213344737Y-69407281D02*
X213296861Y-69398974D01*
X174928762Y-88116281D02*
X174880536Y-88122229D01*
X246128592Y-20376553D02*
X246128362Y-20376467D01*
X212861952Y-69193278D02*
X212825158Y-69161539D01*
X212825158Y-23256460D02*
X212861952Y-23224721D01*
X170773500Y-25012272D02*
X170773500Y-111823727D01*
X212789966Y-113546033D02*
X212756460Y-113510841D01*
X170797855Y-112325811D02*
X170797903Y-112326300D01*
X173849211Y-20385747D02*
X173848988Y-20385849D01*
X175271274Y-116810122D02*
X175271517Y-116810155D01*
X236860075Y-25000990D02*
X236859632Y-25000812D01*
X244749818Y-88010099D02*
X244707539Y-87986148D01*
X174522950Y-48738671D02*
X174570361Y-48728025D01*
X244217941Y-77156003D02*
X244217769Y-77155817D01*
X245216622Y-48709000D02*
X245236377Y-48709000D01*
X173005966Y-20836471D02*
X172996021Y-20842768D01*
X244269131Y-49411619D02*
X244284374Y-49365480D01*
X175773500Y-25012272D02*
X175773500Y-42718877D01*
X173831374Y-43052519D02*
X173816131Y-43006380D01*
X175373240Y-87932173D02*
X175333512Y-87960152D01*
X246031673Y-23400259D02*
X246059652Y-23439987D01*
X207359148Y-67899039D02*
X207383099Y-67941318D01*
X245213856Y-116736944D02*
X245666018Y-116623683D01*
X174296818Y-43592099D02*
X174254539Y-43568148D01*
X174098658Y-23256460D02*
X174135452Y-23224721D01*
X236861194Y-67416423D02*
X236861622Y-67416158D01*
X247003978Y-20842768D02*
X246994033Y-20836471D01*
X245167923Y-93128195D02*
X245216622Y-93127000D01*
X175778204Y-69419605D02*
X175777796Y-69419878D01*
X207018960Y-24859148D02*
X206976681Y-24883099D01*
X207404946Y-24433278D02*
X207383099Y-24476681D01*
X207495229Y-112943036D02*
X207489281Y-112991262D01*
X173868553Y-87560278D02*
X173848862Y-87515855D01*
X175779058Y-25001122D02*
X175778625Y-25001353D01*
X246059652Y-43269012D02*
X246031673Y-43308740D01*
X244626759Y-93321826D02*
X244666487Y-93293847D01*
X245333536Y-93131770D02*
X245381762Y-93137718D01*
X175776659Y-69420811D02*
X175776311Y-69421159D01*
X173774695Y-94068423D02*
X173778270Y-94019963D01*
X174322399Y-116620481D02*
X174333743Y-116623621D01*
X245119463Y-48713770D02*
X245167923Y-48710195D01*
X207210033Y-69128033D02*
X207174841Y-69161539D01*
X245703181Y-48825900D02*
X245745460Y-48849851D01*
X248850032Y-23098137D02*
X248849946Y-23097907D01*
X246207474Y-49505861D02*
X246215781Y-49553737D01*
X206888855Y-24924637D02*
X206843519Y-24942125D01*
X249225897Y-24987742D02*
X249203025Y-24522171D01*
X236861344Y-69419646D02*
X236860932Y-69419407D01*
X212939987Y-113669152D02*
X212900259Y-113641173D01*
X212861952Y-24775278D02*
X212825158Y-24743539D01*
X246994033Y-20836471D02*
X246993824Y-20836342D01*
X246151137Y-43097855D02*
X246131446Y-43142278D01*
X175777022Y-69420482D02*
X175776659Y-69420811D01*
X207018960Y-69277148D02*
X206976681Y-69301099D01*
X172601916Y-21135027D02*
X172601536Y-21135338D01*
X207500000Y-24009877D02*
X207498804Y-24058576D01*
X174786382Y-116737001D02*
X174797867Y-116739580D01*
X245615355Y-93202362D02*
X245659778Y-93222053D01*
X248840752Y-23075711D02*
X248840650Y-23075488D01*
X173940347Y-87687012D02*
X173914351Y-87645960D01*
X247407375Y-115692973D02*
X247407559Y-115692810D01*
X236860299Y-67416888D02*
X236860752Y-67416667D01*
X175333512Y-93293847D02*
X175373240Y-93321826D01*
X245071237Y-43698281D02*
X245023361Y-43689974D01*
X246031673Y-49109259D02*
X246059652Y-49148987D01*
X246215781Y-23844737D02*
X246221729Y-23892963D01*
X244367351Y-93608039D02*
X244393347Y-93566987D01*
X244269131Y-93829619D02*
X244284374Y-93783480D01*
X171370079Y-114203298D02*
X171370202Y-114203510D01*
X206607036Y-111840770D02*
X206655262Y-111846718D01*
X174322399Y-20215518D02*
X174321930Y-20215660D01*
X244588452Y-93351721D02*
X244626759Y-93321826D01*
X175773503Y-69430027D02*
X175773500Y-69430272D01*
X246031673Y-87726740D02*
X246001778Y-87765047D01*
X244218235Y-59743121D02*
X244218398Y-59742946D01*
X174333743Y-116623621D02*
X174333981Y-116623683D01*
X244224341Y-32745162D02*
X244224031Y-32744761D01*
X174135452Y-93351721D02*
X174173759Y-93321826D01*
X249226496Y-111823972D02*
X249226500Y-111823727D01*
X212575362Y-24388855D02*
X212557874Y-24343519D01*
X207099740Y-112030826D02*
X207138047Y-112060721D01*
X175777402Y-69420170D02*
X175777022Y-69420482D01*
X213344737Y-111846718D02*
X213392963Y-111840770D01*
X249127501Y-24012882D02*
X249127444Y-24012643D01*
X244301862Y-49320144D02*
X244321553Y-49275721D01*
X212981039Y-113695148D02*
X212939987Y-113669152D01*
X175761487Y-116835406D02*
X175785527Y-116835996D01*
X244551658Y-87870539D02*
X244516466Y-87837033D01*
X249202096Y-24509699D02*
X249200655Y-24498017D01*
X175775670Y-67414097D02*
X175775982Y-67414477D01*
X245071237Y-88116281D02*
X245023361Y-88107974D01*
X244225368Y-77164906D02*
X244225145Y-77164451D01*
X175411547Y-48933721D02*
X175448341Y-48965460D01*
X246140027Y-20380977D02*
X246139573Y-20380789D01*
X212510718Y-112991262D02*
X212504770Y-112943036D01*
X212557874Y-113179519D02*
X212542631Y-113133380D01*
X249130175Y-112811151D02*
X249132188Y-112799554D01*
X206888855Y-67493362D02*
X206933278Y-67513053D01*
X244226202Y-32749818D02*
X244226125Y-32749317D01*
X212900259Y-24805173D02*
X212861952Y-24775278D01*
X245477049Y-93156671D02*
X245523880Y-93169631D01*
X206509877Y-23000000D02*
X206558576Y-23001195D01*
X245201651Y-116739675D02*
X245202132Y-116739580D01*
X246001778Y-43347047D02*
X245970039Y-43383841D01*
X246226500Y-23990122D02*
X246226500Y-42718877D01*
X212939987Y-112002847D02*
X212981039Y-111976851D01*
X175774853Y-69423125D02*
X175774622Y-69423558D01*
X244226253Y-77168322D02*
X244226202Y-77167818D01*
X213344737Y-24989281D02*
X213296861Y-24980974D01*
X249200622Y-112338225D02*
X249200655Y-112337982D01*
X245213617Y-20098998D02*
X245202132Y-20096419D01*
X175250181Y-48825900D02*
X175292460Y-48849851D01*
X175776311Y-25003159D02*
X175775982Y-25003522D01*
X246109599Y-43185681D02*
X246085648Y-43227960D01*
X173005966Y-115999528D02*
X173006175Y-115999657D01*
X174476119Y-113793368D02*
X174429980Y-113778125D01*
X170797903Y-24509699D02*
X170797855Y-24510188D01*
X212694826Y-69017740D02*
X212666847Y-68978012D01*
X244238512Y-20000593D02*
X244214472Y-20000003D01*
X175656599Y-43185681D02*
X175632648Y-43227960D01*
X175775105Y-111831295D02*
X175775378Y-111831703D01*
X213156480Y-113778125D02*
X213111144Y-113760637D01*
X213392963Y-111840770D02*
X213441423Y-111837195D01*
X207498804Y-23941423D02*
X207500000Y-23990122D01*
X248376537Y-114623708D02*
X248376681Y-114623509D01*
X244551658Y-48965460D02*
X244588452Y-48933721D01*
X213392963Y-24995229D02*
X213344737Y-24989281D01*
X236860075Y-69418990D02*
X236859632Y-69418812D01*
X245703181Y-88010099D02*
X245659778Y-88031946D01*
X207489281Y-68573262D02*
X207480974Y-68621138D01*
X247770275Y-21473559D02*
X247770108Y-21473379D01*
X246221729Y-112943036D02*
X246215781Y-112991262D01*
X175782818Y-67417918D02*
X175783309Y-67417942D01*
X175774622Y-69423558D02*
X175774412Y-69424002D01*
X174783377Y-88127000D02*
X174763622Y-88127000D01*
X207480974Y-112632861D02*
X207489281Y-112680737D01*
X174714923Y-48710195D02*
X174763622Y-48709000D01*
X175295671Y-20023474D02*
X175295427Y-20023489D01*
X244975950Y-48738671D02*
X245023361Y-48728025D01*
X175024049Y-88097328D02*
X174976638Y-88107974D01*
X244226241Y-104149596D02*
X244226286Y-104149121D01*
X236848578Y-25000000D02*
X213490122Y-25000000D01*
X248635722Y-114193056D02*
X248635953Y-114192623D01*
X175781363Y-111835702D02*
X175781844Y-111835798D01*
X245659778Y-113740946D02*
X245615355Y-113760637D01*
X249225897Y-111848257D02*
X249225906Y-111848012D01*
X244837644Y-88051637D02*
X244793221Y-88031946D01*
X174310521Y-20219432D02*
X173871637Y-20376467D01*
X212529671Y-68668549D02*
X212519025Y-68621138D01*
X212666847Y-23439987D02*
X212694826Y-23400259D01*
X213066721Y-69322946D02*
X213023318Y-69301099D01*
X244793221Y-88031946D02*
X244749818Y-88010099D01*
X246221729Y-23892963D02*
X246225304Y-23941423D01*
X212501195Y-68476576D02*
X212500000Y-68427877D01*
X174340221Y-23095053D02*
X174384644Y-23075362D01*
X175754474Y-49505861D02*
X175762781Y-49553737D01*
X207480974Y-113039138D02*
X207470328Y-113086549D01*
X175774622Y-25005558D02*
X175774412Y-25006002D01*
X244793221Y-93222053D02*
X244837644Y-93202362D01*
X207424637Y-68806855D02*
X207404946Y-68851278D01*
X207457368Y-68120619D02*
X207470328Y-68167450D01*
X173778270Y-23892963D02*
X173784218Y-23844737D01*
X244626759Y-43514173D02*
X244588452Y-43484278D01*
X172246879Y-115379608D02*
X172247059Y-115379775D01*
X245703181Y-93243900D02*
X245745460Y-93267851D01*
X207333152Y-67857987D02*
X207359148Y-67899039D01*
X212694826Y-113435740D02*
X212666847Y-113396012D01*
X246594010Y-20596702D02*
X246593798Y-20596579D01*
X236860932Y-25001407D02*
X236860508Y-25001188D01*
X173831374Y-93783480D02*
X173848862Y-93738144D01*
X246001778Y-113474047D02*
X245970039Y-113510841D01*
X244716800Y-116811596D02*
X244728482Y-116810155D01*
X207383099Y-112359318D02*
X207404946Y-112402721D01*
X207243539Y-112161158D02*
X207275278Y-112197952D01*
X244321553Y-93693721D02*
X244343400Y-93650318D01*
X248849946Y-113738092D02*
X248850032Y-113737862D01*
X213344737Y-67428718D02*
X213392963Y-67422770D01*
X244226500Y-49699122D02*
X244227695Y-49650423D01*
X207333152Y-68978012D02*
X207305173Y-69017740D01*
X175775378Y-69422296D02*
X175775105Y-69422704D01*
X213441423Y-23001195D02*
X213490122Y-23000000D01*
X236863212Y-69421118D02*
X236862868Y-69420789D01*
X175698137Y-87515855D02*
X175678446Y-87560278D01*
X207060012Y-69251152D02*
X207018960Y-69277148D01*
X173792525Y-113039138D02*
X173784218Y-112991262D01*
X246593798Y-116239420D02*
X246594010Y-116239297D01*
X175698137Y-49320144D02*
X175715625Y-49365480D01*
X175070880Y-93169631D02*
X175117019Y-93184874D01*
X244226286Y-59731121D02*
X244226309Y-59730644D01*
X174254539Y-113695148D02*
X174213487Y-113669152D01*
X174522950Y-113806328D02*
X174476119Y-113793368D01*
X212900259Y-67612826D02*
X212939987Y-67584847D01*
X174928762Y-43698281D02*
X174880536Y-43704229D01*
X213490122Y-111836000D02*
X236847897Y-111836000D01*
X212595053Y-23566721D02*
X212616900Y-23523318D01*
X244237218Y-42864262D02*
X244231270Y-42816036D01*
X245936533Y-48998966D02*
X245970039Y-49034158D01*
X207210033Y-67707966D02*
X207243539Y-67743158D01*
X175785772Y-69418000D02*
X175785527Y-69418003D01*
X175773797Y-69425863D02*
X175773701Y-69426344D01*
X212616900Y-112359318D02*
X212640851Y-112317039D01*
X170799344Y-24498017D02*
X170797903Y-24509699D01*
X246572610Y-116250745D02*
X246583123Y-116245453D01*
X246139573Y-20380789D02*
X246128592Y-20376553D01*
X175632648Y-43227960D02*
X175606652Y-43269012D01*
X175772304Y-94068423D02*
X175773500Y-94117122D01*
X175773557Y-69427809D02*
X175773503Y-69430027D01*
X175773629Y-69426830D02*
X175773581Y-69427318D01*
X248840752Y-113760288D02*
X248845522Y-113749527D01*
X236862820Y-67415237D02*
X236863187Y-67414892D01*
X236861344Y-25001646D02*
X236860932Y-25001407D01*
X175776311Y-111832840D02*
X175776659Y-111833188D01*
X248383458Y-22222113D02*
X248376681Y-22212490D01*
X212519025Y-113039138D02*
X212510718Y-112991262D01*
X248635722Y-22642943D02*
X248629920Y-22632701D01*
X245786512Y-113669152D02*
X245745460Y-113695148D01*
X213156480Y-67475874D02*
X213202619Y-67460631D01*
X173890400Y-87603681D02*
X173868553Y-87560278D01*
X244226500Y-32759670D02*
X244226496Y-32759417D01*
X175761487Y-20000593D02*
X175761242Y-20000602D01*
X244393347Y-49148987D02*
X244421326Y-49109259D01*
X213066721Y-113740946D02*
X213023318Y-113719099D01*
X206703138Y-69398974D02*
X206655262Y-69407281D01*
X212981039Y-69277148D02*
X212939987Y-69251152D01*
X207424637Y-24388855D02*
X207404946Y-24433278D01*
X236863187Y-111832892D02*
X236869044Y-111827082D01*
X207275278Y-69056047D02*
X207243539Y-69092841D01*
X175754474Y-87330138D02*
X175743828Y-87377549D01*
X171154289Y-113749073D02*
X171154477Y-113749527D01*
X175774853Y-111830874D02*
X175775105Y-111831295D01*
X175448341Y-93383460D02*
X175483533Y-93416966D01*
X170989018Y-113287100D02*
X170989160Y-113287569D01*
X244707539Y-43568148D02*
X244666487Y-43542152D01*
X244226023Y-32748821D02*
X244225896Y-32748330D01*
X175754474Y-93923861D02*
X175762781Y-93971737D01*
X207333152Y-112275987D02*
X207359148Y-112317039D01*
X175781844Y-67417798D02*
X175782330Y-67417870D01*
X171159349Y-23075488D02*
X171159247Y-23075711D01*
X175578673Y-43308740D02*
X175548778Y-43347047D01*
X175743828Y-87377549D02*
X175730868Y-87424380D01*
X236868548Y-69426468D02*
X236863212Y-69421118D01*
X249132227Y-24036688D02*
X249132188Y-24036445D01*
X245189811Y-20094272D02*
X244728725Y-20025877D01*
X244224304Y-104154416D02*
X244224582Y-104154028D01*
X175777022Y-25002482D02*
X175776659Y-25002811D01*
X248635953Y-22643376D02*
X248635722Y-22642943D01*
X246131446Y-113269278D02*
X246109599Y-113312681D01*
X206703138Y-23019025D02*
X206750549Y-23029671D01*
X171364277Y-22642943D02*
X171364046Y-22643376D01*
X206655262Y-24989281D02*
X206607036Y-24995229D01*
X248845710Y-113749073D02*
X248849946Y-113738092D01*
X212640851Y-68936960D02*
X212616900Y-68894681D01*
X175292460Y-43568148D02*
X175250181Y-43592099D01*
X244367351Y-49190039D02*
X244393347Y-49148987D01*
X246183868Y-43006380D02*
X246168625Y-43052519D01*
X212519025Y-23796861D02*
X212529671Y-23749450D01*
X244256171Y-42959549D02*
X244245525Y-42912138D01*
X171364046Y-22643376D02*
X171358754Y-22653889D01*
X172592440Y-115692810D02*
X172592624Y-115692973D01*
X249014183Y-113275518D02*
X249127444Y-112823356D01*
X173914351Y-23481039D02*
X173940347Y-23439987D01*
X244451221Y-49070952D02*
X244482960Y-49034158D01*
X212756460Y-112161158D02*
X212789966Y-112125966D01*
X173871407Y-116459446D02*
X173871637Y-116459532D01*
X175777402Y-25002170D02*
X175777022Y-25002482D01*
X246168625Y-93783480D02*
X246183868Y-93829619D01*
X207404946Y-113269278D02*
X207383099Y-113312681D01*
X247388609Y-21127637D02*
X247014208Y-20849962D01*
X245901341Y-113579539D02*
X245864547Y-113611278D01*
X173792525Y-49505861D02*
X173803171Y-49458450D01*
X206558576Y-67419195D02*
X206607036Y-67422770D01*
X174173759Y-93321826D02*
X174213487Y-93293847D01*
X174810188Y-116741727D02*
X175271274Y-116810122D01*
X244321553Y-43142278D02*
X244301862Y-43097855D01*
X248635953Y-114192623D02*
X248641245Y-114182110D01*
X244929119Y-88084368D02*
X244882980Y-88069125D01*
X175656599Y-87603681D02*
X175632648Y-87645960D01*
X244226023Y-77166821D02*
X244225896Y-77166330D01*
X247004386Y-115992958D02*
X247014009Y-115986181D01*
X212789966Y-69128033D02*
X212756460Y-69092841D01*
X206933278Y-111931053D02*
X206976681Y-111952900D01*
X175411547Y-87902278D02*
X175373240Y-87932173D01*
X173784218Y-23844737D02*
X173792525Y-23796861D01*
X248383731Y-22222521D02*
X248383458Y-22222113D01*
X207210033Y-24710033D02*
X207174841Y-24743539D01*
X245666018Y-116623683D02*
X245666256Y-116623621D01*
X175774622Y-67412441D02*
X175774853Y-67412874D01*
X206843519Y-113778125D02*
X206797380Y-113793368D01*
X175779955Y-69418724D02*
X175779502Y-69418912D01*
X207243539Y-23325158D02*
X207275278Y-23361952D01*
X174296818Y-93243900D02*
X174340221Y-93222053D01*
X174098658Y-113579539D02*
X174063466Y-113546033D01*
X175774059Y-69424917D02*
X175773916Y-69425387D01*
X174429980Y-88069125D02*
X174384644Y-88051637D01*
X173860426Y-116455210D02*
X173871407Y-116459446D01*
X244225568Y-32747372D02*
X244225368Y-32746906D01*
X206607036Y-23004770D02*
X206655262Y-23010718D01*
X247388609Y-115708362D02*
X247388804Y-115708214D01*
X244225300Y-59734789D02*
X244225499Y-59734355D01*
X248098714Y-114998304D02*
X248098862Y-114998109D01*
X174714923Y-88125804D02*
X174666463Y-88122229D01*
X248383731Y-114613478D02*
X248390028Y-114603533D01*
X236857401Y-111835712D02*
X236857900Y-111835636D01*
X174384644Y-43633637D02*
X174340221Y-43613946D01*
X174880536Y-43704229D02*
X174832076Y-43707804D01*
X206797380Y-111878631D02*
X206843519Y-111893874D01*
X244218398Y-59742946D02*
X244223694Y-59737151D01*
X245190054Y-20094311D02*
X245189811Y-20094272D01*
X213066721Y-67513053D02*
X213111144Y-67493362D01*
X175333512Y-43542152D02*
X175292460Y-43568148D01*
X172611195Y-115708214D02*
X172611390Y-115708362D01*
X245119463Y-88122229D02*
X245071237Y-88116281D01*
X207018960Y-23140851D02*
X207060012Y-23166847D01*
X212501195Y-112894576D02*
X212500000Y-112845877D01*
X175774853Y-25005125D02*
X175774622Y-25005558D01*
X213490122Y-69418000D02*
X213490122Y-69418000D01*
X206607036Y-24995229D02*
X206558576Y-24998804D01*
X245236377Y-23000000D02*
X245285076Y-23001195D01*
X175772304Y-49650423D02*
X175773500Y-49699122D01*
X244224631Y-77163578D02*
X244224341Y-77163162D01*
X173998221Y-93488952D02*
X174029960Y-93452158D01*
X175117019Y-93184874D02*
X175162355Y-93202362D01*
X244225677Y-104151912D02*
X244225834Y-104151460D01*
X249130080Y-24024367D02*
X249127501Y-24012882D01*
X212575362Y-68806855D02*
X212557874Y-68761519D01*
X173998221Y-87765047D02*
X173968326Y-87726740D01*
X212542631Y-68120619D02*
X212557874Y-68074480D01*
X246196828Y-113086549D02*
X246183868Y-113133380D01*
X206933278Y-23095053D02*
X206976681Y-23116900D01*
X236861745Y-69419904D02*
X236861344Y-69419646D01*
X174763622Y-48709000D02*
X174783377Y-48709000D01*
X248845522Y-113749527D02*
X248845710Y-113749073D01*
X206888855Y-113760637D02*
X206843519Y-113778125D01*
X174310521Y-116616567D02*
X174310753Y-116616647D01*
X244237218Y-49553737D02*
X244245525Y-49505861D01*
X171901285Y-21837695D02*
X171901137Y-21837890D01*
X244882980Y-93184874D02*
X244929119Y-93169631D01*
X244224899Y-32746008D02*
X244224631Y-32745578D01*
X173803171Y-93876450D02*
X173816131Y-93829619D01*
X246150788Y-20385747D02*
X246140027Y-20380977D01*
X212510718Y-23844737D02*
X212519025Y-23796861D01*
X244588452Y-87902278D02*
X244551658Y-87870539D01*
X245216622Y-93127000D02*
X245236377Y-93127000D01*
X175283688Y-20024355D02*
X175283199Y-20024403D01*
X175779502Y-67417087D02*
X175779955Y-67417275D01*
X212666847Y-113396012D02*
X212640851Y-113354960D01*
X174321930Y-20215660D02*
X174310753Y-20219352D01*
X245659778Y-23095053D02*
X245703181Y-23116900D01*
X174135452Y-87902278D02*
X174098658Y-87870539D01*
X175117019Y-88069125D02*
X175070880Y-88084368D01*
X244367351Y-87645960D02*
X244343400Y-87603681D01*
X244224841Y-59735626D02*
X244225080Y-59735213D01*
X212756460Y-67743158D02*
X212789966Y-67707966D01*
X246183868Y-87424380D02*
X246168625Y-87470519D01*
X213490122Y-69418000D02*
X213441423Y-69416804D01*
X244226173Y-104150069D02*
X244226241Y-104149596D01*
X173405989Y-116239297D02*
X173406201Y-116239420D01*
X247753120Y-115379608D02*
X247761645Y-115371492D01*
X173831374Y-23656480D02*
X173848862Y-23611144D01*
X244223694Y-104155151D02*
X244224008Y-104154791D01*
X175283688Y-116811644D02*
X175295427Y-116812510D01*
X175785527Y-111835996D02*
X175785772Y-111836000D01*
X206797380Y-113793368D02*
X206750549Y-113806328D01*
X174296818Y-113719099D02*
X174254539Y-113695148D01*
X207442125Y-68761519D02*
X207424637Y-68806855D01*
X173848862Y-49320144D02*
X173868553Y-49275721D01*
X173778270Y-94019963D02*
X173784218Y-93971737D01*
X245570019Y-48766874D02*
X245615355Y-48784362D01*
X244224304Y-59736416D02*
X244224582Y-59736028D01*
X207424637Y-112447144D02*
X207442125Y-112492480D01*
X207404946Y-68851278D02*
X207383099Y-68894681D01*
X207359148Y-112317039D02*
X207383099Y-112359318D01*
X174666463Y-113831229D02*
X174618237Y-113825281D01*
X170796974Y-112313828D02*
X170796989Y-112314072D01*
X246151137Y-87515855D02*
X246131446Y-87560278D01*
X170872498Y-112823117D02*
X170872555Y-112823356D01*
X246215781Y-42864262D02*
X246207474Y-42912138D01*
X207210033Y-23289966D02*
X207243539Y-23325158D01*
X175777402Y-67415829D02*
X175777796Y-67416121D01*
X244224899Y-77164008D02*
X244224631Y-77163578D01*
X175782818Y-111835918D02*
X175783309Y-111835942D01*
X212640851Y-112317039D02*
X212666847Y-112275987D01*
X207404946Y-112402721D02*
X207424637Y-112447144D01*
X174098658Y-87870539D02*
X174063466Y-87837033D01*
X207099740Y-113641173D02*
X207060012Y-113669152D01*
X245213617Y-116737001D02*
X245213856Y-116736944D01*
X175777796Y-67416121D02*
X175778204Y-67416394D01*
X174786143Y-116736944D02*
X174786382Y-116737001D01*
X244224031Y-77162761D02*
X244223701Y-77162377D01*
X175024049Y-48738671D02*
X175070880Y-48751631D01*
X212900259Y-113641173D02*
X212861952Y-113611278D01*
X213249450Y-69388328D02*
X213202619Y-69375368D01*
X247770108Y-21473379D02*
X247761992Y-21464854D01*
X171616268Y-22222521D02*
X171609971Y-22232466D01*
X175775105Y-69422704D02*
X175774853Y-69423125D01*
X245429638Y-48728025D02*
X245477049Y-48738671D01*
X213249450Y-113806328D02*
X213202619Y-113793368D01*
X247761645Y-21464507D02*
X247753120Y-21456391D01*
X174254539Y-87986148D02*
X174213487Y-87960152D01*
X175715625Y-87470519D02*
X175698137Y-87515855D01*
X172229724Y-21473559D02*
X171916689Y-21818940D01*
X247398083Y-21135027D02*
X247388804Y-21127785D01*
X236860508Y-69419188D02*
X236860075Y-69418990D01*
X207060012Y-112002847D02*
X207099740Y-112030826D01*
X173774695Y-87185576D02*
X173773500Y-87136877D01*
X175781844Y-25000201D02*
X175781363Y-25000297D01*
X244231270Y-42816036D02*
X244227695Y-42767576D01*
X246226500Y-49699122D02*
X246226500Y-87136877D01*
X236860752Y-111834667D02*
X236861194Y-111834423D01*
X175606652Y-93566987D02*
X175632648Y-93608039D01*
X207305173Y-24599740D02*
X207275278Y-24638047D01*
X213344737Y-113825281D02*
X213296861Y-113816974D01*
X244284374Y-49365480D02*
X244301862Y-49320144D01*
X206750549Y-113806328D02*
X206703138Y-113816974D01*
X249010981Y-23548899D02*
X249010839Y-23548430D01*
X170867772Y-112799311D02*
X170867811Y-112799554D01*
X174213487Y-48875847D02*
X174254539Y-48849851D01*
X175782330Y-111835870D02*
X175782818Y-111835918D01*
X244226496Y-77177417D02*
X244226279Y-77168828D01*
X245285076Y-43707804D02*
X245236377Y-43709000D01*
X173427389Y-116250745D02*
X173427610Y-116250853D01*
X212640851Y-67899039D02*
X212666847Y-67857987D01*
X245936533Y-113546033D02*
X245901341Y-113579539D01*
X206750549Y-67447671D02*
X206797380Y-67460631D01*
X175754474Y-42912138D02*
X175743828Y-42959549D01*
X175743828Y-93876450D02*
X175754474Y-93923861D01*
X244367351Y-43227960D02*
X244343400Y-43185681D01*
X173406201Y-116239420D02*
X173416443Y-116245222D01*
X244223701Y-32744377D02*
X244217941Y-32738003D01*
X175292460Y-48849851D02*
X175333512Y-48875847D01*
X171616541Y-114613886D02*
X171623318Y-114623509D01*
X246131446Y-93693721D02*
X246151137Y-93738144D01*
X173416443Y-116245222D02*
X173416876Y-116245453D01*
X174384644Y-23075362D02*
X174429980Y-23057874D01*
X207138047Y-67642721D02*
X207174841Y-67674460D01*
X207500000Y-23990122D02*
X207500000Y-24009877D01*
X244837644Y-48784362D02*
X244882980Y-48766874D01*
X246151137Y-93738144D02*
X246168625Y-93783480D01*
X245119463Y-93131770D02*
X245167923Y-93128195D01*
X244226500Y-59722557D02*
X244226500Y-49699122D01*
X174063466Y-113546033D02*
X174029960Y-113510841D01*
X175782818Y-69418081D02*
X175782330Y-69418129D01*
X245429638Y-23019025D02*
X245477049Y-23029671D01*
X172611390Y-21127637D02*
X172611195Y-21127785D01*
X212900259Y-112030826D02*
X212939987Y-112002847D01*
X248091472Y-21828416D02*
X248091161Y-21828036D01*
X246140027Y-116455022D02*
X246150788Y-116450252D01*
X245523880Y-113793368D02*
X245477049Y-113806328D01*
X236859632Y-25000812D02*
X236859182Y-25000656D01*
X175785772Y-25000000D02*
X175785527Y-25000003D01*
X236848149Y-111835996D02*
X236856397Y-111835788D01*
X212504770Y-23892963D02*
X212510718Y-23844737D01*
X175206778Y-93222053D02*
X175250181Y-93243900D01*
X236868714Y-25008639D02*
X236868548Y-25008468D01*
X175773629Y-111827169D02*
X175773701Y-111827655D01*
X213023318Y-113719099D02*
X212981039Y-113695148D01*
X175775670Y-111832097D02*
X175775982Y-111832477D01*
X174476119Y-88084368D02*
X174429980Y-88069125D01*
X244516466Y-93416966D02*
X244551658Y-93383460D01*
X173778270Y-42816036D02*
X173774695Y-42767576D01*
X212542631Y-112538619D02*
X212557874Y-112492480D01*
X246168625Y-113179519D02*
X246151137Y-113224855D01*
X245826240Y-93321826D02*
X245864547Y-93351721D01*
X236857793Y-69418319D02*
X236857321Y-69418251D01*
X175780417Y-111835440D02*
X175780887Y-111835583D01*
X174976638Y-43689974D02*
X174928762Y-43698281D01*
X236869221Y-67408902D02*
X244218235Y-59743121D01*
X175250181Y-93243900D02*
X175292460Y-93267851D01*
X207018960Y-67558851D02*
X207060012Y-67584847D01*
X173859972Y-116455022D02*
X173860426Y-116455210D01*
X175773581Y-25009318D02*
X175773557Y-25009809D01*
X175778204Y-67416394D02*
X175778625Y-67416646D01*
X236861194Y-111834423D02*
X236861622Y-111834158D01*
X174333743Y-20212378D02*
X174322399Y-20215518D01*
X175773557Y-67408190D02*
X175773557Y-67408190D01*
X249226500Y-111823727D02*
X249226500Y-25012272D01*
X171901285Y-114998304D02*
X171908527Y-115007583D01*
X174429980Y-43651125D02*
X174384644Y-43633637D01*
X244226497Y-104140796D02*
X244226500Y-104140557D01*
X173784218Y-42864262D02*
X173778270Y-42816036D01*
X213296861Y-24980974D02*
X213249450Y-24970328D01*
X244226241Y-59731596D02*
X244226286Y-59731121D01*
X236856370Y-69418182D02*
X236848817Y-69418002D01*
X173968326Y-113435740D02*
X173940347Y-113396012D01*
X247014009Y-115986181D02*
X247014208Y-115986037D01*
X245659778Y-48804053D02*
X245703181Y-48825900D01*
X175070880Y-88084368D02*
X175024049Y-88097328D01*
X236860752Y-67416667D02*
X236861194Y-67416423D01*
X246993824Y-115999657D02*
X246994033Y-115999528D01*
X174783377Y-48709000D02*
X174832076Y-48710195D01*
X248098714Y-21837695D02*
X248091472Y-21828416D01*
X246085648Y-43227960D02*
X246059652Y-43269012D01*
X248376681Y-22212490D02*
X248376537Y-22212291D01*
X174296818Y-48825900D02*
X174340221Y-48804053D01*
X212595053Y-24433278D02*
X212575362Y-24388855D01*
X246572389Y-116250853D02*
X246572610Y-116250745D01*
X175775982Y-69421522D02*
X175775670Y-69421902D01*
X236862436Y-111833564D02*
X236862820Y-111833237D01*
X236858881Y-67417410D02*
X236859363Y-67417260D01*
X213392963Y-69413229D02*
X213344737Y-69407281D01*
X175762781Y-87282262D02*
X175754474Y-87330138D01*
X213202619Y-23042631D02*
X213249450Y-23029671D01*
X245333536Y-88122229D02*
X245285076Y-88125804D01*
X244245525Y-49505861D02*
X244256171Y-49458450D01*
X175698137Y-43097855D02*
X175678446Y-43142278D01*
X244882980Y-88069125D02*
X244837644Y-88051637D01*
X206655262Y-67428718D02*
X206703138Y-67437025D01*
X175779058Y-111834877D02*
X175779502Y-111835087D01*
X174429980Y-93184874D02*
X174476119Y-93169631D01*
X246183868Y-93829619D02*
X246196828Y-93876450D01*
X175678446Y-43142278D02*
X175656599Y-43185681D01*
X249010839Y-113287569D02*
X249010981Y-113287100D01*
X246059652Y-87687012D02*
X246031673Y-87726740D01*
X173890400Y-113312681D02*
X173868553Y-113269278D01*
X249007067Y-23537021D02*
X248850032Y-23098137D01*
X245189811Y-116741727D02*
X245190054Y-116741688D01*
X173998221Y-23361952D02*
X174029960Y-23325158D01*
X206703138Y-111855025D02*
X206750549Y-111865671D01*
X212939987Y-69251152D02*
X212900259Y-69223173D01*
X213111144Y-67493362D02*
X213156480Y-67475874D01*
X207174841Y-113579539D02*
X207138047Y-113611278D01*
X175773500Y-49699122D02*
X175773500Y-67405727D01*
X207305173Y-69017740D02*
X207275278Y-69056047D01*
X173427610Y-20585146D02*
X173427389Y-20585254D01*
X249127444Y-24012643D02*
X249014183Y-23560481D01*
X173859972Y-20380977D02*
X173849211Y-20385747D01*
X244284374Y-87470519D02*
X244269131Y-87424380D01*
X174666463Y-48713770D02*
X174714923Y-48710195D01*
X207174841Y-24743539D02*
X207138047Y-24775278D01*
X206976681Y-69301099D02*
X206933278Y-69322946D01*
X248629797Y-114203510D02*
X248629920Y-114203298D01*
X236862868Y-69420789D02*
X236862508Y-69420476D01*
X175448341Y-43452539D02*
X175411547Y-43484278D01*
X244224841Y-104153626D02*
X244225080Y-104153213D01*
X175483533Y-43419033D02*
X175448341Y-43452539D01*
X248849946Y-23097907D02*
X248845710Y-23086926D01*
X245786512Y-43542152D02*
X245745460Y-43568148D01*
X245615355Y-113760637D02*
X245570019Y-113778125D01*
X246151137Y-23611144D02*
X246168625Y-23656480D01*
X175783309Y-69418057D02*
X175782818Y-69418081D01*
X212557874Y-68074480D02*
X212575362Y-68029144D01*
X173848988Y-116450150D02*
X173849211Y-116450252D01*
X175632648Y-87645960D02*
X175606652Y-87687012D01*
X213156480Y-111893874D02*
X213202619Y-111878631D01*
X171358754Y-114182110D02*
X171364046Y-114192623D01*
X244707539Y-48849851D02*
X244749818Y-48825900D01*
X246031673Y-43308740D02*
X246001778Y-43347047D01*
X245901341Y-43452539D02*
X245864547Y-43484278D01*
X170773500Y-111823727D02*
X170773503Y-111823972D01*
X171609842Y-22232675D02*
X171370202Y-22632489D01*
X236860932Y-69419407D02*
X236860508Y-69419188D01*
X207424637Y-23611144D02*
X207442125Y-23656480D01*
X174384644Y-93202362D02*
X174429980Y-93184874D01*
X207383099Y-68894681D02*
X207359148Y-68936960D01*
X245970039Y-93452158D02*
X246001778Y-93488952D01*
X175773701Y-111827655D02*
X175773797Y-111828136D01*
X244217769Y-32737817D02*
X236868714Y-25008639D01*
X175779502Y-69418912D02*
X175779058Y-69419122D01*
X207275278Y-112197952D02*
X207305173Y-112236259D01*
X206509877Y-67418000D02*
X206558576Y-67419195D01*
X207498804Y-112777423D02*
X207500000Y-112826122D01*
X173792525Y-87330138D02*
X173784218Y-87282262D01*
X245381762Y-113825281D02*
X245333536Y-113831229D01*
X172229724Y-115362440D02*
X172229891Y-115362620D01*
X246085648Y-113354960D02*
X246059652Y-113396012D01*
X244588452Y-43484278D02*
X244551658Y-43452539D01*
X246151137Y-113224855D02*
X246131446Y-113269278D01*
X171149967Y-113737862D02*
X171150053Y-113738092D01*
X244245525Y-87330138D02*
X244237218Y-87282262D01*
X175517039Y-43383841D02*
X175483533Y-43419033D01*
X245936533Y-93416966D02*
X245970039Y-93452158D01*
X175773701Y-25008344D02*
X175773629Y-25008830D01*
X207174841Y-67674460D02*
X207210033Y-67707966D01*
X246215781Y-93971737D02*
X246221729Y-94019963D01*
X174618237Y-113825281D02*
X174570361Y-113816974D01*
X175250181Y-88010099D02*
X175206778Y-88031946D01*
X212575362Y-23611144D02*
X212595053Y-23566721D01*
X249200655Y-24498017D02*
X249200622Y-24497774D01*
X170867772Y-24036688D02*
X170799377Y-24497774D01*
X175783309Y-111835942D02*
X175785527Y-111835996D01*
X212519025Y-24203138D02*
X212510718Y-24155262D01*
X206843519Y-67475874D02*
X206888855Y-67493362D01*
X246168625Y-87470519D02*
X246151137Y-87515855D01*
X174429980Y-48766874D02*
X174476119Y-48751631D01*
X236859363Y-67417260D02*
X236859836Y-67417085D01*
X207359148Y-68936960D02*
X207333152Y-68978012D01*
X244225499Y-104152355D02*
X244225677Y-104151912D01*
X170867811Y-24036445D02*
X170867772Y-24036688D01*
X236869044Y-111827082D02*
X236869221Y-111826902D01*
X246226500Y-94117122D02*
X246226500Y-112845877D01*
X244217941Y-32738003D02*
X244217769Y-32737817D01*
X247014009Y-20849818D02*
X247004386Y-20843041D01*
X174522950Y-23029671D02*
X174570361Y-23019025D01*
X245167923Y-48710195D02*
X245216622Y-48709000D01*
X175632648Y-49190039D02*
X175656599Y-49232318D01*
X246109599Y-93650318D02*
X246131446Y-93693721D01*
X174254539Y-48849851D02*
X174296818Y-48825900D01*
X213490122Y-25000000D02*
X213441423Y-24998804D01*
X244227695Y-94068423D02*
X244231270Y-94019963D01*
X207138047Y-24775278D02*
X207099740Y-24805173D01*
X175548778Y-43347047D02*
X175517039Y-43383841D01*
X174570361Y-93146025D02*
X174618237Y-93137718D01*
X245786512Y-87960152D02*
X245745460Y-87986148D01*
X245236377Y-43709000D02*
X245216622Y-43709000D01*
X236859363Y-111835260D02*
X236859836Y-111835085D01*
X174570361Y-43689974D02*
X174522950Y-43679328D01*
X174340221Y-113740946D02*
X174296818Y-113719099D01*
X248390157Y-22232675D02*
X248390028Y-22232466D01*
X245236377Y-48709000D02*
X245285076Y-48710195D01*
X207383099Y-23523318D02*
X207404946Y-23566721D01*
X213296861Y-23019025D02*
X213344737Y-23010718D01*
X206797380Y-24957368D02*
X206750549Y-24970328D01*
X175411547Y-93351721D02*
X175448341Y-93383460D01*
X207442125Y-68074480D02*
X207457368Y-68120619D01*
X175656599Y-93650318D02*
X175678446Y-93693721D01*
X175730868Y-93829619D02*
X175743828Y-93876450D01*
X174213487Y-87960152D02*
X174173759Y-87932173D01*
X213441423Y-69416804D02*
X213392963Y-69413229D01*
X236856370Y-25000182D02*
X236848817Y-25000002D01*
X175773629Y-67409169D02*
X175773701Y-67409655D01*
X207442125Y-23656480D02*
X207457368Y-23702619D01*
X171150053Y-23097907D02*
X171149967Y-23098137D01*
X212595053Y-113269278D02*
X212575362Y-113224855D01*
X175070880Y-43666368D02*
X175024049Y-43679328D01*
X245666256Y-116623621D02*
X245677600Y-116620481D01*
X248083473Y-115016875D02*
X248091161Y-115007963D01*
X173816131Y-23702619D02*
X173831374Y-23656480D01*
X246221729Y-94019963D02*
X246225304Y-94068423D01*
X244284374Y-43052519D02*
X244269131Y-43006380D01*
X236862133Y-25002181D02*
X236861745Y-25001904D01*
X212640851Y-24518960D02*
X212616900Y-24476681D01*
X171370079Y-22632701D02*
X171364277Y-22642943D01*
X244321553Y-49275721D02*
X244343400Y-49232318D01*
X174384644Y-48784362D02*
X174429980Y-48766874D01*
X175778204Y-111834394D02*
X175778625Y-111834646D01*
X175162355Y-93202362D02*
X175206778Y-93222053D01*
X173784218Y-112991262D02*
X173778270Y-112943036D01*
X245689478Y-116616567D02*
X246128362Y-116459532D01*
X173914351Y-113354960D02*
X173890400Y-113312681D01*
X212542631Y-113133380D02*
X212529671Y-113086549D01*
X173914351Y-87645960D02*
X173890400Y-87603681D01*
X248383458Y-114613886D02*
X248383731Y-114613478D01*
X173816131Y-49411619D02*
X173831374Y-49365480D01*
X173773500Y-49699122D02*
X173774695Y-49650423D01*
X207018960Y-113695148D02*
X206976681Y-113719099D01*
X244482960Y-49034158D02*
X244516466Y-48998966D01*
X245429638Y-113816974D02*
X245381762Y-113825281D01*
X236862037Y-67415871D02*
X236862436Y-67415564D01*
X175768729Y-94019963D02*
X175772304Y-94068423D01*
X236859836Y-67417085D02*
X236860299Y-67416888D01*
X245285076Y-23001195D02*
X245333536Y-23004770D01*
X171916689Y-21818940D02*
X171916526Y-21819124D01*
X212825158Y-69161539D02*
X212789966Y-69128033D01*
X172247059Y-115379775D02*
X172592440Y-115692810D01*
X244225896Y-77166330D02*
X244225744Y-77165847D01*
X175548778Y-87765047D02*
X175517039Y-87801841D01*
X173416443Y-20590777D02*
X173406201Y-20596579D01*
X175768729Y-87234036D02*
X175762781Y-87282262D01*
X174254539Y-93267851D02*
X174296818Y-93243900D01*
X212789966Y-67707966D02*
X212825158Y-67674460D01*
X236857900Y-67417636D02*
X236858393Y-67417535D01*
X249127501Y-24012882D02*
X249127501Y-24012882D01*
X175780887Y-67417583D02*
X175781363Y-67417702D01*
X246109599Y-87603681D02*
X246085648Y-87645960D01*
X175779502Y-111835087D02*
X175779955Y-111835275D01*
X175775982Y-67414477D02*
X175776311Y-67414840D01*
X173792525Y-42912138D02*
X173784218Y-42864262D01*
X174810188Y-20094272D02*
X174809945Y-20094311D01*
X245071237Y-93137718D02*
X245119463Y-93131770D01*
X244749818Y-93243900D02*
X244793221Y-93222053D01*
X213249450Y-24970328D02*
X213202619Y-24957368D01*
X173405989Y-20596702D02*
X173006175Y-20836342D01*
X174098658Y-48965460D02*
X174135452Y-48933721D01*
X244223694Y-59737151D02*
X244224008Y-59736791D01*
X245236377Y-93127000D02*
X245285076Y-93128195D01*
X244224008Y-59736791D02*
X244224304Y-59736416D01*
X207099740Y-24805173D02*
X207060012Y-24833152D01*
X244793221Y-48804053D02*
X244837644Y-48784362D01*
X245703181Y-113719099D02*
X245659778Y-113740946D01*
X244226309Y-59730644D02*
X244226497Y-59722796D01*
X246215781Y-112991262D02*
X246207474Y-113039138D01*
X246572389Y-20585146D02*
X246151011Y-20385849D01*
X212825158Y-24743539D02*
X212789966Y-24710033D01*
X246109599Y-23523318D02*
X246131446Y-23566721D01*
X213023318Y-24883099D02*
X212981039Y-24859148D01*
X207243539Y-69092841D02*
X207210033Y-69128033D01*
X172611390Y-115708362D02*
X172985791Y-115986037D01*
X212640851Y-113354960D02*
X212616900Y-113312681D01*
X175773916Y-25007387D02*
X175773797Y-25007863D01*
X173914351Y-93608039D02*
X173940347Y-93566987D01*
X174029960Y-23325158D02*
X174063466Y-23289966D01*
X174029960Y-113510841D02*
X173998221Y-113474047D01*
X174832076Y-88125804D02*
X174783377Y-88127000D01*
X249014183Y-23560481D02*
X249014121Y-23560243D01*
X173773500Y-87136877D02*
X173773500Y-49699122D01*
X174384644Y-113760637D02*
X174340221Y-113740946D01*
X174476119Y-93169631D02*
X174522950Y-93156671D01*
X249007147Y-23537253D02*
X249007067Y-23537021D01*
X236858393Y-67417535D02*
X236858881Y-67417410D01*
X172601536Y-21135338D02*
X172592624Y-21143026D01*
X171358646Y-22654110D02*
X171159349Y-23075488D01*
X246151137Y-49320144D02*
X246168625Y-49365480D01*
X249203025Y-24522171D02*
X249203010Y-24521927D01*
X206558576Y-113834804D02*
X206509877Y-113836000D01*
X207424637Y-113224855D02*
X207404946Y-113269278D01*
X246085648Y-49190039D02*
X246109599Y-49232318D01*
X244421326Y-49109259D02*
X244451221Y-49070952D01*
X175774224Y-67411544D02*
X175774412Y-67411997D01*
X245381762Y-88116281D02*
X245333536Y-88122229D01*
X212529671Y-23749450D02*
X212542631Y-23702619D01*
X246196828Y-93876450D02*
X246207474Y-93923861D01*
X212724721Y-112197952D02*
X212756460Y-112161158D01*
X175780417Y-69418559D02*
X175779955Y-69418724D01*
X247753120Y-21456391D02*
X247752940Y-21456224D01*
X175730868Y-49411619D02*
X175743828Y-49458450D01*
X206750549Y-24970328D02*
X206703138Y-24980974D01*
X244237218Y-93971737D02*
X244245525Y-93923861D01*
X245659778Y-88031946D02*
X245615355Y-88051637D01*
X175779058Y-67416877D02*
X175779502Y-67417087D01*
X206797380Y-23042631D02*
X206843519Y-23057874D01*
X244225896Y-32748330D02*
X244225744Y-32747847D01*
X174976638Y-93146025D02*
X175024049Y-93156671D01*
X173890400Y-93650318D02*
X173914351Y-93608039D01*
X175779955Y-111835275D02*
X175780417Y-111835440D01*
X171154289Y-23086926D02*
X171150053Y-23097907D01*
X244929119Y-93169631D02*
X244975950Y-93156671D01*
X175773557Y-67408190D02*
X175773581Y-67408681D01*
X173778270Y-87234036D02*
X173774695Y-87185576D01*
X244728725Y-20025877D02*
X244728482Y-20025844D01*
X207243539Y-24674841D02*
X207210033Y-24710033D01*
X206558576Y-23001195D02*
X206607036Y-23004770D01*
X246225304Y-23941423D02*
X246226500Y-23990122D01*
X244225145Y-32746451D02*
X244224899Y-32746008D01*
X175778204Y-25001605D02*
X175777796Y-25001878D01*
X245523880Y-88084368D02*
X245477049Y-88097328D01*
X236856397Y-111835788D02*
X236856397Y-111835788D01*
X175333512Y-48875847D02*
X175373240Y-48903826D01*
X247014208Y-20849962D02*
X247014009Y-20849818D01*
X212500000Y-112826122D02*
X212501195Y-112777423D01*
X246031673Y-93527259D02*
X246059652Y-93566987D01*
X207060012Y-23166847D02*
X207099740Y-23194826D01*
X207498804Y-68476576D02*
X207495229Y-68525036D01*
X246225304Y-87185576D02*
X246221729Y-87234036D01*
X207489281Y-68262737D02*
X207495229Y-68310963D01*
X244225744Y-32747847D02*
X244225568Y-32747372D01*
X175373240Y-93321826D02*
X175411547Y-93351721D01*
X244626759Y-87932173D02*
X244588452Y-87902278D01*
X207210033Y-112125966D02*
X207243539Y-112161158D01*
X244256171Y-93876450D02*
X244269131Y-93829619D01*
X175773701Y-67409655D02*
X175773797Y-67410136D01*
X212500000Y-24009877D02*
X212500000Y-23990122D01*
X236847897Y-111836000D02*
X236848149Y-111835996D01*
X244837644Y-93202362D02*
X244882980Y-93184874D01*
X175778625Y-69419353D02*
X175778204Y-69419605D01*
X207495229Y-23892963D02*
X207498804Y-23941423D01*
X246583556Y-20590777D02*
X246583123Y-20590546D01*
X212861952Y-23224721D02*
X212900259Y-23194826D01*
X247398083Y-115700972D02*
X247398463Y-115700661D01*
X236858261Y-25000409D02*
X236857793Y-25000319D01*
X175024049Y-43679328D02*
X174976638Y-43689974D01*
X248376537Y-22212291D02*
X248098862Y-21837890D01*
X170774093Y-111848012D02*
X170774102Y-111848257D01*
X246225304Y-94068423D02*
X246226500Y-94117122D01*
X244225499Y-59734355D02*
X244225677Y-59733912D01*
X245864547Y-23224721D02*
X245901341Y-23256460D01*
X207500000Y-68427877D02*
X207498804Y-68476576D01*
X206976681Y-23116900D02*
X207018960Y-23140851D01*
X249007147Y-113298746D02*
X249010839Y-113287569D01*
X170869919Y-24024367D02*
X170869824Y-24024848D01*
X245666256Y-20212378D02*
X245666018Y-20212316D01*
X174135452Y-48933721D02*
X174173759Y-48903826D01*
X212519025Y-112632861D02*
X212529671Y-112585450D01*
X173816131Y-93829619D02*
X173831374Y-93783480D01*
X248641245Y-114182110D02*
X248641353Y-114181889D01*
X213066721Y-111931053D02*
X213111144Y-111911362D01*
X246031673Y-113435740D02*
X246001778Y-113474047D01*
X212500000Y-112845877D02*
X212500000Y-112826122D01*
X236859182Y-25000656D02*
X236858724Y-25000522D01*
X249127444Y-112823356D02*
X249127501Y-112823117D01*
X248098862Y-114998109D02*
X248376537Y-114623708D01*
X246139573Y-116455210D02*
X246140027Y-116455022D01*
X244226173Y-59732069D02*
X244226241Y-59731596D01*
X213441423Y-113834804D02*
X213392963Y-113831229D01*
X175117019Y-48766874D02*
X175162355Y-48784362D01*
X171370202Y-22632489D02*
X171370079Y-22632701D01*
X174832076Y-43707804D02*
X174783377Y-43709000D01*
X175768729Y-49601963D02*
X175772304Y-49650423D01*
X173968326Y-87726740D02*
X173940347Y-87687012D01*
X212694826Y-23400259D02*
X212724721Y-23361952D01*
X207489281Y-112991262D02*
X207480974Y-113039138D01*
X212789966Y-112125966D02*
X212825158Y-112092460D01*
X212500000Y-68427877D02*
X212500000Y-68408122D01*
X174880536Y-93131770D02*
X174928762Y-93137718D01*
X173998221Y-49070952D02*
X174029960Y-49034158D01*
X175776659Y-111833188D02*
X175777022Y-111833517D01*
X207470328Y-23749450D02*
X207480974Y-23796861D01*
X244226500Y-104140557D02*
X244226500Y-94117122D01*
X173998221Y-113474047D02*
X173968326Y-113435740D01*
X212557874Y-24343519D02*
X212542631Y-24297380D01*
X213296861Y-113816974D02*
X213249450Y-113806328D01*
X244421326Y-87726740D02*
X244393347Y-87687012D01*
X174763622Y-43709000D02*
X174714923Y-43707804D01*
X175778625Y-111834646D02*
X175779058Y-111834877D01*
X207174841Y-23256460D02*
X207210033Y-23289966D01*
X207470328Y-112585450D02*
X207480974Y-112632861D01*
X171623318Y-22212490D02*
X171616541Y-22222113D01*
X173778270Y-49601963D02*
X173784218Y-49553737D01*
X207018960Y-111976851D02*
X207060012Y-112002847D01*
X213023318Y-67534900D02*
X213066721Y-67513053D01*
X212504770Y-68525036D02*
X212501195Y-68476576D01*
X174976638Y-48728025D02*
X175024049Y-48738671D01*
X206976681Y-113719099D02*
X206933278Y-113740946D01*
X245023361Y-43689974D02*
X244975950Y-43679328D01*
X236862820Y-111833237D02*
X236863187Y-111832892D01*
X207138047Y-23224721D02*
X207174841Y-23256460D01*
X173871637Y-20376467D02*
X173871407Y-20376553D01*
X173416876Y-20590546D02*
X173416443Y-20590777D01*
X175448341Y-87870539D02*
X175411547Y-87902278D01*
X246572610Y-20585254D02*
X246572389Y-20585146D01*
X245864547Y-113611278D02*
X245826240Y-113641173D01*
X246225304Y-42767576D02*
X246221729Y-42816036D01*
X175775670Y-69421902D02*
X175775378Y-69422296D01*
X245285076Y-88125804D02*
X245236377Y-88127000D01*
X206976681Y-111952900D02*
X207018960Y-111976851D01*
X247407559Y-21143189D02*
X247407375Y-21143026D01*
X206797380Y-67460631D02*
X206843519Y-67475874D01*
X207383099Y-67941318D02*
X207404946Y-67984721D01*
X244217769Y-77155817D02*
X236868714Y-69426639D01*
X172601536Y-115700661D02*
X172601916Y-115700972D01*
X245970039Y-23325158D02*
X246001778Y-23361952D01*
X206703138Y-113816974D02*
X206655262Y-113825281D01*
X175773557Y-25009809D02*
X175773503Y-25012027D01*
X175780887Y-25000416D02*
X175780417Y-25000559D01*
X213392963Y-67422770D02*
X213441423Y-67419195D01*
X174763622Y-113836000D02*
X174763622Y-113836000D01*
X173940347Y-43269012D02*
X173914351Y-43227960D01*
X244421326Y-93527259D02*
X244451221Y-93488952D01*
X171149967Y-23098137D02*
X170992932Y-23537021D01*
X206888855Y-23075362D02*
X206933278Y-23095053D01*
X175632648Y-93608039D02*
X175656599Y-93650318D01*
X175785527Y-67417996D02*
X175785772Y-67418000D01*
X173784218Y-87282262D02*
X173778270Y-87234036D01*
X207333152Y-23439987D02*
X207359148Y-23481039D01*
X173784218Y-93971737D02*
X173792525Y-93923861D01*
X244226253Y-32750322D02*
X244226202Y-32749818D01*
X175678446Y-49275721D02*
X175698137Y-49320144D01*
X175775378Y-111831703D02*
X175775670Y-111832097D01*
X245786512Y-93293847D02*
X245826240Y-93321826D01*
X245864547Y-43484278D02*
X245826240Y-43514173D01*
X173803171Y-49458450D02*
X173816131Y-49411619D01*
X173848862Y-87515855D02*
X173831374Y-87470519D01*
X175548778Y-93488952D02*
X175578673Y-93527259D01*
X244226125Y-32749317D02*
X244226023Y-32748821D01*
X175773629Y-25008830D02*
X175773581Y-25009318D01*
X244231270Y-94019963D02*
X244237218Y-93971737D01*
X248641353Y-22654110D02*
X248641245Y-22653889D01*
X175761242Y-116835397D02*
X175761487Y-116835406D01*
X207480974Y-23796861D02*
X207489281Y-23844737D01*
X245167923Y-43707804D02*
X245119463Y-43704229D01*
X207305173Y-67818259D02*
X207333152Y-67857987D01*
X175785772Y-67418000D02*
X206509877Y-67418000D01*
X244707539Y-93267851D02*
X244749818Y-93243900D01*
X174063466Y-43419033D02*
X174029960Y-43383841D01*
X244227695Y-87185576D02*
X244226500Y-87136877D01*
X207275278Y-24638047D02*
X207243539Y-24674841D01*
X212900259Y-23194826D02*
X212939987Y-23166847D01*
X175777796Y-25001878D02*
X175777402Y-25002170D01*
X248845522Y-23086472D02*
X248840752Y-23075711D01*
X207489281Y-112680737D02*
X207495229Y-112728963D01*
X213441423Y-24998804D02*
X213392963Y-24995229D01*
X244224582Y-59736028D02*
X244224841Y-59735626D01*
X245678069Y-20215660D02*
X245677600Y-20215518D01*
X173773500Y-112845877D02*
X173773500Y-94117122D01*
X175483533Y-87837033D02*
X175448341Y-87870539D01*
X212504770Y-24107036D02*
X212501195Y-24058576D01*
X246131446Y-49275721D02*
X246151137Y-49320144D01*
X207210033Y-113546033D02*
X207174841Y-113579539D01*
X246001778Y-49070952D02*
X246031673Y-49109259D01*
X174213487Y-23166847D02*
X174254539Y-23140851D01*
X212616900Y-68894681D02*
X212595053Y-68851278D01*
X244214227Y-116836000D02*
X244214472Y-116835996D01*
X172238007Y-115371145D02*
X172238354Y-115371492D01*
X212756460Y-24674841D02*
X212724721Y-24638047D01*
X174063466Y-23289966D02*
X174098658Y-23256460D01*
X249200655Y-112337982D02*
X249202096Y-112326300D01*
X175782330Y-67417870D02*
X175782818Y-67417918D01*
X245678069Y-116620339D02*
X245689246Y-116616647D01*
X171616268Y-114613478D02*
X171616541Y-114613886D01*
X246225304Y-112894576D02*
X246221729Y-112943036D01*
X175773797Y-25007863D02*
X175773701Y-25008344D01*
X174880536Y-48713770D02*
X174928762Y-48719718D01*
X172996021Y-20842768D02*
X172995613Y-20843041D01*
X175295427Y-20023489D02*
X175283688Y-20024355D01*
X244226082Y-59732538D02*
X244226173Y-59732069D01*
X170869919Y-112811632D02*
X170872498Y-112823117D01*
X248641245Y-22653889D02*
X248635953Y-22643376D01*
X246131446Y-43142278D02*
X246109599Y-43185681D01*
X174384644Y-88051637D02*
X174340221Y-88031946D01*
X173871407Y-20376553D02*
X173860426Y-20380789D01*
X249203010Y-24521927D02*
X249202144Y-24510188D01*
X244728725Y-116810122D02*
X245189811Y-116741727D01*
X207243539Y-67743158D02*
X207275278Y-67779952D01*
X206509877Y-111836000D02*
X206558576Y-111837195D01*
X247014208Y-115986037D02*
X247388609Y-115708362D01*
X175411547Y-43484278D02*
X175373240Y-43514173D01*
X175779058Y-69419122D02*
X175778625Y-69419353D01*
X206888855Y-69342637D02*
X206843519Y-69360125D01*
X212789966Y-24710033D02*
X212756460Y-24674841D01*
X236858881Y-111835410D02*
X236859363Y-111835260D01*
X207099740Y-23194826D02*
X207138047Y-23224721D01*
X244451221Y-93488952D02*
X244482960Y-93452158D01*
X245745460Y-43568148D02*
X245703181Y-43592099D01*
X175761242Y-20000602D02*
X175295671Y-20023474D01*
X174213487Y-93293847D02*
X174254539Y-93267851D01*
X236861622Y-111834158D02*
X236862037Y-111833871D01*
X173968326Y-23400259D02*
X173998221Y-23361952D01*
X175779955Y-25000724D02*
X175779502Y-25000912D01*
X175774059Y-67411082D02*
X175774224Y-67411544D01*
X173816131Y-113133380D02*
X173803171Y-113086549D01*
X244238757Y-116835397D02*
X244704328Y-116812525D01*
X174029960Y-49034158D02*
X174063466Y-48998966D01*
X174340221Y-43613946D02*
X174296818Y-43592099D01*
X170774093Y-24987987D02*
X170773503Y-25012027D01*
X170992932Y-23537021D02*
X170992852Y-23537253D01*
X244226082Y-104150538D02*
X244226173Y-104150069D01*
X236863212Y-25003118D02*
X236862868Y-25002789D01*
X245745460Y-48849851D02*
X245786512Y-48875847D01*
X249010981Y-113287100D02*
X249014121Y-113275756D01*
X248098862Y-21837890D02*
X248098714Y-21837695D01*
X175715625Y-43052519D02*
X175698137Y-43097855D01*
X172238007Y-21464854D02*
X172229891Y-21473379D01*
X175773503Y-111823972D02*
X175773557Y-111826190D01*
X172985990Y-20849818D02*
X172985791Y-20849962D01*
X212575362Y-112447144D02*
X212595053Y-112402721D01*
X206655262Y-23010718D02*
X206703138Y-23019025D01*
X244256171Y-87377549D02*
X244245525Y-87330138D01*
X171908527Y-115007583D02*
X171908838Y-115007963D01*
X213344737Y-23010718D02*
X213392963Y-23004770D01*
X213490122Y-67418000D02*
X236847897Y-67418000D01*
X244482960Y-43383841D02*
X244451221Y-43347047D01*
X236847897Y-67418000D02*
X236848149Y-67417996D01*
X170985878Y-23560243D02*
X170985816Y-23560481D01*
X175782818Y-25000081D02*
X175782330Y-25000129D01*
X206558576Y-69416804D02*
X206509877Y-69418000D01*
X174763622Y-88127000D02*
X174714923Y-88125804D01*
X246226500Y-42718877D02*
X246225304Y-42767576D01*
X175777022Y-111833517D02*
X175777402Y-111833829D01*
X175781363Y-25000297D02*
X175780887Y-25000416D01*
X173774695Y-49650423D02*
X173778270Y-49601963D01*
X206976681Y-24883099D02*
X206933278Y-24904946D01*
X245703181Y-23116900D02*
X245745460Y-23140851D01*
X174763622Y-93127000D02*
X174783377Y-93127000D01*
X174714923Y-23001195D02*
X174763622Y-23000000D01*
X244225368Y-32746906D02*
X244225145Y-32746451D01*
X175206778Y-43613946D02*
X175162355Y-43633637D01*
X212981039Y-67558851D02*
X213023318Y-67534900D01*
X249226496Y-25012027D02*
X249225906Y-24987987D01*
X207480974Y-24203138D02*
X207470328Y-24250549D01*
X212529671Y-112585450D02*
X212542631Y-112538619D01*
X245071237Y-48719718D02*
X245119463Y-48713770D01*
X245477049Y-23029671D02*
X245523880Y-23042631D01*
X245826240Y-48903826D02*
X245864547Y-48933721D01*
X173792525Y-23796861D02*
X173803171Y-23749450D01*
X248390028Y-22232466D02*
X248383731Y-22222521D01*
X174618237Y-88116281D02*
X174570361Y-88107974D01*
X244226279Y-77168828D02*
X244226253Y-77168322D01*
X207457368Y-112538619D02*
X207470328Y-112585450D01*
X207500000Y-112826122D02*
X207500000Y-112845877D01*
X207099740Y-67612826D02*
X207138047Y-67642721D01*
X170872498Y-24012882D02*
X170869919Y-24024367D01*
X245689246Y-116616647D02*
X245689478Y-116616567D01*
X245216622Y-88127000D02*
X245167923Y-88125804D01*
X207275278Y-113474047D02*
X207243539Y-113510841D01*
X244225969Y-104151002D02*
X244226082Y-104150538D01*
X174522950Y-93156671D02*
X174570361Y-93146025D01*
X174321930Y-116620339D02*
X174322399Y-116620481D01*
X246583123Y-116245453D02*
X246583556Y-116245222D01*
X244321553Y-87560278D02*
X244301862Y-87515855D01*
X249014121Y-113275756D02*
X249014183Y-113275518D01*
X213202619Y-67460631D02*
X213249450Y-67447671D01*
X249127501Y-112823117D02*
X249130080Y-112811632D01*
X206655262Y-69407281D02*
X206607036Y-69413229D01*
X212861952Y-113611278D02*
X212825158Y-113579539D01*
X175774412Y-67411997D02*
X175774622Y-67412441D01*
X244226202Y-77167818D02*
X244226125Y-77167317D01*
X174666463Y-88122229D02*
X174618237Y-88116281D01*
X175292460Y-87986148D02*
X175250181Y-88010099D01*
X246593798Y-20596579D02*
X246583556Y-20590777D01*
X175162355Y-43633637D02*
X175117019Y-43651125D01*
X174522950Y-43679328D02*
X174476119Y-43666368D01*
X249225906Y-24987987D02*
X249225897Y-24987742D01*
X212519025Y-68214861D02*
X212529671Y-68167450D01*
X236857321Y-25000251D02*
X236856846Y-25000205D01*
X212861952Y-112060721D02*
X212900259Y-112030826D01*
X244716800Y-20024403D02*
X244716311Y-20024355D01*
X207359148Y-24518960D02*
X207333152Y-24560012D01*
X175773701Y-69426344D02*
X175773629Y-69426830D01*
X249130080Y-112811632D02*
X249130175Y-112811151D01*
X206607036Y-69413229D02*
X206558576Y-69416804D01*
X246583556Y-116245222D02*
X246593798Y-116239420D01*
X246168625Y-43052519D02*
X246151137Y-43097855D01*
X174832076Y-93128195D02*
X174880536Y-93131770D01*
X244225080Y-104153213D02*
X244225300Y-104152789D01*
X247003978Y-115993231D02*
X247004386Y-115992958D01*
X212557874Y-68761519D02*
X212542631Y-68715380D01*
X174666463Y-23004770D02*
X174714923Y-23001195D01*
X173940347Y-23439987D02*
X173968326Y-23400259D01*
X244704328Y-116812525D02*
X244704572Y-116812510D01*
X172229891Y-115362620D02*
X172238007Y-115371145D01*
X171609971Y-22232466D02*
X171609842Y-22232675D01*
X212756460Y-69092841D02*
X212724721Y-69056047D01*
X244516466Y-87837033D02*
X244482960Y-87801841D01*
X175773500Y-87136877D02*
X175772304Y-87185576D01*
X248629920Y-22632701D02*
X248629797Y-22632489D01*
X246221729Y-87234036D02*
X246215781Y-87282262D01*
X244882980Y-43651125D02*
X244837644Y-43633637D01*
X245901341Y-87870539D02*
X245864547Y-87902278D01*
X207457368Y-68715380D02*
X207442125Y-68761519D01*
X246215781Y-49553737D02*
X246221729Y-49601963D01*
X170799377Y-112338225D02*
X170867772Y-112799311D01*
X246085648Y-93608039D02*
X246109599Y-93650318D01*
X244225834Y-59733460D02*
X244225969Y-59733002D01*
X244226500Y-77177670D02*
X244226496Y-77177417D01*
X174783377Y-93127000D02*
X174832076Y-93128195D01*
X175774059Y-25006917D02*
X175773916Y-25007387D01*
X173803171Y-113086549D02*
X173792525Y-113039138D01*
X212557874Y-23656480D02*
X212575362Y-23611144D01*
X207498804Y-24058576D02*
X207495229Y-24107036D01*
X244225568Y-77165372D02*
X244225368Y-77164906D01*
X175775378Y-25004296D02*
X175775105Y-25004704D01*
X175773581Y-111826681D02*
X175773629Y-111827169D01*
X245615355Y-88051637D02*
X245570019Y-88069125D01*
X212825158Y-112092460D02*
X212861952Y-112060721D01*
X174135452Y-43484278D02*
X174098658Y-43452539D01*
X244704572Y-20023489D02*
X244704328Y-20023474D01*
X207060012Y-24833152D02*
X207018960Y-24859148D01*
X213392963Y-113831229D02*
X213344737Y-113825281D01*
X175774622Y-111830441D02*
X175774853Y-111830874D01*
X236848817Y-69418002D02*
X236848578Y-69418000D01*
X244516466Y-43419033D02*
X244482960Y-43383841D01*
X244551658Y-93383460D02*
X244588452Y-93351721D01*
X173868553Y-23566721D02*
X173890400Y-23523318D01*
X247752940Y-21456224D02*
X247407559Y-21143189D01*
X244882980Y-48766874D02*
X244929119Y-48751631D01*
X170869824Y-24024848D02*
X170867811Y-24036445D01*
X174714923Y-113834804D02*
X174666463Y-113831229D01*
X173831374Y-49365480D02*
X173848862Y-49320144D01*
X244707539Y-87986148D02*
X244666487Y-87960152D01*
X174310753Y-116616647D02*
X174321930Y-116620339D01*
X173006175Y-115999657D02*
X173405989Y-116239297D01*
X173968326Y-49109259D02*
X173998221Y-49070952D01*
X170872555Y-112823356D02*
X170985816Y-113275518D01*
X245745460Y-23140851D02*
X245786512Y-23166847D01*
X244551658Y-43452539D02*
X244516466Y-43419033D01*
X244393347Y-87687012D02*
X244367351Y-87645960D01*
X236848817Y-25000002D02*
X236848578Y-25000000D01*
X244226497Y-59722796D02*
X244226500Y-59722557D01*
X173784218Y-49553737D02*
X173792525Y-49505861D01*
X175779502Y-25000912D02*
X175779058Y-25001122D01*
X236856397Y-111835788D02*
X236856900Y-111835763D01*
X212724721Y-69056047D02*
X212694826Y-69017740D01*
X247761992Y-21464854D02*
X247761645Y-21464507D01*
X249010839Y-23548430D02*
X249007147Y-23537253D01*
X244482960Y-93452158D02*
X244516466Y-93416966D01*
X171609842Y-114603324D02*
X171609971Y-114603533D01*
X245523880Y-93169631D02*
X245570019Y-93184874D01*
X213111144Y-23075362D02*
X213156480Y-23057874D01*
X244245525Y-42912138D02*
X244237218Y-42864262D01*
X175271274Y-20025877D02*
X174810188Y-20094272D01*
X244225145Y-77164451D02*
X244224899Y-77164008D01*
X248629797Y-22632489D02*
X248390157Y-22232675D01*
X236868714Y-69426639D02*
X236868548Y-69426468D01*
X236860299Y-111834888D02*
X236860752Y-111834667D01*
X245119463Y-43704229D02*
X245071237Y-43698281D01*
X244223701Y-77162377D02*
X244217941Y-77156003D01*
X236862508Y-25002476D02*
X236862133Y-25002181D01*
X246085648Y-87645960D02*
X246059652Y-87687012D01*
X207500000Y-112845877D02*
X207498804Y-112894576D01*
X246993824Y-20836342D02*
X246594010Y-20596702D01*
X175283199Y-20024403D02*
X175271517Y-20025844D01*
X207457368Y-113133380D02*
X207442125Y-113179519D01*
X212501195Y-24058576D02*
X212500000Y-24009877D01*
X247407559Y-115692810D02*
X247752940Y-115379775D01*
X236862037Y-111833871D02*
X236862436Y-111833564D01*
X207138047Y-113611278D02*
X207099740Y-113641173D01*
X244451221Y-43347047D02*
X244421326Y-43308740D01*
X174029960Y-93452158D02*
X174063466Y-93416966D01*
X245570019Y-88069125D02*
X245523880Y-88084368D01*
X245201651Y-20096324D02*
X245190054Y-20094311D01*
X174310753Y-20219352D02*
X174310521Y-20219432D01*
X175782330Y-25000129D02*
X175781844Y-25000201D01*
X212981039Y-111976851D02*
X213023318Y-111952900D01*
X236863187Y-67414892D02*
X236869044Y-67409082D01*
X212504770Y-112728963D02*
X212510718Y-112680737D01*
X245826240Y-87932173D02*
X245786512Y-87960152D01*
X175743828Y-49458450D02*
X175754474Y-49505861D01*
X175517039Y-93452158D02*
X175548778Y-93488952D01*
X244226500Y-87136877D02*
X244226500Y-77177670D01*
X175517039Y-87801841D02*
X175483533Y-87837033D01*
X236862508Y-69420476D02*
X236862133Y-69420181D01*
X245523880Y-43666368D02*
X245477049Y-43679328D01*
X170773503Y-111823972D02*
X170774093Y-111848012D01*
X249130175Y-24024848D02*
X249130080Y-24024367D01*
X244227695Y-49650423D02*
X244231270Y-49601963D01*
X174786382Y-20098998D02*
X174786143Y-20099055D01*
X174254539Y-43568148D02*
X174213487Y-43542152D01*
X248390028Y-114603533D02*
X248390157Y-114603324D01*
X173774695Y-112894576D02*
X173773500Y-112845877D01*
X174976638Y-88107974D02*
X174928762Y-88116281D01*
X207099740Y-69223173D02*
X207060012Y-69251152D01*
X170799344Y-112337982D02*
X170799377Y-112338225D01*
X248850032Y-113737862D02*
X249007067Y-113298978D01*
X175578673Y-49109259D02*
X175606652Y-49148987D01*
X175776659Y-25002811D02*
X175776311Y-25003159D01*
X206750549Y-111865671D02*
X206797380Y-111878631D01*
X174135452Y-23224721D02*
X174173759Y-23194826D01*
X236857321Y-69418251D02*
X236856846Y-69418205D01*
X244256171Y-49458450D02*
X244269131Y-49411619D01*
X246128592Y-116459446D02*
X246139573Y-116455210D01*
X245659778Y-43613946D02*
X245615355Y-43633637D01*
X245826240Y-113641173D02*
X245786512Y-113669152D01*
X175773916Y-69425387D02*
X175773797Y-69425863D01*
X244728482Y-20025844D02*
X244716800Y-20024403D01*
X212724721Y-113474047D02*
X212694826Y-113435740D01*
X249014121Y-23560243D02*
X249010981Y-23548899D01*
X245333536Y-43704229D02*
X245285076Y-43707804D01*
X173998221Y-43347047D02*
X173968326Y-43308740D01*
X245786512Y-23166847D02*
X245826240Y-23194826D01*
X246128362Y-116459532D02*
X246128592Y-116459446D01*
X175578673Y-93527259D02*
X175606652Y-93566987D01*
X246059652Y-93566987D02*
X246085648Y-93608039D01*
X246196828Y-49458450D02*
X246207474Y-49505861D01*
X236862868Y-25002789D02*
X236862508Y-25002476D01*
X244214472Y-20000003D02*
X244214227Y-20000000D01*
X212616900Y-24476681D02*
X212595053Y-24433278D01*
X175774412Y-25006002D02*
X175774224Y-25006455D01*
X175777402Y-111833829D02*
X175777796Y-111834121D01*
X245023361Y-93146025D02*
X245071237Y-93137718D01*
X212861952Y-67642721D02*
X212900259Y-67612826D01*
X174340221Y-88031946D02*
X174296818Y-88010099D01*
X245677600Y-20215518D02*
X245666256Y-20212378D01*
X245429638Y-88107974D02*
X245381762Y-88116281D01*
X207470328Y-68167450D02*
X207480974Y-68214861D01*
X175295427Y-116812510D02*
X175295671Y-116812525D01*
X173890400Y-49232318D02*
X173914351Y-49190039D01*
X207470328Y-24250549D02*
X207457368Y-24297380D01*
X246131446Y-23566721D02*
X246151137Y-23611144D01*
X175773500Y-69430272D02*
X175773500Y-87136877D01*
X212510718Y-68573262D02*
X212504770Y-68525036D01*
X207442125Y-24343519D02*
X207424637Y-24388855D01*
X173831374Y-113179519D02*
X173816131Y-113133380D01*
X249200622Y-24497774D02*
X249132227Y-24036688D01*
X236856900Y-67417763D02*
X236857401Y-67417712D01*
X172592440Y-21143189D02*
X172247059Y-21456224D01*
X244225744Y-77165847D02*
X244225568Y-77165372D01*
X173871637Y-116459532D02*
X174310521Y-116616567D01*
X174254539Y-23140851D02*
X174296818Y-23116900D01*
X247770108Y-115362620D02*
X247770275Y-115362440D01*
X244214227Y-20000000D02*
X175785772Y-20000000D01*
X212501195Y-23941423D02*
X212504770Y-23892963D01*
X170992852Y-23537253D02*
X170989160Y-23548430D01*
X244666487Y-43542152D02*
X244626759Y-43514173D01*
X245202132Y-20096419D02*
X245201651Y-20096324D01*
X173773500Y-23990122D02*
X173773500Y-23990122D01*
X170985816Y-113275518D02*
X170985878Y-113275756D01*
X244226496Y-32759417D02*
X244226279Y-32750828D01*
X173803171Y-23749450D02*
X173816131Y-23702619D01*
X174213487Y-43542152D02*
X174173759Y-43514173D01*
X175606652Y-49148987D02*
X175632648Y-49190039D01*
X171616541Y-22222113D02*
X171616268Y-22222521D01*
X207457368Y-24297380D02*
X207442125Y-24343519D01*
X174570361Y-48728025D02*
X174618237Y-48719718D01*
X245570019Y-43651125D02*
X245523880Y-43666368D01*
X207424637Y-68029144D02*
X207442125Y-68074480D01*
X206843519Y-23057874D02*
X206888855Y-23075362D01*
X174618237Y-43698281D02*
X174570361Y-43689974D01*
X244269131Y-87424380D02*
X244256171Y-87377549D01*
X236856846Y-69418205D02*
X236856370Y-69418182D01*
X171364046Y-114192623D02*
X171364277Y-114193056D01*
X246131446Y-87560278D02*
X246109599Y-87603681D01*
X175785772Y-111836000D02*
X206509877Y-111836000D01*
X246196828Y-87377549D02*
X246183868Y-87424380D01*
X175271517Y-20025844D02*
X175271274Y-20025877D01*
X171916526Y-21819124D02*
X171908838Y-21828036D01*
X236856900Y-111835763D02*
X236857401Y-111835712D01*
X170867811Y-112799554D02*
X170869824Y-112811151D01*
X212500000Y-68408122D02*
X212501195Y-68359423D01*
X172592624Y-115692973D02*
X172601536Y-115700661D01*
X213490122Y-113836000D02*
X213441423Y-113834804D01*
X172985990Y-115986181D02*
X172995613Y-115992958D01*
X174666463Y-93131770D02*
X174714923Y-93128195D01*
X175548778Y-49070952D02*
X175578673Y-49109259D01*
X170985816Y-23560481D02*
X170872555Y-24012643D01*
X245615355Y-43633637D02*
X245570019Y-43651125D01*
X175785527Y-25000003D02*
X175783309Y-25000057D01*
X170796974Y-24522171D02*
X170774102Y-24987742D01*
X173848862Y-23611144D02*
X173868553Y-23566721D01*
X213156480Y-23057874D02*
X213202619Y-23042631D01*
X207442125Y-113179519D02*
X207424637Y-113224855D01*
X171154477Y-113749527D02*
X171159247Y-113760288D01*
X246001778Y-93488952D02*
X246031673Y-93527259D01*
X245936533Y-87837033D02*
X245901341Y-87870539D01*
X173848862Y-93738144D02*
X173868553Y-93693721D01*
X244716311Y-116811644D02*
X244716800Y-116811596D01*
X175777022Y-67415517D02*
X175777402Y-67415829D01*
X175774224Y-111829544D02*
X175774412Y-111829997D01*
X212900259Y-69223173D02*
X212861952Y-69193278D01*
X175780887Y-111835583D02*
X175781363Y-111835702D01*
X170797903Y-112326300D02*
X170799344Y-112337982D01*
X173968326Y-93527259D02*
X173998221Y-93488952D01*
X207243539Y-113510841D02*
X207210033Y-113546033D01*
X247761992Y-115371145D02*
X247770108Y-115362620D01*
X245333536Y-113831229D02*
X245285076Y-113834804D01*
X207495229Y-68525036D02*
X207489281Y-68573262D01*
X175775105Y-25004704D02*
X175774853Y-25005125D01*
X244218398Y-104160946D02*
X244223694Y-104155151D01*
X245901341Y-48965460D02*
X245936533Y-48998966D01*
X213023318Y-69301099D02*
X212981039Y-69277148D01*
X173774695Y-23941423D02*
X173778270Y-23892963D01*
X245689246Y-20219352D02*
X245678069Y-20215660D01*
X207470328Y-68668549D02*
X207457368Y-68715380D01*
X171901137Y-114998109D02*
X171901285Y-114998304D01*
X236868548Y-25008468D02*
X236863212Y-25003118D01*
X174476119Y-43666368D02*
X174429980Y-43651125D01*
X173831374Y-87470519D02*
X173816131Y-87424380D01*
X213066721Y-24904946D02*
X213023318Y-24883099D01*
X206607036Y-67422770D02*
X206655262Y-67428718D01*
X213296861Y-67437025D02*
X213344737Y-67428718D01*
X249225906Y-111848012D02*
X249226496Y-111823972D01*
X213490122Y-23000000D02*
X245236377Y-23000000D01*
X236859836Y-111835085D02*
X236860299Y-111834888D01*
X171364277Y-114193056D02*
X171370079Y-114203298D01*
X175774224Y-25006455D02*
X175774059Y-25006917D01*
X236869044Y-67409082D02*
X236869221Y-67408902D01*
X213249450Y-111865671D02*
X213296861Y-111855025D01*
X246085648Y-23481039D02*
X246109599Y-23523318D01*
X236858261Y-69418409D02*
X236857793Y-69418319D01*
X212542631Y-68715380D02*
X212529671Y-68668549D01*
X174173759Y-87932173D02*
X174135452Y-87902278D01*
X244482960Y-87801841D02*
X244451221Y-87765047D01*
X170774102Y-24987742D02*
X170774093Y-24987987D01*
X175782330Y-69418129D02*
X175781844Y-69418201D01*
X170799377Y-24497774D02*
X170799344Y-24498017D01*
X244516466Y-48998966D02*
X244551658Y-48965460D01*
X170773503Y-25012027D02*
X170773500Y-25012272D01*
X175776659Y-67415188D02*
X175777022Y-67415517D01*
X245023361Y-88107974D02*
X244975950Y-88097328D01*
X175373240Y-48903826D02*
X175411547Y-48933721D01*
X207480974Y-68214861D02*
X207489281Y-68262737D01*
X244393347Y-43269012D02*
X244367351Y-43227960D01*
X174213487Y-113669152D02*
X174173759Y-113641173D01*
X207174841Y-69161539D02*
X207138047Y-69193278D01*
X212510718Y-68262737D02*
X212519025Y-68214861D01*
X173427610Y-116250853D02*
X173848988Y-116450150D01*
X213249450Y-23029671D02*
X213296861Y-23019025D01*
X236862133Y-69420181D02*
X236861745Y-69419904D01*
X244226125Y-77167317D02*
X244226023Y-77166821D01*
X174570361Y-88107974D02*
X174522950Y-88097328D01*
X175206778Y-88031946D02*
X175162355Y-88051637D01*
X246196828Y-42959549D02*
X246183868Y-43006380D01*
X236857900Y-111835636D02*
X236858393Y-111835535D01*
X212724721Y-23361952D02*
X212756460Y-23325158D01*
X174763622Y-113836000D02*
X174714923Y-113834804D01*
X249132188Y-24036445D02*
X249130175Y-24024848D01*
X207333152Y-113396012D02*
X207305173Y-113435740D01*
X247770275Y-115362440D02*
X248083310Y-115017059D01*
X212939987Y-23166847D02*
X212981039Y-23140851D01*
X207383099Y-24476681D02*
X207359148Y-24518960D01*
X207305173Y-112236259D02*
X207333152Y-112275987D01*
X236859632Y-69418812D02*
X236859182Y-69418656D01*
X244224031Y-32744761D02*
X244223701Y-32744377D01*
X245477049Y-113806328D02*
X245429638Y-113816974D01*
X244588452Y-48933721D02*
X244626759Y-48903826D01*
X212724721Y-24638047D02*
X212694826Y-24599740D01*
X245381762Y-23010718D02*
X245429638Y-23019025D01*
X213441423Y-111837195D02*
X213490122Y-111836000D01*
X213111144Y-69342637D02*
X213066721Y-69322946D01*
X244301862Y-43097855D02*
X244284374Y-43052519D01*
X244343400Y-93650318D02*
X244367351Y-93608039D01*
X173848862Y-43097855D02*
X173831374Y-43052519D01*
X173868553Y-49275721D02*
X173890400Y-49232318D01*
X170796989Y-112314072D02*
X170797855Y-112325811D01*
X213202619Y-111878631D02*
X213249450Y-111865671D01*
X245745460Y-87986148D02*
X245703181Y-88010099D01*
X244929119Y-43666368D02*
X244882980Y-43651125D01*
X174928762Y-48719718D02*
X174976638Y-48728025D01*
X244224008Y-104154791D02*
X244224304Y-104154416D01*
X245864547Y-93351721D02*
X245901341Y-93383460D01*
X245826240Y-23194826D02*
X245864547Y-23224721D01*
X206933278Y-24904946D02*
X206888855Y-24924637D01*
X174522950Y-88097328D02*
X174476119Y-88084368D01*
X246001778Y-87765047D02*
X245970039Y-87801841D01*
X175777796Y-69419878D02*
X175777402Y-69420170D01*
X175024049Y-93156671D02*
X175070880Y-93169631D01*
X236858724Y-25000522D02*
X236858261Y-25000409D01*
X173406201Y-20596579D02*
X173405989Y-20596702D01*
X246207474Y-23796861D02*
X246215781Y-23844737D01*
X175730868Y-43006380D02*
X175715625Y-43052519D01*
X175778625Y-25001353D02*
X175778204Y-25001605D01*
X248390157Y-114603324D02*
X248629797Y-114203510D01*
X245901341Y-23256460D02*
X245936533Y-23289966D01*
X175781363Y-67417702D02*
X175781844Y-67417798D01*
X173778270Y-112943036D02*
X173774695Y-112894576D01*
X172238354Y-21464507D02*
X172238007Y-21464854D01*
X212500000Y-23990122D02*
X212501195Y-23941423D01*
X244666487Y-48875847D02*
X244707539Y-48849851D01*
X175775982Y-111832477D02*
X175776311Y-111832840D01*
X212825158Y-67674460D02*
X212861952Y-67642721D01*
X175606652Y-87687012D02*
X175578673Y-87726740D01*
X175773916Y-111828612D02*
X175774059Y-111829082D01*
X207495229Y-68310963D02*
X207498804Y-68359423D01*
X248376681Y-114623509D02*
X248383458Y-114613886D01*
X175777796Y-111834121D02*
X175778204Y-111834394D01*
X244451221Y-87765047D02*
X244421326Y-87726740D01*
X212557874Y-112492480D02*
X212575362Y-112447144D01*
X173816131Y-87424380D02*
X173803171Y-87377549D01*
X206607036Y-113831229D02*
X206558576Y-113834804D01*
X212981039Y-23140851D02*
X213023318Y-23116900D01*
X206933278Y-69322946D02*
X206888855Y-69342637D01*
X175715625Y-49365480D02*
X175730868Y-49411619D01*
X175780417Y-25000559D02*
X175779955Y-25000724D01*
X175781363Y-69418297D02*
X175780887Y-69418416D01*
X236856397Y-67417788D02*
X236856900Y-67417763D01*
X236858393Y-111835535D02*
X236858881Y-111835410D01*
X175678446Y-93693721D02*
X175698137Y-93738144D01*
X174797867Y-20096419D02*
X174786382Y-20098998D01*
X245285076Y-93128195D02*
X245333536Y-93131770D01*
X206509877Y-69418000D02*
X175785772Y-69418000D01*
X207442125Y-112492480D02*
X207457368Y-112538619D01*
X175781844Y-111835798D02*
X175782330Y-111835870D01*
X212501195Y-68359423D02*
X212504770Y-68310963D01*
X244231270Y-49601963D02*
X244237218Y-49553737D01*
X171908838Y-21828036D02*
X171908527Y-21828416D01*
X175773503Y-25012027D02*
X175773500Y-25012272D01*
X212666847Y-24560012D02*
X212640851Y-24518960D01*
X171154477Y-23086472D02*
X171154289Y-23086926D01*
X247761645Y-115371492D02*
X247761992Y-115371145D01*
X175762781Y-49553737D02*
X175768729Y-49601963D01*
X212529671Y-113086549D02*
X212519025Y-113039138D01*
X206703138Y-67437025D02*
X206750549Y-67447671D01*
X246183868Y-113133380D02*
X246168625Y-113179519D01*
X246207474Y-113039138D02*
X246196828Y-113086549D01*
X173849211Y-116450252D02*
X173859972Y-116455022D01*
M02*
