%TF.GenerationSoftware,KiCad,Pcbnew,7.0.1*%
%TF.CreationDate,2023-05-14T01:33:17+09:00*%
%TF.ProjectId,___,62d8512e-6b69-4636-9164-5f7063625858,rev?*%
%TF.SameCoordinates,Original*%
%TF.FileFunction,Soldermask,Bot*%
%TF.FilePolarity,Negative*%
%FSLAX46Y46*%
G04 Gerber Fmt 4.6, Leading zero omitted, Abs format (unit mm)*
G04 Created by KiCad (PCBNEW 7.0.1) date 2023-05-14 01:33:17*
%MOMM*%
%LPD*%
G01*
G04 APERTURE LIST*
%ADD10R,1.700000X1.700000*%
%ADD11O,1.700000X1.700000*%
%ADD12C,0.500000*%
%ADD13C,1.600000*%
%ADD14O,1.600000X1.600000*%
%ADD15R,1.150000X1.150000*%
%ADD16C,1.150000*%
%ADD17R,1.200000X1.200000*%
%ADD18C,1.200000*%
%ADD19C,0.600000*%
%ADD20C,0.800000*%
%ADD21R,1.400000X2.524000*%
%ADD22O,1.524000X2.524000*%
%ADD23O,1.400000X2.524000*%
G04 APERTURE END LIST*
D10*
%TO.C,J2*%
X182330500Y-95565000D03*
D11*
X182330500Y-98105000D03*
X182330500Y-100645000D03*
X182330500Y-103185000D03*
X182330500Y-105725000D03*
X182330500Y-108265000D03*
X179790500Y-95565000D03*
X179790500Y-98105000D03*
X179790500Y-100645000D03*
X179790500Y-103185000D03*
X179790500Y-105725000D03*
X179790500Y-108265000D03*
%TD*%
D10*
%TO.C,J1*%
X182392500Y-72705000D03*
D11*
X182392500Y-75245000D03*
X182392500Y-77785000D03*
X182392500Y-80325000D03*
X182392500Y-82865000D03*
X182392500Y-85405000D03*
X179852500Y-72705000D03*
X179852500Y-75245000D03*
X179852500Y-77785000D03*
X179852500Y-80325000D03*
X179852500Y-82865000D03*
X179852500Y-85405000D03*
%TD*%
D10*
%TO.C,J2*%
X182454500Y-51115000D03*
D11*
X182454500Y-53655000D03*
X182454500Y-56195000D03*
X182454500Y-58735000D03*
X182454500Y-61275000D03*
X182454500Y-63815000D03*
X179914500Y-51115000D03*
X179914500Y-53655000D03*
X179914500Y-56195000D03*
X179914500Y-58735000D03*
X179914500Y-61275000D03*
X179914500Y-63815000D03*
%TD*%
D10*
%TO.C,J1*%
X182457500Y-28255000D03*
D11*
X182457500Y-30795000D03*
X182457500Y-33335000D03*
X182457500Y-35875000D03*
X182457500Y-38415000D03*
X182457500Y-40955000D03*
X179917500Y-28255000D03*
X179917500Y-30795000D03*
X179917500Y-33335000D03*
X179917500Y-35875000D03*
X179917500Y-38415000D03*
X179917500Y-40955000D03*
%TD*%
D12*
%TO.C,REF\u002A\u002A*%
X247726500Y-25000000D03*
%TD*%
%TO.C,REF\u002A\u002A*%
X207375000Y-69168000D03*
%TD*%
%TO.C,REF\u002A\u002A*%
X175523500Y-43584000D03*
%TD*%
%TO.C,REF\u002A\u002A*%
X244226500Y-20666667D03*
%TD*%
D13*
%TO.C,R2*%
X223144500Y-81356000D03*
D14*
X223144500Y-73736000D03*
%TD*%
D13*
%TO.C,R2*%
X223144500Y-36938000D03*
D14*
X223144500Y-29318000D03*
%TD*%
D12*
%TO.C,REF\u002A\u002A*%
X208250000Y-67668000D03*
%TD*%
%TO.C,REF\u002A\u002A*%
X175773500Y-22333334D03*
%TD*%
%TO.C,REF\u002A\u002A*%
X175773500Y-114502666D03*
%TD*%
%TO.C,REF\u002A\u002A*%
X212625000Y-69168000D03*
%TD*%
%TO.C,REF\u002A\u002A*%
X212625000Y-67668000D03*
%TD*%
%TO.C,REF\u002A\u002A*%
X244476500Y-47959000D03*
%TD*%
%TO.C,REF\u002A\u002A*%
X248559833Y-25000000D03*
%TD*%
%TO.C,REF\u002A\u002A*%
X175523500Y-92377000D03*
%TD*%
D13*
%TO.C,R8*%
X228732500Y-106756000D03*
D14*
X228732500Y-99136000D03*
%TD*%
D13*
%TO.C,R8*%
X228732500Y-62338000D03*
D14*
X228732500Y-54718000D03*
%TD*%
D12*
%TO.C,REF\u002A\u002A*%
X175523500Y-88002000D03*
%TD*%
%TO.C,REF\u002A\u002A*%
X175523500Y-93252000D03*
%TD*%
%TO.C,REF\u002A\u002A*%
X246893166Y-111836000D03*
%TD*%
%TO.C,REF\u002A\u002A*%
X175523500Y-89752000D03*
%TD*%
%TO.C,REF\u002A\u002A*%
X244476500Y-92377000D03*
%TD*%
%TO.C,REF\u002A\u002A*%
X210000000Y-112086000D03*
%TD*%
%TO.C,REF\u002A\u002A*%
X175523500Y-44459000D03*
%TD*%
%TO.C,REF\u002A\u002A*%
X244476500Y-48834000D03*
%TD*%
D15*
%TO.C,IC1*%
X188293500Y-72085000D03*
D16*
X188293500Y-74625000D03*
X188293500Y-77165000D03*
X188293500Y-79705000D03*
X188293500Y-82245000D03*
X188293500Y-84785000D03*
X188293500Y-87325000D03*
X188293500Y-89865000D03*
X188293500Y-92405000D03*
X195913500Y-92405000D03*
X195913500Y-89865000D03*
X195913500Y-87325000D03*
X195913500Y-84785000D03*
X195913500Y-82245000D03*
X195913500Y-79705000D03*
X195913500Y-77165000D03*
X195913500Y-74625000D03*
X195913500Y-72085000D03*
%TD*%
D15*
%TO.C,IC1*%
X188293500Y-27667000D03*
D16*
X188293500Y-30207000D03*
X188293500Y-32747000D03*
X188293500Y-35287000D03*
X188293500Y-37827000D03*
X188293500Y-40367000D03*
X188293500Y-42907000D03*
X188293500Y-45447000D03*
X188293500Y-47987000D03*
X195913500Y-47987000D03*
X195913500Y-45447000D03*
X195913500Y-42907000D03*
X195913500Y-40367000D03*
X195913500Y-37827000D03*
X195913500Y-35287000D03*
X195913500Y-32747000D03*
X195913500Y-30207000D03*
X195913500Y-27667000D03*
%TD*%
D12*
%TO.C,REF\u002A\u002A*%
X244226500Y-116169333D03*
%TD*%
%TO.C,REF\u002A\u002A*%
X175523500Y-47084000D03*
%TD*%
%TO.C,REF\u002A\u002A*%
X175523500Y-90627000D03*
%TD*%
%TO.C,REF\u002A\u002A*%
X212625000Y-112086000D03*
%TD*%
%TO.C,REF\u002A\u002A*%
X209125000Y-24750000D03*
%TD*%
%TO.C,REF\u002A\u002A*%
X207375000Y-24750000D03*
%TD*%
%TO.C,REF\u002A\u002A*%
X172273500Y-25000000D03*
%TD*%
%TO.C,REF\u002A\u002A*%
X175523500Y-48834000D03*
%TD*%
%TO.C,REF\u002A\u002A*%
X172273500Y-111836000D03*
%TD*%
%TO.C,REF\u002A\u002A*%
X210000000Y-24750000D03*
%TD*%
D17*
%TO.C,IC2*%
X191902500Y-64714000D03*
D18*
X194442500Y-64714000D03*
X196982500Y-64714000D03*
X199522500Y-64714000D03*
X202062500Y-64714000D03*
X204602500Y-64714000D03*
X207142500Y-64714000D03*
X209682500Y-64714000D03*
X209682500Y-57094000D03*
X207142500Y-57094000D03*
X204602500Y-57094000D03*
X202062500Y-57094000D03*
X199522500Y-57094000D03*
X196982500Y-57094000D03*
X194442500Y-57094000D03*
X191902500Y-57094000D03*
%TD*%
D17*
%TO.C,IC2*%
X191902500Y-109132000D03*
D18*
X194442500Y-109132000D03*
X196982500Y-109132000D03*
X199522500Y-109132000D03*
X202062500Y-109132000D03*
X204602500Y-109132000D03*
X207142500Y-109132000D03*
X209682500Y-109132000D03*
X209682500Y-101512000D03*
X207142500Y-101512000D03*
X204602500Y-101512000D03*
X202062500Y-101512000D03*
X199522500Y-101512000D03*
X196982500Y-101512000D03*
X194442500Y-101512000D03*
X191902500Y-101512000D03*
%TD*%
D12*
%TO.C,REF\u002A\u002A*%
X208250000Y-24750000D03*
%TD*%
%TO.C,REF\u002A\u002A*%
X175523500Y-88877000D03*
%TD*%
%TO.C,REF\u002A\u002A*%
X208250000Y-112086000D03*
%TD*%
D13*
%TO.C,R5*%
X215016500Y-73736000D03*
D14*
X215016500Y-81356000D03*
%TD*%
D13*
%TO.C,R5*%
X215016500Y-29318000D03*
D14*
X215016500Y-36938000D03*
%TD*%
D12*
%TO.C,REF\u002A\u002A*%
X211750000Y-112086000D03*
%TD*%
%TO.C,REF\u002A\u002A*%
X207375000Y-112086000D03*
%TD*%
%TO.C,REF\u002A\u002A*%
X211750000Y-67668000D03*
%TD*%
%TO.C,REF\u002A\u002A*%
X173106834Y-25000000D03*
%TD*%
D13*
%TO.C,R4*%
X226954500Y-81356000D03*
D14*
X226954500Y-73736000D03*
%TD*%
D13*
%TO.C,R4*%
X226954500Y-36938000D03*
D14*
X226954500Y-29318000D03*
%TD*%
D12*
%TO.C,REF\u002A\u002A*%
X175523500Y-46209000D03*
%TD*%
%TO.C,REF\u002A\u002A*%
X175773500Y-116169333D03*
%TD*%
%TO.C,REF\u002A\u002A*%
X175773500Y-20666667D03*
%TD*%
%TO.C,REF\u002A\u002A*%
X209125000Y-69168000D03*
%TD*%
%TO.C,REF\u002A\u002A*%
X209125000Y-112086000D03*
%TD*%
%TO.C,REF\u002A\u002A*%
X207375000Y-67668000D03*
%TD*%
%TO.C,REF\u002A\u002A*%
X244476500Y-43584000D03*
%TD*%
%TO.C,REF\u002A\u002A*%
X244476500Y-90627000D03*
%TD*%
%TO.C,REF\u002A\u002A*%
X244476500Y-44459000D03*
%TD*%
%TO.C,REF\u002A\u002A*%
X212625000Y-24750000D03*
%TD*%
%TO.C,REF\u002A\u002A*%
X244476500Y-45334000D03*
%TD*%
%TO.C,REF\u002A\u002A*%
X244476500Y-88877000D03*
%TD*%
%TO.C,REF\u002A\u002A*%
X244476500Y-91502000D03*
%TD*%
%TO.C,REF\u002A\u002A*%
X210000000Y-67668000D03*
%TD*%
%TO.C,REF\u002A\u002A*%
X210875000Y-69168000D03*
%TD*%
%TO.C,REF\u002A\u002A*%
X171440167Y-111836000D03*
%TD*%
%TO.C,REF\u002A\u002A*%
X244226500Y-22333334D03*
%TD*%
%TO.C,REF\u002A\u002A*%
X210875000Y-67668000D03*
%TD*%
%TO.C,REF\u002A\u002A*%
X210875000Y-24750000D03*
%TD*%
%TO.C,REF\u002A\u002A*%
X175773500Y-21500000D03*
%TD*%
%TO.C,REF\u002A\u002A*%
X244476500Y-47084000D03*
%TD*%
%TO.C,REF\u002A\u002A*%
X244476500Y-88002000D03*
%TD*%
D19*
%TO.C,IC3*%
X210508000Y-95516000D03*
D20*
X220668000Y-95516000D03*
X223208000Y-95516000D03*
X228288000Y-95516000D03*
X230828000Y-95516000D03*
X233368000Y-95516000D03*
D19*
X210508000Y-85356000D03*
D20*
X218128000Y-85356000D03*
D21*
X207968000Y-95516000D03*
D22*
X213048000Y-95516000D03*
X215588000Y-95516000D03*
X218128000Y-95516000D03*
X225748000Y-95516000D03*
X233368000Y-85356000D03*
X230828000Y-85356000D03*
X228288000Y-85356000D03*
X225748000Y-85356000D03*
X223208000Y-85356000D03*
X220668000Y-85356000D03*
X215588000Y-85356000D03*
X213048000Y-85356000D03*
D23*
X207968000Y-85356000D03*
%TD*%
D19*
%TO.C,IC3*%
X210508000Y-51098000D03*
D20*
X220668000Y-51098000D03*
X223208000Y-51098000D03*
X228288000Y-51098000D03*
X230828000Y-51098000D03*
X233368000Y-51098000D03*
D19*
X210508000Y-40938000D03*
D20*
X218128000Y-40938000D03*
D21*
X207968000Y-51098000D03*
D22*
X213048000Y-51098000D03*
X215588000Y-51098000D03*
X218128000Y-51098000D03*
X225748000Y-51098000D03*
X233368000Y-40938000D03*
X230828000Y-40938000D03*
X228288000Y-40938000D03*
X225748000Y-40938000D03*
X223208000Y-40938000D03*
X220668000Y-40938000D03*
X215588000Y-40938000D03*
X213048000Y-40938000D03*
D23*
X207968000Y-40938000D03*
%TD*%
D12*
%TO.C,REF\u002A\u002A*%
X210000000Y-69168000D03*
%TD*%
%TO.C,REF\u002A\u002A*%
X208250000Y-69168000D03*
%TD*%
%TO.C,REF\u002A\u002A*%
X244226500Y-114502666D03*
%TD*%
%TO.C,REF\u002A\u002A*%
X173106834Y-111836000D03*
%TD*%
%TO.C,REF\u002A\u002A*%
X244476500Y-89752000D03*
%TD*%
%TO.C,REF\u002A\u002A*%
X175523500Y-47959000D03*
%TD*%
%TO.C,REF\u002A\u002A*%
X244476500Y-46209000D03*
%TD*%
%TO.C,REF\u002A\u002A*%
X244476500Y-93252000D03*
%TD*%
%TO.C,REF\u002A\u002A*%
X246893166Y-25000000D03*
%TD*%
%TO.C,REF\u002A\u002A*%
X175523500Y-91502000D03*
%TD*%
%TO.C,REF\u002A\u002A*%
X211750000Y-24750000D03*
%TD*%
D13*
%TO.C,R6*%
X219334500Y-29318000D03*
D14*
X219334500Y-36938000D03*
%TD*%
D13*
%TO.C,R6*%
X219334500Y-73736000D03*
D14*
X219334500Y-81356000D03*
%TD*%
D13*
%TO.C,R7*%
X221112500Y-106756000D03*
D14*
X221112500Y-99136000D03*
%TD*%
D13*
%TO.C,R7*%
X221112500Y-62338000D03*
D14*
X221112500Y-54718000D03*
%TD*%
D13*
%TO.C,R1*%
X230510500Y-36938000D03*
D14*
X230510500Y-29318000D03*
%TD*%
D13*
%TO.C,R1*%
X230510500Y-81356000D03*
D14*
X230510500Y-73736000D03*
%TD*%
D12*
%TO.C,REF\u002A\u002A*%
X211750000Y-69168000D03*
%TD*%
%TO.C,REF\u002A\u002A*%
X244226500Y-115336000D03*
%TD*%
%TO.C,REF\u002A\u002A*%
X244226500Y-21500000D03*
%TD*%
%TO.C,REF\u002A\u002A*%
X175773500Y-115336000D03*
%TD*%
%TO.C,REF\u002A\u002A*%
X248559833Y-111836000D03*
%TD*%
%TO.C,REF\u002A\u002A*%
X175523500Y-45334000D03*
%TD*%
%TO.C,REF\u002A\u002A*%
X210875000Y-112086000D03*
%TD*%
%TO.C,REF\u002A\u002A*%
X209125000Y-67668000D03*
%TD*%
%TO.C,REF\u002A\u002A*%
X247726500Y-111836000D03*
%TD*%
%TO.C,REF\u002A\u002A*%
X171440167Y-25000000D03*
%TD*%
D13*
%TO.C,R3*%
X217175500Y-62338000D03*
D14*
X217175500Y-54718000D03*
%TD*%
D13*
%TO.C,R3*%
X217175500Y-106756000D03*
D14*
X217175500Y-99136000D03*
%TD*%
M02*
